<svg width="692" height="540" viewBox="0 0 692 540" fill="none" xmlns="http://www.w3.org/2000/svg">
<g clip-path="url(#clip0_395_467)">
<path fill-rule="evenodd" clip-rule="evenodd" d="M120.592 426.27C114.132 451.494 119.976 479.927 135.577 504.36C155.528 400.474 277.828 444.639 215.03 540C269.391 535.605 298.746 493.638 297.603 441.958C297.076 417.612 297.603 404.385 301.427 393.311C303.212 388.293 305.681 383.546 308.766 379.204C306.163 373.057 304.804 366.455 304.767 359.78V358.506C304.878 350.882 306.679 343.377 310.04 336.533L277.389 304.761L268.336 316.758C259.46 327.315 249.666 337.065 239.068 345.894C232.786 349.822 226.001 352.882 218.897 354.99C175.128 369.976 134.039 374.019 120.592 426.27ZM376.178 333.984L182.818 145.723L156.451 141.064C153.29 140.47 150.381 138.939 148.101 136.67L125.645 114.697C122.612 111.732 120.877 107.686 120.819 103.445C120.761 99.2034 122.386 95.1119 125.338 92.0654L152.452 64.6875C155.451 61.698 159.512 60.0193 163.746 60.0193C167.98 60.0193 172.041 61.698 175.04 64.6875L194.947 84.4189C197.178 86.6041 198.707 89.4036 199.342 92.4609L208.131 124.585L399.249 311.089L418.717 291.489C419.003 291.197 419.345 290.965 419.722 290.806C420.1 290.648 420.505 290.566 420.914 290.566C421.323 290.566 421.728 290.648 422.106 290.806C422.483 290.965 422.825 291.197 423.111 291.489L435.811 304.058C436.35 304.582 436.679 305.285 436.734 306.035C437.262 309.946 437.569 313.11 437.877 315.791C438.536 322.339 438.888 325.635 440.074 326.777C441.261 327.92 444.469 328.096 450.841 328.535C453.565 328.535 456.861 328.975 461.256 329.414C461.972 329.467 462.644 329.779 463.145 330.293L560.792 428.73C568.681 435.153 574.446 443.809 577.331 453.564C580.217 463.319 580.089 473.718 576.964 483.398C574.629 490.624 570.745 497.253 565.582 502.822C560.465 508.39 554.113 512.68 547.037 515.347C530.558 521.455 509.947 518.247 490.479 498.604L397.184 404.297C396.672 403.771 396.348 403.092 396.261 402.363C395.47 397.046 394.986 392.739 394.591 389.18C393.756 382.104 393.316 378.413 391.91 377.051C390.504 375.688 386.373 375.425 378.111 375.161C375.255 375.161 371.915 375.161 368.004 374.766C367.245 374.732 366.524 374.419 365.982 373.887L353.502 361.538C352.922 360.954 352.597 360.164 352.597 359.341C352.597 358.518 352.922 357.728 353.502 357.144L376.222 334.204L376.178 333.984ZM426.891 398.32C426.165 397.601 425.589 396.746 425.196 395.803C424.803 394.86 424.601 393.849 424.601 392.827C424.601 391.806 424.803 390.794 425.196 389.852C425.589 388.909 426.165 388.053 426.891 387.334C428.356 385.877 430.339 385.059 432.406 385.059C434.472 385.059 436.455 385.877 437.921 387.334L522.296 472.852C523.764 474.308 524.594 476.289 524.602 478.358C524.611 480.426 523.797 482.413 522.34 483.882C520.883 485.35 518.902 486.18 516.834 486.188C514.765 486.196 512.778 485.383 511.31 483.926L426.891 398.32ZM450.094 374.854C448.625 373.402 447.793 371.427 447.781 369.363C447.768 367.299 448.577 365.314 450.028 363.845C451.479 362.377 453.454 361.545 455.518 361.532C457.583 361.52 459.568 362.328 461.036 363.779L545.631 449.385C546.358 450.103 546.936 450.958 547.333 451.9C547.73 452.842 547.938 453.853 547.944 454.875C547.95 455.897 547.754 456.911 547.369 457.858C546.983 458.804 546.415 459.666 545.697 460.393C544.978 461.12 544.124 461.699 543.182 462.096C542.239 462.492 541.228 462.7 540.206 462.706C539.184 462.712 538.171 462.517 537.224 462.131C536.277 461.746 535.416 461.177 534.688 460.459L450.094 374.854ZM412.433 243.281L438.536 209.136C469.957 166.465 551.871 191.558 571.954 113.555C578.37 88.5059 572.525 60.1172 557.057 35.6396C537.105 139.526 414.85 95.3613 477.647 0C423.287 4.39453 393.932 46.3623 395.074 98.042C395.602 120.718 401.974 139.219 380.484 167.959L355.304 201.401L401.446 246.357C404.98 244.92 408.666 243.888 412.433 243.281Z" fill="#005669" fill-opacity="0.28"/>
</g>
<path d="M638.982 282.836C630.245 282.836 621.795 281.743 613.632 279.559C605.584 277.49 598.858 274.328 593.455 270.074L604.147 250.759C608.056 253.978 613 256.508 618.978 258.347C625.071 260.302 631.05 261.279 636.913 261.279C646.455 261.279 653.354 259.152 657.607 254.898C661.976 250.644 664.161 244.321 664.161 235.928V221.96L665.885 198.678L665.54 175.225V155.22H691.063V232.479C691.063 249.725 686.58 262.429 677.612 270.591C668.644 278.754 655.768 282.836 638.982 282.836ZM634.844 243.516C626.221 243.516 618.403 241.677 611.39 237.998C604.492 234.204 598.916 228.973 594.662 222.304C590.523 215.521 588.454 207.646 588.454 198.678C588.454 189.596 590.523 181.72 594.662 175.052C598.916 168.269 604.492 163.038 611.39 159.359C618.403 155.68 626.221 153.84 634.844 153.84C642.662 153.84 649.56 155.45 655.538 158.669C661.516 161.773 666.173 166.659 669.507 173.328C672.841 179.881 674.508 188.331 674.508 198.678C674.508 208.911 672.841 217.361 669.507 224.029C666.173 230.582 661.516 235.468 655.538 238.688C649.56 241.907 642.662 243.516 634.844 243.516ZM640.19 221.442C644.903 221.442 649.1 220.522 652.779 218.683C656.458 216.728 659.332 214.027 661.401 210.578C663.471 207.129 664.506 203.162 664.506 198.678C664.506 194.08 663.471 190.113 661.401 186.779C659.332 183.33 656.458 180.686 652.779 178.846C649.1 176.892 644.903 175.914 640.19 175.914C635.476 175.914 631.28 176.892 627.601 178.846C623.922 180.686 620.99 183.33 618.805 186.779C616.736 190.113 615.701 194.08 615.701 198.678C615.701 203.162 616.736 207.129 618.805 210.578C620.99 214.027 623.922 216.728 627.601 218.683C631.28 220.522 635.476 221.442 640.19 221.442Z" fill="#005669"/>
<path d="M531.835 153.84C539.193 153.84 545.746 155.335 551.495 158.324C557.358 161.198 561.957 165.682 565.291 171.776C568.625 177.754 570.292 185.457 570.292 194.884V248H543.39V199.023C543.39 191.55 541.722 186.032 538.388 182.468C535.169 178.904 530.57 177.122 524.592 177.122C520.338 177.122 516.487 178.041 513.038 179.881C509.704 181.605 507.059 184.307 505.105 187.986C503.265 191.665 502.346 196.379 502.346 202.127V248H475.443V155.22H501.138V180.916L496.31 173.155C499.644 166.947 504.415 162.176 510.623 158.842C516.832 155.508 523.902 153.84 531.835 153.84Z" fill="#005669"/>
<path d="M423.572 248V155.22H450.475V248H423.572ZM437.023 142.286C432.08 142.286 428.056 140.849 424.952 137.975C421.847 135.101 420.295 131.536 420.295 127.283C420.295 123.029 421.847 119.465 424.952 116.591C428.056 113.716 432.08 112.279 437.023 112.279C441.967 112.279 445.991 113.659 449.095 116.418C452.199 119.062 453.751 122.511 453.751 126.765C453.751 131.249 452.199 134.986 449.095 137.975C446.106 140.849 442.082 142.286 437.023 142.286Z" fill="#005669"/>
<path d="M361.518 153.84C368.876 153.84 375.372 155.335 381.005 158.324C386.754 161.198 391.238 165.682 394.457 171.776C397.791 177.754 399.458 185.457 399.458 194.884V248H372.555V199.023C372.555 191.55 371.003 186.032 367.899 182.468C364.795 178.904 360.426 177.122 354.792 177.122C350.884 177.122 347.377 178.041 344.273 179.881C341.169 181.605 338.754 184.25 337.03 187.814C335.305 191.378 334.443 195.919 334.443 201.438V248H307.54V199.023C307.54 191.55 305.988 186.032 302.884 182.468C299.895 178.904 295.583 177.122 289.95 177.122C286.041 177.122 282.535 178.041 279.43 179.881C276.326 181.605 273.912 184.25 272.187 187.814C270.463 191.378 269.6 195.919 269.6 201.438V248H242.698V155.22H268.393V180.571L263.565 173.155C266.784 166.832 271.325 162.061 277.188 158.842C283.167 155.508 289.95 153.84 297.538 153.84C306.046 153.84 313.461 156.025 319.784 160.394C326.223 164.648 330.477 171.201 332.546 180.053L323.061 177.467C326.165 170.224 331.109 164.475 337.892 160.221C344.79 155.967 352.666 153.84 361.518 153.84Z" fill="#005669"/>
<path d="M173.842 249.38C163.954 249.38 155.159 247.31 147.456 243.171C139.868 239.032 133.832 233.399 129.349 226.271C124.98 219.028 122.795 210.808 122.795 201.61C122.795 192.298 124.98 184.077 129.349 176.949C133.832 169.706 139.868 164.073 147.456 160.049C155.159 155.91 163.954 153.84 173.842 153.84C183.614 153.84 192.352 155.91 200.055 160.049C207.757 164.073 213.793 169.649 218.162 176.777C222.531 183.905 224.715 192.183 224.715 201.61C224.715 210.808 222.531 219.028 218.162 226.271C213.793 233.399 207.757 239.032 200.055 243.171C192.352 247.31 183.614 249.38 173.842 249.38ZM173.842 227.306C178.325 227.306 182.349 226.271 185.913 224.201C189.477 222.132 192.294 219.2 194.364 215.406C196.433 211.497 197.468 206.899 197.468 201.61C197.468 196.207 196.433 191.608 194.364 187.814C192.294 184.02 189.477 181.088 185.913 179.019C182.349 176.949 178.325 175.914 173.842 175.914C169.358 175.914 165.334 176.949 161.77 179.019C158.206 181.088 155.332 184.02 153.147 187.814C151.078 191.608 150.043 196.207 150.043 201.61C150.043 206.899 151.078 211.497 153.147 215.406C155.332 219.2 158.206 222.132 161.77 224.201C165.334 226.271 169.358 227.306 173.842 227.306Z" fill="#005669"/>
<path d="M66.0854 250.069C56.7729 250.069 48.0928 248.575 40.045 245.586C32.1121 242.482 25.214 238.113 19.3506 232.479C13.4871 226.846 8.88838 220.235 5.55428 212.647C2.33515 205.059 0.725586 196.724 0.725586 187.641C0.725586 178.559 2.33515 170.224 5.55428 162.636C8.88838 155.048 13.4871 148.437 19.3506 142.803C25.3289 137.17 32.2846 132.859 40.2174 129.869C48.1503 126.765 56.8304 125.213 66.2579 125.213C76.7201 125.213 86.1475 127.053 94.5402 130.732C103.048 134.296 110.176 139.584 115.924 146.597L97.9893 163.153C93.8504 158.439 89.2517 154.933 84.193 152.633C79.1344 150.219 73.6159 149.012 67.6375 149.012C62.004 149.012 56.8304 149.932 52.1167 151.771C47.403 153.611 43.3216 156.255 39.8725 159.704C36.4234 163.153 33.7217 167.234 31.7672 171.948C29.9277 176.662 29.0079 181.893 29.0079 187.641C29.0079 193.39 29.9277 198.621 31.7672 203.335C33.7217 208.048 36.4234 212.13 39.8725 215.579C43.3216 219.028 47.403 221.672 52.1167 223.512C56.8304 225.351 62.004 226.271 67.6375 226.271C73.6159 226.271 79.1344 225.121 84.193 222.822C89.2517 220.407 93.8504 216.786 97.9893 211.957L115.924 228.513C110.176 235.526 103.048 240.872 94.5402 244.551C86.1475 248.23 76.6626 250.069 66.0854 250.069Z" fill="#005669"/>
<path d="M530.712 321.39C538.07 321.39 544.623 322.884 550.371 325.873C556.235 328.748 560.833 333.231 564.168 339.325C567.502 345.303 569.169 353.006 569.169 362.433V415.549H542.266V366.572C542.266 359.099 540.599 353.581 537.265 350.017C534.046 346.453 529.447 344.671 523.469 344.671C519.215 344.671 515.363 345.591 511.914 347.43C508.58 349.155 505.936 351.856 503.981 355.535C502.142 359.214 501.222 363.928 501.222 369.677V415.549H474.319V322.769H500.015V348.465L495.186 340.704C498.52 334.496 503.291 329.725 509.5 326.391C515.708 323.057 522.779 321.39 530.712 321.39Z" fill="white"/>
<path d="M405.463 416.929C395.576 416.929 386.781 414.859 379.078 410.72C371.49 406.582 365.454 400.948 360.97 393.82C356.601 386.577 354.417 378.357 354.417 369.159C354.417 359.847 356.601 351.626 360.97 344.498C365.454 337.255 371.49 331.622 379.078 327.598C386.781 323.459 395.576 321.39 405.463 321.39C415.236 321.39 423.973 323.459 431.676 327.598C439.379 331.622 445.415 337.198 449.784 344.326C454.153 351.454 456.337 359.732 456.337 369.159C456.337 378.357 454.153 386.577 449.784 393.82C445.415 400.948 439.379 406.582 431.676 410.72C423.973 414.859 415.236 416.929 405.463 416.929ZM405.463 394.855C409.947 394.855 413.971 393.82 417.535 391.751C421.099 389.681 423.916 386.749 425.985 382.955C428.055 379.047 429.089 374.448 429.089 369.159C429.089 363.756 428.055 359.157 425.985 355.363C423.916 351.569 421.099 348.637 417.535 346.568C413.971 344.498 409.947 343.464 405.463 343.464C400.979 343.464 396.955 344.498 393.391 346.568C389.827 348.637 386.953 351.569 384.769 355.363C382.699 359.157 381.665 363.756 381.665 369.159C381.665 374.448 382.699 379.047 384.769 382.955C386.953 386.749 389.827 389.681 393.391 391.751C396.955 393.82 400.979 394.855 405.463 394.855Z" fill="white"/>
<path d="M292.459 416.929C282.572 416.929 273.777 414.859 266.074 410.72C258.486 406.582 252.45 400.948 247.966 393.82C243.597 386.577 241.413 378.357 241.413 369.159C241.413 359.847 243.597 351.626 247.966 344.498C252.45 337.255 258.486 331.622 266.074 327.598C273.777 323.459 282.572 321.39 292.459 321.39C302.232 321.39 310.969 323.459 318.672 327.598C326.375 331.622 332.411 337.198 336.78 344.326C341.149 351.454 343.333 359.732 343.333 369.159C343.333 378.357 341.149 386.577 336.78 393.82C332.411 400.948 326.375 406.582 318.672 410.72C310.969 414.859 302.232 416.929 292.459 416.929ZM292.459 394.855C296.943 394.855 300.967 393.82 304.531 391.751C308.095 389.681 310.912 386.749 312.981 382.955C315.051 379.047 316.085 374.448 316.085 369.159C316.085 363.756 315.051 359.157 312.981 355.363C310.912 351.569 308.095 348.637 304.531 346.568C300.967 344.498 296.943 343.464 292.459 343.464C287.976 343.464 283.952 344.498 280.388 346.568C276.824 348.637 273.949 351.569 271.765 355.363C269.695 359.157 268.661 363.756 268.661 369.159C268.661 374.448 269.695 379.047 271.765 382.955C273.949 386.749 276.824 389.681 280.388 391.751C283.952 393.82 287.976 394.855 292.459 394.855Z" fill="white"/>
<path d="M179.9 417.619C170.242 417.619 160.987 416.354 152.135 413.825C143.282 411.18 136.154 407.789 130.75 403.65L140.235 382.611C145.409 386.29 151.502 389.336 158.515 391.751C165.644 394.05 172.829 395.2 180.072 395.2C185.591 395.2 190.017 394.682 193.351 393.648C196.8 392.498 199.329 390.946 200.939 388.991C202.549 387.037 203.353 384.795 203.353 382.266C203.353 379.047 202.089 376.517 199.559 374.678C197.03 372.723 193.696 371.171 189.557 370.021C185.418 368.757 180.819 367.607 175.761 366.572C170.817 365.423 165.816 364.043 160.757 362.434C155.814 360.824 151.272 358.754 147.134 356.225C142.995 353.696 139.603 350.362 136.959 346.223C134.429 342.084 133.165 336.795 133.165 330.357C133.165 323.459 135.004 317.193 138.683 311.56C142.477 305.811 148.111 301.27 155.584 297.936C163.172 294.487 172.657 292.762 184.039 292.762C191.627 292.762 199.1 293.682 206.458 295.522C213.816 297.246 220.311 299.89 225.945 303.454L217.322 324.666C211.689 321.447 206.055 319.09 200.422 317.596C194.788 315.986 189.27 315.181 183.866 315.181C178.463 315.181 174.036 315.814 170.587 317.078C167.138 318.343 164.666 320.01 163.172 322.079C161.677 324.034 160.93 326.333 160.93 328.978C160.93 332.082 162.194 334.611 164.724 336.565C167.253 338.405 170.587 339.9 174.726 341.049C178.865 342.199 183.406 343.349 188.35 344.498C193.409 345.648 198.41 346.97 203.353 348.465C208.412 349.959 213.011 351.971 217.15 354.501C221.289 357.03 224.623 360.364 227.152 364.503C229.796 368.642 231.118 373.873 231.118 380.196C231.118 386.979 229.221 393.188 225.427 398.821C221.633 404.455 215.942 408.996 208.355 412.445C200.882 415.894 191.397 417.619 179.9 417.619Z" fill="white"/>
<path fill-rule="evenodd" clip-rule="evenodd" d="M550.371 325.873C544.623 322.884 538.07 321.39 530.712 321.39C522.779 321.39 515.708 323.057 509.5 326.391C507.89 327.255 506.378 328.216 504.962 329.273C503.156 330.622 501.507 332.127 500.015 333.79V322.769H474.319V415.549H501.222V369.677C501.222 366.509 501.501 363.655 502.06 361.115C502.515 359.047 503.156 357.187 503.981 355.535C504.291 354.953 504.617 354.395 504.962 353.861C506.79 351.025 509.108 348.882 511.914 347.43C515.363 345.591 519.215 344.671 523.468 344.671C529.447 344.671 534.046 346.453 537.265 350.017C540.599 353.581 542.266 359.099 542.266 366.572V415.549H569.169V362.434C569.169 353.006 567.502 345.303 564.167 339.325C560.833 333.231 556.235 328.748 550.371 325.873ZM552.601 321.458C546.07 318.073 538.734 316.443 530.712 316.443C522.066 316.443 514.174 318.266 507.159 322.033C506.409 322.436 505.676 322.858 504.962 323.299V317.823H469.373V420.496H506.169V369.677C506.169 364.443 507.008 360.572 508.379 357.801C509.911 354.939 511.858 353.029 514.187 351.824L514.214 351.81L514.242 351.795C516.913 350.371 519.953 349.618 523.468 349.618C528.416 349.618 531.534 351.052 533.594 353.333L533.623 353.365L533.652 353.396C535.771 355.661 537.319 359.707 537.319 366.572V420.496H574.115V362.434C574.115 352.475 572.362 343.871 568.498 336.934C564.717 330.031 559.411 324.809 552.601 321.458Z" fill="#005566"/>
<path fill-rule="evenodd" clip-rule="evenodd" d="M379.078 410.721C386.781 414.859 395.576 416.929 405.463 416.929C415.235 416.929 423.973 414.859 431.676 410.721C439.379 406.582 445.415 400.948 449.784 393.82C454.152 386.577 456.337 378.357 456.337 369.159C456.337 359.732 454.152 351.454 449.784 344.326C445.415 337.198 439.379 331.622 431.676 327.598C423.973 323.459 415.235 321.39 405.463 321.39C395.576 321.39 386.781 323.459 379.078 327.598C371.49 331.622 365.454 337.255 360.97 344.498C356.601 351.626 354.417 359.847 354.417 369.159C354.417 378.357 356.601 386.577 360.97 393.82C365.454 400.948 371.49 406.582 379.078 410.721ZM376.749 323.234C385.258 318.664 394.872 316.443 405.463 316.443C415.944 316.443 425.494 318.667 433.991 323.227C442.443 327.647 449.15 333.827 454.001 341.741C458.906 349.743 461.284 358.939 461.284 369.159C461.284 379.176 458.894 388.294 454.019 396.375L454.01 396.39L454.001 396.405C449.153 404.315 442.455 410.545 434.017 415.078C425.513 419.647 415.955 421.876 405.463 421.876C394.867 421.876 385.249 419.652 376.736 415.078L376.723 415.071L376.709 415.063C368.399 410.531 361.729 404.317 356.783 396.454L356.758 396.415L356.734 396.375C351.86 388.294 349.47 379.176 349.47 369.159C349.47 359.041 351.854 349.906 356.753 341.913L356.758 341.904L356.764 341.895C361.711 333.903 368.398 327.665 376.749 323.234ZM417.535 391.751C413.971 393.82 409.947 394.855 405.463 394.855C400.979 394.855 396.955 393.82 393.391 391.751C389.827 389.681 386.953 386.749 384.769 382.956C382.699 379.047 381.665 374.448 381.665 369.159C381.665 363.756 382.699 359.157 384.769 355.363C386.953 351.569 389.827 348.637 393.391 346.568C396.955 344.498 400.979 343.464 405.463 343.464C409.947 343.464 413.971 344.498 417.535 346.568C421.099 348.637 423.916 351.569 425.985 355.363C428.055 359.157 429.089 363.756 429.089 369.159C429.089 374.448 428.055 379.047 425.985 382.956C423.916 386.749 421.099 389.681 417.535 391.751ZM389.085 357.78C390.861 354.714 393.122 352.444 395.875 350.846C398.619 349.252 401.773 348.41 405.463 348.41C409.154 348.41 412.307 349.252 415.051 350.846C417.794 352.438 419.984 354.692 421.642 357.732C423.228 360.639 424.143 364.38 424.143 369.159C424.143 373.784 423.243 377.55 421.628 380.614C419.971 383.64 417.785 385.885 415.051 387.473C412.307 389.066 409.154 389.908 405.463 389.908C401.773 389.908 398.619 389.066 395.875 387.473C393.13 385.879 390.874 383.617 389.1 380.564C387.501 377.509 386.611 373.76 386.611 369.159C386.611 364.406 387.515 360.681 389.085 357.78Z" fill="#005566"/>
<path fill-rule="evenodd" clip-rule="evenodd" d="M266.074 410.721C273.777 414.859 282.572 416.929 292.459 416.929C302.232 416.929 310.969 414.859 318.672 410.721C326.375 406.582 332.411 400.948 336.78 393.82C341.149 386.577 343.333 378.357 343.333 369.159C343.333 359.732 341.149 351.454 336.78 344.326C332.411 337.198 326.375 331.622 318.672 327.598C310.969 323.459 302.232 321.39 292.459 321.39C282.572 321.39 273.777 323.459 266.074 327.598C258.486 331.622 252.45 337.255 247.966 344.498C243.597 351.626 241.413 359.847 241.413 369.159C241.413 378.357 243.597 386.577 247.966 393.82C252.45 400.948 258.486 406.582 266.074 410.721ZM320.988 323.227C312.49 318.667 302.94 316.443 292.459 316.443C281.868 316.443 272.254 318.664 263.745 323.234C255.394 327.665 248.708 333.903 243.76 341.895L243.754 341.904L243.749 341.913C238.85 349.906 236.466 359.041 236.466 369.159C236.466 379.176 238.856 388.294 243.73 396.375L243.754 396.415L243.779 396.454C248.725 404.317 255.395 410.531 263.705 415.063L263.719 415.071L263.733 415.078C272.245 419.652 281.863 421.876 292.459 421.876C302.951 421.876 312.509 419.647 321.014 415.078C329.451 410.545 336.15 404.315 340.997 396.405L341.007 396.39L341.016 396.375C345.89 388.294 348.28 379.176 348.28 369.159C348.28 358.939 345.902 349.743 340.997 341.741C336.147 333.827 329.439 327.647 320.988 323.227ZM304.531 391.751C300.967 393.82 296.943 394.855 292.459 394.855C287.975 394.855 283.952 393.82 280.387 391.751C276.823 389.681 273.949 386.749 271.765 382.956C269.695 379.047 268.661 374.448 268.661 369.159C268.661 363.756 269.695 359.157 271.765 355.363C273.949 351.569 276.823 348.637 280.387 346.568C283.952 344.498 287.975 343.464 292.459 343.464C296.943 343.464 300.967 344.498 304.531 346.568C308.095 348.637 310.912 351.569 312.981 355.363C315.051 359.157 316.085 363.756 316.085 369.159C316.085 374.448 315.051 379.047 312.981 382.956C310.912 386.749 308.095 389.681 304.531 391.751ZM276.081 357.781C277.856 354.715 280.118 352.444 282.871 350.846C285.615 349.252 288.769 348.41 292.459 348.41C296.15 348.41 299.303 349.252 302.047 350.846C304.79 352.438 306.98 354.692 308.638 357.732C310.224 360.639 311.139 364.38 311.139 369.159C311.139 373.784 310.239 377.55 308.624 380.614C306.967 383.64 304.782 385.885 302.047 387.473C299.303 389.066 296.15 389.908 292.459 389.908C288.769 389.908 285.615 389.066 282.871 387.473C280.126 385.879 277.87 383.617 276.096 380.564C274.497 377.509 273.607 373.759 273.607 369.159C273.607 364.407 274.511 360.682 276.081 357.781Z" fill="#005566"/>
<path fill-rule="evenodd" clip-rule="evenodd" d="M150.747 418.573L150.719 418.564C141.483 415.806 133.76 412.186 127.742 407.577L124.629 405.192L138.199 375.092L143.102 378.579C147.821 381.935 153.461 384.775 160.08 387.058C166.719 389.194 173.378 390.253 180.072 390.253C185.315 390.253 189.172 389.757 191.836 388.938C194.736 387.965 196.311 386.83 197.12 385.847C198.001 384.777 198.407 383.646 198.407 382.266C198.407 380.574 197.855 379.555 196.65 378.678L196.592 378.636L196.535 378.592C194.653 377.138 191.955 375.822 188.233 374.788L188.172 374.771L188.111 374.752C184.147 373.541 179.703 372.428 174.769 371.419L174.705 371.406L174.64 371.391C169.563 370.21 164.435 368.795 159.257 367.147L159.242 367.142L159.226 367.137C153.941 365.417 149.045 363.191 144.554 360.446C139.766 357.52 135.834 353.65 132.79 348.886L132.764 348.845L132.738 348.802C129.602 343.672 128.218 337.416 128.218 330.357C128.218 322.524 130.323 315.314 134.541 308.855L134.548 308.845L134.555 308.835C138.956 302.167 145.39 297.07 153.552 293.426C161.97 289.603 172.201 287.816 184.038 287.816C192.019 287.816 199.883 288.782 207.622 290.714C215.432 292.548 222.441 295.384 228.589 299.274L232.085 301.486L219.776 331.766L214.868 328.961C209.565 325.931 204.328 323.75 199.153 322.377L199.108 322.365L199.063 322.352C193.834 320.858 188.773 320.128 183.866 320.128C178.795 320.128 175.001 320.729 172.29 321.723C169.379 322.79 167.897 323.986 167.182 324.976L167.142 325.031L167.101 325.084C166.317 326.11 165.876 327.333 165.876 328.978C165.876 330.477 166.376 331.571 167.694 332.609C169.6 333.98 172.323 335.248 176.05 336.283C180.107 337.41 184.576 338.542 189.459 339.678C194.62 340.851 199.724 342.2 204.77 343.725C210.201 345.331 215.196 347.509 219.729 350.28C224.524 353.21 228.412 357.092 231.347 361.882C234.608 367.007 236.065 373.216 236.065 380.196C236.065 387.965 233.873 395.136 229.53 401.584C225.123 408.129 218.641 413.201 210.415 416.942C202.09 420.782 191.841 422.565 179.9 422.565C169.805 422.565 160.091 421.243 150.776 418.581L150.747 418.573ZM227.152 364.503C224.622 360.364 221.288 357.03 217.15 354.501C213.011 351.971 208.412 349.959 203.353 348.465C198.41 346.97 193.408 345.648 188.35 344.498C183.406 343.349 178.865 342.199 174.726 341.049C170.587 339.9 167.253 338.405 164.724 336.566C162.194 334.611 160.93 332.082 160.93 328.978C160.93 326.333 161.677 324.034 163.172 322.079C164.666 320.01 167.138 318.343 170.587 317.078C174.036 315.814 178.462 315.181 183.866 315.181C189.27 315.181 194.788 315.986 200.422 317.596C204.591 318.702 208.761 320.281 212.931 322.332C214.395 323.052 215.858 323.83 217.322 324.666L225.945 303.454C220.311 299.89 213.815 297.246 206.457 295.522C199.099 293.682 191.626 292.762 184.038 292.762C172.657 292.762 163.172 294.487 155.584 297.936C148.111 301.27 142.477 305.811 138.683 311.56C135.004 317.193 133.165 323.459 133.165 330.357C133.165 336.795 134.429 342.084 136.959 346.223C139.603 350.362 142.995 353.696 147.133 356.225C151.272 358.755 155.814 360.824 160.757 362.434C165.816 364.043 170.817 365.423 175.761 366.572C180.819 367.607 185.418 368.757 189.557 370.022C193.696 371.171 197.03 372.723 199.559 374.678C202.089 376.517 203.353 379.047 203.353 382.266C203.353 384.795 202.548 387.037 200.939 388.991C199.329 390.946 196.8 392.498 193.351 393.648C190.017 394.682 185.591 395.2 180.072 395.2C172.829 395.2 165.643 394.05 158.515 391.751C153.315 389.96 148.621 387.823 144.432 385.337C142.972 384.471 141.573 383.562 140.235 382.611L130.75 403.65C136.154 407.789 143.282 411.18 152.135 413.825C160.987 416.354 170.242 417.619 179.9 417.619C191.396 417.619 200.881 415.894 208.354 412.445C215.942 408.996 221.633 404.455 225.427 398.821C229.221 393.188 231.118 386.979 231.118 380.196C231.118 373.873 229.796 368.642 227.152 364.503Z" fill="#005566"/>
<defs>
<clipPath id="clip0_395_467">
<rect width="461.47" height="540" fill="white" transform="translate(118)"/>
</clipPath>
</defs>
</svg>
