<svg width="481" height="126" viewBox="0 0 481 126" fill="none" xmlns="http://www.w3.org/2000/svg">
<path d="M50.6098 100.585C43.3008 100.585 36.5642 99.4403 30.4 97.1507C24.3239 94.7731 18.9963 91.4269 14.4172 87.1119C9.92614 82.797 6.40374 77.7336 3.85001 71.9216C1.38434 66.1097 0.151499 59.7253 0.151499 52.7686C0.151499 45.8119 1.38434 39.4275 3.85001 33.6156C6.40374 27.8036 9.97017 22.7402 14.5493 18.4253C19.1284 14.1103 24.5 10.8081 30.6642 8.51854C36.8284 6.14093 43.609 4.95213 51.006 4.95213C59.1956 4.95213 66.5486 6.31705 73.065 9.0469C79.6695 11.7768 85.2173 15.7395 89.7083 20.935L75.971 33.6156C72.6247 30.0932 68.9702 27.4954 65.0075 25.8223C61.0449 24.0611 56.7299 23.1805 52.0628 23.1805C47.5717 23.1805 43.4769 23.885 39.7784 25.2939C36.0799 26.7029 32.8657 28.7283 30.1359 31.3701C27.4941 34.0119 25.4247 37.138 23.9276 40.7484C22.5187 44.3589 21.8142 48.3656 21.8142 52.7686C21.8142 57.0835 22.5187 61.0462 23.9276 64.6567C25.4247 68.2671 27.4941 71.4373 30.1359 74.1671C32.8657 76.8089 36.0359 78.8343 39.6463 80.2433C43.3448 81.6522 47.3956 82.3567 51.7986 82.3567C56.0254 82.3567 60.1202 81.6962 64.0829 80.3754C68.1337 78.9664 72.0523 76.6328 75.8389 73.3746L87.9912 88.8291C82.9717 92.6157 77.1158 95.5216 70.4232 97.547C63.8187 99.5724 57.2143 100.585 50.6098 100.585ZM68.4419 86.0552V51.3156H87.9912V88.8291L68.4419 86.0552ZM150.005 99V85.1306L148.684 82.0925V57.2597C148.684 52.8567 147.319 49.4223 144.59 46.9567C141.948 44.491 137.853 43.2581 132.305 43.2581C128.519 43.2581 124.776 43.8746 121.078 45.1074C117.467 46.2522 114.385 47.8373 111.831 49.8626L104.434 35.4648C108.309 32.735 112.976 30.6216 118.436 29.1245C123.895 27.6275 129.443 26.879 135.079 26.879C145.91 26.879 154.32 29.4328 160.308 34.5402C166.296 39.6477 169.29 47.6171 169.29 58.4485V99H150.005ZM128.342 100.057C122.795 100.057 118.039 99.1321 114.077 97.2828C110.114 95.3455 107.076 92.7478 104.963 89.4895C102.849 86.2313 101.792 82.5768 101.792 78.5261C101.792 74.2992 102.805 70.6007 104.831 67.4306C106.944 64.2604 110.246 61.7947 114.737 60.0335C119.228 58.1843 125.084 57.2597 132.305 57.2597H151.194V69.2798H134.551C129.707 69.2798 126.361 70.0724 124.512 71.6574C122.751 73.2425 121.87 75.2239 121.87 77.6015C121.87 80.2433 122.883 82.3567 124.908 83.9418C127.022 85.4388 129.884 86.1873 133.494 86.1873C136.928 86.1873 140.01 85.3948 142.74 83.8097C145.47 82.1365 147.451 79.7149 148.684 76.5447L151.854 86.0552C150.357 90.6343 147.628 94.1127 143.665 96.4903C139.702 98.8679 134.595 100.057 128.342 100.057ZM187.94 99V0.989432H208.546V99H187.94ZM227.67 99V0.989432H248.276V99H227.67ZM302.668 100.057C294.566 100.057 287.434 98.4716 281.269 95.3015C275.193 92.1313 270.482 87.8164 267.136 82.3567C263.789 76.8089 262.116 70.5127 262.116 63.4679C262.116 56.335 263.745 50.0387 267.004 44.579C270.35 39.0313 274.885 34.7163 280.609 31.6342C286.333 28.4641 292.805 26.879 300.026 26.879C306.983 26.879 313.235 28.376 318.783 31.3701C324.419 34.276 328.866 38.5029 332.124 44.0507C335.382 49.5104 337.011 56.0708 337.011 63.732C337.011 64.5246 336.967 65.4492 336.879 66.5059C336.791 67.4746 336.703 68.3992 336.615 69.2798H278.892V57.2597H325.784L317.858 60.8261C317.858 57.1276 317.11 53.9134 315.613 51.1835C314.116 48.4537 312.046 46.3402 309.404 44.8432C306.763 43.2581 303.681 42.4656 300.158 42.4656C296.636 42.4656 293.51 43.2581 290.78 44.8432C288.138 46.3402 286.069 48.4977 284.572 51.3156C283.075 54.0455 282.326 57.3037 282.326 61.0903V64.2604C282.326 68.135 283.163 71.5694 284.836 74.5634C286.597 77.4694 289.019 79.7149 292.101 81.3C295.271 82.797 298.969 83.5455 303.196 83.5455C306.983 83.5455 310.285 82.9731 313.103 81.8283C316.009 80.6836 318.651 78.9664 321.028 76.6768L331.992 88.5649C328.734 92.2634 324.639 95.1254 319.707 97.1507C314.776 99.0881 309.096 100.057 302.668 100.057ZM350.73 99V27.9357H370.411V48.0134L367.637 42.2014C369.751 37.182 373.141 33.3954 377.808 30.8417C382.476 28.1999 388.155 26.879 394.848 26.879V45.8999C393.967 45.8119 393.175 45.7678 392.47 45.7678C391.766 45.6798 391.017 45.6358 390.225 45.6358C384.589 45.6358 380.01 47.2649 376.487 50.5231C373.053 53.6932 371.336 58.6686 371.336 65.4492V99H350.73ZM418.533 125.682C414.835 125.682 411.18 125.11 407.57 123.965C403.959 122.82 401.009 121.235 398.72 119.21L406.249 104.548C407.834 105.957 409.639 107.057 411.665 107.85C413.778 108.643 415.847 109.039 417.873 109.039C420.779 109.039 423.068 108.334 424.741 106.925C426.503 105.604 428.088 103.359 429.497 100.189L433.195 91.4709L434.78 89.2254L460.274 27.9357H480.087L447.989 103.359C445.7 109.083 443.058 113.574 440.064 116.832C437.158 120.09 433.9 122.38 430.289 123.701C426.767 125.022 422.848 125.682 418.533 125.682ZM430.686 101.774L398.984 27.9357H420.25L444.819 87.3761L430.686 101.774Z" fill="#005669"/>
</svg>
