<svg width="699" height="510" viewBox="0 0 699 510" fill="none" xmlns="http://www.w3.org/2000/svg">
<path d="M29.3352 373.431C24.0967 373.431 19.0765 372.745 14.2745 371.373C9.47253 369.938 5.606 368.098 2.67492 365.853L7.8199 354.441C10.6262 356.437 13.9315 358.089 17.7357 359.399C21.6022 360.646 25.4999 361.27 29.4288 361.27C32.4222 361.27 34.8232 360.989 36.6318 360.428C38.5027 359.804 39.8746 358.962 40.7477 357.902C41.6208 356.842 42.0574 355.626 42.0574 354.254C42.0574 352.508 41.3714 351.136 39.9994 350.138C38.6274 349.078 36.8188 348.236 34.5738 347.612C32.3287 346.926 29.8341 346.302 27.0902 345.741C24.4085 345.118 21.6957 344.369 18.9517 343.496C16.2701 342.623 13.8068 341.501 11.5617 340.129C9.31662 338.757 7.4769 336.948 6.04254 334.703C4.67055 332.458 3.98455 329.589 3.98455 326.097C3.98455 322.355 4.98237 318.956 6.97799 315.9C9.03598 312.782 12.0918 310.319 16.1454 308.51C20.2614 306.639 25.4064 305.704 31.5803 305.704C35.6963 305.704 39.7499 306.203 43.7412 307.201C47.7324 308.136 51.2559 309.57 54.3118 311.504L49.6345 323.01C46.5787 321.264 43.5229 319.985 40.4671 319.174C37.4113 318.301 34.4179 317.865 31.4868 317.865C28.5557 317.865 26.1547 318.208 24.2838 318.894C22.4129 319.58 21.0721 320.484 20.2614 321.607C19.4507 322.667 19.0453 323.914 19.0453 325.348C19.0453 327.032 19.7313 328.404 21.1033 329.464C22.4753 330.462 24.2838 331.273 26.5289 331.897C28.774 332.52 31.2373 333.144 33.9189 333.767C36.6629 334.391 39.3757 335.108 42.0574 335.919C44.8013 336.73 47.2959 337.821 49.541 339.193C51.786 340.565 53.5946 342.374 54.9666 344.619C56.4009 346.864 57.1181 349.701 57.1181 353.131C57.1181 356.811 56.0891 360.178 54.0311 363.234C51.9731 366.29 48.8861 368.753 44.7702 370.624C40.7165 372.495 35.5716 373.431 29.3352 373.431ZM83.2822 333.206H114.807V344.993H83.2822V333.206ZM84.4047 360.147H120.045V372.308H69.344V306.826H118.829V318.987H84.4047V360.147ZM125.368 372.308L154.554 306.826H169.521L198.801 372.308H182.898L158.951 314.497H164.937L140.896 372.308H125.368ZM139.961 358.276L143.983 346.77H177.66L181.776 358.276H139.961ZM237.889 373.431C232.838 373.431 228.13 372.62 223.764 370.998C219.461 369.315 215.719 366.945 212.539 363.889C209.358 360.833 206.864 357.247 205.055 353.131C203.309 349.015 202.436 344.494 202.436 339.567C202.436 334.641 203.309 330.119 205.055 326.003C206.864 321.887 209.358 318.301 212.539 315.246C215.782 312.19 219.555 309.851 223.858 308.23C228.161 306.546 232.869 305.704 237.983 305.704C243.658 305.704 248.772 306.702 253.324 308.697C257.939 310.631 261.806 313.499 264.924 317.304L255.195 326.284C252.95 323.727 250.456 321.825 247.712 320.578C244.968 319.268 241.974 318.613 238.731 318.613C235.675 318.613 232.869 319.112 230.312 320.11C227.755 321.108 225.541 322.542 223.671 324.413C221.8 326.284 220.334 328.498 219.274 331.055C218.276 333.612 217.777 336.449 217.777 339.567C217.777 342.685 218.276 345.523 219.274 348.08C220.334 350.637 221.8 352.851 223.671 354.722C225.541 356.592 227.755 358.027 230.312 359.025C232.869 360.022 235.675 360.521 238.731 360.521C241.974 360.521 244.968 359.898 247.712 358.65C250.456 357.341 252.95 355.376 255.195 352.757L264.924 361.737C261.806 365.542 257.939 368.441 253.324 370.437C248.772 372.433 243.627 373.431 237.889 373.431ZM307.463 373.431C302.287 373.431 297.485 372.589 293.058 370.905C288.692 369.221 284.888 366.851 281.645 363.795C278.465 360.74 275.97 357.154 274.161 353.038C272.415 348.922 271.542 344.432 271.542 339.567C271.542 334.703 272.415 330.213 274.161 326.097C275.97 321.981 278.496 318.395 281.739 315.339C284.981 312.283 288.786 309.913 293.151 308.23C297.516 306.546 302.256 305.704 307.37 305.704C312.546 305.704 317.286 306.546 321.589 308.23C325.954 309.913 329.727 312.283 332.908 315.339C336.151 318.395 338.676 321.981 340.485 326.097C342.293 330.15 343.198 334.641 343.198 339.567C343.198 344.432 342.293 348.953 340.485 353.131C338.676 357.247 336.151 360.833 332.908 363.889C329.727 366.882 325.954 369.221 321.589 370.905C317.286 372.589 312.577 373.431 307.463 373.431ZM307.37 360.521C310.301 360.521 312.983 360.022 315.415 359.025C317.909 358.027 320.092 356.592 321.963 354.722C323.834 352.851 325.268 350.637 326.266 348.08C327.326 345.523 327.856 342.685 327.856 339.567C327.856 336.449 327.326 333.612 326.266 331.055C325.268 328.498 323.834 326.284 321.963 324.413C320.154 322.542 318.003 321.108 315.508 320.11C313.014 319.112 310.301 318.613 307.37 318.613C304.439 318.613 301.726 319.112 299.231 320.11C296.799 321.108 294.648 322.542 292.777 324.413C290.906 326.284 289.44 328.498 288.38 331.055C287.382 333.612 286.884 336.449 286.884 339.567C286.884 342.623 287.382 345.461 288.38 348.08C289.44 350.637 290.875 352.851 292.683 354.722C294.554 356.592 296.737 358.027 299.231 359.025C301.726 360.022 304.439 360.521 307.37 360.521ZM356.458 372.308V306.826H368.993L407.627 353.973H401.546V306.826H416.513V372.308H404.072L365.344 325.161H371.425V372.308H356.458ZM453.247 372.308L424.997 306.826H441.367L466.063 364.824H456.428L481.498 306.826H496.559L468.215 372.308H453.247ZM534.971 373.431C529.795 373.431 524.993 372.589 520.565 370.905C516.2 369.221 512.396 366.851 509.153 363.795C505.972 360.74 503.478 357.154 501.669 353.038C499.923 348.922 499.05 344.432 499.05 339.567C499.05 334.703 499.923 330.213 501.669 326.097C503.478 321.981 506.004 318.395 509.247 315.339C512.489 312.283 516.294 309.913 520.659 308.23C525.024 306.546 529.764 305.704 534.878 305.704C540.054 305.704 544.794 306.546 549.097 308.23C553.462 309.913 557.235 312.283 560.416 315.339C563.659 318.395 566.184 321.981 567.993 326.097C569.801 330.15 570.706 334.641 570.706 339.567C570.706 344.432 569.801 348.953 567.993 353.131C566.184 357.247 563.659 360.833 560.416 363.889C557.235 366.882 553.462 369.221 549.097 370.905C544.794 372.589 540.085 373.431 534.971 373.431ZM534.878 360.521C537.809 360.521 540.491 360.022 542.923 359.025C545.417 358.027 547.6 356.592 549.471 354.722C551.342 352.851 552.776 350.637 553.774 348.08C554.834 345.523 555.364 342.685 555.364 339.567C555.364 336.449 554.834 333.612 553.774 331.055C552.776 328.498 551.342 326.284 549.471 324.413C547.662 322.542 545.511 321.108 543.016 320.11C540.522 319.112 537.809 318.613 534.878 318.613C531.947 318.613 529.234 319.112 526.739 320.11C524.307 321.108 522.156 322.542 520.285 324.413C518.414 326.284 516.948 328.498 515.888 331.055C514.89 333.612 514.392 336.449 514.392 339.567C514.392 342.623 514.89 345.461 515.888 348.08C516.948 350.637 518.383 352.851 520.191 354.722C522.062 356.592 524.245 358.027 526.739 359.025C529.234 360.022 531.947 360.521 534.878 360.521ZM597.411 372.308V345.554L600.872 354.722L572.06 306.826H588.15L610.226 343.59H600.965L623.135 306.826H638.009L609.197 354.722L612.565 345.554V372.308H597.411ZM7.8199 486.308V420.826H22.9742V486.308H7.8199ZM40.3852 486.308V420.826H52.9203L91.5543 467.973H85.4739V420.826H100.441V486.308H87.9996L49.272 439.161H55.3524V486.308H40.3852ZM146.168 486.308V420.826H161.322V486.308H146.168ZM178.733 486.308V420.826H191.268L229.902 467.973H223.822V420.826H238.789V486.308H226.348L187.62 439.161H193.7V486.308H178.733ZM256.153 486.308V420.826H285.9C293.009 420.826 299.277 422.198 304.702 424.942C310.128 427.624 314.369 431.397 317.425 436.261C320.48 441.126 322.008 446.894 322.008 453.567C322.008 460.178 320.48 465.946 317.425 470.873C314.369 475.737 310.128 479.542 304.702 482.286C299.277 484.967 293.009 486.308 285.9 486.308H256.153ZM271.307 473.867H285.152C289.517 473.867 293.29 473.056 296.47 471.434C299.713 469.751 302.208 467.381 303.954 464.325C305.763 461.269 306.667 457.683 306.667 453.567C306.667 449.389 305.763 445.803 303.954 442.81C302.208 439.754 299.713 437.415 296.47 435.794C293.29 434.11 289.517 433.268 285.152 433.268H271.307V473.867ZM335.308 486.308V420.826H350.462V486.308H335.308ZM359.267 486.308L388.453 420.826H403.42L432.7 486.308H416.797L392.85 428.497H398.836L374.795 486.308H359.267ZM373.86 472.276L377.882 460.77H411.559L415.675 472.276H373.86Z" fill="white"/>
<mask id="path-2-outside-1_239_56" maskUnits="userSpaceOnUse" x="-2" y="23" width="704" height="238" fill="black">
<rect fill="white" x="-2" y="23" width="704" height="238"/>
<path d="M26.9389 67.4873H65.7863V82.5176H26.9389V67.4873ZM28.3263 112H9.59624V31.0678H70.7578V46.0981H28.3263V112ZM82.2446 112L118.317 31.0678H136.816L173.004 112H153.349L123.751 40.5485H131.151L101.437 112H82.2446ZM100.281 94.6574L105.252 80.4365H146.875L151.962 94.6574H100.281ZM220.711 113.387C214.236 113.387 208.032 112.54 202.096 110.844C196.161 109.071 191.383 106.797 187.76 104.022L194.119 89.9171C197.587 92.3836 201.673 94.4262 206.374 96.0448C211.153 97.5864 215.971 98.3571 220.827 98.3571C224.526 98.3571 227.494 98.0103 229.729 97.3166C232.041 96.5458 233.737 95.5053 234.816 94.1949C235.895 92.8846 236.435 91.3816 236.435 89.6858C236.435 87.5277 235.587 85.8319 233.891 84.5987C232.196 83.2883 229.96 82.2478 227.185 81.477C224.411 80.6291 221.328 79.8584 217.936 79.1647C214.622 78.3939 211.269 77.4689 207.877 76.3898C204.563 75.3107 201.518 73.9233 198.744 72.2276C195.969 70.5319 193.695 68.2966 191.922 65.5218C190.226 62.747 189.379 59.2014 189.379 54.885C189.379 50.2603 190.612 46.0595 193.078 42.2827C195.622 38.4288 199.399 35.3842 204.409 33.1489C209.496 30.8366 215.855 29.6804 223.486 29.6804C228.573 29.6804 233.583 30.297 238.516 31.5303C243.449 32.6865 247.804 34.4593 251.581 36.8487L245.8 51.0696C242.023 48.9114 238.246 47.3313 234.469 46.3293C230.693 45.2502 226.993 44.7107 223.37 44.7107C219.747 44.7107 216.78 45.1346 214.468 45.9825C212.155 46.8303 210.498 47.948 209.496 49.3354C208.494 50.6457 207.993 52.1873 207.993 53.9601C207.993 56.0412 208.841 57.7369 210.537 59.0472C212.232 60.2805 214.468 61.2825 217.242 62.0533C220.017 62.8241 223.062 63.5949 226.376 64.3656C229.768 65.1364 233.12 66.0228 236.435 67.0248C239.826 68.0269 242.909 69.3757 245.684 71.0714C248.459 72.7672 250.694 75.0024 252.39 77.7773C254.163 80.5521 255.049 84.0591 255.049 88.2984C255.049 92.8461 253.777 97.0083 251.234 100.785C248.69 104.562 244.875 107.607 239.788 109.919C234.778 112.231 228.419 113.387 220.711 113.387ZM296.201 112V46.3293H270.303V31.0678H340.829V46.3293H314.931V112H296.201ZM380.852 63.6719H419.815V78.2397H380.852V63.6719ZM382.239 96.9697H426.289V112H363.625V31.0678H424.786V46.0981H382.239V96.9697ZM480.502 113.387C474.028 113.387 467.823 112.54 461.888 110.844C455.953 109.071 451.174 106.797 447.551 104.022L453.91 89.9171C457.379 92.3836 461.464 94.4262 466.166 96.0448C470.945 97.5864 475.762 98.3571 480.618 98.3571C484.318 98.3571 487.285 98.0103 489.52 97.3166C491.833 96.5458 493.528 95.5053 494.608 94.1949C495.687 92.8846 496.226 91.3816 496.226 89.6858C496.226 87.5277 495.378 85.8319 493.683 84.5987C491.987 83.2883 489.752 82.2478 486.977 81.477C484.202 80.6291 481.119 79.8584 477.727 79.1647C474.413 78.3939 471.06 77.4689 467.669 76.3898C464.354 75.3107 461.31 73.9233 458.535 72.2276C455.76 70.5319 453.486 68.2966 451.714 65.5218C450.018 62.747 449.17 59.2014 449.17 54.885C449.17 50.2603 450.403 46.0595 452.87 42.2827C455.413 38.4288 459.19 35.3842 464.2 33.1489C469.287 30.8366 475.646 29.6804 483.277 29.6804C488.364 29.6804 493.374 30.297 498.307 31.5303C503.24 32.6865 507.595 34.4593 511.372 36.8487L505.591 51.0696C501.814 48.9114 498.038 47.3313 494.261 46.3293C490.484 45.2502 486.784 44.7107 483.161 44.7107C479.539 44.7107 476.571 45.1346 474.259 45.9825C471.947 46.8303 470.289 47.948 469.287 49.3354C468.285 50.6457 467.784 52.1873 467.784 53.9601C467.784 56.0412 468.632 57.7369 470.328 59.0472C472.024 60.2805 474.259 61.2825 477.034 62.0533C479.809 62.8241 482.853 63.5949 486.167 64.3656C489.559 65.1364 492.912 66.0228 496.226 67.0248C499.618 68.0269 502.701 69.3757 505.476 71.0714C508.25 72.7672 510.486 75.0024 512.181 77.7773C513.954 80.5521 514.841 84.0591 514.841 88.2984C514.841 92.8461 513.569 97.0083 511.025 100.785C508.482 104.562 504.666 107.607 499.579 109.919C494.569 112.231 488.21 113.387 480.502 113.387ZM555.992 112V46.3293H530.094V31.0678H600.621V46.3293H574.722V112H555.992ZM48.6749 254.387C42.2774 254.387 36.3809 253.385 30.9855 251.381C25.6671 249.3 21.0038 246.371 16.9958 242.594C13.0648 238.818 9.98163 234.386 7.74637 229.298C5.58817 224.211 4.50908 218.623 4.50908 212.534C4.50908 206.445 5.58817 200.857 7.74637 195.769C9.98163 190.682 13.1033 186.25 17.1114 182.473C21.1194 178.697 25.8212 175.806 31.2167 173.802C36.6122 171.721 42.5472 170.68 49.0218 170.68C56.1901 170.68 62.6261 171.875 68.3299 174.265C74.1107 176.654 78.9667 180.123 82.8977 184.67L70.8735 195.769C67.9445 192.686 64.7457 190.412 61.2772 188.948C57.8087 187.406 54.0319 186.636 49.9467 186.636C46.0157 186.636 42.4316 187.252 39.1943 188.485C35.957 189.719 33.1437 191.492 30.7542 193.804C28.4419 196.116 26.6305 198.853 25.3202 202.013C24.087 205.173 23.4703 208.68 23.4703 212.534C23.4703 216.311 24.087 219.779 25.3202 222.939C26.6305 226.1 28.4419 228.875 30.7542 231.264C33.1437 233.576 35.9185 235.349 39.0787 236.582C42.316 237.816 45.8616 238.432 49.7155 238.432C53.4152 238.432 56.9994 237.854 60.4679 236.698C64.0135 235.465 67.4435 233.422 70.7578 230.57L81.3946 244.097C77.0012 247.412 71.8755 249.955 66.0175 251.728C60.2367 253.501 54.4558 254.387 48.6749 254.387ZM64.2833 241.669V211.262H81.3946V244.097L64.2833 241.669ZM111.511 253V172.068H146.543C153.789 172.068 160.032 173.263 165.273 175.652C170.515 177.964 174.561 181.317 177.413 185.711C180.265 190.104 181.691 195.345 181.691 201.435C181.691 207.447 180.265 212.65 177.413 217.043C174.561 221.359 170.515 224.674 165.273 226.986C160.032 229.298 153.789 230.455 146.543 230.455H121.917L130.241 222.246V253H111.511ZM162.961 253L142.728 223.633H162.73L183.194 253H162.961ZM130.241 224.327L121.917 215.54H145.503C151.284 215.54 155.6 214.307 158.452 211.84C161.304 209.297 162.73 205.828 162.73 201.435C162.73 196.964 161.304 193.496 158.452 191.029C155.6 188.563 151.284 187.329 145.503 187.329H121.917L130.241 178.427V224.327ZM248.558 254.387C242.161 254.387 236.226 253.347 230.753 251.266C225.358 249.185 220.656 246.256 216.648 242.479C212.717 238.702 209.634 234.27 207.399 229.183C205.24 224.096 204.161 218.546 204.161 212.534C204.161 206.522 205.24 200.972 207.399 195.885C209.634 190.798 212.756 186.366 216.764 182.589C220.772 178.812 225.473 175.883 230.869 173.802C236.264 171.721 242.122 170.68 248.443 170.68C254.84 170.68 260.698 171.721 266.017 173.802C271.412 175.883 276.075 178.812 280.006 182.589C284.014 186.366 287.136 190.798 289.371 195.885C291.607 200.895 292.724 206.445 292.724 212.534C292.724 218.546 291.607 224.134 289.371 229.298C287.136 234.386 284.014 238.818 280.006 242.594C276.075 246.294 271.412 249.185 266.017 251.266C260.698 253.347 254.879 254.387 248.558 254.387ZM248.443 238.432C252.065 238.432 255.38 237.816 258.386 236.582C261.469 235.349 264.167 233.576 266.479 231.264C268.791 228.952 270.564 226.215 271.798 223.055C273.108 219.895 273.763 216.388 273.763 212.534C273.763 208.68 273.108 205.173 271.798 202.013C270.564 198.853 268.791 196.116 266.479 193.804C264.244 191.492 261.585 189.719 258.502 188.485C255.418 187.252 252.065 186.636 248.443 186.636C244.82 186.636 241.467 187.252 238.384 188.485C235.378 189.719 232.719 191.492 230.406 193.804C228.094 196.116 226.283 198.853 224.972 202.013C223.739 205.173 223.123 208.68 223.123 212.534C223.123 216.311 223.739 219.818 224.972 223.055C226.283 226.215 228.056 228.952 230.291 231.264C232.603 233.576 235.301 235.349 238.384 236.582C241.467 237.816 244.82 238.432 248.443 238.432ZM336.345 253L309.869 172.068H329.293L352.301 243.751H342.589L366.637 172.068H383.98L407.103 243.751H397.738L421.324 172.068H439.245L412.769 253H392.651L372.187 190.104H377.505L356.463 253H336.345ZM462.419 253V172.068H481.149V253H462.419ZM513.074 253V172.068H528.567L576.317 230.339H568.801V172.068H587.3V253H571.923L524.057 194.729H531.573V253H513.074ZM658.245 254.387C651.847 254.387 645.951 253.385 640.556 251.381C635.237 249.3 630.574 246.371 626.566 242.594C622.635 238.818 619.552 234.386 617.316 229.298C615.158 224.211 614.079 218.623 614.079 212.534C614.079 206.445 615.158 200.857 617.316 195.769C619.552 190.682 622.673 186.25 626.681 182.473C630.69 178.697 635.391 175.806 640.787 173.802C646.182 171.721 652.117 170.68 658.592 170.68C665.76 170.68 672.196 171.875 677.9 174.265C683.681 176.654 688.537 180.123 692.468 184.67L680.444 195.769C677.515 192.686 674.316 190.412 670.847 188.948C667.379 187.406 663.602 186.636 659.517 186.636C655.586 186.636 652.002 187.252 648.764 188.485C645.527 189.719 642.714 191.492 640.324 193.804C638.012 196.116 636.201 198.853 634.89 202.013C633.657 205.173 633.04 208.68 633.04 212.534C633.04 216.311 633.657 219.779 634.89 222.939C636.201 226.1 638.012 228.875 640.324 231.264C642.714 233.576 645.489 235.349 648.649 236.582C651.886 237.816 655.432 238.432 659.286 238.432C662.985 238.432 666.569 237.854 670.038 236.698C673.584 235.465 677.014 233.422 680.328 230.57L690.965 244.097C686.571 247.412 681.446 249.955 675.588 251.728C669.807 253.501 664.026 254.387 658.245 254.387ZM673.853 241.669V211.262H690.965V244.097L673.853 241.669Z"/>
</mask>
<path d="M26.9389 67.4873V61.1809H20.6325V67.4873H26.9389ZM65.7863 67.4873H72.0927V61.1809H65.7863V67.4873ZM65.7863 82.5176V88.824H72.0927V82.5176H65.7863ZM26.9389 82.5176H20.6325V88.824H26.9389V82.5176ZM28.3263 112V118.306H34.6327V112H28.3263ZM9.59624 112H3.28984V118.306H9.59624V112ZM9.59624 31.0678V24.7614H3.28984V31.0678H9.59624ZM70.7578 31.0678H77.0642V24.7614H70.7578V31.0678ZM70.7578 46.0981V52.4045H77.0642V46.0981H70.7578ZM28.3263 46.0981V39.7917H22.0199V46.0981H28.3263ZM26.9389 73.7937H65.7863V61.1809H26.9389V73.7937ZM59.4799 67.4873V82.5176H72.0927V67.4873H59.4799ZM65.7863 76.2112H26.9389V88.824H65.7863V76.2112ZM33.2453 82.5176V67.4873H20.6325V82.5176H33.2453ZM28.3263 105.694H9.59624V118.306H28.3263V105.694ZM15.9026 112V31.0678H3.28984V112H15.9026ZM9.59624 37.3742H70.7578V24.7614H9.59624V37.3742ZM64.4514 31.0678V46.0981H77.0642V31.0678H64.4514ZM70.7578 39.7917H28.3263V52.4045H70.7578V39.7917ZM22.0199 46.0981V112H34.6327V46.0981H22.0199ZM82.2446 112L76.4845 109.433L72.5293 118.306H82.2446V112ZM118.317 31.0678V24.7614H114.224L112.557 28.5004L118.317 31.0678ZM136.816 31.0678L142.573 28.4936L140.904 24.7614H136.816V31.0678ZM173.004 112V118.306H182.732L178.761 109.426L173.004 112ZM153.349 112L147.523 114.413L149.136 118.306H153.349V112ZM123.751 40.5485V34.2421H114.313L117.925 42.9619L123.751 40.5485ZM131.151 40.5485L136.974 42.97L140.603 34.2421H131.151V40.5485ZM101.437 112V118.306H105.645L107.26 114.422L101.437 112ZM100.281 94.6574L94.3278 92.5762L91.3956 100.964H100.281V94.6574ZM105.252 80.4365V74.1301H100.776L99.2994 78.3553L105.252 80.4365ZM146.875 80.4365L152.813 78.3123L151.317 74.1301H146.875V80.4365ZM151.962 94.6574V100.964H160.916L157.9 92.5333L151.962 94.6574ZM88.0048 114.567L124.077 33.6352L112.557 28.5004L76.4845 109.433L88.0048 114.567ZM118.317 37.3742H136.816V24.7614H118.317V37.3742ZM131.059 33.6421L167.247 114.574L178.761 109.426L142.573 28.4936L131.059 33.6421ZM173.004 105.694H153.349V118.306H173.004V105.694ZM159.176 109.587L129.578 38.135L117.925 42.9619L147.523 114.413L159.176 109.587ZM123.751 46.8549H131.151V34.2421H123.751V46.8549ZM125.328 38.1269L95.6141 109.578L107.26 114.422L136.974 42.97L125.328 38.1269ZM101.437 105.694H82.2446V118.306H101.437V105.694ZM106.234 96.7386L111.206 82.5176L99.2994 78.3553L94.3278 92.5762L106.234 96.7386ZM105.252 86.7429H146.875V74.1301H105.252V86.7429ZM140.937 82.5606L146.024 96.7815L157.9 92.5333L152.813 78.3123L140.937 82.5606ZM151.962 88.351H100.281V100.964H151.962V88.351ZM202.096 110.844L200.292 116.886L200.328 116.897L200.364 116.908L202.096 110.844ZM187.76 104.022L182.011 101.431L179.956 105.989L183.925 109.029L187.76 104.022ZM194.119 89.9171L197.774 84.7776L191.522 80.3323L188.37 87.3252L194.119 89.9171ZM206.374 96.0448L204.322 102.008L204.38 102.028L204.438 102.047L206.374 96.0448ZM229.729 97.3166L231.598 103.34L231.661 103.32L231.723 103.299L229.729 97.3166ZM234.816 94.1949L229.948 90.1859V90.1859L234.816 94.1949ZM233.891 84.5987L230.035 89.5888L230.108 89.6449L230.182 89.6989L233.891 84.5987ZM227.185 81.477L225.343 87.5081L225.42 87.5317L225.498 87.5533L227.185 81.477ZM217.936 79.1647L216.508 85.3072L216.59 85.3262L216.672 85.3431L217.936 79.1647ZM207.877 76.3898L205.925 82.3864L205.945 82.393L205.965 82.3994L207.877 76.3898ZM198.744 72.2276L195.455 77.6088L198.744 72.2276ZM191.922 65.5218L186.541 68.8103L186.574 68.864L186.608 68.9171L191.922 65.5218ZM193.078 42.2827L187.815 38.8089L187.807 38.8216L187.798 38.8344L193.078 42.2827ZM204.409 33.1489L206.978 38.9081L206.998 38.8992L207.018 38.8901L204.409 33.1489ZM238.516 31.5303L236.986 37.6484L237.032 37.6597L237.077 37.6703L238.516 31.5303ZM251.581 36.8487L257.423 39.2236L259.409 34.3386L254.952 31.5193L251.581 36.8487ZM245.8 51.0696L242.671 56.5451L248.928 60.1206L251.642 53.4445L245.8 51.0696ZM234.469 46.3293L232.737 52.3931L232.794 52.4095L232.852 52.4249L234.469 46.3293ZM214.468 45.9825L212.297 40.0615L212.297 40.0615L214.468 45.9825ZM209.496 49.3354L214.506 53.1662L214.558 53.0977L214.608 53.0277L209.496 49.3354ZM210.537 59.0472L206.681 64.0374L206.753 64.0935L206.827 64.1474L210.537 59.0472ZM217.242 62.0533L215.554 68.1296L215.555 68.1296L217.242 62.0533ZM226.376 64.3656L224.948 70.5081L224.963 70.5117L224.979 70.5152L226.376 64.3656ZM236.435 67.0248L234.61 73.0614L234.629 73.0672L234.648 73.0728L236.435 67.0248ZM245.684 71.0714L248.973 65.6903L245.684 71.0714ZM252.39 77.7773L247.009 81.0657L247.042 81.1195L247.076 81.1726L252.39 77.7773ZM251.234 100.785L256.465 104.308L251.234 100.785ZM239.788 109.919L237.178 104.178L237.162 104.185L237.145 104.193L239.788 109.919ZM220.711 107.081C214.794 107.081 209.174 106.307 203.829 104.78L200.364 116.908C206.889 118.772 213.679 119.694 220.711 119.694V107.081ZM203.901 104.801C198.455 103.174 194.435 101.191 191.595 99.0159L183.925 109.029C188.331 112.403 193.868 114.968 200.292 116.886L203.901 104.801ZM193.509 106.614L199.868 92.5089L188.37 87.3252L182.011 101.431L193.509 106.614ZM190.464 95.0565C194.499 97.9258 199.143 100.225 204.322 102.008L208.427 90.0819C204.203 88.6275 200.676 86.8414 197.774 84.7776L190.464 95.0565ZM204.438 102.047C209.821 103.783 215.291 104.664 220.827 104.664V92.0507C216.65 92.0507 212.485 91.3897 208.31 90.0429L204.438 102.047ZM220.827 104.664C224.837 104.664 228.512 104.297 231.598 103.34L227.86 91.2936C226.476 91.7231 224.215 92.0507 220.827 92.0507V104.664ZM231.723 103.299C234.695 102.309 237.591 100.745 239.684 98.2039L229.948 90.1859C229.883 90.2652 229.388 90.7829 227.735 91.3338L231.723 103.299ZM239.684 98.2039C241.692 95.7658 242.741 92.8459 242.741 89.6858H230.128C230.128 89.8526 230.104 89.9276 230.095 89.9542C230.085 89.9809 230.056 90.0553 229.948 90.1859L239.684 98.2039ZM242.741 89.6858C242.741 85.5799 240.984 81.9589 237.601 79.4985L230.182 89.6989C230.217 89.7243 230.237 89.7416 230.245 89.7492C230.253 89.7567 230.251 89.7557 230.243 89.7454C230.233 89.7349 230.22 89.7178 230.204 89.6941C230.188 89.6703 230.172 89.6438 230.158 89.6157C230.144 89.5877 230.134 89.5624 230.127 89.5419C230.12 89.5216 230.117 89.5098 230.117 89.5089C230.116 89.5063 230.128 89.5598 230.128 89.6858H242.741ZM237.747 79.6085C235.225 77.6598 232.18 76.3191 228.873 75.4007L225.498 87.5533C227.741 88.1765 229.166 88.9169 230.035 89.5888L237.747 79.6085ZM229.028 75.4459C226.031 74.53 222.751 73.7125 219.2 72.9862L216.672 85.3431C219.904 86.0043 222.791 86.7283 225.343 87.5081L229.028 75.4459ZM219.365 73.0222C216.22 72.291 213.029 71.411 209.789 70.3803L205.965 82.3994C209.509 83.5269 213.023 84.4968 216.508 85.3072L219.365 73.0222ZM209.83 70.3933C206.95 69.4556 204.358 68.268 202.032 66.8465L195.455 77.6088C198.679 79.5787 202.176 81.1659 205.925 82.3864L209.83 70.3933ZM202.032 66.8465C200.085 65.6567 198.5 64.1046 197.237 62.1265L186.608 68.9171C188.89 72.4886 191.852 75.4071 195.455 77.6088L202.032 66.8465ZM197.303 62.2333C196.38 60.7227 195.685 58.4107 195.685 54.885H183.072C183.072 59.9921 184.073 64.7713 186.541 68.8103L197.303 62.2333ZM195.685 54.885C195.685 51.4523 196.579 48.4554 198.358 45.731L187.798 38.8344C184.644 43.6637 183.072 49.0684 183.072 54.885H195.685ZM198.342 45.7565C200.108 43.0809 202.856 40.7471 206.978 38.9081L201.839 27.3897C195.941 30.0213 191.136 33.7767 187.815 38.8089L198.342 45.7565ZM207.018 38.8901C211.044 37.0602 216.445 35.9868 223.486 35.9868V23.374C215.265 23.374 207.948 24.613 201.799 27.4078L207.018 38.8901ZM223.486 35.9868C228.057 35.9868 232.554 36.5403 236.986 37.6484L240.045 25.4122C234.612 24.0538 229.088 23.374 223.486 23.374V35.9868ZM237.077 37.6703C241.415 38.6871 245.1 40.2114 248.209 42.1781L254.952 31.5193C250.507 28.7071 245.483 26.6858 239.955 25.3903L237.077 37.6703ZM245.739 34.4738L239.958 48.6948L251.642 53.4445L257.423 39.2236L245.739 34.4738ZM248.929 45.5941C244.73 43.1948 240.448 41.3909 236.087 40.2338L232.852 52.4249C236.045 53.2718 239.316 54.6281 242.671 56.5451L248.929 45.5941ZM236.202 40.2656C231.909 39.039 227.626 38.4043 223.37 38.4043V51.0171C226.36 51.0171 229.476 51.4615 232.737 52.3931L236.202 40.2656ZM223.37 38.4043C219.323 38.4043 215.55 38.8687 212.297 40.0615L216.639 51.9034C218.01 51.4005 220.172 51.0171 223.37 51.0171V38.4043ZM212.297 40.0615C209.298 41.1609 206.38 42.8793 204.384 45.643L214.608 53.0277C214.616 53.0167 215.012 52.4998 216.639 51.9034L212.297 40.0615ZM204.486 45.5045C202.579 47.9992 201.687 50.9128 201.687 53.9601H214.299C214.299 53.4618 214.409 53.2922 214.506 53.1662L204.486 45.5045ZM201.687 53.9601C201.687 58.0612 203.493 61.5744 206.681 64.0374L214.393 54.0571C214.289 53.9769 214.246 53.9278 214.238 53.9187C214.232 53.9115 214.248 53.9302 214.269 53.9724C214.279 53.9918 214.287 54.0115 214.294 54.0298C214.3 54.0481 214.304 54.0612 214.305 54.0673C214.308 54.0812 214.299 54.0503 214.299 53.9601H201.687ZM206.827 64.1474C209.314 65.9561 212.306 67.2271 215.554 68.1296L218.93 55.977C216.63 55.3379 215.15 54.6049 214.246 53.947L206.827 64.1474ZM215.555 68.1296C218.429 68.9281 221.561 69.7206 224.948 70.5081L227.805 58.2231C224.562 57.4691 221.605 56.72 218.93 55.977L215.555 68.1296ZM224.979 70.5152C228.227 71.2535 231.437 72.1022 234.61 73.0614L238.26 60.9883C234.804 59.9434 231.308 59.0194 227.774 58.2161L224.979 70.5152ZM234.648 73.0728C237.558 73.9325 240.129 75.0675 242.396 76.4526L248.973 65.6903C245.69 63.684 242.095 62.1212 238.222 60.9769L234.648 73.0728ZM242.396 76.4526C244.317 77.6266 245.835 79.1446 247.009 81.0657L257.771 74.4888C255.554 70.8603 252.601 67.9077 248.973 65.6903L242.396 76.4526ZM247.076 81.1726C248.038 82.6796 248.743 84.9207 248.743 88.2984H261.356C261.356 83.1975 260.287 78.4246 257.704 74.382L247.076 81.1726ZM248.743 88.2984C248.743 91.5892 247.847 94.5251 246.003 97.2624L256.465 104.308C259.708 99.4914 261.356 94.1029 261.356 88.2984H248.743ZM246.003 97.2624C244.245 99.8731 241.444 102.239 237.178 104.178L242.397 115.66C248.305 112.975 253.136 109.251 256.465 104.308L246.003 97.2624ZM237.145 104.193C233.224 106.003 227.845 107.081 220.711 107.081V119.694C228.992 119.694 236.331 118.46 242.431 115.645L237.145 104.193ZM296.201 112H289.895V118.306H296.201V112ZM296.201 46.3293H302.507V40.0229H296.201V46.3293ZM270.303 46.3293H263.996V52.6357H270.303V46.3293ZM270.303 31.0678V24.7614H263.996V31.0678H270.303ZM340.829 31.0678H347.136V24.7614H340.829V31.0678ZM340.829 46.3293V52.6357H347.136V46.3293H340.829ZM314.931 46.3293V40.0229H308.625V46.3293H314.931ZM314.931 112V118.306H321.237V112H314.931ZM302.507 112V46.3293H289.895V112H302.507ZM296.201 40.0229H270.303V52.6357H296.201V40.0229ZM276.609 46.3293V31.0678H263.996V46.3293H276.609ZM270.303 37.3742H340.829V24.7614H270.303V37.3742ZM334.523 31.0678V46.3293H347.136V31.0678H334.523ZM340.829 40.0229H314.931V52.6357H340.829V40.0229ZM308.625 46.3293V112H321.237V46.3293H308.625ZM314.931 105.694H296.201V118.306H314.931V105.694ZM380.852 63.6719V57.3655H374.545V63.6719H380.852ZM419.815 63.6719H426.121V57.3655H419.815V63.6719ZM419.815 78.2397V84.5461H426.121V78.2397H419.815ZM380.852 78.2397H374.545V84.5461H380.852V78.2397ZM382.239 96.9697H375.933V103.276H382.239V96.9697ZM426.289 96.9697H432.596V90.6633H426.289V96.9697ZM426.289 112V118.306H432.596V112H426.289ZM363.625 112H357.318V118.306H363.625V112ZM363.625 31.0678V24.7614H357.318V31.0678H363.625ZM424.786 31.0678H431.093V24.7614H424.786V31.0678ZM424.786 46.0981V52.4045H431.093V46.0981H424.786ZM382.239 46.0981V39.7917H375.933V46.0981H382.239ZM380.852 69.9783H419.815V57.3655H380.852V69.9783ZM413.508 63.6719V78.2397H426.121V63.6719H413.508ZM419.815 71.9333H380.852V84.5461H419.815V71.9333ZM387.158 78.2397V63.6719H374.545V78.2397H387.158ZM382.239 103.276H426.289V90.6633H382.239V103.276ZM419.983 96.9697V112H432.596V96.9697H419.983ZM426.289 105.694H363.625V118.306H426.289V105.694ZM369.931 112V31.0678H357.318V112H369.931ZM363.625 37.3742H424.786V24.7614H363.625V37.3742ZM418.48 31.0678V46.0981H431.093V31.0678H418.48ZM424.786 39.7917H382.239V52.4045H424.786V39.7917ZM375.933 46.0981V96.9697H388.546V46.0981H375.933ZM461.888 110.844L460.083 116.886L460.119 116.897L460.155 116.908L461.888 110.844ZM447.551 104.022L441.802 101.431L439.747 105.989L443.716 109.029L447.551 104.022ZM453.91 89.9171L457.565 84.7776L451.314 80.3323L448.161 87.3252L453.91 89.9171ZM466.166 96.0448L464.113 102.008L464.171 102.028L464.23 102.047L466.166 96.0448ZM489.52 97.3166L491.39 103.34L491.452 103.32L491.515 103.299L489.52 97.3166ZM494.608 94.1949L489.739 90.1859V90.1859L494.608 94.1949ZM493.683 84.5987L489.827 89.5888L489.899 89.6449L489.973 89.6989L493.683 84.5987ZM486.977 81.477L485.134 87.5081L485.211 87.5317L485.289 87.5533L486.977 81.477ZM477.727 79.1647L476.299 85.3072L476.381 85.3262L476.464 85.3431L477.727 79.1647ZM467.669 76.3898L465.716 82.3864L465.736 82.393L465.757 82.3994L467.669 76.3898ZM458.535 72.2276L455.246 77.6088L458.535 72.2276ZM451.714 65.5218L446.332 68.8103L446.365 68.864L446.399 68.9171L451.714 65.5218ZM452.87 42.2827L447.606 38.8089L447.598 38.8216L447.59 38.8344L452.87 42.2827ZM464.2 33.1489L466.77 38.9081L466.79 38.8992L466.81 38.8901L464.2 33.1489ZM498.307 31.5303L496.778 37.6484L496.823 37.6597L496.868 37.6703L498.307 31.5303ZM511.372 36.8487L517.214 39.2236L519.2 34.3386L514.744 31.5193L511.372 36.8487ZM505.591 51.0696L502.462 56.5451L508.719 60.1206L511.433 53.4445L505.591 51.0696ZM494.261 46.3293L492.528 52.3931L492.586 52.4095L492.644 52.4249L494.261 46.3293ZM474.259 45.9825L472.088 40.0615V40.0615L474.259 45.9825ZM469.287 49.3354L474.297 53.1662L474.349 53.0977L474.4 53.0277L469.287 49.3354ZM470.328 59.0472L466.472 64.0374L466.544 64.0935L466.619 64.1474L470.328 59.0472ZM477.034 62.0533L475.346 68.1296V68.1296L477.034 62.0533ZM486.167 64.3656L484.739 70.5081L484.754 70.5117L484.77 70.5152L486.167 64.3656ZM496.226 67.0248L494.401 73.0614L494.42 73.0672L494.439 73.0728L496.226 67.0248ZM505.476 71.0714L508.764 65.6903L505.476 71.0714ZM512.181 77.7773L506.8 81.0657L506.833 81.1195L506.867 81.1726L512.181 77.7773ZM511.025 100.785L516.256 104.308L511.025 100.785ZM499.579 109.919L496.97 104.178L496.953 104.185L496.936 104.193L499.579 109.919ZM480.502 107.081C474.585 107.081 468.965 106.307 463.62 104.78L460.155 116.908C466.681 118.772 473.47 119.694 480.502 119.694V107.081ZM463.693 104.801C458.246 103.174 454.226 101.191 451.386 99.0159L443.716 109.029C448.122 112.403 453.659 114.968 460.083 116.886L463.693 104.801ZM453.3 106.614L459.659 92.5089L448.161 87.3252L441.802 101.431L453.3 106.614ZM450.256 95.0565C454.29 97.9258 458.934 100.225 464.113 102.008L468.219 90.0819C463.994 88.6275 460.467 86.8414 457.565 84.7776L450.256 95.0565ZM464.23 102.047C469.612 103.783 475.082 104.664 480.618 104.664V92.0507C476.441 92.0507 472.277 91.3897 468.102 90.0429L464.23 102.047ZM480.618 104.664C484.629 104.664 488.303 104.297 491.39 103.34L487.651 91.2936C486.267 91.7231 484.006 92.0507 480.618 92.0507V104.664ZM491.515 103.299C494.487 102.309 497.383 100.745 499.476 98.2039L489.739 90.1859C489.674 90.2652 489.179 90.7829 487.526 91.3338L491.515 103.299ZM499.476 98.2039C501.484 95.7658 502.533 92.8459 502.533 89.6858H489.92C489.92 89.8526 489.896 89.9276 489.886 89.9542C489.876 89.9809 489.847 90.0553 489.739 90.1859L499.476 98.2039ZM502.533 89.6858C502.533 85.5799 500.775 81.9589 497.392 79.4985L489.973 89.6989C490.008 89.7243 490.028 89.7416 490.037 89.7492C490.045 89.7567 490.043 89.7557 490.034 89.7454C490.025 89.7349 490.011 89.7178 489.995 89.6941C489.979 89.6703 489.964 89.6438 489.95 89.6157C489.936 89.5877 489.925 89.5624 489.918 89.5419C489.911 89.5216 489.908 89.5098 489.908 89.5089C489.908 89.5063 489.92 89.5598 489.92 89.6858H502.533ZM497.539 79.6085C495.017 77.6598 491.971 76.3191 488.665 75.4007L485.289 87.5533C487.532 88.1765 488.957 88.9169 489.827 89.5888L497.539 79.6085ZM488.82 75.4459C485.822 74.53 482.542 73.7125 478.991 72.9862L476.464 85.3431C479.696 86.0043 482.582 86.7283 485.134 87.5081L488.82 75.4459ZM479.156 73.0222C476.012 72.291 472.82 71.411 469.581 70.3803L465.757 82.3994C469.3 83.5269 472.814 84.4968 476.299 85.3072L479.156 73.0222ZM469.621 70.3933C466.741 69.4556 464.149 68.268 461.823 66.8465L455.246 77.6088C458.47 79.5787 461.967 81.1659 465.716 82.3864L469.621 70.3933ZM461.823 66.8465C459.877 65.6567 458.292 64.1046 457.028 62.1265L446.399 68.9171C448.681 72.4886 451.644 75.4071 455.246 77.6088L461.823 66.8465ZM457.095 62.2333C456.171 60.7227 455.476 58.4107 455.476 54.885H442.864C442.864 59.9921 443.864 64.7713 446.332 68.8103L457.095 62.2333ZM455.476 54.885C455.476 51.4523 456.371 48.4554 458.15 45.731L447.59 38.8344C444.436 43.6637 442.864 49.0684 442.864 54.885H455.476ZM458.133 45.7565C459.899 43.0809 462.648 40.7471 466.77 38.9081L461.631 27.3897C455.732 30.0213 450.928 33.7767 447.606 38.8089L458.133 45.7565ZM466.81 38.8901C470.836 37.0602 476.237 35.9868 483.277 35.9868V23.374C475.056 23.374 467.739 24.613 461.591 27.4078L466.81 38.8901ZM483.277 35.9868C487.849 35.9868 492.345 36.5403 496.778 37.6484L499.837 25.4122C494.403 24.0538 488.88 23.374 483.277 23.374V35.9868ZM496.868 37.6703C501.207 38.6871 504.892 40.2114 508 42.1781L514.744 31.5193C510.299 28.7071 505.274 26.6858 499.746 25.3903L496.868 37.6703ZM505.53 34.4738L499.749 48.6948L511.433 53.4445L517.214 39.2236L505.53 34.4738ZM508.72 45.5941C504.521 43.1948 500.239 41.3909 495.878 40.2338L492.644 52.4249C495.836 53.2718 499.107 54.6281 502.462 56.5451L508.72 45.5941ZM495.993 40.2656C491.7 39.039 487.417 38.4043 483.161 38.4043V51.0171C486.151 51.0171 489.268 51.4615 492.528 52.3931L495.993 40.2656ZM483.161 38.4043C479.114 38.4043 475.341 38.8687 472.088 40.0615L476.43 51.9034C477.802 51.4005 479.963 51.0171 483.161 51.0171V38.4043ZM472.088 40.0615C469.09 41.1609 466.171 42.8793 464.175 45.643L474.4 53.0277C474.408 53.0167 474.803 52.4998 476.43 51.9034L472.088 40.0615ZM464.278 45.5045C462.37 47.9992 461.478 50.9128 461.478 53.9601H474.091C474.091 53.4618 474.201 53.2922 474.297 53.1662L464.278 45.5045ZM461.478 53.9601C461.478 58.0612 463.284 61.5744 466.472 64.0374L474.184 54.0571C474.08 53.9769 474.037 53.9278 474.029 53.9187C474.023 53.9115 474.04 53.9302 474.061 53.9724C474.071 53.9918 474.079 54.0115 474.085 54.0298C474.092 54.0481 474.095 54.0612 474.097 54.0673C474.1 54.0812 474.091 54.0503 474.091 53.9601H461.478ZM466.619 64.1474C469.105 65.9561 472.097 67.2271 475.346 68.1296L478.722 55.977C476.421 55.3379 474.942 54.6049 474.037 53.947L466.619 64.1474ZM475.346 68.1296C478.22 68.9281 481.353 69.7206 484.739 70.5081L487.596 58.2231C484.353 57.4691 481.397 56.72 478.722 55.977L475.346 68.1296ZM484.77 70.5152C488.018 71.2535 491.229 72.1022 494.401 73.0614L498.051 60.9883C494.595 59.9434 491.1 59.0194 487.565 58.2161L484.77 70.5152ZM494.439 73.0728C497.349 73.9325 499.921 75.0675 502.187 76.4526L508.764 65.6903C505.481 63.684 501.886 62.1212 498.013 60.9769L494.439 73.0728ZM502.187 76.4526C504.108 77.6266 505.626 79.1446 506.8 81.0657L517.563 74.4888C515.345 70.8603 512.393 67.9077 508.764 65.6903L502.187 76.4526ZM506.867 81.1726C507.83 82.6796 508.534 84.9207 508.534 88.2984H521.147C521.147 83.1975 520.079 78.4246 517.496 74.382L506.867 81.1726ZM508.534 88.2984C508.534 91.5892 507.638 94.5251 505.794 97.2624L516.256 104.308C519.5 99.4914 521.147 94.1029 521.147 88.2984H508.534ZM505.794 97.2624C504.036 99.8731 501.236 102.239 496.97 104.178L502.189 115.66C508.097 112.975 512.927 109.251 516.256 104.308L505.794 97.2624ZM496.936 104.193C493.015 106.003 487.636 107.081 480.502 107.081V119.694C488.784 119.694 496.123 118.46 502.222 115.645L496.936 104.193ZM555.992 112H549.686V118.306H555.992V112ZM555.992 46.3293H562.299V40.0229H555.992V46.3293ZM530.094 46.3293H523.788V52.6357H530.094V46.3293ZM530.094 31.0678V24.7614H523.788V31.0678H530.094ZM600.621 31.0678H606.927V24.7614H600.621V31.0678ZM600.621 46.3293V52.6357H606.927V46.3293H600.621ZM574.722 46.3293V40.0229H568.416V46.3293H574.722ZM574.722 112V118.306H581.029V112H574.722ZM562.299 112V46.3293H549.686V112H562.299ZM555.992 40.0229H530.094V52.6357H555.992V40.0229ZM536.4 46.3293V31.0678H523.788V46.3293H536.4ZM530.094 37.3742H600.621V24.7614H530.094V37.3742ZM594.314 31.0678V46.3293H606.927V31.0678H594.314ZM600.621 40.0229H574.722V52.6357H600.621V40.0229ZM568.416 46.3293V112H581.029V46.3293H568.416ZM574.722 105.694H555.992V118.306H574.722V105.694ZM30.9855 251.381L28.6874 257.254L28.7384 257.274L28.7897 257.293L30.9855 251.381ZM16.9958 242.594L12.6265 247.142L12.6486 247.163L12.6708 247.184L16.9958 242.594ZM7.74637 229.298L1.94081 231.761L1.95653 231.798L1.97273 231.835L7.74637 229.298ZM7.74637 195.769L1.97273 193.232L1.95653 193.269L1.94081 193.306L7.74637 195.769ZM17.1114 182.473L21.4363 187.063H21.4363L17.1114 182.473ZM31.2167 173.802L33.4125 179.714L33.4494 179.7L33.4862 179.686L31.2167 173.802ZM68.3299 174.265L65.8932 180.081L65.907 180.087L65.9209 180.093L68.3299 174.265ZM82.8977 184.67L87.1752 189.304L91.6604 185.164L87.6687 180.546L82.8977 184.67ZM70.8735 195.769L66.3013 200.113L70.583 204.62L75.151 200.403L70.8735 195.769ZM61.2772 188.948L58.716 194.711L58.7699 194.735L58.8242 194.758L61.2772 188.948ZM39.1943 188.485L36.9492 182.592L39.1943 188.485ZM30.7542 193.804L26.3686 189.272L26.3315 189.308L26.2949 189.345L30.7542 193.804ZM25.3202 202.013L19.4947 199.597L19.4694 199.658L19.4453 199.72L25.3202 202.013ZM25.3202 222.939L19.4453 225.232L19.4694 225.294L19.4947 225.355L25.3202 222.939ZM30.7542 231.264L26.2224 235.65L26.2943 235.724L26.3686 235.796L30.7542 231.264ZM39.0787 236.582L36.786 242.457L36.8098 242.467L36.8336 242.476L39.0787 236.582ZM60.4679 236.698L62.4622 242.681L62.501 242.668L62.5397 242.654L60.4679 236.698ZM70.7578 230.57L75.7152 226.672L71.6409 221.491L66.6445 225.79L70.7578 230.57ZM81.3946 244.097L85.1926 249.132L90.329 245.257L86.352 240.199L81.3946 244.097ZM66.0175 251.728L64.1908 245.692L64.1797 245.696L64.1686 245.699L66.0175 251.728ZM64.2833 241.669H57.9769V247.144L63.3973 247.913L64.2833 241.669ZM64.2833 211.262V204.956H57.9769V211.262H64.2833ZM81.3946 211.262H87.701V204.956H81.3946V211.262ZM81.3946 244.097L80.5087 250.341L87.701 251.362V244.097H81.3946ZM48.6749 248.081C42.9438 248.081 37.8001 247.185 33.1813 245.47L28.7897 257.293C34.9618 259.586 41.6111 260.694 48.6749 260.694V248.081ZM33.2835 245.509C28.6883 243.71 24.7197 241.208 21.3207 238.005L12.6708 247.184C17.288 251.535 22.6459 254.89 28.6874 257.254L33.2835 245.509ZM21.365 238.047C18.0409 234.853 15.4298 231.108 13.52 226.762L1.97273 231.835C4.53347 237.663 8.08866 242.782 12.6265 247.142L21.365 238.047ZM13.5519 226.835C11.7565 222.603 10.8155 217.863 10.8155 212.534H-1.79732C-1.79732 219.383 -0.580136 225.819 1.94081 231.761L13.5519 226.835ZM10.8155 212.534C10.8155 207.204 11.7565 202.464 13.5519 198.232L1.94081 193.306C-0.580136 199.249 -1.79732 205.685 -1.79732 212.534H10.8155ZM13.52 198.306C15.4181 193.986 18.0496 190.254 21.4363 187.063L12.7864 177.884C8.15701 182.246 4.54518 187.378 1.97273 193.232L13.52 198.306ZM21.4363 187.063C24.8026 183.891 28.7717 181.438 33.4125 179.714L29.0209 167.89C22.8708 170.175 17.4362 173.502 12.7864 177.884L21.4363 187.063ZM33.4862 179.686C38.0761 177.916 43.2309 176.987 49.0218 176.987V164.374C41.8635 164.374 35.1482 165.526 28.9472 167.918L33.4862 179.686ZM49.0218 176.987C55.4851 176.987 61.074 178.062 65.8932 180.081L70.7666 168.448C64.1782 165.688 56.895 164.374 49.0218 164.374V176.987ZM65.9209 180.093C70.8303 182.122 74.8657 185.022 78.1267 188.794L87.6687 180.546C83.0677 175.223 77.3912 171.186 70.7389 168.436L65.9209 180.093ZM78.6202 180.036L66.596 191.135L75.151 200.403L87.1752 189.304L78.6202 180.036ZM75.4456 191.426C71.9961 187.795 68.0959 184.981 63.7302 183.138L58.8242 194.758C61.3956 195.843 63.8929 197.578 66.3013 200.113L75.4456 191.426ZM63.8385 183.185C59.5035 181.258 54.846 180.329 49.9467 180.329V192.942C53.2177 192.942 56.1139 193.554 58.716 194.711L63.8385 183.185ZM49.9467 180.329C45.3509 180.329 40.9934 181.052 36.9492 182.592L41.4393 194.379C43.8698 193.453 46.6805 192.942 49.9467 192.942V180.329ZM36.9492 182.592C32.9477 184.117 29.3977 186.341 26.3686 189.272L35.1398 198.336C36.8896 196.642 38.9663 195.321 41.4393 194.379L36.9492 182.592ZM26.2949 189.345C23.3706 192.269 21.1071 195.709 19.4947 199.597L31.1457 204.428C32.154 201.996 33.5131 199.964 35.2135 198.263L26.2949 189.345ZM19.4453 199.72C17.8908 203.704 17.1639 208.001 17.1639 212.534H29.7767C29.7767 209.359 30.2831 206.642 31.1951 204.305L19.4453 199.72ZM17.1639 212.534C17.1639 217.006 17.8963 221.263 19.4453 225.232L31.1951 220.647C30.2776 218.296 29.7767 215.615 29.7767 212.534H17.1639ZM19.4947 225.355C21.0997 229.226 23.3429 232.674 26.2224 235.65L35.286 226.878C33.5409 225.075 32.1614 222.974 31.1457 220.524L19.4947 225.355ZM26.3686 235.796C29.372 238.702 32.8621 240.926 36.786 242.457L41.3713 230.707C38.9748 229.772 36.9153 228.45 35.1398 226.732L26.3686 235.796ZM36.8336 242.476C40.8641 244.011 45.1803 244.739 49.7155 244.739V232.126C46.5428 232.126 43.7678 231.62 41.3237 230.689L36.8336 242.476ZM49.7155 244.739C54.0848 244.739 58.3428 244.054 62.4622 242.681L58.4736 230.715C55.6559 231.654 52.7456 232.126 49.7155 232.126V244.739ZM62.5397 242.654C66.9461 241.122 71.0536 238.635 74.8711 235.351L66.6445 225.79C63.8333 228.209 61.0808 229.808 58.3961 230.742L62.5397 242.654ZM65.8005 234.468L76.4373 247.996L86.352 240.199L75.7152 226.672L65.8005 234.468ZM77.5967 239.063C73.8589 241.883 69.4171 244.111 64.1908 245.692L67.8442 257.764C74.3338 255.8 80.1434 252.941 85.1926 249.132L77.5967 239.063ZM64.1686 245.699C58.9591 247.296 53.8008 248.081 48.6749 248.081V260.694C55.1108 260.694 61.5142 259.706 67.8665 257.757L64.1686 245.699ZM70.5897 241.669V211.262H57.9769V241.669H70.5897ZM64.2833 217.569H81.3946V204.956H64.2833V217.569ZM75.0882 211.262V244.097H87.701V211.262H75.0882ZM82.2806 237.854L65.1692 235.426L63.3973 247.913L80.5087 250.341L82.2806 237.854ZM111.511 253H105.205V259.306H111.511V253ZM111.511 172.068V165.761H105.205V172.068H111.511ZM165.273 175.652L162.657 181.39L162.692 181.406L162.728 181.422L165.273 175.652ZM177.413 185.711L172.123 189.144L177.413 185.711ZM177.413 217.043L182.675 220.519L182.689 220.498L182.703 220.477L177.413 217.043ZM165.273 226.986L167.819 232.756L165.273 226.986ZM121.917 230.455L117.489 225.964L106.54 236.761H121.917V230.455ZM130.241 222.246H136.548V207.17L125.813 217.755L130.241 222.246ZM130.241 253V259.306H136.548V253H130.241ZM162.961 253L157.768 256.578L159.648 259.306H162.961V253ZM142.728 223.633V217.327H130.725L137.535 227.211L142.728 223.633ZM162.73 223.633L167.904 220.028L166.022 217.327H162.73V223.633ZM183.194 253V259.306H195.275L188.368 249.394L183.194 253ZM130.241 224.327L125.663 228.664L136.548 240.153V224.327H130.241ZM121.917 215.54V209.234H107.255L117.339 219.877L121.917 215.54ZM158.452 211.84L162.577 216.61L162.614 216.579L162.649 216.547L158.452 211.84ZM121.917 187.329L117.31 183.022L107.386 193.636H121.917V187.329ZM130.241 178.427H136.548V162.449L125.635 174.12L130.241 178.427ZM117.818 253V172.068H105.205V253H117.818ZM111.511 178.374H146.543V165.761H111.511V178.374ZM146.543 178.374C153.111 178.374 158.42 179.459 162.657 181.39L167.889 169.914C161.644 167.066 154.466 165.761 146.543 165.761V178.374ZM162.728 181.422C166.956 183.287 170.002 185.876 172.123 189.144L182.703 182.277C179.121 176.758 174.073 172.641 167.819 169.882L162.728 181.422ZM172.123 189.144C174.209 192.358 175.385 196.362 175.385 201.435H187.997C187.997 194.329 186.32 187.85 182.703 182.277L172.123 189.144ZM175.385 201.435C175.385 206.413 174.218 210.383 172.123 213.609L182.703 220.477C186.312 214.916 187.997 208.481 187.997 201.435H175.385ZM172.151 213.567C170.037 216.767 166.986 219.338 162.728 221.216L167.819 232.756C174.044 230.01 179.086 225.952 182.675 220.519L172.151 213.567ZM162.728 221.216C158.471 223.094 153.136 224.148 146.543 224.148V236.761C154.441 236.761 161.593 235.503 167.819 232.756L162.728 221.216ZM146.543 224.148H121.917V236.761H146.543V224.148ZM126.345 234.945L134.669 226.736L125.813 217.755L117.489 225.964L126.345 234.945ZM123.935 222.246V253H136.548V222.246H123.935ZM130.241 246.694H111.511V259.306H130.241V246.694ZM168.154 249.422L147.921 220.055L137.535 227.211L157.768 256.578L168.154 249.422ZM142.728 229.94H162.73V217.327H142.728V229.94ZM157.556 227.239L178.02 256.606L188.368 249.394L167.904 220.028L157.556 227.239ZM183.194 246.694H162.961V259.306H183.194V246.694ZM134.819 219.99L126.495 211.203L117.339 219.877L125.663 228.664L134.819 219.99ZM121.917 221.846H145.503V209.234H121.917V221.846ZM145.503 221.846C152.024 221.846 158.105 220.478 162.577 216.61L154.326 207.07C153.095 208.135 150.543 209.234 145.503 209.234V221.846ZM162.649 216.547C167.05 212.622 169.036 207.328 169.036 201.435H156.423C156.423 204.328 155.558 205.971 154.254 207.134L162.649 216.547ZM169.036 201.435C169.036 195.507 167.074 190.148 162.577 186.259L154.326 195.799C155.533 196.843 156.423 198.421 156.423 201.435H169.036ZM162.577 186.259C158.105 182.391 152.024 181.023 145.503 181.023V193.636C150.543 193.636 153.095 194.734 154.326 195.799L162.577 186.259ZM145.503 181.023H121.917V193.636H145.503V181.023ZM126.523 191.637L134.848 182.734L125.635 174.12L117.31 183.022L126.523 191.637ZM123.935 178.427V224.327H136.548V178.427H123.935ZM230.753 251.266L228.484 257.15L228.498 257.155L228.512 257.16L230.753 251.266ZM216.648 242.479L212.279 247.026L212.301 247.048L212.323 247.069L216.648 242.479ZM207.399 229.183L201.593 231.646L201.609 231.683L201.625 231.72L207.399 229.183ZM207.399 195.885L201.625 193.348L201.609 193.385L201.593 193.422L207.399 195.885ZM230.869 173.802L228.599 167.918H228.599L230.869 173.802ZM266.017 173.802L263.719 179.675L263.733 179.68L263.747 179.686L266.017 173.802ZM280.006 182.589L275.637 187.137L275.659 187.158L275.681 187.179L280.006 182.589ZM289.371 195.885L283.598 198.422L283.605 198.438L283.612 198.454L289.371 195.885ZM289.371 229.298L295.145 231.835L295.152 231.819L295.159 231.803L289.371 229.298ZM280.006 242.594L284.329 247.187L284.331 247.184L280.006 242.594ZM266.017 251.266L263.747 245.382L263.733 245.387L263.719 245.393L266.017 251.266ZM258.386 236.582L256.044 230.727L256.018 230.737L255.992 230.748L258.386 236.582ZM266.479 231.264L262.02 226.805L266.479 231.264ZM271.798 223.055L265.972 220.64L265.947 220.701L265.923 220.762L271.798 223.055ZM271.798 202.013L265.923 204.305L265.947 204.367L265.972 204.428L271.798 202.013ZM266.479 193.804L261.945 198.187L261.982 198.225L262.02 198.263L266.479 193.804ZM258.501 188.485L256.159 194.341L258.501 188.485ZM238.384 188.485L236.042 182.63L236.016 182.64L235.99 182.651L238.384 188.485ZM230.406 193.804L234.866 198.263L230.406 193.804ZM224.972 202.013L219.147 199.597L219.122 199.658L219.098 199.72L224.972 202.013ZM224.972 223.055L219.079 225.3L219.112 225.386L219.147 225.471L224.972 223.055ZM230.291 231.264L225.757 235.647L225.794 235.685L225.832 235.723L230.291 231.264ZM238.384 236.582L236.042 242.438H236.042L238.384 236.582ZM248.558 248.081C242.856 248.081 237.688 247.156 232.995 245.371L228.512 257.16C234.764 259.538 241.466 260.694 248.558 260.694V248.081ZM233.023 245.382C228.351 243.58 224.357 241.078 220.973 237.889L212.323 247.069C216.955 251.434 222.365 254.789 228.484 257.15L233.023 245.382ZM221.017 237.931C217.693 234.737 215.082 230.992 213.172 226.646L201.625 231.72C204.186 237.548 207.741 242.666 212.279 247.026L221.017 237.931ZM213.204 226.72C211.405 222.478 210.468 217.775 210.468 212.534H197.855C197.855 219.317 199.076 225.713 201.593 231.646L213.204 226.72ZM210.468 212.534C210.468 207.293 211.405 202.59 213.204 198.348L201.593 193.422C199.076 199.355 197.855 205.751 197.855 212.534H210.468ZM213.172 198.422C215.07 194.102 217.702 190.37 221.089 187.179L212.439 177.999C207.809 182.362 204.197 187.494 201.625 193.348L213.172 198.422ZM221.089 187.179C224.472 183.99 228.467 181.488 233.138 179.686L228.599 167.918C222.48 170.278 217.071 173.634 212.439 177.999L221.089 187.179ZM233.138 179.686C237.745 177.909 242.826 176.987 248.443 176.987V164.374C241.419 164.374 234.783 165.533 228.599 167.918L233.138 179.686ZM248.443 176.987C254.148 176.987 259.215 177.913 263.719 179.675L268.315 167.929C262.181 165.529 255.533 164.374 248.443 164.374V176.987ZM263.747 179.686C268.409 181.484 272.346 183.975 275.637 187.137L284.376 178.041C279.804 173.649 274.415 170.282 268.286 167.918L263.747 179.686ZM275.681 187.179C279.068 190.37 281.7 194.102 283.598 198.422L295.145 193.348C292.573 187.494 288.961 182.362 284.331 177.999L275.681 187.179ZM283.612 198.454C285.449 202.571 286.418 207.232 286.418 212.534H299.031C299.031 205.657 297.764 199.219 295.131 193.316L283.612 198.454ZM286.418 212.534C286.418 217.744 285.454 222.473 283.584 226.793L295.159 231.803C297.759 225.795 299.031 219.348 299.031 212.534H286.418ZM283.598 226.762C281.7 231.081 279.068 234.813 275.681 238.005L284.331 247.184C288.961 242.822 292.573 237.69 295.145 231.835L283.598 226.762ZM275.684 238.002C272.389 241.104 268.436 243.573 263.747 245.382L268.286 257.15C274.388 254.796 279.762 251.485 284.329 247.187L275.684 238.002ZM263.719 245.393C259.207 247.158 254.176 248.081 248.558 248.081V260.694C255.581 260.694 262.19 259.535 268.315 257.139L263.719 245.393ZM248.443 244.739C252.792 244.739 256.931 243.996 260.78 242.417L255.992 230.748C253.828 231.636 251.339 232.126 248.443 232.126V244.739ZM260.728 242.438C264.592 240.892 268.013 238.649 270.938 235.723L262.02 226.805C260.321 228.504 258.346 229.806 256.044 230.727L260.728 242.438ZM270.938 235.723C273.89 232.771 276.134 229.289 277.672 225.348L265.923 220.762C264.994 223.141 263.692 225.132 262.02 226.805L270.938 235.723ZM277.623 225.471C279.289 221.454 280.069 217.112 280.069 212.534H267.457C267.457 215.663 266.927 218.336 265.972 220.64L277.623 225.471ZM280.069 212.534C280.069 207.956 279.289 203.614 277.623 199.597L265.972 204.428C266.927 206.732 267.457 209.404 267.457 212.534H280.069ZM277.672 199.72C276.134 195.779 273.89 192.297 270.938 189.345L262.02 198.263C263.692 199.936 264.994 201.926 265.923 204.305L277.672 199.72ZM271.013 189.421C268.139 186.448 264.726 184.183 260.844 182.63L256.159 194.341C258.444 195.255 260.349 196.536 261.945 198.187L271.013 189.421ZM260.844 182.63C256.95 181.073 252.794 180.329 248.443 180.329V192.942C251.336 192.942 253.886 193.432 256.159 194.341L260.844 182.63ZM248.443 180.329C244.091 180.329 239.935 181.073 236.042 182.63L240.726 194.341C242.999 193.432 245.549 192.942 248.443 192.942V180.329ZM235.99 182.651C232.206 184.203 228.846 186.445 225.947 189.345L234.866 198.263C236.591 196.538 238.55 195.234 240.778 194.32L235.99 182.651ZM225.947 189.345C223.023 192.269 220.759 195.709 219.147 199.597L230.798 204.428C231.806 201.996 233.165 199.964 234.866 198.263L225.947 189.345ZM219.098 199.72C217.543 203.704 216.816 208.001 216.816 212.534H229.429C229.429 209.359 229.935 206.642 230.847 204.305L219.098 199.72ZM216.816 212.534C216.816 217.009 217.549 221.284 219.079 225.3L230.866 220.81C229.929 218.352 229.429 215.613 229.429 212.534H216.816ZM219.147 225.471C220.741 229.315 222.937 232.73 225.757 235.647L234.825 226.881C233.174 225.173 231.825 223.116 230.798 220.64L219.147 225.471ZM225.832 235.723C228.757 238.649 232.178 240.892 236.042 242.438L240.726 230.727C238.423 229.806 236.449 228.504 234.75 226.805L225.832 235.723ZM236.042 242.438C239.935 243.995 244.091 244.739 248.443 244.739V232.126C245.549 232.126 242.999 231.636 240.726 230.727L236.042 242.438ZM336.345 253L330.352 254.961L331.773 259.306H336.345V253ZM309.869 172.068V165.761H301.171L303.875 174.029L309.869 172.068ZM329.293 172.068L335.297 170.141L333.892 165.761H329.293V172.068ZM352.301 243.751V250.057H360.948L358.305 241.823L352.301 243.751ZM342.589 243.751L336.61 241.745L333.821 250.057H342.589V243.751ZM366.637 172.068V165.761H362.101L360.658 170.062L366.637 172.068ZM383.98 172.068L389.982 170.132L388.572 165.761H383.98V172.068ZM407.103 243.751V250.057H415.764L413.105 241.815L407.103 243.751ZM397.738 243.751L391.748 241.78L389.024 250.057H397.738V243.751ZM421.324 172.068V165.761H416.76L415.334 170.097L421.324 172.068ZM439.245 172.068L445.239 174.029L447.943 165.761H439.245V172.068ZM412.769 253V259.306H417.341L418.762 254.961L412.769 253ZM392.651 253L386.654 254.951L388.071 259.306H392.651V253ZM372.187 190.104V183.798H363.503L366.19 192.055L372.187 190.104ZM377.505 190.104L383.486 192.105L386.265 183.798H377.505V190.104ZM356.463 253V259.306H361.003L362.443 255.001L356.463 253ZM342.339 251.039L315.863 170.107L303.875 174.029L330.352 254.961L342.339 251.039ZM309.869 178.374H329.293V165.761H309.869V178.374ZM323.288 173.995L346.296 245.678L358.305 241.823L335.297 170.141L323.288 173.995ZM352.301 237.444H342.589V250.057H352.301V237.444ZM348.568 245.756L372.616 174.074L360.658 170.062L336.61 241.745L348.568 245.756ZM366.637 178.374H383.98V165.761H366.637V178.374ZM377.978 174.004L401.101 245.687L413.105 241.815L389.982 170.132L377.978 174.004ZM407.103 237.444H397.738V250.057H407.103V237.444ZM403.729 245.722L427.315 174.039L415.334 170.097L391.748 241.78L403.729 245.722ZM421.324 178.374H439.245V165.761H421.324V178.374ZM433.251 170.107L406.775 251.039L418.762 254.961L445.239 174.029L433.251 170.107ZM412.769 246.694H392.651V259.306H412.769V246.694ZM398.648 251.049L378.184 188.153L366.19 192.055L386.654 254.951L398.648 251.049ZM372.187 196.411H377.505V183.798H372.187V196.411ZM371.525 188.103L350.482 250.999L362.443 255.001L383.486 192.105L371.525 188.103ZM356.463 246.694H336.345V259.306H356.463V246.694ZM462.419 253H456.113V259.306H462.419V253ZM462.419 172.068V165.761H456.113V172.068H462.419ZM481.149 172.068H487.455V165.761H481.149V172.068ZM481.149 253V259.306H487.455V253H481.149ZM468.725 253V172.068H456.113V253H468.725ZM462.419 178.374H481.149V165.761H462.419V178.374ZM474.843 172.068V253H487.455V172.068H474.843ZM481.149 246.694H462.419V259.306H481.149V246.694ZM513.074 253H506.767V259.306H513.074V253ZM513.074 172.068V165.761H506.767V172.068H513.074ZM528.567 172.068L533.444 168.071L531.552 165.761H528.567V172.068ZM576.317 230.339V236.645H589.638L581.194 226.342L576.317 230.339ZM568.801 230.339H562.495V236.645H568.801V230.339ZM568.801 172.068V165.761H562.495V172.068H568.801ZM587.3 172.068H593.607V165.761H587.3V172.068ZM587.3 253V259.306H593.607V253H587.3ZM571.923 253L567.05 257.003L568.942 259.306H571.923V253ZM524.057 194.729V188.422H510.716L519.184 198.732L524.057 194.729ZM531.573 194.729H537.879V188.422H531.573V194.729ZM531.573 253V259.306H537.879V253H531.573ZM519.38 253V172.068H506.767V253H519.38ZM513.074 178.374H528.567V165.761H513.074V178.374ZM523.689 176.065L571.439 234.336L581.194 226.342L533.444 168.071L523.689 176.065ZM576.317 224.033H568.801V236.645H576.317V224.033ZM575.108 230.339V172.068H562.495V230.339H575.108ZM568.801 178.374H587.3V165.761H568.801V178.374ZM580.994 172.068V253H593.607V172.068H580.994ZM587.3 246.694H571.923V259.306H587.3V246.694ZM576.796 248.997L528.931 190.726L519.184 198.732L567.05 257.003L576.796 248.997ZM524.057 201.035H531.573V188.422H524.057V201.035ZM525.266 194.729V253H537.879V194.729H525.266ZM531.573 246.694H513.074V259.306H531.573V246.694ZM640.556 251.381L638.258 257.254L638.308 257.274L638.36 257.293L640.556 251.381ZM626.566 242.594L622.197 247.142L622.219 247.163L622.241 247.184L626.566 242.594ZM617.316 229.298L611.511 231.761L611.527 231.798L611.543 231.835L617.316 229.298ZM617.316 195.769L611.543 193.232L611.527 193.269L611.511 193.306L617.316 195.769ZM626.681 182.473L631.006 187.063L626.681 182.473ZM640.787 173.802L642.983 179.714L643.02 179.7L643.056 179.686L640.787 173.802ZM677.9 174.265L675.463 180.081L675.477 180.087L675.491 180.093L677.9 174.265ZM692.468 184.67L696.745 189.304L701.23 185.164L697.239 180.546L692.468 184.67ZM680.444 195.769L675.871 200.113L680.153 204.62L684.721 200.403L680.444 195.769ZM670.847 188.948L668.286 194.711L668.34 194.735L668.394 194.758L670.847 188.948ZM648.764 188.485L646.519 182.592L648.764 188.485ZM640.324 193.804L635.939 189.272L635.902 189.308L635.865 189.345L640.324 193.804ZM634.89 202.013L629.065 199.597L629.039 199.658L629.015 199.72L634.89 202.013ZM634.89 222.939L629.015 225.232L629.039 225.294L629.065 225.355L634.89 222.939ZM640.324 231.264L635.792 235.65L635.864 235.724L635.939 235.796L640.324 231.264ZM648.649 236.582L646.356 242.457L646.38 242.467L646.404 242.476L648.649 236.582ZM670.038 236.698L672.032 242.681L672.071 242.668L672.11 242.654L670.038 236.698ZM680.328 230.57L685.285 226.672L681.211 221.491L676.215 225.79L680.328 230.57ZM690.965 244.097L694.763 249.132L699.899 245.257L695.922 240.199L690.965 244.097ZM675.588 251.728L673.761 245.692L673.75 245.696L673.739 245.699L675.588 251.728ZM673.853 241.669H667.547V247.144L672.967 247.913L673.853 241.669ZM673.853 211.262V204.956H667.547V211.262H673.853ZM690.965 211.262H697.271V204.956H690.965V211.262ZM690.965 244.097L690.079 250.341L697.271 251.362V244.097H690.965ZM658.245 248.081C652.514 248.081 647.37 247.185 642.751 245.47L638.36 257.293C644.532 259.586 651.181 260.694 658.245 260.694V248.081ZM642.854 245.509C638.258 243.71 634.29 241.208 630.891 238.005L622.241 247.184C626.858 251.535 632.216 254.89 638.258 257.254L642.854 245.509ZM630.935 238.047C627.611 234.853 625 231.108 623.09 226.762L611.543 231.835C614.104 237.663 617.659 242.782 622.197 247.142L630.935 238.047ZM623.122 226.835C621.327 222.603 620.386 217.863 620.386 212.534H607.773C607.773 219.383 608.99 225.819 611.511 231.761L623.122 226.835ZM620.386 212.534C620.386 207.204 621.327 202.464 623.122 198.232L611.511 193.306C608.99 199.249 607.773 205.685 607.773 212.534H620.386ZM623.09 198.306C624.988 193.986 627.62 190.254 631.006 187.063L622.357 177.884C617.727 182.246 614.115 187.378 611.543 193.232L623.09 198.306ZM631.006 187.063C634.373 183.891 638.342 181.438 642.983 179.714L638.591 167.89C632.441 170.175 627.006 173.502 622.357 177.884L631.006 187.063ZM643.056 179.686C647.646 177.916 652.801 176.987 658.592 176.987V164.374C651.434 164.374 644.718 165.526 638.517 167.918L643.056 179.686ZM658.592 176.987C665.055 176.987 670.644 178.062 675.463 180.081L680.337 168.448C673.748 165.688 666.465 164.374 658.592 164.374V176.987ZM675.491 180.093C680.4 182.122 684.436 185.022 687.697 188.794L697.239 180.546C692.638 175.223 686.961 171.186 680.309 168.436L675.491 180.093ZM688.19 180.036L676.166 191.135L684.721 200.403L696.745 189.304L688.19 180.036ZM685.016 191.426C681.566 187.795 677.666 184.981 673.3 183.138L668.394 194.758C670.966 195.843 673.463 197.578 675.871 200.113L685.016 191.426ZM673.409 183.185C669.074 181.258 664.416 180.329 659.517 180.329V192.942C662.788 192.942 665.684 193.554 668.286 194.711L673.409 183.185ZM659.517 180.329C654.921 180.329 650.563 181.052 646.519 182.592L651.009 194.379C653.44 193.453 656.251 192.942 659.517 192.942V180.329ZM646.519 182.592C642.518 184.117 638.968 186.341 635.939 189.272L644.71 198.336C646.46 196.642 648.536 195.321 651.009 194.379L646.519 182.592ZM635.865 189.345C632.941 192.269 630.677 195.709 629.065 199.597L640.716 204.428C641.724 201.996 643.083 199.964 644.784 198.263L635.865 189.345ZM629.015 199.72C627.461 203.704 626.734 208.001 626.734 212.534H639.347C639.347 209.359 639.853 206.642 640.765 204.305L629.015 199.72ZM626.734 212.534C626.734 217.006 627.466 221.263 629.015 225.232L640.765 220.647C639.848 218.296 639.347 215.615 639.347 212.534H626.734ZM629.065 225.355C630.67 229.226 632.913 232.674 635.792 235.65L644.856 226.878C643.111 225.075 641.731 222.974 640.716 220.524L629.065 225.355ZM635.939 235.796C638.942 238.702 642.432 240.926 646.356 242.457L650.941 230.707C648.545 229.772 646.485 228.45 644.71 226.732L635.939 235.796ZM646.404 242.476C650.434 244.011 654.75 244.739 659.286 244.739V232.126C656.113 232.126 653.338 231.62 650.894 230.689L646.404 242.476ZM659.286 244.739C663.655 244.739 667.913 244.054 672.032 242.681L668.044 230.715C665.226 231.654 662.316 232.126 659.286 232.126V244.739ZM672.11 242.654C676.516 241.122 680.624 238.635 684.441 235.351L676.215 225.79C673.403 228.209 670.651 229.808 667.966 230.742L672.11 242.654ZM675.371 234.468L686.007 247.996L695.922 240.199L685.285 226.672L675.371 234.468ZM687.167 239.063C683.429 241.883 678.987 244.111 673.761 245.692L677.414 257.764C683.904 255.8 689.714 252.941 694.763 249.132L687.167 239.063ZM673.739 245.699C668.529 247.296 663.371 248.081 658.245 248.081V260.694C664.681 260.694 671.084 259.706 677.437 257.757L673.739 245.699ZM680.16 241.669V211.262H667.547V241.669H680.16ZM673.853 217.569H690.965V204.956H673.853V217.569ZM684.658 211.262V244.097H697.271V211.262H684.658ZM691.851 237.854L674.739 235.426L672.967 247.913L690.079 250.341L691.851 237.854Z" fill="#005669" mask="url(#path-2-outside-1_239_56)"/>
</svg>
