<svg width="355" height="224" viewBox="0 0 355 224" fill="none" xmlns="http://www.w3.org/2000/svg">
<path d="M0.581349 89L29.2139 24.7603H43.8972L72.6215 89H57.0205L33.5271 32.2856H39.4005L15.8153 89H0.581349ZM14.8976 75.2344L18.8438 63.9465H51.8813L55.9192 75.2344H14.8976ZM81.1218 89V24.7603H112.507C120.583 24.7603 126.64 26.2899 130.678 29.3489C134.777 32.4079 136.827 36.4458 136.827 41.4627C136.827 44.8276 136.001 47.7643 134.349 50.2727C132.697 52.7199 130.433 54.6165 127.558 55.9625C124.682 57.3084 121.379 57.9814 117.647 57.9814L119.39 54.2188C123.428 54.2188 127.007 54.8918 130.127 56.2378C133.248 57.5226 135.664 59.4498 137.377 62.0193C139.152 64.5889 140.039 67.7397 140.039 71.4718C140.039 76.978 137.867 81.2912 133.523 84.4115C129.179 87.4705 122.786 89 114.343 89H81.1218ZM95.8969 77.8039H113.242C117.096 77.8039 120.002 77.1921 121.96 75.9685C123.979 74.6837 124.988 72.6648 124.988 69.9116C124.988 67.2197 123.979 65.2313 121.96 63.9465C120.002 62.6006 117.096 61.9276 113.242 61.9276H94.7957V51.0986H110.672C114.282 51.0986 117.035 50.4868 118.931 49.2632C120.889 47.9784 121.868 46.0512 121.868 43.4816C121.868 40.9732 120.889 39.1072 118.931 37.8836C117.035 36.5988 114.282 35.9564 110.672 35.9564H95.8969V77.8039ZM184.332 90.1013C179.254 90.1013 174.543 89.2753 170.199 87.6234C165.916 85.9716 162.184 83.6467 159.003 80.6488C155.883 77.651 153.436 74.1331 151.661 70.0952C149.948 66.0573 149.092 61.6523 149.092 56.8802C149.092 52.1081 149.948 47.7031 151.661 43.6652C153.436 39.6272 155.913 36.1094 159.095 33.1115C162.276 30.1137 166.008 27.7888 170.291 26.1369C174.574 24.485 179.223 23.6591 184.24 23.6591C189.318 23.6591 193.968 24.485 198.189 26.1369C202.472 27.7888 206.173 30.1137 209.294 33.1115C212.475 36.1094 214.953 39.6272 216.727 43.6652C218.501 47.6419 219.388 52.0469 219.388 56.8802C219.388 61.6523 218.501 66.0879 216.727 70.187C214.953 74.2249 212.475 77.7428 209.294 80.7406C206.173 83.6773 202.472 85.9716 198.189 87.6234C193.968 89.2753 189.349 90.1013 184.332 90.1013ZM184.24 77.4369C187.116 77.4369 189.746 76.9474 192.132 75.9685C194.58 74.9896 196.721 73.5825 198.556 71.7471C200.392 69.9116 201.799 67.7397 202.778 65.2313C203.818 62.7229 204.338 59.9392 204.338 56.8802C204.338 53.8211 203.818 51.0374 202.778 48.529C201.799 46.0206 200.392 43.8487 198.556 42.0133C196.782 40.1779 194.671 38.7707 192.224 37.7918C189.777 36.8129 187.116 36.3235 184.24 36.3235C181.365 36.3235 178.703 36.8129 176.256 37.7918C173.87 38.7707 171.759 40.1779 169.924 42.0133C168.088 43.8487 166.651 46.0206 165.611 48.529C164.632 51.0374 164.142 53.8211 164.142 56.8802C164.142 59.878 164.632 62.6617 165.611 65.2313C166.651 67.7397 168.058 69.9116 169.832 71.7471C171.667 73.5825 173.809 74.9896 176.256 75.9685C178.703 76.9474 181.365 77.4369 184.24 77.4369ZM260.938 90.1013C251.822 90.1013 244.694 87.5623 239.555 82.4843C234.416 77.4063 231.846 70.1564 231.846 60.7346V24.7603H246.713V60.1839C246.713 66.302 247.967 70.707 250.476 73.3989C252.984 76.0909 256.502 77.4369 261.029 77.4369C265.557 77.4369 269.075 76.0909 271.583 73.3989C274.091 70.707 275.346 66.302 275.346 60.1839V24.7603H290.029V60.7346C290.029 70.1564 287.459 77.4063 282.32 82.4843C277.181 87.5623 270.054 90.1013 260.938 90.1013ZM318.787 89V36.8741H298.23V24.7603H354.211V36.8741H333.654V89H318.787ZM147.817 202.101C138.701 202.101 131.574 199.562 126.435 194.484C121.296 189.406 118.726 182.156 118.726 172.735V136.76H133.593V172.184C133.593 178.302 134.847 182.707 137.356 185.399C139.864 188.091 143.382 189.437 147.909 189.437C152.437 189.437 155.954 188.091 158.463 185.399C160.971 182.707 162.225 178.302 162.225 172.184V136.76H176.909V172.735C176.909 182.156 174.339 189.406 169.2 194.484C164.061 199.562 156.933 202.101 147.817 202.101ZM214.543 202.101C209.404 202.101 204.479 201.428 199.768 200.082C195.057 198.675 191.264 196.87 188.388 194.668L193.435 183.472C196.189 185.43 199.431 187.051 203.163 188.336C206.956 189.559 210.78 190.171 214.635 190.171C217.571 190.171 219.927 189.896 221.701 189.345C223.536 188.733 224.882 187.907 225.739 186.867C226.595 185.827 227.024 184.634 227.024 183.288C227.024 181.575 226.351 180.229 225.005 179.25C223.659 178.21 221.884 177.384 219.682 176.772C217.479 176.099 215.032 175.488 212.34 174.937C209.709 174.325 207.048 173.591 204.356 172.735C201.725 171.878 199.309 170.777 197.106 169.431C194.904 168.085 193.099 166.311 191.692 164.108C190.346 161.906 189.673 159.091 189.673 155.665C189.673 151.994 190.652 148.66 192.609 145.662C194.628 142.603 197.626 140.186 201.603 138.412C205.641 136.577 210.688 135.659 216.745 135.659C220.783 135.659 224.76 136.149 228.675 137.127C232.591 138.045 236.048 139.452 239.046 141.349L234.457 152.637C231.459 150.924 228.461 149.669 225.463 148.874C222.466 148.018 219.529 147.589 216.653 147.589C213.778 147.589 211.423 147.926 209.587 148.599C207.752 149.272 206.436 150.159 205.641 151.26C204.846 152.3 204.448 153.524 204.448 154.931C204.448 156.583 205.121 157.929 206.467 158.969C207.813 159.948 209.587 160.743 211.79 161.355C213.992 161.967 216.409 162.579 219.04 163.19C221.731 163.802 224.393 164.506 227.024 165.301C229.716 166.096 232.163 167.167 234.365 168.513C236.568 169.859 238.342 171.633 239.688 173.836C241.095 176.038 241.799 178.822 241.799 182.187C241.799 185.797 240.789 189.1 238.77 192.098C236.751 195.096 233.723 197.513 229.685 199.348C225.708 201.184 220.661 202.101 214.543 202.101Z" fill="white"/>
</svg>
