<svg width="370" height="56" viewBox="0 0 370 56" fill="none" xmlns="http://www.w3.org/2000/svg">
<mask id="path-1-outside-1_350_390" maskUnits="userSpaceOnUse" x="245.909" y="9" width="125" height="39" fill="black">
<rect fill="white" x="245.909" y="9" width="125" height="39"/>
<path d="M260.49 45L249.924 12.7017H257.676L266.858 41.3088H262.982L272.579 12.7017H279.5L288.728 41.3088H284.991L294.404 12.7017H301.555L290.989 45H282.961L274.794 19.8996H276.916L268.519 45H260.49ZM317.679 25.7133H333.228V31.527H317.679V25.7133ZM318.232 39.0017H335.812V45H310.804V12.7017H335.212V18.6999H318.232V39.0017ZM352.747 33.7879C352.747 32.7113 352.916 31.7577 353.255 30.9272C353.624 30.0966 354.07 29.3584 354.593 28.7124C355.146 28.0664 355.731 27.4666 356.346 26.9129C356.961 26.3592 357.53 25.8363 358.053 25.3442C358.607 24.8212 359.053 24.2829 359.391 23.7292C359.76 23.1756 359.945 22.5603 359.945 21.8836C359.945 20.7763 359.484 19.8842 358.561 19.2075C357.669 18.5307 356.469 18.1924 354.962 18.1924C353.516 18.1924 352.224 18.5 351.086 19.1152C349.948 19.6996 349.01 20.5302 348.271 21.6068L342.688 18.3308C343.919 16.4544 345.626 14.9626 347.81 13.8552C349.994 12.717 352.639 12.148 355.746 12.148C358.053 12.148 360.083 12.4863 361.837 13.1631C363.59 13.809 364.959 14.7626 365.943 16.0238C366.958 17.285 367.466 18.8384 367.466 20.684C367.466 21.8836 367.281 22.9449 366.912 23.8677C366.543 24.7905 366.066 25.5902 365.482 26.267C364.897 26.9437 364.267 27.5743 363.59 28.1587C362.944 28.7432 362.329 29.3122 361.745 29.8659C361.16 30.4196 360.668 31.0041 360.268 31.6193C359.899 32.2345 359.714 32.9573 359.714 33.7879H352.747ZM356.254 45.3691C354.962 45.3691 353.901 44.9539 353.07 44.1233C352.24 43.2928 351.824 42.3085 351.824 41.1703C351.824 40.0014 352.24 39.0325 353.07 38.2635C353.901 37.4637 354.962 37.0638 356.254 37.0638C357.576 37.0638 358.638 37.4637 359.437 38.2635C360.268 39.0325 360.683 40.0014 360.683 41.1703C360.683 42.3085 360.268 43.2928 359.437 44.1233C358.638 44.9539 357.576 45.3691 356.254 45.3691Z"/>
</mask>
<path d="M260.49 45L258.098 45.7825L258.666 47.5168H260.49V45ZM249.924 12.7017V10.1849H246.453L247.532 13.4842L249.924 12.7017ZM257.676 12.7017L260.072 11.9325L259.511 10.1849H257.676V12.7017ZM266.858 41.3088V43.8255H270.309L269.254 40.5396L266.858 41.3088ZM262.982 41.3088L260.596 40.5083L259.483 43.8255H262.982V41.3088ZM272.579 12.7017V10.1849H270.769L270.193 11.9012L272.579 12.7017ZM279.5 12.7017L281.895 11.929L281.333 10.1849H279.5V12.7017ZM288.728 41.3088V43.8255H292.185L291.124 40.5361L288.728 41.3088ZM284.991 41.3088L282.6 40.5222L281.513 43.8255H284.991V41.3088ZM294.404 12.7017V10.1849H292.582L292.013 11.9151L294.404 12.7017ZM301.555 12.7017L303.947 13.4842L305.027 10.1849H301.555V12.7017ZM290.989 45V47.5168H292.814L293.381 45.7825L290.989 45ZM282.961 45L280.567 45.7787L281.133 47.5168H282.961V45ZM274.794 19.8996V17.3828H271.328L272.401 20.6783L274.794 19.8996ZM276.916 19.8996L279.303 20.6981L280.412 17.3828H276.916V19.8996ZM268.519 45V47.5168H270.331L270.905 45.7985L268.519 45ZM262.882 44.2175L252.316 11.9191L247.532 13.4842L258.098 45.7825L262.882 44.2175ZM249.924 15.2184H257.676V10.1849H249.924V15.2184ZM255.279 13.4708L264.461 42.0779L269.254 40.5396L260.072 11.9325L255.279 13.4708ZM266.858 38.792H262.982V43.8255H266.858V38.792ZM265.368 42.1092L274.965 13.5022L270.193 11.9012L260.596 40.5083L265.368 42.1092ZM272.579 15.2184H279.5V10.1849H272.579V15.2184ZM277.105 13.4743L286.333 42.0814L291.124 40.5361L281.895 11.929L277.105 13.4743ZM288.728 38.792H284.991V43.8255H288.728V38.792ZM287.382 42.0954L296.794 13.4883L292.013 11.9151L282.6 40.5222L287.382 42.0954ZM294.404 15.2184H301.555V10.1849H294.404V15.2184ZM299.163 11.9191L288.597 44.2175L293.381 45.7825L303.947 13.4842L299.163 11.9191ZM290.989 42.4832H282.961V47.5168H290.989V42.4832ZM285.354 44.2213L277.187 19.1209L272.401 20.6783L280.567 45.7787L285.354 44.2213ZM274.794 22.4163H276.916V17.3828H274.794V22.4163ZM274.53 19.1011L266.132 44.2015L270.905 45.7985L279.303 20.6981L274.53 19.1011ZM268.519 42.4832H260.49V47.5168H268.519V42.4832ZM317.679 25.7133V23.1965H315.162V25.7133H317.679ZM333.228 25.7133H335.745V23.1965H333.228V25.7133ZM333.228 31.527V34.0437H335.745V31.527H333.228ZM317.679 31.527H315.162V34.0437H317.679V31.527ZM318.232 39.0017H315.715V41.5185H318.232V39.0017ZM335.812 39.0017H338.329V36.485H335.812V39.0017ZM335.812 45V47.5168H338.329V45H335.812ZM310.804 45H308.287V47.5168H310.804V45ZM310.804 12.7017V10.1849H308.287V12.7017H310.804ZM335.212 12.7017H337.729V10.1849H335.212V12.7017ZM335.212 18.6999V21.2167H337.729V18.6999H335.212ZM318.232 18.6999V16.1832H315.715V18.6999H318.232ZM317.679 28.23H333.228V23.1965H317.679V28.23ZM330.711 25.7133V31.527H335.745V25.7133H330.711ZM333.228 29.0102H317.679V34.0437H333.228V29.0102ZM320.195 31.527V25.7133H315.162V31.527H320.195ZM318.232 41.5185H335.812V36.485H318.232V41.5185ZM333.295 39.0017V45H338.329V39.0017H333.295ZM335.812 42.4832H310.804V47.5168H335.812V42.4832ZM313.32 45V12.7017H308.287V45H313.32ZM310.804 15.2184H335.212V10.1849H310.804V15.2184ZM332.695 12.7017V18.6999H337.729V12.7017H332.695ZM335.212 16.1832H318.232V21.2167H335.212V16.1832ZM315.715 18.6999V39.0017H320.749V18.6999H315.715ZM352.747 33.7879H350.23V36.3046H352.747V33.7879ZM353.255 30.9272L350.955 29.905L350.939 29.9411L350.924 29.9776L353.255 30.9272ZM354.593 28.7124L352.682 27.0745L352.659 27.1014L352.637 27.1289L354.593 28.7124ZM358.053 25.3442L359.778 27.1769L359.781 27.1739L358.053 25.3442ZM359.391 23.7292L357.297 22.3332L357.27 22.3745L357.244 22.4169L359.391 23.7292ZM358.561 19.2075L357.04 21.2125L357.056 21.2249L357.072 21.237L358.561 19.2075ZM351.086 19.1152L352.236 21.354L352.259 21.3419L352.283 21.3292L351.086 19.1152ZM348.271 21.6068L346.998 23.7774L349.021 24.9644L350.347 23.0301L348.271 21.6068ZM342.688 18.3308L340.584 16.9507L339.133 19.1628L341.415 20.5015L342.688 18.3308ZM347.81 13.8552L348.948 16.0999L348.961 16.0935L348.973 16.0871L347.81 13.8552ZM361.837 13.1631L360.931 15.511L360.949 15.518L360.967 15.5246L361.837 13.1631ZM365.943 16.0238L363.959 17.5723L363.971 17.5871L363.983 17.6018L365.943 16.0238ZM366.912 23.8677L369.249 24.8024V24.8024L366.912 23.8677ZM363.59 28.1587L361.945 26.254L361.923 26.273L361.902 26.2925L363.59 28.1587ZM361.744 29.8659L363.475 31.693L361.744 29.8659ZM360.268 31.6193L358.158 30.2477L358.133 30.2856L358.11 30.3244L360.268 31.6193ZM359.714 33.7879V36.3046H362.231V33.7879H359.714ZM353.07 44.1233L351.29 45.9029L353.07 44.1233ZM353.07 38.2635L354.78 40.1102L354.798 40.0934L354.816 40.0764L353.07 38.2635ZM359.437 38.2635L357.658 40.0431L357.692 40.0773L357.728 40.1102L359.437 38.2635ZM359.437 44.1233L357.658 42.3437L357.641 42.3605L357.625 42.3776L359.437 44.1233ZM355.264 33.7879C355.264 32.973 355.392 32.3518 355.585 31.8767L350.924 29.9776C350.441 31.1636 350.23 32.4495 350.23 33.7879H355.264ZM355.554 31.9493C355.842 31.3015 356.177 30.7555 356.549 30.2959L352.637 27.1289C351.963 27.9613 351.405 28.8918 350.955 29.905L355.554 31.9493ZM356.504 30.3503C356.989 29.7845 357.497 29.2627 358.03 28.7836L354.662 25.0422C353.964 25.6705 353.304 26.3484 352.682 27.0745L356.504 30.3503ZM358.03 28.7836C358.657 28.2193 359.24 27.6836 359.778 27.1769L356.328 23.5115C355.821 23.9891 355.266 24.4992 354.662 25.0422L358.03 28.7836ZM359.781 27.1739C360.47 26.5236 361.066 25.8151 361.539 25.0416L357.244 22.4169C357.04 22.7507 356.744 23.1188 356.325 23.5144L359.781 27.1739ZM361.485 25.1253C362.135 24.1508 362.462 23.0483 362.462 21.8836H357.428C357.428 22.0724 357.386 22.2003 357.297 22.3332L361.485 25.1253ZM362.462 21.8836C362.462 19.9435 361.593 18.3101 360.049 17.178L357.072 21.237C357.374 21.4583 357.428 21.609 357.428 21.8836H362.462ZM360.082 17.2024C358.623 16.0954 356.83 15.6756 354.962 15.6756V20.7091C356.108 20.7091 356.715 20.966 357.04 21.2125L360.082 17.2024ZM354.962 15.6756C353.148 15.6756 351.437 16.0648 349.889 16.9012L352.283 21.3292C353.012 20.9352 353.884 20.7091 354.962 20.7091V15.6756ZM349.936 16.8764C348.419 17.6556 347.165 18.7697 346.196 20.1835L350.347 23.0301C350.854 22.2906 351.477 21.7437 352.236 21.354L349.936 16.8764ZM349.545 19.4361L343.962 16.1601L341.415 20.5015L346.998 23.7774L349.545 19.4361ZM344.793 19.7109C345.761 18.2352 347.12 17.0271 348.948 16.0999L346.672 11.6105C344.133 12.898 342.077 14.6736 340.584 16.9507L344.793 19.7109ZM348.973 16.0871C350.716 15.1787 352.941 14.6647 355.746 14.6647V9.63123C352.338 9.63123 349.272 10.2554 346.647 11.6233L348.973 16.0871ZM355.746 14.6647C357.812 14.6647 359.524 14.9681 360.931 15.511L362.743 10.8151C360.643 10.0046 358.295 9.63123 355.746 9.63123V14.6647ZM360.967 15.5246C362.355 16.0362 363.309 16.7389 363.959 17.5723L367.927 14.4753C366.609 12.7863 364.825 11.5818 362.707 10.8015L360.967 15.5246ZM363.983 17.6018C364.588 18.354 364.949 19.3277 364.949 20.684H369.983C369.983 18.349 369.329 16.2159 367.904 14.4458L363.983 17.6018ZM364.949 20.684C364.949 21.6281 364.804 22.3621 364.575 22.933L369.249 24.8024C369.759 23.5277 369.983 22.1392 369.983 20.684H364.949ZM364.575 22.933C364.299 23.6254 363.96 24.1786 363.577 24.622L367.387 27.912C368.173 27.0019 368.788 25.9556 369.249 24.8024L364.575 22.933ZM363.577 24.622C363.073 25.2059 362.529 25.7497 361.945 26.254L365.235 30.0635C366.005 29.3989 366.722 28.6815 367.387 27.912L363.577 24.622ZM361.902 26.2925C361.243 26.8888 360.613 27.4709 360.014 28.0389L363.475 31.693C364.045 31.1535 364.646 30.5976 365.279 30.025L361.902 26.2925ZM360.014 28.0389C359.299 28.7158 358.676 29.451 358.158 30.2477L362.378 32.9909C362.66 32.5571 363.021 32.1234 363.475 31.693L360.014 28.0389ZM358.11 30.3244C357.471 31.3889 357.198 32.5742 357.198 33.7879H362.231C362.231 33.3405 362.327 33.08 362.426 32.9141L358.11 30.3244ZM359.714 31.2711H352.747V36.3046H359.714V31.2711ZM356.254 42.8524C355.556 42.8524 355.159 42.6528 354.85 42.3437L351.29 45.9029C352.642 47.2549 354.368 47.8859 356.254 47.8859V42.8524ZM354.85 42.3437C354.474 41.9683 354.341 41.6175 354.341 41.1703H349.308C349.308 42.9995 350.005 44.6173 351.29 45.9029L354.85 42.3437ZM354.341 41.1703C354.341 40.6766 354.483 40.3855 354.78 40.1102L351.36 36.4168C349.997 37.6795 349.308 39.3263 349.308 41.1703H354.341ZM354.816 40.0764C355.119 39.784 355.528 39.5806 356.254 39.5806V34.5471C354.396 34.5471 352.682 35.1434 351.324 36.4506L354.816 40.0764ZM356.254 39.5806C357.031 39.5806 357.41 39.7951 357.658 40.0431L361.217 36.4839C359.866 35.1323 358.122 34.5471 356.254 34.5471V39.5806ZM357.728 40.1102C358.025 40.3855 358.167 40.6766 358.167 41.1703H363.2C363.2 39.3263 362.511 37.6795 361.147 36.4168L357.728 40.1102ZM358.167 41.1703C358.167 41.6175 358.033 41.9683 357.658 42.3437L361.217 45.9029C362.503 44.6173 363.2 42.9995 363.2 41.1703H358.167ZM357.625 42.3776C357.37 42.6416 357.002 42.8524 356.254 42.8524V47.8859C358.151 47.8859 359.905 47.2662 361.25 45.8691L357.625 42.3776Z" fill="#005669" mask="url(#path-1-outside-1_350_390)"/>
<path d="M152.469 41.3336L164.117 15.2013H170.09L181.775 41.3336H175.428L165.871 18.2625H168.261L158.666 41.3336H152.469ZM158.293 35.7338L159.898 31.142H173.338L174.98 35.7338H158.293ZM185.233 41.3336V15.2013H196.544C198.884 15.2013 200.899 15.5871 202.592 16.3586C204.284 17.1053 205.591 18.1879 206.512 19.6065C207.433 21.0251 207.893 22.7175 207.893 24.6836C207.893 26.6249 207.433 28.3048 206.512 29.7234C205.591 31.1171 204.284 32.1873 202.592 32.934C200.899 33.6806 198.884 34.0539 196.544 34.0539H188.592L191.28 31.4033V41.3336H185.233ZM201.845 41.3336L195.312 31.8513H201.771L208.378 41.3336H201.845ZM191.28 32.0753L188.592 29.2381H196.208C198.075 29.2381 199.468 28.8399 200.389 28.0435C201.31 27.2222 201.771 26.1022 201.771 24.6836C201.771 23.2401 201.31 22.1202 200.389 21.3238C199.468 20.5273 198.075 20.1291 196.208 20.1291H188.592L191.28 17.2546V32.0753ZM218.994 25.7289H231.574V30.4327H218.994V25.7289ZM219.442 36.4805H233.665V41.3336H213.431V15.2013H233.18V20.0545H219.442V36.4805Z" fill="#005669"/>
<mask id="path-4-outside-2_350_390" maskUnits="userSpaceOnUse" x="-3" y="9" width="144" height="40" fill="black">
<rect fill="white" x="-3" y="9" width="144" height="40"/>
<path d="M11.5813 45L1.01509 12.7017H8.76669L17.9486 41.3088H14.0728L23.6701 12.7017H30.5911L39.8192 41.3088H36.0819L45.4945 12.7017H52.6463L42.0801 45H34.0517L25.8848 19.8996H28.0073L19.6097 45H11.5813ZM84.042 12.7017H91.5167V45H84.042V12.7017ZM69.3693 45H61.8946V12.7017H69.3693V45ZM84.5957 31.7577H68.8156V25.4364H84.5957V31.7577ZM119.922 45.5537C117.369 45.5537 115 45.1384 112.816 44.3079C110.663 43.4774 108.786 42.3085 107.187 40.8012C105.618 39.294 104.388 37.5252 103.496 35.4951C102.634 33.4649 102.204 31.2501 102.204 28.8508C102.204 26.4515 102.634 24.2368 103.496 22.2066C104.388 20.1764 105.633 18.4077 107.233 16.9005C108.833 15.3932 110.709 14.2243 112.862 13.3938C115.015 12.5632 117.353 12.148 119.875 12.148C122.429 12.148 124.766 12.5632 126.889 13.3938C129.042 14.2243 130.903 15.3932 132.472 16.9005C134.071 18.4077 135.317 20.1764 136.209 22.2066C137.101 24.206 137.547 26.4208 137.547 28.8508C137.547 31.2501 137.101 33.4803 136.209 35.5412C135.317 37.5714 134.071 39.3401 132.472 40.8474C130.903 42.3239 129.042 43.4774 126.889 44.3079C124.766 45.1384 122.444 45.5537 119.922 45.5537ZM119.875 39.1863C121.321 39.1863 122.644 38.9402 123.844 38.4481C125.074 37.9559 126.151 37.2484 127.073 36.3256C127.996 35.4028 128.704 34.3108 129.196 33.0496C129.719 31.7884 129.98 30.3888 129.98 28.8508C129.98 27.3128 129.719 25.9132 129.196 24.6521C128.704 23.3909 127.996 22.2989 127.073 21.3761C126.181 20.4533 125.12 19.7458 123.89 19.2536C122.659 18.7615 121.321 18.5154 119.875 18.5154C118.43 18.5154 117.092 18.7615 115.861 19.2536C114.662 19.7458 113.6 20.4533 112.678 21.3761C111.755 22.2989 111.032 23.3909 110.509 24.6521C110.017 25.9132 109.771 27.3128 109.771 28.8508C109.771 30.3581 110.017 31.7577 110.509 33.0496C111.032 34.3108 111.739 35.4028 112.631 36.3256C113.554 37.2484 114.631 37.9559 115.861 38.4481C117.092 38.9402 118.43 39.1863 119.875 39.1863Z"/>
</mask>
<path d="M11.5813 45L9.18925 45.7825L9.75659 47.5168H11.5813V45ZM1.01509 12.7017V10.1849H-2.45625L-1.37692 13.4842L1.01509 12.7017ZM8.76669 12.7017L11.163 11.9325L10.6021 10.1849H8.76669V12.7017ZM17.9486 41.3088V43.8255H21.3997L20.345 40.5396L17.9486 41.3088ZM14.0728 41.3088L11.6868 40.5083L10.5739 43.8255H14.0728V41.3088ZM23.6701 12.7017V10.1849H21.8598L21.284 11.9012L23.6701 12.7017ZM30.5911 12.7017L32.9864 11.929L32.4237 10.1849H30.5911V12.7017ZM39.8192 41.3088V43.8255H43.2755L42.2144 40.5361L39.8192 41.3088ZM36.0819 41.3088L33.6912 40.5222L32.6043 43.8255H36.0819V41.3088ZM45.4945 12.7017V10.1849H43.6731L43.1038 11.9151L45.4945 12.7017ZM52.6463 12.7017L55.0383 13.4842L56.1176 10.1849H52.6463V12.7017ZM42.0801 45V47.5168H43.9048L44.4721 45.7825L42.0801 45ZM34.0517 45L31.6584 45.7787L32.2239 47.5168H34.0517V45ZM25.8848 19.8996V17.3828H22.4193L23.4915 20.6783L25.8848 19.8996ZM28.0073 19.8996L30.394 20.6981L31.5031 17.3828H28.0073V19.8996ZM19.6097 45V47.5168H21.4216L21.9964 45.7985L19.6097 45ZM13.9733 44.2175L3.4071 11.9191L-1.37692 13.4842L9.18925 45.7825L13.9733 44.2175ZM1.01509 15.2184H8.76669V10.1849H1.01509V15.2184ZM6.37035 13.4708L15.5523 42.0779L20.345 40.5396L11.163 11.9325L6.37035 13.4708ZM17.9486 38.792H14.0728V43.8255H17.9486V38.792ZM16.4589 42.1092L26.0561 13.5022L21.284 11.9012L11.6868 40.5083L16.4589 42.1092ZM23.6701 15.2184H30.5911V10.1849H23.6701V15.2184ZM28.1959 13.4743L37.424 42.0814L42.2144 40.5361L32.9864 11.929L28.1959 13.4743ZM39.8192 38.792H36.0819V43.8255H39.8192V38.792ZM38.4725 42.0954L47.8852 13.4883L43.1038 11.9151L33.6912 40.5222L38.4725 42.0954ZM45.4945 15.2184H52.6463V10.1849H45.4945V15.2184ZM50.2543 11.9191L39.6881 44.2175L44.4721 45.7825L55.0383 13.4842L50.2543 11.9191ZM42.0801 42.4832H34.0517V47.5168H42.0801V42.4832ZM36.4449 44.2213L28.2781 19.1209L23.4915 20.6783L31.6584 45.7787L36.4449 44.2213ZM25.8848 22.4163H28.0073V17.3828H25.8848V22.4163ZM25.6205 19.1011L17.223 44.2015L21.9964 45.7985L30.394 20.6981L25.6205 19.1011ZM19.6097 42.4832H11.5813V47.5168H19.6097V42.4832ZM84.042 12.7017V10.1849H81.5252V12.7017H84.042ZM91.5167 12.7017H94.0335V10.1849H91.5167V12.7017ZM91.5167 45V47.5168H94.0335V45H91.5167ZM84.042 45H81.5252V47.5168H84.042V45ZM69.3693 45V47.5168H71.8861V45H69.3693ZM61.8946 45H59.3778V47.5168H61.8946V45ZM61.8946 12.7017V10.1849H59.3778V12.7017H61.8946ZM69.3693 12.7017H71.8861V10.1849H69.3693V12.7017ZM84.5957 31.7577V34.2744H87.1124V31.7577H84.5957ZM68.8156 31.7577H66.2989V34.2744H68.8156V31.7577ZM68.8156 25.4364V22.9197H66.2989V25.4364H68.8156ZM84.5957 25.4364H87.1124V22.9197H84.5957V25.4364ZM84.042 15.2184H91.5167V10.1849H84.042V15.2184ZM89 12.7017V45H94.0335V12.7017H89ZM91.5167 42.4832H84.042V47.5168H91.5167V42.4832ZM86.5587 45V12.7017H81.5252V45H86.5587ZM69.3693 42.4832H61.8946V47.5168H69.3693V42.4832ZM64.4113 45V12.7017H59.3778V45H64.4113ZM61.8946 15.2184H69.3693V10.1849H61.8946V15.2184ZM66.8526 12.7017V45H71.8861V12.7017H66.8526ZM84.5957 29.2409H68.8156V34.2744H84.5957V29.2409ZM71.3324 31.7577V25.4364H66.2989V31.7577H71.3324ZM68.8156 27.9532H84.5957V22.9197H68.8156V27.9532ZM82.0789 25.4364V31.7577H87.1124V25.4364H82.0789ZM112.816 44.3079L111.91 46.6561L111.921 46.6603L112.816 44.3079ZM107.187 40.8012L105.443 42.6161L105.452 42.6245L105.461 42.6329L107.187 40.8012ZM103.496 35.4951L101.179 36.478L101.185 36.4928L101.191 36.5075L103.496 35.4951ZM103.496 22.2066L101.191 21.1942L101.185 21.2089L101.179 21.2237L103.496 22.2066ZM112.862 13.3938L111.956 11.0456L111.956 11.0456L112.862 13.3938ZM126.889 13.3938L125.972 15.7375L125.983 15.7419L126.889 13.3938ZM132.472 16.9005L130.728 18.7153L130.737 18.7237L130.746 18.7321L132.472 16.9005ZM136.209 22.2066L133.905 23.219L133.908 23.2255L133.911 23.232L136.209 22.2066ZM136.209 35.5412L138.513 36.5536L138.519 36.5409L136.209 35.5412ZM132.472 40.8474L134.197 42.6801L134.198 42.679L132.472 40.8474ZM126.889 44.3079L125.983 41.9597L125.972 41.9642L126.889 44.3079ZM123.844 38.4481L122.909 36.1113L122.899 36.1154L122.888 36.1196L123.844 38.4481ZM127.073 36.3256L125.294 34.546L127.073 36.3256ZM129.196 33.0496L126.871 32.0857L126.861 32.1101L126.851 32.1347L129.196 33.0496ZM129.196 24.6521L126.851 25.567L126.861 25.5916L126.871 25.616L129.196 24.6521ZM127.073 21.3761L125.264 23.1253L125.279 23.1406L125.294 23.1557L127.073 21.3761ZM123.89 19.2536L122.955 21.5904L123.89 19.2536ZM115.861 19.2536L114.927 16.9169L114.916 16.921L114.906 16.9252L115.861 19.2536ZM112.678 21.3761L114.457 23.1557L112.678 21.3761ZM110.509 24.6521L108.184 23.6881L108.174 23.7125L108.164 23.7371L110.509 24.6521ZM110.509 33.0496L108.157 33.9456L108.17 33.9798L108.184 34.0136L110.509 33.0496ZM112.631 36.3256L110.822 38.0748L110.837 38.0901L110.852 38.1052L112.631 36.3256ZM115.861 38.4481L114.927 40.7848L115.861 38.4481ZM119.922 43.0369C117.646 43.0369 115.583 42.6677 113.711 41.9555L111.921 46.6603C114.416 47.6091 117.091 48.0704 119.922 48.0704V43.0369ZM113.722 41.9598C111.857 41.2406 110.263 40.242 108.913 38.9696L105.461 42.6329C107.31 44.3749 109.468 45.7141 111.91 46.656L113.722 41.9598ZM108.931 38.9864C107.604 37.7118 106.562 36.2172 105.8 34.4826L101.191 36.5075C102.213 38.8333 103.632 40.8761 105.443 42.6161L108.931 38.9864ZM105.812 34.5121C105.094 32.8193 104.72 30.9424 104.72 28.8508H99.6869C99.6869 31.5579 100.174 34.1105 101.179 36.478L105.812 34.5121ZM104.72 28.8508C104.72 26.7593 105.094 24.8824 105.812 23.1895L101.179 21.2237C100.174 23.5912 99.6869 26.1437 99.6869 28.8508H104.72ZM105.8 23.219C106.557 21.4951 107.607 20.0057 108.959 18.7321L105.507 15.0688C103.659 16.8097 102.218 18.8578 101.191 21.1942L105.8 23.219ZM108.959 18.7321C110.309 17.4596 111.903 16.461 113.768 15.7419L111.956 11.0456C109.514 11.9876 107.356 13.3267 105.507 15.0688L108.959 18.7321ZM113.768 15.7419C115.606 15.0328 117.634 14.6647 119.875 14.6647V9.63123C117.072 9.63123 114.424 10.0937 111.956 11.0456L113.768 15.7419ZM119.875 14.6647C122.152 14.6647 124.175 15.0342 125.972 15.7375L127.806 11.0501C125.358 10.0923 122.705 9.63123 119.875 9.63123V14.6647ZM125.983 15.7419C127.844 16.4595 129.415 17.4536 130.728 18.7153L134.215 15.0856C132.391 13.3328 130.24 11.9891 127.795 11.0456L125.983 15.7419ZM130.746 18.7321C132.097 20.0057 133.148 21.4951 133.905 23.219L138.513 21.1942C137.487 18.8578 136.045 16.8097 134.198 15.0688L130.746 18.7321ZM133.911 23.232C134.644 24.8749 135.031 26.7351 135.031 28.8508H140.064C140.064 26.1065 139.559 23.5371 138.508 21.1812L133.911 23.232ZM135.031 28.8508C135.031 30.9301 134.646 32.8173 133.9 34.5415L138.519 36.5409C139.557 34.1432 140.064 31.5702 140.064 28.8508H135.031ZM133.905 34.5288C133.148 36.2527 132.097 37.7421 130.746 39.0157L134.198 42.679C136.045 40.9381 137.487 38.89 138.513 36.5536L133.905 34.5288ZM130.747 39.0147C129.432 40.2524 127.854 41.238 125.983 41.9598L127.795 46.656C130.23 45.7167 132.374 44.3953 134.197 42.6801L130.747 39.0147ZM125.972 41.9642C124.171 42.6688 122.164 43.0369 119.922 43.0369V48.0704C122.724 48.0704 125.362 47.6081 127.806 46.6516L125.972 41.9642ZM119.875 41.7031C121.611 41.7031 123.263 41.4065 124.799 40.7765L122.888 36.1196C122.025 36.4739 121.031 36.6695 119.875 36.6695V41.7031ZM124.778 40.7848C126.32 40.1681 127.685 39.2728 128.853 38.1052L125.294 34.546C124.616 35.224 123.828 35.7437 122.909 36.1113L124.778 40.7848ZM128.853 38.1052C130.031 36.9271 130.927 35.5375 131.54 33.9646L126.851 32.1347C126.481 33.0841 125.961 33.8785 125.294 34.546L128.853 38.1052ZM131.521 34.0136C132.185 32.4105 132.497 30.6779 132.497 28.8508H127.463C127.463 30.0998 127.252 31.1664 126.871 32.0857L131.521 34.0136ZM132.497 28.8508C132.497 27.0237 132.185 25.2912 131.521 23.6881L126.871 25.616C127.252 26.5353 127.463 27.6019 127.463 28.8508H132.497ZM131.54 23.7371C130.927 22.1641 130.031 20.7746 128.853 19.5965L125.294 23.1557C125.961 23.8232 126.481 24.6176 126.851 25.567L131.54 23.7371ZM128.883 19.6269C127.736 18.4403 126.374 17.5366 124.824 16.9169L122.955 21.5904C123.867 21.955 124.627 22.4662 125.264 23.1253L128.883 19.6269ZM124.824 16.9169C123.271 16.2954 121.612 15.9986 119.875 15.9986V21.0321C121.03 21.0321 122.048 21.2275 122.955 21.5904L124.824 16.9169ZM119.875 15.9986C118.139 15.9986 116.48 16.2954 114.927 16.9169L116.796 21.5904C117.703 21.2275 118.721 21.0321 119.875 21.0321V15.9986ZM114.906 16.9252C113.396 17.5447 112.055 18.4395 110.898 19.5965L114.457 23.1557C115.146 22.467 115.927 21.9468 116.816 21.582L114.906 16.9252ZM110.898 19.5965C109.731 20.7635 108.828 22.1362 108.184 23.6881L112.834 25.616C113.236 24.6455 113.779 23.8343 114.457 23.1557L110.898 19.5965ZM108.164 23.7371C107.544 25.3268 107.254 27.042 107.254 28.8508H112.287C112.287 27.5836 112.49 26.4996 112.854 25.567L108.164 23.7371ZM107.254 28.8508C107.254 30.6366 107.546 32.3427 108.157 33.9456L112.861 32.1537C112.487 31.1726 112.287 30.0796 112.287 28.8508H107.254ZM108.184 34.0136C108.82 35.5477 109.697 36.9107 110.822 38.0748L114.441 34.5764C113.782 33.8949 113.244 33.0739 112.834 32.0857L108.184 34.0136ZM110.852 38.1052C112.019 39.2728 113.385 40.1681 114.927 40.7848L116.796 36.1113C115.877 35.7437 115.089 35.224 114.411 34.546L110.852 38.1052ZM114.927 40.7848C116.48 41.4063 118.139 41.7031 119.875 41.7031V36.6695C118.721 36.6695 117.703 36.4742 116.796 36.1113L114.927 40.7848Z" fill="#005669" mask="url(#path-4-outside-2_350_390)"/>
</svg>
