<svg width="1116" height="165" viewBox="0 0 1116 165" fill="none" xmlns="http://www.w3.org/2000/svg">
<path d="M87.556 164.724C74.9968 164.724 63.4211 162.757 52.829 158.822C42.3882 154.737 33.2336 148.987 25.3652 141.572C17.648 134.158 11.5954 125.457 7.20725 115.47C2.9704 105.484 0.851981 94.5131 0.851981 82.5591C0.851981 70.6052 2.9704 59.6348 7.20725 49.6479C11.5954 39.6611 17.7237 30.9604 25.5921 23.5459C33.4606 16.1315 42.6908 10.4571 53.2829 6.52289C63.8751 2.43737 75.5264 0.394608 88.2369 0.394608C102.309 0.394608 114.944 2.74 126.142 7.43079C137.49 12.1216 147.023 18.9308 154.74 27.8584L131.135 49.6479C125.385 43.5953 119.105 39.1315 112.296 36.2565C105.487 33.2302 98.0725 31.717 90.0527 31.717C82.3356 31.717 75.2994 32.9275 68.9441 35.3486C62.5889 37.7696 57.0658 41.2499 52.375 45.7894C47.8356 50.3289 44.2796 55.7006 41.7073 61.9045C39.2862 68.1085 38.0757 74.9934 38.0757 82.5591C38.0757 89.9736 39.2862 96.7828 41.7073 102.987C44.2796 109.191 47.8356 114.638 52.375 119.329C57.0658 123.868 62.5132 127.349 68.7172 129.77C75.0724 132.191 82.033 133.401 89.5988 133.401C96.8619 133.401 103.898 132.266 110.707 129.997C117.668 127.576 124.401 123.566 130.908 117.967L151.79 144.523C143.165 151.03 133.102 156.023 121.602 159.503C110.253 162.984 98.9047 164.724 87.556 164.724ZM118.197 139.757V80.0624H151.79V144.523L118.197 139.757ZM169.603 162L240.419 3.11829H276.735L347.778 162H309.192L251.087 21.7301H265.613L207.281 162H169.603ZM205.011 127.954L214.771 100.036H296.482L306.469 127.954H205.011ZM368.801 162V3.11829H405.571V132.039H485.239V162H368.801ZM510.323 162V3.11829H547.093V132.039H626.761V162H510.323ZM685.664 67.1249H762.154V95.7236H685.664V67.1249ZM688.388 132.493H774.865V162H651.845V3.11829H771.914V32.6249H688.388V132.493ZM808.661 162V3.11829H877.434C891.658 3.11829 903.914 5.46368 914.204 10.1545C924.493 14.694 932.437 21.2762 938.036 29.9012C943.635 38.5262 946.434 48.8157 946.434 60.7697C946.434 72.5723 943.635 82.7861 938.036 91.4111C932.437 99.8848 924.493 106.391 914.204 110.931C903.914 115.47 891.658 117.74 877.434 117.74H829.088L845.431 101.625V162H808.661ZM909.664 162L869.944 104.349H909.21L949.385 162H909.664ZM845.431 105.71L829.088 88.4605H875.391C886.74 88.4605 895.213 86.0394 900.812 81.1973C906.411 76.2039 909.21 69.3947 909.21 60.7697C909.21 51.9933 906.411 45.1841 900.812 40.342C895.213 35.4999 886.74 33.0788 875.391 33.0788H829.088L845.431 15.6019V105.71ZM1017.38 162V97.0855L1025.78 119.329L955.873 3.11829H994.912L1048.48 92.319H1026.01L1079.8 3.11829H1115.89L1045.98 119.329L1054.15 97.0855V162H1017.38Z" fill="white"/>
</svg>
