<svg width="770" height="118" viewBox="0 0 770 118" fill="none" xmlns="http://www.w3.org/2000/svg">
<path d="M261.546 95.164C256.308 95.164 251.426 94.3233 246.899 92.642C242.437 90.896 238.557 88.4387 235.259 85.27C231.961 82.1013 229.374 78.383 227.499 74.115C225.688 69.847 224.783 65.1587 224.783 60.05C224.783 54.9413 225.688 50.253 227.499 45.985C229.374 41.717 231.961 37.9987 235.259 34.83C238.622 31.6613 242.534 29.2363 246.996 27.555C251.458 25.809 256.34 24.936 261.643 24.936C267.528 24.936 272.83 25.9707 277.551 28.04C282.336 30.0447 286.346 33.0193 289.579 36.964L279.491 46.276C277.163 43.6247 274.576 41.6523 271.731 40.359C268.886 39.001 265.782 38.322 262.419 38.322C259.25 38.322 256.34 38.8393 253.689 39.874C251.038 40.9087 248.742 42.396 246.802 44.336C244.862 46.276 243.342 48.5717 242.243 51.223C241.208 53.8743 240.691 56.8167 240.691 60.05C240.691 63.2833 241.208 66.2257 242.243 68.877C243.342 71.5283 244.862 73.824 246.802 75.764C248.742 77.704 251.038 79.1913 253.689 80.226C256.34 81.2607 259.25 81.778 262.419 81.778C265.782 81.778 268.886 81.1313 271.731 79.838C274.576 78.48 277.163 76.443 279.491 73.727L289.579 83.039C286.346 86.9837 282.336 89.9907 277.551 92.06C272.83 94.1293 267.495 95.164 261.546 95.164ZM319.911 94.776C315.579 94.776 311.699 93.9353 308.271 92.254C304.909 90.5727 302.29 88.0183 300.414 84.591C298.539 81.099 297.601 76.6693 297.601 71.302V41.814H312.733V69.071C312.733 73.4037 313.639 76.6047 315.449 78.674C317.325 80.6787 319.944 81.681 323.306 81.681C325.634 81.681 327.704 81.196 329.514 80.226C331.325 79.1913 332.748 77.6393 333.782 75.57C334.817 73.436 335.334 70.7847 335.334 67.616V41.814H350.466V94H336.11V79.644L338.729 83.815C336.983 87.4363 334.397 90.1847 330.969 92.06C327.607 93.8707 323.921 94.776 319.911 94.776ZM382.042 94.776C377.58 94.776 373.28 94.2587 369.141 93.224C365.067 92.1247 361.834 90.7667 359.441 89.15L364.485 78.286C366.878 79.7733 369.691 81.002 372.924 81.972C376.222 82.8773 379.455 83.33 382.624 83.33C386.116 83.33 388.573 82.9097 389.996 82.069C391.483 81.2283 392.227 80.0643 392.227 78.577C392.227 77.3483 391.645 76.443 390.481 75.861C389.382 75.2143 387.894 74.7293 386.019 74.406C384.144 74.0827 382.074 73.7593 379.811 73.436C377.612 73.1127 375.381 72.6923 373.118 72.175C370.855 71.593 368.785 70.7523 366.91 69.653C365.035 68.5537 363.515 67.0663 362.351 65.191C361.252 63.3157 360.702 60.8907 360.702 57.916C360.702 54.618 361.64 51.708 363.515 49.186C365.455 46.664 368.236 44.6917 371.857 43.269C375.478 41.7817 379.811 41.038 384.855 41.038C388.412 41.038 392.033 41.426 395.719 42.202C399.405 42.978 402.477 44.1097 404.934 45.597L399.89 56.364C397.368 54.8767 394.814 53.8743 392.227 53.357C389.705 52.775 387.248 52.484 384.855 52.484C381.492 52.484 379.035 52.9367 377.483 53.842C375.931 54.7473 375.155 55.9113 375.155 57.334C375.155 58.6273 375.705 59.5973 376.804 60.244C377.968 60.8907 379.488 61.408 381.363 61.796C383.238 62.184 385.275 62.5397 387.474 62.863C389.737 63.1217 392.001 63.542 394.264 64.124C396.527 64.706 398.564 65.5467 400.375 66.646C402.25 67.6807 403.77 69.1357 404.934 71.011C406.098 72.8217 406.68 75.2143 406.68 78.189C406.68 81.4223 405.71 84.3 403.77 86.822C401.83 89.2793 399.017 91.2193 395.331 92.642C391.71 94.0647 387.28 94.776 382.042 94.776ZM437.356 94.776C431.213 94.776 426.428 93.224 423 90.12C419.573 86.9513 417.859 82.263 417.859 76.055V30.271H432.991V75.861C432.991 78.0597 433.573 79.7733 434.737 81.002C435.901 82.166 437.486 82.748 439.49 82.748C441.883 82.748 443.92 82.1013 445.601 80.808L449.675 91.478C448.123 92.5773 446.248 93.418 444.049 94C441.915 94.5173 439.684 94.776 437.356 94.776ZM409.808 54.618V42.978H445.989V54.618H409.808ZM481.391 94.776C475.83 94.776 470.883 93.612 466.55 91.284C462.282 88.956 458.887 85.7873 456.365 81.778C453.908 77.704 452.679 73.0803 452.679 67.907C452.679 62.669 453.908 58.0453 456.365 54.036C458.887 49.962 462.282 46.7933 466.55 44.53C470.883 42.202 475.83 41.038 481.391 41.038C486.888 41.038 491.803 42.202 496.135 44.53C500.468 46.7933 503.863 49.9297 506.32 53.939C508.778 57.9483 510.006 62.6043 510.006 67.907C510.006 73.0803 508.778 77.704 506.32 81.778C503.863 85.7873 500.468 88.956 496.135 91.284C491.803 93.612 486.888 94.776 481.391 94.776ZM481.391 82.36C483.913 82.36 486.177 81.778 488.181 80.614C490.186 79.45 491.77 77.801 492.934 75.667C494.098 73.4683 494.68 70.8817 494.68 67.907C494.68 64.8677 494.098 62.281 492.934 60.147C491.77 58.013 490.186 56.364 488.181 55.2C486.177 54.036 483.913 53.454 481.391 53.454C478.869 53.454 476.606 54.036 474.601 55.2C472.597 56.364 470.98 58.013 469.751 60.147C468.587 62.281 468.005 64.8677 468.005 67.907C468.005 70.8817 468.587 73.4683 469.751 75.667C470.98 77.801 472.597 79.45 474.601 80.614C476.606 81.778 478.869 82.36 481.391 82.36ZM586.954 41.038C591.092 41.038 594.746 41.8787 597.915 43.56C601.148 45.1767 603.67 47.6987 605.481 51.126C607.356 54.4887 608.294 58.8213 608.294 64.124V94H593.162V66.452C593.162 62.2487 592.289 59.1447 590.543 57.14C588.797 55.1353 586.339 54.133 583.171 54.133C580.972 54.133 579 54.6503 577.254 55.685C575.508 56.655 574.15 58.1423 573.18 60.147C572.21 62.1517 571.725 64.706 571.725 67.81V94H556.593V66.452C556.593 62.2487 555.72 59.1447 553.974 57.14C552.292 55.1353 549.867 54.133 546.699 54.133C544.5 54.133 542.528 54.6503 540.782 55.685C539.036 56.655 537.678 58.1423 536.708 60.147C535.738 62.1517 535.253 64.706 535.253 67.81V94H520.121V41.814H534.574V56.073L531.858 51.902C533.668 48.3453 536.223 45.6617 539.521 43.851C542.883 41.9757 546.699 41.038 550.967 41.038C555.752 41.038 559.923 42.2667 563.48 44.724C567.101 47.1167 569.494 50.8027 570.658 55.782L565.323 54.327C567.069 50.253 569.849 47.0197 573.665 44.627C577.545 42.2343 581.974 41.038 586.954 41.038ZM648.135 94.776C642.186 94.776 636.948 93.612 632.421 91.284C627.959 88.956 624.499 85.7873 622.042 81.778C619.585 77.704 618.356 73.0803 618.356 67.907C618.356 62.669 619.552 58.0453 621.945 54.036C624.402 49.962 627.733 46.7933 631.936 44.53C636.139 42.202 640.892 41.038 646.195 41.038C651.304 41.038 655.895 42.1373 659.969 44.336C664.108 46.47 667.373 49.574 669.766 53.648C672.159 57.6573 673.355 62.475 673.355 68.101C673.355 68.683 673.323 69.362 673.258 70.138C673.193 70.8493 673.129 71.5283 673.064 72.175H630.675V63.348H665.11L659.29 65.967C659.29 63.251 658.74 60.8907 657.641 58.886C656.542 56.8813 655.022 55.3293 653.082 54.23C651.142 53.066 648.879 52.484 646.292 52.484C643.705 52.484 641.41 53.066 639.405 54.23C637.465 55.3293 635.945 56.9137 634.846 58.983C633.747 60.9877 633.197 63.3803 633.197 66.161V68.489C633.197 71.3343 633.811 73.8563 635.04 76.055C636.333 78.189 638.112 79.838 640.375 81.002C642.703 82.1013 645.419 82.651 648.523 82.651C651.304 82.651 653.729 82.2307 655.798 81.39C657.932 80.5493 659.872 79.2883 661.618 77.607L669.669 86.337C667.276 89.053 664.269 91.1547 660.648 92.642C657.027 94.0647 652.856 94.776 648.135 94.776ZM683.429 94V41.814H697.882V56.558L695.845 52.29C697.397 48.604 699.887 45.8233 703.314 43.948C706.742 42.008 710.913 41.038 715.827 41.038V55.006C715.181 54.9413 714.599 54.909 714.081 54.909C713.564 54.8443 713.014 54.812 712.432 54.812C708.294 54.812 704.931 56.0083 702.344 58.401C699.822 60.729 698.561 64.3827 698.561 69.362V94H683.429ZM742.761 94.776C738.299 94.776 733.998 94.2587 729.86 93.224C725.786 92.1247 722.552 90.7667 720.16 89.15L725.204 78.286C727.596 79.7733 730.409 81.002 733.643 81.972C736.941 82.8773 740.174 83.33 743.343 83.33C746.835 83.33 749.292 82.9097 750.715 82.069C752.202 81.2283 752.946 80.0643 752.946 78.577C752.946 77.3483 752.364 76.443 751.2 75.861C750.1 75.2143 748.613 74.7293 746.738 74.406C744.862 74.0827 742.793 73.7593 740.53 73.436C738.331 73.1127 736.1 72.6923 733.837 72.175C731.573 71.593 729.504 70.7523 727.629 69.653C725.753 68.5537 724.234 67.0663 723.07 65.191C721.97 63.3157 721.421 60.8907 721.421 57.916C721.421 54.618 722.358 51.708 724.234 49.186C726.174 46.664 728.954 44.6917 732.576 43.269C736.197 41.7817 740.53 41.038 745.574 41.038C749.13 41.038 752.752 41.426 756.438 42.202C760.124 42.978 763.195 44.1097 765.653 45.597L760.609 56.364C758.087 54.8767 755.532 53.8743 752.946 53.357C750.424 52.775 747.966 52.484 745.574 52.484C742.211 52.484 739.754 52.9367 738.202 53.842C736.65 54.7473 735.874 55.9113 735.874 57.334C735.874 58.6273 736.423 59.5973 737.523 60.244C738.687 60.8907 740.206 61.408 742.082 61.796C743.957 62.184 745.994 62.5397 748.193 62.863C750.456 63.1217 752.719 63.542 754.983 64.124C757.246 64.706 759.283 65.5467 761.094 66.646C762.969 67.6807 764.489 69.1357 765.653 71.011C766.817 72.8217 767.399 75.2143 767.399 78.189C767.399 81.4223 766.429 84.3 764.489 86.822C762.549 89.2793 759.736 91.2193 756.05 92.642C752.428 94.0647 747.999 94.776 742.761 94.776Z" fill="#005669"/>
<mask id="path-2-outside-1_160_28" maskUnits="userSpaceOnUse" x="-1" y="21" width="193" height="78" fill="black">
<rect fill="white" x="-1" y="21" width="193" height="78"/>
<path d="M41.031 95.164C35.6637 95.164 30.6843 94.291 26.093 92.545C21.5663 90.799 17.6217 88.3417 14.259 85.173C10.961 82.0043 8.37433 78.286 6.499 74.018C4.68833 69.75 3.783 65.094 3.783 60.05C3.783 55.006 4.68833 50.35 6.499 46.082C8.37433 41.814 10.9933 38.0957 14.356 34.927C17.7187 31.7583 21.6633 29.301 26.19 27.555C30.7167 25.809 35.6313 24.936 40.934 24.936C46.3013 24.936 51.216 25.809 55.678 27.555C60.2047 29.301 64.117 31.7583 67.415 34.927C70.7777 38.0957 73.3967 41.814 75.272 46.082C77.1473 50.2853 78.085 54.9413 78.085 60.05C78.085 65.094 77.1473 69.7823 75.272 74.115C73.3967 78.383 70.7777 82.1013 67.415 85.27C64.117 88.374 60.2047 90.799 55.678 92.545C51.216 94.291 46.3337 95.164 41.031 95.164ZM40.934 81.778C43.9733 81.778 46.754 81.2607 49.276 80.226C51.8627 79.1913 54.126 77.704 56.066 75.764C58.006 73.824 59.4933 71.5283 60.528 68.877C61.6273 66.2257 62.177 63.2833 62.177 60.05C62.177 56.8167 61.6273 53.8743 60.528 51.223C59.4933 48.5717 58.006 46.276 56.066 44.336C54.1907 42.396 51.9597 40.9087 49.373 39.874C46.7863 38.8393 43.9733 38.322 40.934 38.322C37.8947 38.322 35.0817 38.8393 32.495 39.874C29.973 40.9087 27.742 42.396 25.802 44.336C23.862 46.276 22.3423 48.5717 21.243 51.223C20.2083 53.8743 19.691 56.8167 19.691 60.05C19.691 63.2187 20.2083 66.161 21.243 68.877C22.3423 71.5283 23.8297 73.824 25.705 75.764C27.645 77.704 29.9083 79.1913 32.495 80.226C35.0817 81.2607 37.8947 81.778 40.934 81.778ZM110.847 94.776C106.514 94.776 102.634 93.9353 99.2068 92.254C95.8441 90.5727 93.2251 88.0183 91.3498 84.591C89.4744 81.099 88.5368 76.6693 88.5368 71.302V41.814H103.669V69.071C103.669 73.4037 104.574 76.6047 106.385 78.674C108.26 80.6787 110.879 81.681 114.242 81.681C116.57 81.681 118.639 81.196 120.45 80.226C122.26 79.1913 123.683 77.6393 124.718 75.57C125.752 73.436 126.27 70.7847 126.27 67.616V41.814H141.402V94H127.046V79.644L129.665 83.815C127.919 87.4363 125.332 90.1847 121.905 92.06C118.542 93.8707 114.856 94.776 110.847 94.776ZM155.421 94V41.814H169.874V56.558L167.837 52.29C169.389 48.604 171.878 45.8233 175.306 43.948C178.733 42.008 182.904 41.038 187.819 41.038V55.006C187.172 54.9413 186.59 54.909 186.073 54.909C185.555 54.8443 185.006 54.812 184.424 54.812C180.285 54.812 176.922 56.0083 174.336 58.401C171.814 60.729 170.553 64.3827 170.553 69.362V94H155.421Z"/>
</mask>
<path d="M41.031 95.164C35.6637 95.164 30.6843 94.291 26.093 92.545C21.5663 90.799 17.6217 88.3417 14.259 85.173C10.961 82.0043 8.37433 78.286 6.499 74.018C4.68833 69.75 3.783 65.094 3.783 60.05C3.783 55.006 4.68833 50.35 6.499 46.082C8.37433 41.814 10.9933 38.0957 14.356 34.927C17.7187 31.7583 21.6633 29.301 26.19 27.555C30.7167 25.809 35.6313 24.936 40.934 24.936C46.3013 24.936 51.216 25.809 55.678 27.555C60.2047 29.301 64.117 31.7583 67.415 34.927C70.7777 38.0957 73.3967 41.814 75.272 46.082C77.1473 50.2853 78.085 54.9413 78.085 60.05C78.085 65.094 77.1473 69.7823 75.272 74.115C73.3967 78.383 70.7777 82.1013 67.415 85.27C64.117 88.374 60.2047 90.799 55.678 92.545C51.216 94.291 46.3337 95.164 41.031 95.164ZM40.934 81.778C43.9733 81.778 46.754 81.2607 49.276 80.226C51.8627 79.1913 54.126 77.704 56.066 75.764C58.006 73.824 59.4933 71.5283 60.528 68.877C61.6273 66.2257 62.177 63.2833 62.177 60.05C62.177 56.8167 61.6273 53.8743 60.528 51.223C59.4933 48.5717 58.006 46.276 56.066 44.336C54.1907 42.396 51.9597 40.9087 49.373 39.874C46.7863 38.8393 43.9733 38.322 40.934 38.322C37.8947 38.322 35.0817 38.8393 32.495 39.874C29.973 40.9087 27.742 42.396 25.802 44.336C23.862 46.276 22.3423 48.5717 21.243 51.223C20.2083 53.8743 19.691 56.8167 19.691 60.05C19.691 63.2187 20.2083 66.161 21.243 68.877C22.3423 71.5283 23.8297 73.824 25.705 75.764C27.645 77.704 29.9083 79.1913 32.495 80.226C35.0817 81.2607 37.8947 81.778 40.934 81.778ZM110.847 94.776C106.514 94.776 102.634 93.9353 99.2068 92.254C95.8441 90.5727 93.2251 88.0183 91.3498 84.591C89.4744 81.099 88.5368 76.6693 88.5368 71.302V41.814H103.669V69.071C103.669 73.4037 104.574 76.6047 106.385 78.674C108.26 80.6787 110.879 81.681 114.242 81.681C116.57 81.681 118.639 81.196 120.45 80.226C122.26 79.1913 123.683 77.6393 124.718 75.57C125.752 73.436 126.27 70.7847 126.27 67.616V41.814H141.402V94H127.046V79.644L129.665 83.815C127.919 87.4363 125.332 90.1847 121.905 92.06C118.542 93.8707 114.856 94.776 110.847 94.776ZM155.421 94V41.814H169.874V56.558L167.837 52.29C169.389 48.604 171.878 45.8233 175.306 43.948C178.733 42.008 182.904 41.038 187.819 41.038V55.006C187.172 54.9413 186.59 54.909 186.073 54.909C185.555 54.8443 185.006 54.812 184.424 54.812C180.285 54.812 176.922 56.0083 174.336 58.401C171.814 60.729 170.553 64.3827 170.553 69.362V94H155.421Z" fill="white"/>
<path d="M26.093 92.545L24.7295 96.0801L24.7379 96.0833L24.7462 96.0865L26.093 92.545ZM14.259 85.173L11.6339 87.9052L11.6472 87.9179L11.6606 87.9305L14.259 85.173ZM6.499 74.018L3.011 75.4978L3.02045 75.52L3.03018 75.5422L6.499 74.018ZM6.499 46.082L3.03018 44.5578L3.02045 44.58L3.011 44.6022L6.499 46.082ZM14.356 34.927L16.9544 37.6845L14.356 34.927ZM26.19 27.555L24.8265 24.0199L24.8265 24.0199L26.19 27.555ZM55.678 27.555L54.2973 31.0834L54.3059 31.0867L54.3145 31.09L55.678 27.555ZM67.415 34.927L64.79 37.6592L64.8032 37.6719L64.8166 37.6845L67.415 34.927ZM75.272 46.082L71.8032 47.6062L71.8075 47.616L71.8119 47.6258L75.272 46.082ZM75.272 74.115L78.7408 75.6392L78.745 75.6296L78.7492 75.62L75.272 74.115ZM67.415 85.27L70.0118 88.0291L70.0134 88.0275L67.415 85.27ZM55.678 92.545L54.3145 89.0099L54.3059 89.0133L54.2973 89.0166L55.678 92.545ZM49.276 80.226L47.8688 76.7081L47.8533 76.7143L47.8379 76.7206L49.276 80.226ZM56.066 75.764L53.3868 73.0848L56.066 75.764ZM60.528 68.877L57.028 67.4258L57.0128 67.4625L56.9983 67.4996L60.528 68.877ZM60.528 51.223L56.9983 52.6004L57.0128 52.6375L57.028 52.6742L60.528 51.223ZM56.066 44.336L53.3418 46.9694L53.3641 46.9925L53.3868 47.0152L56.066 44.336ZM49.373 39.874L47.9658 43.3919L49.373 39.874ZM32.495 39.874L31.0878 36.3561L31.0723 36.3623L31.0569 36.3686L32.495 39.874ZM25.802 44.336L28.4812 47.0152L25.802 44.336ZM21.243 51.223L17.743 49.7718L17.7278 49.8085L17.7133 49.8456L21.243 51.223ZM21.243 68.877L17.7023 70.2258L17.7219 70.2773L17.743 70.3282L21.243 68.877ZM25.705 75.764L22.9808 78.3974L23.0031 78.4205L23.0258 78.4432L25.705 75.764ZM32.495 80.226L31.0878 83.7439L32.495 80.226ZM41.031 91.3751C36.0812 91.3751 31.5627 90.5714 27.4398 89.0035L24.7462 96.0865C29.8059 98.0106 35.2462 98.9529 41.031 98.9529V91.3751ZM27.4565 89.0099C23.3647 87.4317 19.845 85.2307 16.8574 82.4155L11.6606 87.9305C15.3983 91.4527 19.768 94.1663 24.7295 96.0801L27.4565 89.0099ZM16.8841 82.4408C13.9507 79.6224 11.6476 76.3168 9.96782 72.4938L3.03018 75.5422C5.10106 80.2552 7.97134 84.3862 11.6339 87.9052L16.8841 82.4408ZM9.987 72.5382C8.39179 68.7781 7.5719 64.6306 7.5719 60.05H-0.00590387C-0.00590387 65.5574 0.98488 70.7219 3.011 75.4978L9.987 72.5382ZM7.5719 60.05C7.5719 55.4694 8.39179 51.3219 9.987 47.5618L3.011 44.6022C0.98488 49.3781 -0.00590387 54.5426 -0.00590387 60.05H7.5719ZM9.96782 47.6062C11.6406 43.7992 13.9651 40.5014 16.9544 37.6845L11.7576 32.1695C8.02159 35.6899 5.1081 39.8288 3.03018 44.5578L9.96782 47.6062ZM16.9544 37.6845C19.942 34.8693 23.4617 32.6683 27.5535 31.09L24.8265 24.0199C19.865 25.9337 15.4953 28.6473 11.7576 32.1695L16.9544 37.6845ZM27.5535 31.09C31.6064 29.5268 36.0542 28.7249 40.934 28.7249V21.1471C35.2085 21.1471 29.8269 22.0912 24.8265 24.0199L27.5535 31.09ZM40.934 28.7249C45.8854 28.7249 50.325 29.529 54.2973 31.0834L57.0587 24.0266C52.107 22.089 46.7172 21.1471 40.934 21.1471V28.7249ZM54.3145 31.09C58.4005 32.6661 61.8767 34.8602 64.79 37.6592L70.0401 32.1948C66.3573 28.6565 62.0089 25.9359 57.0415 24.0199L54.3145 31.09ZM64.8166 37.6845C67.8059 40.5014 70.1304 43.7992 71.8032 47.6062L78.7408 44.5578C76.6629 39.8288 73.7494 35.6899 70.0134 32.1695L64.8166 37.6845ZM71.8119 47.6258C73.4477 51.2923 74.2961 55.4145 74.2961 60.05H81.8739C81.8739 54.4682 80.847 49.2783 78.7321 44.5382L71.8119 47.6258ZM74.2961 60.05C74.2961 64.6122 73.4507 68.7843 71.7948 72.61L78.7492 75.62C80.8439 70.7804 81.8739 65.5758 81.8739 60.05H74.2961ZM71.8032 72.5908C70.1304 76.3978 67.8059 79.6956 64.8166 82.5125L70.0134 88.0275C73.7494 84.5071 76.6629 80.3682 78.7408 75.6392L71.8032 72.5908ZM64.8182 82.5109C61.9021 85.2555 58.4167 87.4277 54.3145 89.0099L57.0415 96.0801C61.9927 94.1703 66.3319 91.4925 70.0118 88.0291L64.8182 82.5109ZM54.2973 89.0166C50.3199 90.573 45.9116 91.3751 41.031 91.3751V98.9529C46.7557 98.9529 52.1121 98.009 57.0587 96.0734L54.2973 89.0166ZM40.934 85.5669C44.4099 85.5669 47.6861 84.9736 50.7141 83.7314L47.8379 76.7206C45.8219 77.5477 43.5368 77.9891 40.934 77.9891V85.5669ZM50.6832 83.7439C53.7387 82.5217 56.4366 80.7517 58.7452 78.4432L53.3868 73.0848C51.8154 74.6563 49.9866 75.861 47.8688 76.7081L50.6832 83.7439ZM58.7452 78.4432C61.0695 76.1188 62.8398 73.3751 64.0577 70.2544L56.9983 67.4996C56.1469 69.6815 54.9425 71.5292 53.3868 73.0848L58.7452 78.4432ZM64.028 70.3282C65.3407 67.1621 65.9659 63.7185 65.9659 60.05H58.3881C58.3881 62.8481 57.9139 65.2892 57.028 67.4258L64.028 70.3282ZM65.9659 60.05C65.9659 56.3815 65.3407 52.9379 64.028 49.7718L57.028 52.6742C57.9139 54.8108 58.3881 57.2519 58.3881 60.05H65.9659ZM64.0577 49.8456C62.8398 46.7248 61.0695 43.9812 58.7452 41.6568L53.3868 47.0152C54.9425 48.5708 56.1469 50.4185 56.9983 52.6004L64.0577 49.8456ZM58.7902 41.7026C56.531 39.3655 53.8468 37.5827 50.7802 36.3561L47.9658 43.3919C50.0726 44.2346 51.8503 45.4265 53.3418 46.9694L58.7902 41.7026ZM50.7802 36.3561C47.7068 35.1267 44.4113 34.5331 40.934 34.5331V42.1109C43.5354 42.1109 45.8659 42.5519 47.9658 43.3919L50.7802 36.3561ZM40.934 34.5331C37.4567 34.5331 34.1612 35.1267 31.0878 36.3561L33.9022 43.3919C36.0021 42.5519 38.3327 42.1109 40.934 42.1109V34.5331ZM31.0569 36.3686C28.0675 37.595 25.4154 39.3643 23.1228 41.6568L28.4812 47.0152C30.0686 45.4277 31.8785 44.2223 33.9331 43.3794L31.0569 36.3686ZM23.1228 41.6568C20.8152 43.9645 19.0238 46.6828 17.743 49.7718L24.743 52.6742C25.6608 50.4605 26.9088 48.5875 28.4812 47.0152L23.1228 41.6568ZM17.7133 49.8456C16.4857 52.9915 15.9021 56.409 15.9021 60.05H23.4799C23.4799 57.2243 23.931 54.7572 24.7727 52.6004L17.7133 49.8456ZM15.9021 60.05C15.9021 63.6379 16.4893 67.0418 17.7023 70.2258L24.7837 67.5282C23.9273 65.2802 23.4799 62.7994 23.4799 60.05H15.9021ZM17.743 70.3282C19.0128 73.3905 20.7544 76.0941 22.9808 78.3974L28.4292 73.1306C26.905 71.5539 25.6719 69.6662 24.743 67.4258L17.743 70.3282ZM23.0258 78.4432C25.3344 80.7517 28.0323 82.5217 31.0878 83.7439L33.9022 76.7081C31.7844 75.861 29.9556 74.6563 28.3842 73.0848L23.0258 78.4432ZM31.0878 83.7439C34.1612 84.9733 37.4567 85.5669 40.934 85.5669V77.9891C38.3327 77.9891 36.0021 77.5481 33.9022 76.7081L31.0878 83.7439ZM99.2067 92.254L97.5123 95.6429L97.5251 95.6493L97.538 95.6556L99.2067 92.254ZM91.3497 84.591L88.0117 86.3836L88.0188 86.3967L88.0259 86.4097L91.3497 84.591ZM88.5368 41.814V38.0251H84.7478V41.814H88.5368ZM103.669 41.814H107.458V38.0251H103.669V41.814ZM106.385 78.674L103.533 81.169L103.575 81.2164L103.618 81.2624L106.385 78.674ZM120.45 80.226L122.239 83.5658L122.285 83.5414L122.33 83.5157L120.45 80.226ZM124.718 75.57L128.107 77.2645L128.117 77.2438L128.127 77.223L124.718 75.57ZM126.27 41.814V38.0251H122.481V41.814H126.27ZM141.402 41.814H145.191V38.0251H141.402V41.814ZM141.402 94V97.7889H145.191V94H141.402ZM127.046 94H123.257V97.7889H127.046V94ZM127.046 79.644L130.255 77.6292L123.257 66.4847V79.644H127.046ZM129.665 83.815L133.078 85.4605L133.987 83.5739L132.874 81.8002L129.665 83.815ZM121.905 92.06L123.701 95.396L123.712 95.39L123.723 95.3839L121.905 92.06ZM110.847 90.9871C107.014 90.9871 103.717 90.2465 100.875 88.8524L97.538 95.6556C101.551 97.6242 106.014 98.5649 110.847 98.5649V90.9871ZM100.901 88.8651C98.2571 87.5431 96.1938 85.5506 94.6736 82.7723L88.0259 86.4097C90.2563 90.486 93.4311 93.6023 97.5123 95.6429L100.901 88.8651ZM94.6878 82.7984C93.1946 80.018 92.3257 76.2555 92.3257 71.302H84.7478C84.7478 77.0832 85.7542 82.18 88.0117 86.3836L94.6878 82.7984ZM92.3257 71.302V41.814H84.7478V71.302H92.3257ZM88.5368 45.6029H103.669V38.0251H88.5368V45.6029ZM99.8798 41.814V69.071H107.458V41.814H99.8798ZM99.8798 69.071C99.8798 73.8194 100.854 78.107 103.533 81.169L109.236 76.179C108.294 75.1023 107.458 72.9879 107.458 69.071H99.8798ZM103.618 81.2624C106.366 84.2003 110.084 85.4699 114.242 85.4699V77.8921C111.674 77.8921 110.154 77.1571 109.152 76.0856L103.618 81.2624ZM114.242 85.4699C117.11 85.4699 119.808 84.868 122.239 83.5658L118.661 76.8862C117.47 77.524 116.03 77.8921 114.242 77.8921V85.4699ZM122.33 83.5157C124.86 82.0698 126.775 79.9268 128.107 77.2645L121.329 73.8755C120.591 75.3519 119.661 76.3128 118.57 76.9363L122.33 83.5157ZM128.127 77.223C129.481 74.4308 130.059 71.1738 130.059 67.616H122.481C122.481 70.3955 122.024 72.4412 121.308 73.917L128.127 77.223ZM130.059 67.616V41.814H122.481V67.616H130.059ZM126.27 45.6029H141.402V38.0251H126.27V45.6029ZM137.613 41.814V94H145.191V41.814H137.613ZM141.402 90.2111H127.046V97.7889H141.402V90.2111ZM130.835 94V79.644H123.257V94H130.835ZM123.837 81.6588L126.456 85.8298L132.874 81.8002L130.255 77.6292L123.837 81.6588ZM126.252 82.1695C124.838 85.1009 122.799 87.2519 120.086 88.7361L123.723 95.3839C127.865 93.1175 130.999 89.7718 133.078 85.4605L126.252 82.1695ZM120.108 88.724C117.326 90.2224 114.261 90.9871 110.847 90.9871V98.5649C115.451 98.5649 119.759 97.5189 123.701 95.396L120.108 88.724ZM155.421 94H151.632V97.7889H155.421V94ZM155.421 41.814V38.0251H151.632V41.814H155.421ZM169.874 41.814H173.662V38.0251H169.874V41.814ZM169.874 56.558L166.454 58.19L173.662 56.558H169.874ZM167.837 52.29L164.345 50.8197L163.685 52.3871L164.417 53.922L167.837 52.29ZM175.306 43.948L177.124 47.2719L177.148 47.2588L177.172 47.2453L175.306 43.948ZM187.819 41.038H191.607V37.2491H187.819V41.038ZM187.819 55.006L187.442 58.7761L191.607 59.1927V55.006H187.819ZM186.073 54.909L185.603 58.6686L185.837 58.6979H186.073V54.909ZM174.336 58.401L176.905 61.1851L176.908 61.1824L174.336 58.401ZM170.553 94V97.7889H174.341V94H170.553ZM159.209 94V41.814H151.632V94H159.209ZM155.421 45.6029H169.874V38.0251H155.421V45.6029ZM166.085 41.814V56.558H173.662V41.814H166.085ZM173.293 54.926L171.256 50.658L164.417 53.922L166.454 58.19L173.293 54.926ZM171.329 53.7603C172.557 50.8432 174.467 48.7257 177.124 47.2719L173.487 40.6241C169.289 42.9209 166.22 46.3648 164.345 50.8197L171.329 53.7603ZM177.172 47.2453C179.905 45.6981 183.398 44.8269 187.819 44.8269V37.2491C182.41 37.2491 177.56 38.3178 173.439 40.6507L177.172 47.2453ZM184.03 41.038V55.006H191.607V41.038H184.03ZM188.196 51.2359C187.454 51.1617 186.743 51.1201 186.073 51.1201V58.6979C186.437 58.6979 186.89 58.7209 187.442 58.7761L188.196 51.2359ZM186.542 51.1494C185.853 51.0631 185.145 51.0231 184.424 51.0231V58.6009C184.866 58.6009 185.258 58.6256 185.603 58.6686L186.542 51.1494ZM184.424 51.0231C179.508 51.0231 175.17 52.4681 171.763 55.6196L176.908 61.1824C178.675 59.5486 181.061 58.6009 184.424 58.6009V51.0231ZM171.766 55.6169C168.171 58.9349 166.764 63.8085 166.764 69.362H174.341C174.341 64.9568 175.456 62.5231 176.905 61.1851L171.766 55.6169ZM166.764 69.362V94H174.341V69.362H166.764ZM170.553 90.2111H155.421V97.7889H170.553V90.2111Z" fill="#005566" mask="url(#path-2-outside-1_160_28)"/>
</svg>
