<svg width="1100" height="338" viewBox="0 0 1100 338" fill="none" xmlns="http://www.w3.org/2000/svg">
<path d="M29.2796 316.123C24.0411 316.123 19.0208 315.437 14.2188 314.065C9.41686 312.63 5.55034 310.79 2.61926 308.545L7.76423 297.133C10.5706 299.129 13.8758 300.781 17.68 302.091C21.5465 303.338 25.4442 303.962 29.3731 303.962C32.3666 303.962 34.7676 303.681 36.5761 303.12C38.447 302.496 39.819 301.654 40.6921 300.594C41.5652 299.534 42.0017 298.318 42.0017 296.946C42.0017 295.2 41.3157 293.828 39.9437 292.83C38.5717 291.77 36.7632 290.928 34.5181 290.304C32.273 289.618 29.7785 288.994 27.0345 288.433C24.3529 287.81 21.6401 287.061 18.8961 286.188C16.2145 285.315 13.7511 284.193 11.506 282.821C9.26095 281.449 7.42124 279.64 5.98688 277.395C4.61489 275.15 3.92889 272.281 3.92889 268.789C3.92889 265.047 4.9267 261.648 6.92233 258.592C8.98032 255.474 12.0361 253.011 16.0897 251.202C20.2057 249.331 25.3507 248.396 31.5247 248.396C35.6406 248.396 39.6943 248.895 43.6855 249.893C47.6768 250.828 51.2003 252.262 54.2561 254.196L49.5788 265.702C46.523 263.956 43.4672 262.677 40.4114 261.866C37.3556 260.993 34.3622 260.557 31.4311 260.557C28.5 260.557 26.099 260.9 24.2281 261.586C22.3573 262.272 21.0164 263.176 20.2057 264.299C19.395 265.359 18.9896 266.606 18.9896 268.04C18.9896 269.724 19.6756 271.096 21.0476 272.156C22.4196 273.154 24.2281 273.965 26.4732 274.589C28.7183 275.212 31.1817 275.836 33.8633 276.459C36.6073 277.083 39.3201 277.8 42.0017 278.611C44.7457 279.422 47.2402 280.513 49.4853 281.885C51.7304 283.257 53.5389 285.066 54.9109 287.311C56.3453 289.556 57.0624 292.393 57.0624 295.823C57.0624 299.503 56.0334 302.87 53.9755 305.926C51.9175 308.982 48.8305 311.445 44.7145 313.316C40.6609 315.187 35.5159 316.123 29.2796 316.123ZM83.2265 275.898H114.751V287.685H83.2265V275.898ZM84.3491 302.839H119.99V315H69.2883V249.519H118.774V261.679H84.3491V302.839ZM125.312 315L154.498 249.519H169.465L198.745 315H182.842L158.895 257.189H164.882L140.841 315H125.312ZM139.905 300.968L143.928 289.462H177.604L181.72 300.968H139.905ZM237.834 316.123C232.782 316.123 228.074 315.312 223.708 313.69C219.405 312.007 215.664 309.637 212.483 306.581C209.303 303.525 206.808 299.939 204.999 295.823C203.253 291.707 202.38 287.186 202.38 282.259C202.38 277.333 203.253 272.811 204.999 268.695C206.808 264.579 209.303 260.993 212.483 257.938C215.726 254.882 219.499 252.543 223.802 250.922C228.105 249.238 232.813 248.396 237.927 248.396C243.602 248.396 248.716 249.394 253.269 251.389C257.884 253.323 261.75 256.191 264.868 259.996L255.14 268.976C252.894 266.419 250.4 264.517 247.656 263.27C244.912 261.96 241.919 261.305 238.676 261.305C235.62 261.305 232.813 261.804 230.257 262.802C227.7 263.8 225.486 265.234 223.615 267.105C221.744 268.976 220.278 271.19 219.218 273.747C218.22 276.304 217.722 279.141 217.722 282.259C217.722 285.377 218.22 288.215 219.218 290.772C220.278 293.329 221.744 295.543 223.615 297.414C225.486 299.284 227.7 300.719 230.257 301.717C232.813 302.714 235.62 303.213 238.676 303.213C241.919 303.213 244.912 302.59 247.656 301.342C250.4 300.033 252.894 298.068 255.14 295.449L264.868 304.429C261.75 308.234 257.884 311.133 253.269 313.129C248.716 315.125 243.571 316.123 237.834 316.123ZM307.408 316.123C302.232 316.123 297.43 315.281 293.002 313.597C288.636 311.913 284.832 309.543 281.589 306.487C278.409 303.432 275.914 299.846 274.106 295.73C272.36 291.614 271.487 287.124 271.487 282.259C271.487 277.395 272.36 272.905 274.106 268.789C275.914 264.673 278.44 261.087 281.683 258.031C284.926 254.975 288.73 252.605 293.095 250.922C297.461 249.238 302.2 248.396 307.314 248.396C312.49 248.396 317.23 249.238 321.533 250.922C325.899 252.605 329.671 254.975 332.852 258.031C336.095 261.087 338.621 264.673 340.429 268.789C342.238 272.842 343.142 277.333 343.142 282.259C343.142 287.124 342.238 291.645 340.429 295.823C338.621 299.939 336.095 303.525 332.852 306.581C329.671 309.574 325.899 311.913 321.533 313.597C317.23 315.281 312.522 316.123 307.408 316.123ZM307.314 303.213C310.245 303.213 312.927 302.714 315.359 301.717C317.854 300.719 320.036 299.284 321.907 297.414C323.778 295.543 325.213 293.329 326.21 290.772C327.271 288.215 327.801 285.377 327.801 282.259C327.801 279.141 327.271 276.304 326.21 273.747C325.213 271.19 323.778 268.976 321.907 267.105C320.099 265.234 317.947 263.8 315.453 262.802C312.958 261.804 310.245 261.305 307.314 261.305C304.383 261.305 301.67 261.804 299.176 262.802C296.744 263.8 294.592 265.234 292.721 267.105C290.85 268.976 289.385 271.19 288.325 273.747C287.327 276.304 286.828 279.141 286.828 282.259C286.828 285.315 287.327 288.153 288.325 290.772C289.385 293.329 290.819 295.543 292.628 297.414C294.499 299.284 296.681 300.719 299.176 301.717C301.67 302.714 304.383 303.213 307.314 303.213ZM356.402 315V249.519H368.937L407.571 296.665H401.491V249.519H416.458V315H404.016L365.289 267.853H371.369V315H356.402ZM453.192 315L424.941 249.519H441.312L466.007 307.516H456.372L481.442 249.519H496.503L468.159 315H453.192ZM534.916 316.123C529.74 316.123 524.938 315.281 520.51 313.597C516.144 311.913 512.34 309.543 509.097 306.487C505.917 303.432 503.422 299.846 501.614 295.73C499.868 291.614 498.994 287.124 498.994 282.259C498.994 277.395 499.868 272.905 501.614 268.789C503.422 264.673 505.948 261.087 509.191 258.031C512.434 254.975 516.238 252.605 520.603 250.922C524.969 249.238 529.708 248.396 534.822 248.396C539.998 248.396 544.738 249.238 549.041 250.922C553.406 252.605 557.179 254.975 560.36 258.031C563.603 261.087 566.129 264.673 567.937 268.789C569.746 272.842 570.65 277.333 570.65 282.259C570.65 287.124 569.746 291.645 567.937 295.823C566.129 299.939 563.603 303.525 560.36 306.581C557.179 309.574 553.406 311.913 549.041 313.597C544.738 315.281 540.03 316.123 534.916 316.123ZM534.822 303.213C537.753 303.213 540.435 302.714 542.867 301.717C545.362 300.719 547.544 299.284 549.415 297.414C551.286 295.543 552.72 293.329 553.718 290.772C554.778 288.215 555.309 285.377 555.309 282.259C555.309 279.141 554.778 276.304 553.718 273.747C552.72 271.19 551.286 268.976 549.415 267.105C547.607 265.234 545.455 263.8 542.961 262.802C540.466 261.804 537.753 261.305 534.822 261.305C531.891 261.305 529.178 261.804 526.684 262.802C524.252 263.8 522.1 265.234 520.229 267.105C518.358 268.976 516.893 271.19 515.833 273.747C514.835 276.304 514.336 279.141 514.336 282.259C514.336 285.315 514.835 288.153 515.833 290.772C516.893 293.329 518.327 295.543 520.136 297.414C522.007 299.284 524.189 300.719 526.684 301.717C529.178 302.714 531.891 303.213 534.822 303.213ZM597.355 315V288.246L600.816 297.414L572.004 249.519H588.094L610.171 286.282H600.91L623.08 249.519H637.953L609.142 297.414L612.509 288.246V315H597.355ZM674.528 315V249.519H689.682V315H674.528ZM707.093 315V249.519H719.628L758.262 296.665H752.182V249.519H767.149V315H754.708L715.98 267.853H722.061V315H707.093ZM812.876 315V249.519H828.03V315H812.876ZM845.441 315V249.519H857.976L896.61 296.665H890.53V249.519H905.497V315H893.056L854.328 267.853H860.408V315H845.441ZM922.861 315V249.519H952.608C959.717 249.519 965.985 250.891 971.411 253.634C976.836 256.316 981.077 260.089 984.133 264.953C987.188 269.818 988.716 275.586 988.716 282.259C988.716 288.87 987.188 294.638 984.133 299.565C981.077 304.429 976.836 308.234 971.411 310.978C965.985 313.659 959.717 315 952.608 315H922.861ZM938.015 302.559H951.86C956.225 302.559 959.998 301.748 963.179 300.126C966.421 298.443 968.916 296.073 970.662 293.017C972.471 289.961 973.375 286.375 973.375 282.259C973.375 278.081 972.471 274.495 970.662 271.502C968.916 268.446 966.421 266.107 963.179 264.486C959.998 262.802 956.225 261.96 951.86 261.96H938.015V302.559ZM1002.02 315V249.519H1017.17V315H1002.02ZM1025.97 315L1055.16 249.519H1070.13L1099.41 315H1083.51L1059.56 257.189H1065.54L1041.5 315H1025.97ZM1040.57 300.968L1044.59 289.462H1078.27L1082.38 300.968H1040.57Z" fill="#005669"/>
<path d="M23.4798 91L2.05799 25.5185H17.7735L36.389 83.5164H28.5312L47.9886 25.5185H62.0203L80.7293 83.5164H73.1522L92.2354 25.5185H106.735L85.313 91H69.0362L52.4787 40.1115H56.7818L39.7566 91H23.4798ZM137.268 91.7484C131.53 91.7484 126.479 90.6258 122.113 88.3807C117.81 86.1357 114.474 83.0799 112.104 79.2133C109.734 75.2844 108.549 70.8255 108.549 65.8364C108.549 60.785 109.703 56.326 112.011 52.4595C114.38 48.5306 117.592 45.4748 121.646 43.2921C125.699 41.047 130.283 39.9244 135.397 39.9244C140.324 39.9244 144.751 40.9846 148.68 43.105C152.671 45.163 155.821 48.1564 158.128 52.0853C160.436 55.9518 161.589 60.5979 161.589 66.0235C161.589 66.5848 161.558 67.2396 161.496 67.9879C161.434 68.6739 161.371 69.3287 161.309 69.9524H120.43V61.4398H153.638L148.025 63.9655C148.025 61.3462 147.495 59.07 146.435 57.1367C145.375 55.2035 143.909 53.7067 142.039 52.6466C140.168 51.524 137.985 50.9627 135.49 50.9627C132.996 50.9627 130.782 51.524 128.849 52.6466C126.978 53.7067 125.512 55.2346 124.452 57.2303C123.392 59.1635 122.862 61.471 122.862 64.1526V66.3977C122.862 69.1417 123.454 71.5738 124.639 73.6942C125.886 75.7522 127.601 77.3424 129.784 78.465C132.029 79.5251 134.648 80.0552 137.642 80.0552C140.324 80.0552 142.662 79.6499 144.658 78.8392C146.716 78.0284 148.587 76.8123 150.271 75.1909L158.035 83.6099C155.727 86.2292 152.827 88.256 149.335 89.6904C145.843 91.0624 141.82 91.7484 137.268 91.7484ZM170.833 52.6466L177.007 30.1958L179.065 38.7084C176.383 38.7084 174.169 37.9288 172.423 36.3697C170.739 34.7483 169.897 32.5656 169.897 29.8216C169.897 27.14 170.77 24.9884 172.517 23.367C174.263 21.6832 176.414 20.8413 178.971 20.8413C181.591 20.8413 183.742 21.6832 185.426 23.367C187.11 24.9884 187.952 27.14 187.952 29.8216C187.952 30.6323 187.889 31.443 187.765 32.2538C187.702 33.0021 187.484 33.9064 187.11 34.9666C186.798 36.0267 186.268 37.4299 185.519 39.1761L180.094 52.6466H170.833ZM199.712 91V40.6728H213.65V54.8916L211.686 50.7757C213.182 47.221 215.583 44.5393 218.889 42.7308C222.194 40.8599 226.216 39.9244 230.956 39.9244V53.3949C230.332 53.3326 229.771 53.3014 229.272 53.3014C228.773 53.239 228.243 53.2078 227.682 53.2078C223.691 53.2078 220.448 54.3616 217.953 56.669C215.521 58.9141 214.305 62.4376 214.305 67.2396V91H199.712ZM266.115 91.7484C260.378 91.7484 255.326 90.6258 250.961 88.3807C246.658 86.1357 243.321 83.0799 240.951 79.2133C238.582 75.2844 237.397 70.8255 237.397 65.8364C237.397 60.785 238.55 56.326 240.858 52.4595C243.228 48.5306 246.439 45.4748 250.493 43.2921C254.547 41.047 259.13 39.9244 264.244 39.9244C269.171 39.9244 273.599 40.9846 277.527 43.105C281.519 45.163 284.668 48.1564 286.976 52.0853C289.283 55.9518 290.437 60.5979 290.437 66.0235C290.437 66.5848 290.406 67.2396 290.343 67.9879C290.281 68.6739 290.218 69.3287 290.156 69.9524H249.277V61.4398H282.485L276.873 63.9655C276.873 61.3462 276.343 59.07 275.282 57.1367C274.222 55.2035 272.757 53.7067 270.886 52.6466C269.015 51.524 266.832 50.9627 264.338 50.9627C261.843 50.9627 259.629 51.524 257.696 52.6466C255.825 53.7067 254.36 55.2346 253.299 57.2303C252.239 59.1635 251.709 61.471 251.709 64.1526V66.3977C251.709 69.1417 252.302 71.5738 253.486 73.6942C254.734 75.7522 256.449 77.3424 258.631 78.465C260.876 79.5251 263.496 80.0552 266.489 80.0552C269.171 80.0552 271.509 79.6499 273.505 78.8392C275.563 78.0284 277.434 76.8123 279.118 75.1909L286.882 83.6099C284.575 86.2292 281.675 88.256 278.182 89.6904C274.69 91.0624 270.668 91.7484 266.115 91.7484ZM344.979 91V37.8665H324.025V25.5185H381.088V37.8665H360.134V91H344.979ZM420.672 39.9244C424.664 39.9244 428.218 40.7352 431.337 42.3566C434.517 43.9157 437.012 46.3479 438.82 49.6531C440.629 52.896 441.533 57.0744 441.533 62.1881V91H426.94V64.4332C426.94 60.3796 426.036 57.3862 424.227 55.4529C422.481 53.5196 419.987 52.553 416.744 52.553C414.436 52.553 412.347 53.0519 410.476 54.0497C408.668 54.9852 407.233 56.4507 406.173 58.4463C405.175 60.442 404.676 62.9989 404.676 66.117V91H390.083V21.5896H404.676V54.611L401.402 50.4015C403.211 47.0339 405.799 44.4458 409.166 42.6372C412.534 40.8287 416.369 39.9244 420.672 39.9244ZM481.974 91.7484C476.236 91.7484 471.185 90.6258 466.819 88.3807C462.516 86.1357 459.18 83.0799 456.81 79.2133C454.44 75.2844 453.255 70.8255 453.255 65.8364C453.255 60.785 454.409 56.326 456.717 52.4595C459.086 48.5306 462.298 45.4748 466.352 43.2921C470.405 41.047 474.989 39.9244 480.103 39.9244C485.029 39.9244 489.457 40.9846 493.386 43.105C497.377 45.163 500.527 48.1564 502.834 52.0853C505.142 55.9518 506.295 60.5979 506.295 66.0235C506.295 66.5848 506.264 67.2396 506.202 67.9879C506.139 68.6739 506.077 69.3287 506.015 69.9524H465.136V61.4398H498.344L492.731 63.9655C492.731 61.3462 492.201 59.07 491.141 57.1367C490.081 55.2035 488.615 53.7067 486.744 52.6466C484.874 51.524 482.691 50.9627 480.196 50.9627C477.702 50.9627 475.488 51.524 473.555 52.6466C471.684 53.7067 470.218 55.2346 469.158 57.2303C468.098 59.1635 467.568 61.471 467.568 64.1526V66.3977C467.568 69.1417 468.16 71.5738 469.345 73.6942C470.592 75.7522 472.307 77.3424 474.49 78.465C476.735 79.5251 479.354 80.0552 482.348 80.0552C485.029 80.0552 487.368 79.6499 489.364 78.8392C491.422 78.0284 493.293 76.8123 494.976 75.1909L502.741 83.6099C500.433 86.2292 497.533 88.256 494.041 89.6904C490.549 91.0624 486.526 91.7484 481.974 91.7484Z" fill="#005669"/>
<mask id="path-3-outside-1_304_197" maskUnits="userSpaceOnUse" x="2" y="131" width="1009" height="74" fill="black">
<rect fill="white" x="2" y="131" width="1009" height="74"/>
<path d="M20.0018 165.95H48.8456V177.11H20.0018V165.95ZM21.0319 199H7.12511V138.909H52.5369V150.069H21.0319V199ZM61.0657 199L87.8493 138.909H101.584L128.454 199H113.86L91.884 145.948H97.378L75.316 199H61.0657ZM74.4575 186.123L78.1488 175.564H109.053L112.83 186.123H74.4575ZM163.875 200.03C159.068 200.03 154.461 199.401 150.054 198.142C145.648 196.825 142.1 195.137 139.41 193.077L144.131 182.604C146.707 184.435 149.74 185.952 153.231 187.153C156.779 188.298 160.356 188.87 163.961 188.87C166.708 188.87 168.912 188.613 170.571 188.098C172.288 187.525 173.547 186.753 174.349 185.78C175.15 184.807 175.55 183.691 175.55 182.432C175.55 180.83 174.921 179.57 173.662 178.655C172.403 177.682 170.743 176.909 168.683 176.337C166.623 175.707 164.333 175.135 161.815 174.62C159.354 174.048 156.865 173.361 154.347 172.56C151.886 171.759 149.625 170.728 147.565 169.469C145.505 168.21 143.816 166.551 142.5 164.49C141.241 162.43 140.612 159.798 140.612 156.593C140.612 153.159 141.527 150.04 143.359 147.236C145.247 144.374 148.051 142.114 151.771 140.454C155.549 138.737 160.27 137.879 165.936 137.879C169.713 137.879 173.433 138.336 177.096 139.252C180.758 140.111 183.992 141.427 186.796 143.201L182.504 153.76C179.7 152.157 176.895 150.984 174.091 150.24C171.287 149.439 168.54 149.038 165.85 149.038C163.16 149.038 160.957 149.353 159.24 149.983C157.523 150.612 156.293 151.442 155.549 152.472C154.805 153.445 154.433 154.59 154.433 155.906C154.433 157.451 155.062 158.71 156.321 159.683C157.58 160.599 159.24 161.343 161.3 161.915C163.36 162.487 165.621 163.06 168.082 163.632C170.6 164.204 173.089 164.862 175.55 165.606C178.068 166.35 180.358 167.352 182.418 168.611C184.478 169.87 186.138 171.53 187.397 173.59C188.713 175.65 189.371 178.254 189.371 181.402C189.371 184.778 188.427 187.869 186.538 190.673C184.65 193.477 181.817 195.738 178.04 197.455C174.32 199.172 169.598 200.03 163.875 200.03ZM219.926 199V150.24H200.697V138.909H253.062V150.24H233.833V199H219.926ZM282.778 163.117H311.708V173.933H282.778V163.117ZM283.809 187.84H316.515V199H269.988V138.909H315.399V150.069H283.809V187.84ZM356.768 200.03C351.96 200.03 347.353 199.401 342.947 198.142C338.54 196.825 334.992 195.137 332.302 193.077L337.024 182.604C339.599 184.435 342.632 185.952 346.123 187.153C349.671 188.298 353.248 188.87 356.854 188.87C359.601 188.87 361.804 188.613 363.464 188.098C365.181 187.525 366.44 186.753 367.241 185.78C368.042 184.807 368.443 183.691 368.443 182.432C368.443 180.83 367.813 179.57 366.554 178.655C365.295 177.682 363.635 176.909 361.575 176.337C359.515 175.707 357.226 175.135 354.708 174.62C352.247 174.048 349.757 173.361 347.239 172.56C344.778 171.759 342.518 170.728 340.457 169.469C338.397 168.21 336.709 166.551 335.392 164.49C334.133 162.43 333.504 159.798 333.504 156.593C333.504 153.159 334.42 150.04 336.251 147.236C338.139 144.374 340.944 142.114 344.664 140.454C348.441 138.737 353.162 137.879 358.828 137.879C362.605 137.879 366.325 138.336 369.988 139.252C373.651 140.111 376.884 141.427 379.688 143.201L375.396 153.76C372.592 152.157 369.788 150.984 366.983 150.24C364.179 149.439 361.432 149.038 358.742 149.038C356.052 149.038 353.849 149.353 352.132 149.983C350.415 150.612 349.185 151.442 348.441 152.472C347.697 153.445 347.325 154.59 347.325 155.906C347.325 157.451 347.954 158.71 349.213 159.683C350.473 160.599 352.132 161.343 354.192 161.915C356.253 162.487 358.513 163.06 360.974 163.632C363.492 164.204 365.982 164.862 368.443 165.606C370.961 166.35 373.25 167.352 375.31 168.611C377.371 169.87 379.03 171.53 380.289 173.59C381.606 175.65 382.264 178.254 382.264 181.402C382.264 184.778 381.319 187.869 379.431 190.673C377.542 193.477 374.709 195.738 370.932 197.455C367.212 199.172 362.491 200.03 356.768 200.03ZM412.818 199V150.24H393.589V138.909H445.954V150.24H426.725V199H412.818ZM525.65 200.03C520.9 200.03 516.522 199.286 512.515 197.798C508.567 196.253 505.104 194.078 502.128 191.274C499.21 188.47 496.92 185.179 495.261 181.402C493.658 177.625 492.857 173.476 492.857 168.954C492.857 164.433 493.658 160.284 495.261 156.507C496.92 152.73 499.238 149.439 502.214 146.635C505.19 143.83 508.681 141.684 512.687 140.196C516.693 138.651 521.1 137.879 525.907 137.879C531.23 137.879 536.008 138.766 540.243 140.54C544.536 142.314 548.141 144.889 551.06 148.266L542.132 156.507C539.957 154.218 537.582 152.529 535.007 151.442C532.431 150.297 529.627 149.725 526.594 149.725C523.675 149.725 521.014 150.183 518.61 151.099C516.207 152.014 514.118 153.331 512.344 155.048C510.627 156.764 509.282 158.796 508.309 161.142C507.393 163.489 506.936 166.093 506.936 168.954C506.936 171.759 507.393 174.334 508.309 176.68C509.282 179.027 510.627 181.087 512.344 182.861C514.118 184.578 516.178 185.894 518.525 186.81C520.928 187.726 523.561 188.184 526.422 188.184C529.169 188.184 531.831 187.754 534.406 186.896C537.038 185.98 539.585 184.464 542.046 182.346L549.944 192.39C546.682 194.851 542.876 196.739 538.526 198.056C534.234 199.372 529.942 200.03 525.65 200.03ZM537.239 190.587V168.01H549.944V192.39L537.239 190.587ZM572.305 199V138.909H598.316C603.696 138.909 608.331 139.796 612.223 141.57C616.114 143.287 619.119 145.776 621.236 149.038C623.354 152.3 624.413 156.192 624.413 160.713C624.413 165.177 623.354 169.04 621.236 172.302C619.119 175.507 616.114 177.968 612.223 179.685C608.331 181.402 603.696 182.26 598.316 182.26H580.031L586.212 176.165V199H572.305ZM610.506 199L595.483 177.195H610.334L625.529 199H610.506ZM586.212 177.711L580.031 171.186H597.543C601.836 171.186 605.04 170.271 607.158 168.439C609.275 166.551 610.334 163.975 610.334 160.713C610.334 157.394 609.275 154.819 607.158 152.987C605.04 151.156 601.836 150.24 597.543 150.24H580.031L586.212 143.63V177.711ZM674.061 200.03C669.311 200.03 664.904 199.258 660.841 197.712C656.835 196.167 653.344 193.992 650.368 191.188C647.449 188.384 645.16 185.093 643.5 181.316C641.898 177.539 641.097 173.418 641.097 168.954C641.097 164.49 641.898 160.37 643.5 156.593C645.16 152.816 647.478 149.525 650.454 146.721C653.43 143.916 656.921 141.742 660.927 140.196C664.933 138.651 669.282 137.879 673.975 137.879C678.725 137.879 683.075 138.651 687.024 140.196C691.03 141.742 694.492 143.916 697.411 146.721C700.387 149.525 702.705 152.816 704.364 156.593C706.024 160.313 706.854 164.433 706.854 168.954C706.854 173.418 706.024 177.567 704.364 181.402C702.705 185.179 700.387 188.47 697.411 191.274C694.492 194.021 691.03 196.167 687.024 197.712C683.075 199.258 678.754 200.03 674.061 200.03ZM673.975 188.184C676.665 188.184 679.126 187.726 681.358 186.81C683.647 185.894 685.65 184.578 687.367 182.861C689.084 181.144 690.4 179.113 691.316 176.766C692.289 174.42 692.775 171.816 692.775 168.954C692.775 166.093 692.289 163.489 691.316 161.142C690.4 158.796 689.084 156.764 687.367 155.048C685.707 153.331 683.733 152.014 681.444 151.099C679.155 150.183 676.665 149.725 673.975 149.725C671.285 149.725 668.796 150.183 666.507 151.099C664.275 152.014 662.3 153.331 660.583 155.048C658.867 156.764 657.522 158.796 656.549 161.142C655.633 163.489 655.175 166.093 655.175 168.954C655.175 171.759 655.633 174.363 656.549 176.766C657.522 179.113 658.838 181.144 660.498 182.861C662.215 184.578 664.218 185.894 666.507 186.81C668.796 187.726 671.285 188.184 673.975 188.184ZM739.242 199L719.584 138.909H734.005L751.089 192.132H743.878L761.733 138.909H774.61L791.779 192.132H784.826L802.338 138.909H815.644L795.985 199H781.048L765.854 152.3H769.803L754.179 199H739.242ZM832.85 199V138.909H846.757V199H832.85ZM870.461 199V138.909H881.964L917.418 182.174H911.838V138.909H925.573V199H914.156L878.616 155.734H884.196V199H870.461ZM978.249 200.03C973.499 200.03 969.121 199.286 965.115 197.798C961.166 196.253 957.704 194.078 954.728 191.274C951.809 188.47 949.52 185.179 947.86 181.402C946.258 177.625 945.456 173.476 945.456 168.954C945.456 164.433 946.258 160.284 947.86 156.507C949.52 152.73 951.837 149.439 954.813 146.635C957.789 143.83 961.28 141.684 965.286 140.196C969.293 138.651 973.699 137.879 978.507 137.879C983.829 137.879 988.608 138.766 992.843 140.54C997.135 142.314 1000.74 144.889 1003.66 148.266L994.731 156.507C992.556 154.218 990.181 152.529 987.606 151.442C985.031 150.297 982.226 149.725 979.193 149.725C976.275 149.725 973.613 150.183 971.21 151.099C968.806 152.014 966.717 153.331 964.943 155.048C963.226 156.764 961.881 158.796 960.908 161.142C959.993 163.489 959.535 166.093 959.535 168.954C959.535 171.759 959.993 174.334 960.908 176.68C961.881 179.027 963.226 181.087 964.943 182.861C966.717 184.578 968.777 185.894 971.124 186.81C973.528 187.726 976.16 188.184 979.022 188.184C981.769 188.184 984.43 187.754 987.005 186.896C989.638 185.98 992.184 184.464 994.645 182.346L1002.54 192.39C999.281 194.851 995.475 196.739 991.126 198.056C986.833 199.372 982.541 200.03 978.249 200.03ZM989.838 190.587V168.01H1002.54V192.39L989.838 190.587Z"/>
</mask>
<path d="M20.0018 165.95V161.267H15.3194V165.95H20.0018ZM48.8456 165.95H53.5281V161.267H48.8456V165.95ZM48.8456 177.11V181.792H53.5281V177.11H48.8456ZM20.0018 177.11H15.3194V181.792H20.0018V177.11ZM21.0319 199V203.682H25.7144V199H21.0319ZM7.12511 199H2.44267V203.682H7.12511V199ZM7.12511 138.909V134.226H2.44267V138.909H7.12511ZM52.5369 138.909H57.2194V134.226H52.5369V138.909ZM52.5369 150.069V154.751H57.2194V150.069H52.5369ZM21.0319 150.069V145.386H16.3495V150.069H21.0319ZM20.0018 170.632H48.8456V161.267H20.0018V170.632ZM44.1632 165.95V177.11H53.5281V165.95H44.1632ZM48.8456 172.427H20.0018V181.792H48.8456V172.427ZM24.6842 177.11V165.95H15.3194V177.11H24.6842ZM21.0319 194.318H7.12511V203.682H21.0319V194.318ZM11.8075 199V138.909H2.44267V199H11.8075ZM7.12511 143.591H52.5369V134.226H7.12511V143.591ZM47.8545 138.909V150.069H57.2194V138.909H47.8545ZM52.5369 145.386H21.0319V154.751H52.5369V145.386ZM16.3495 150.069V199H25.7144V150.069H16.3495ZM61.0657 199L56.7889 197.094L53.8522 203.682H61.0657V199ZM87.8493 138.909V134.226H84.8098L83.5724 137.002L87.8493 138.909ZM101.584 138.909L105.859 136.997L104.62 134.226H101.584V138.909ZM128.454 199V203.682H135.677L132.728 197.089L128.454 199ZM113.86 199L109.534 200.792L110.732 203.682H113.86V199ZM91.884 145.948V141.266H84.8761L87.558 147.74L91.884 145.948ZM97.378 145.948L101.702 147.746L104.396 141.266H97.378V145.948ZM75.316 199V203.682H78.4399L79.6395 200.798L75.316 199ZM74.4575 186.123L70.0374 184.578L67.8602 190.806H74.4575V186.123ZM78.1488 175.564V170.882H74.8255L73.7287 174.019L78.1488 175.564ZM109.053 175.564L113.462 173.987L112.351 170.882H109.053V175.564ZM112.83 186.123V190.806H119.478L117.239 184.546L112.83 186.123ZM65.3426 200.906L92.1261 140.815L83.5724 137.002L56.7889 197.094L65.3426 200.906ZM87.8493 143.591H101.584V134.226H87.8493V143.591ZM97.3099 140.82L124.179 200.911L132.728 197.089L105.859 136.997L97.3099 140.82ZM128.454 194.318H113.86V203.682H128.454V194.318ZM118.186 197.208L96.21 144.156L87.558 147.74L109.534 200.792L118.186 197.208ZM91.884 150.63H97.378V141.266H91.884V150.63ZM93.0546 144.15L70.9925 197.202L79.6395 200.798L101.702 147.746L93.0546 144.15ZM75.316 194.318H61.0657V203.682H75.316V194.318ZM78.8776 187.669L82.5689 177.11L73.7287 174.019L70.0374 184.578L78.8776 187.669ZM78.1488 180.247H109.053V170.882H78.1488V180.247ZM104.644 177.142L108.421 187.7L117.239 184.546L113.462 173.987L104.644 177.142ZM112.83 181.441H74.4575V190.806H112.83V181.441ZM150.054 198.142L148.714 202.628L148.741 202.636L148.768 202.644L150.054 198.142ZM139.41 193.077L135.141 191.152L133.615 194.537L136.562 196.794L139.41 193.077ZM144.131 182.604L146.845 178.788L142.203 175.487L139.862 180.679L144.131 182.604ZM153.231 187.153L151.707 191.581L151.75 191.596L151.793 191.61L153.231 187.153ZM170.571 188.098L171.959 192.57L172.006 192.555L172.052 192.54L170.571 188.098ZM174.349 185.78L170.734 182.803L174.349 185.78ZM173.662 178.655L170.799 182.36L170.853 182.402L170.908 182.442L173.662 178.655ZM168.683 176.337L167.314 180.815L167.372 180.833L167.43 180.849L168.683 176.337ZM161.815 174.62L160.755 179.181L160.816 179.195L160.877 179.208L161.815 174.62ZM154.347 172.56L152.897 177.012L152.912 177.017L152.927 177.022L154.347 172.56ZM147.565 169.469L145.123 173.465L147.565 169.469ZM142.5 164.49L138.505 166.932L138.529 166.972L138.554 167.011L142.5 164.49ZM143.359 147.236L139.451 144.656L139.444 144.666L139.438 144.675L143.359 147.236ZM151.771 140.454L153.679 144.73L153.694 144.723L153.709 144.717L151.771 140.454ZM177.096 139.252L175.96 143.795L175.993 143.803L176.027 143.811L177.096 139.252ZM186.796 143.201L191.134 144.964L192.608 141.337L189.299 139.244L186.796 143.201ZM182.504 153.76L180.181 157.825L184.826 160.48L186.842 155.523L182.504 153.76ZM174.091 150.24L172.805 154.743L172.847 154.755L172.89 154.766L174.091 150.24ZM159.24 149.983L157.628 145.586L157.628 145.586L159.24 149.983ZM155.549 152.472L159.268 155.317L159.307 155.266L159.344 155.214L155.549 152.472ZM156.321 159.683L153.458 163.388L153.512 163.43L153.567 163.47L156.321 159.683ZM161.3 161.915L160.047 166.427L161.3 161.915ZM168.082 163.632L167.021 168.193L167.033 168.195L167.044 168.198L168.082 163.632ZM175.55 165.606L174.195 170.089L174.209 170.093L174.224 170.097L175.55 165.606ZM182.418 168.611L184.86 164.616L182.418 168.611ZM187.397 173.59L183.401 176.032L183.426 176.072L183.451 176.111L187.397 173.59ZM186.538 190.673L190.422 193.289L186.538 190.673ZM178.04 197.455L176.102 193.192L176.09 193.198L176.078 193.203L178.04 197.455ZM163.875 195.348C159.482 195.348 155.309 194.773 151.341 193.639L148.768 202.644C153.613 204.028 158.654 204.713 163.875 204.713V195.348ZM151.395 193.655C147.351 192.447 144.366 190.975 142.257 189.359L136.562 196.794C139.833 199.299 143.945 201.203 148.714 202.628L151.395 193.655ZM143.678 195.001L148.4 184.528L139.862 180.679L135.141 191.152L143.678 195.001ZM141.418 186.42C144.413 188.55 147.861 190.257 151.707 191.581L154.755 182.726C151.618 181.646 149 180.32 146.845 178.788L141.418 186.42ZM151.793 191.61C155.79 192.899 159.851 193.553 163.961 193.553V184.188C160.86 184.188 157.768 183.697 154.668 182.697L151.793 191.61ZM163.961 193.553C166.939 193.553 169.668 193.281 171.959 192.57L169.183 183.626C168.156 183.945 166.477 184.188 163.961 184.188V193.553ZM172.052 192.54C174.259 191.804 176.409 190.644 177.963 188.757L170.734 182.803C170.686 182.862 170.318 183.247 169.091 183.656L172.052 192.54ZM177.963 188.757C179.454 186.946 180.233 184.778 180.233 182.432H170.868C170.868 182.556 170.85 182.611 170.843 182.631C170.836 182.651 170.814 182.706 170.734 182.803L177.963 188.757ZM180.233 182.432C180.233 179.383 178.928 176.695 176.416 174.868L170.908 182.442C170.934 182.461 170.948 182.473 170.955 182.479C170.961 182.485 170.959 182.484 170.953 182.476C170.946 182.468 170.936 182.456 170.924 182.438C170.912 182.42 170.901 182.401 170.89 182.38C170.88 182.359 170.872 182.34 170.867 182.325C170.861 182.31 170.859 182.301 170.859 182.301C170.859 182.299 170.868 182.338 170.868 182.432H180.233ZM176.525 174.95C174.652 173.503 172.391 172.507 169.936 171.825L167.43 180.849C169.095 181.311 170.153 181.861 170.799 182.36L176.525 174.95ZM170.051 171.859C167.825 171.179 165.39 170.572 162.754 170.033L160.877 179.208C163.277 179.698 165.42 180.236 167.314 180.815L170.051 171.859ZM162.876 170.059C160.541 169.516 158.172 168.863 155.766 168.098L152.927 177.022C155.558 177.859 158.167 178.579 160.755 179.181L162.876 170.059ZM155.796 168.107C153.658 167.411 151.734 166.529 150.007 165.474L145.123 173.465C147.517 174.928 150.114 176.106 152.897 177.012L155.796 168.107ZM150.007 165.474C148.561 164.591 147.384 163.438 146.446 161.969L138.554 167.011C140.248 169.663 142.448 171.83 145.123 173.465L150.007 165.474ZM146.496 162.049C145.81 160.927 145.294 159.21 145.294 156.593H135.929C135.929 160.385 136.672 163.933 138.505 166.932L146.496 162.049ZM145.294 156.593C145.294 154.044 145.958 151.819 147.279 149.796L139.438 144.675C137.096 148.261 135.929 152.274 135.929 156.593H145.294ZM147.267 149.815C148.578 147.828 150.619 146.096 153.679 144.73L149.864 136.178C145.484 138.132 141.917 140.92 139.451 144.656L147.267 149.815ZM153.709 144.717C156.698 143.358 160.708 142.561 165.936 142.561V133.196C159.832 133.196 154.399 134.116 149.834 136.191L153.709 144.717ZM165.936 142.561C169.33 142.561 172.669 142.972 175.96 143.795L178.231 134.709C174.197 133.701 170.096 133.196 165.936 133.196V142.561ZM176.027 143.811C179.248 144.566 181.984 145.698 184.293 147.158L189.299 139.244C185.999 137.156 182.268 135.655 178.164 134.693L176.027 143.811ZM182.458 141.438L178.166 151.997L186.842 155.523L191.134 144.964L182.458 141.438ZM184.827 149.694C181.709 147.913 178.53 146.573 175.292 145.714L172.89 154.766C175.261 155.395 177.69 156.402 180.181 157.825L184.827 149.694ZM175.377 145.738C172.19 144.827 169.01 144.356 165.85 144.356V153.721C168.07 153.721 170.384 154.051 172.805 154.743L175.377 145.738ZM165.85 144.356C162.845 144.356 160.043 144.701 157.628 145.586L160.852 154.379C161.87 154.006 163.475 153.721 165.85 153.721V144.356ZM157.628 145.586C155.402 146.403 153.235 147.679 151.753 149.731L159.344 155.214C159.35 155.205 159.644 154.822 160.852 154.379L157.628 145.586ZM151.829 149.628C150.413 151.48 149.75 153.643 149.75 155.906H159.115C159.115 155.536 159.197 155.41 159.268 155.317L151.829 149.628ZM149.75 155.906C149.75 158.951 151.091 161.56 153.458 163.388L159.184 155.978C159.107 155.918 159.075 155.882 159.069 155.875C159.065 155.87 159.077 155.884 159.093 155.915C159.1 155.93 159.106 155.944 159.111 155.958C159.116 155.971 159.118 155.981 159.119 155.986C159.122 155.996 159.115 155.973 159.115 155.906H149.75ZM153.567 163.47C155.414 164.813 157.635 165.757 160.047 166.427L162.553 157.403C160.845 156.929 159.747 156.385 159.075 155.896L153.567 163.47ZM160.047 166.427C162.181 167.02 164.507 167.608 167.021 168.193L169.143 159.071C166.735 158.511 164.54 157.955 162.553 157.403L160.047 166.427ZM167.044 168.198C169.456 168.746 171.84 169.376 174.195 170.089L176.905 161.124C174.339 160.349 171.744 159.662 169.12 159.066L167.044 168.198ZM174.224 170.097C176.384 170.735 178.293 171.578 179.976 172.606L184.86 164.616C182.422 163.126 179.753 161.966 176.877 161.116L174.224 170.097ZM179.976 172.606C181.403 173.478 182.53 174.605 183.401 176.032L191.392 171.148C189.746 168.454 187.554 166.262 184.86 164.616L179.976 172.606ZM183.451 176.111C184.166 177.23 184.689 178.894 184.689 181.402H194.054C194.054 177.614 193.26 174.071 191.343 171.069L183.451 176.111ZM184.689 181.402C184.689 183.845 184.023 186.025 182.655 188.057L190.422 193.289C192.831 189.713 194.054 185.712 194.054 181.402H184.689ZM182.655 188.057C181.349 189.996 179.27 191.752 176.102 193.192L179.977 201.718C184.364 199.724 187.951 196.959 190.422 193.289L182.655 188.057ZM176.078 193.203C173.166 194.547 169.172 195.348 163.875 195.348V204.713C170.024 204.713 175.473 203.796 180.002 201.706L176.078 193.203ZM219.926 199H215.244V203.682H219.926V199ZM219.926 150.24H224.608V145.558H219.926V150.24ZM200.697 150.24H196.014V154.923H200.697V150.24ZM200.697 138.909V134.226H196.014V138.909H200.697ZM253.062 138.909H257.745V134.226H253.062V138.909ZM253.062 150.24V154.923H257.745V150.24H253.062ZM233.833 150.24V145.558H229.15V150.24H233.833ZM233.833 199V203.682H238.515V199H233.833ZM224.608 199V150.24H215.244V199H224.608ZM219.926 145.558H200.697V154.923H219.926V145.558ZM205.379 150.24V138.909H196.014V150.24H205.379ZM200.697 143.591H253.062V134.226H200.697V143.591ZM248.38 138.909V150.24H257.745V138.909H248.38ZM253.062 145.558H233.833V154.923H253.062V145.558ZM229.15 150.24V199H238.515V150.24H229.15ZM233.833 194.318H219.926V203.682H233.833V194.318ZM282.778 163.117V158.434H278.096V163.117H282.778ZM311.708 163.117H316.39V158.434H311.708V163.117ZM311.708 173.933V178.616H316.39V173.933H311.708ZM282.778 173.933H278.096V178.616H282.778V173.933ZM283.809 187.84H279.126V192.523H283.809V187.84ZM316.515 187.84H321.198V183.158H316.515V187.84ZM316.515 199V203.682H321.198V199H316.515ZM269.988 199H265.305V203.682H269.988V199ZM269.988 138.909V134.226H265.305V138.909H269.988ZM315.399 138.909H320.082V134.226H315.399V138.909ZM315.399 150.069V154.751H320.082V150.069H315.399ZM283.809 150.069V145.386H279.126V150.069H283.809ZM282.778 167.799H311.708V158.434H282.778V167.799ZM307.026 163.117V173.933H316.39V163.117H307.026ZM311.708 169.251H282.778V178.616H311.708V169.251ZM287.461 173.933V163.117H278.096V173.933H287.461ZM283.809 192.523H316.515V183.158H283.809V192.523ZM311.833 187.84V199H321.198V187.84H311.833ZM316.515 194.318H269.988V203.682H316.515V194.318ZM274.67 199V138.909H265.305V199H274.67ZM269.988 143.591H315.399V134.226H269.988V143.591ZM310.717 138.909V150.069H320.082V138.909H310.717ZM315.399 145.386H283.809V154.751H315.399V145.386ZM279.126 150.069V187.84H288.491V150.069H279.126ZM342.947 198.142L341.607 202.628L341.633 202.636L341.66 202.644L342.947 198.142ZM332.302 193.077L328.033 191.152L326.508 194.537L329.455 196.794L332.302 193.077ZM337.024 182.604L339.737 178.788L335.096 175.487L332.755 180.679L337.024 182.604ZM346.123 187.153L344.599 191.581L344.642 191.596L344.686 191.61L346.123 187.153ZM363.464 188.098L364.852 192.57L364.898 192.555L364.944 192.54L363.464 188.098ZM367.241 185.78L363.626 182.803L367.241 185.78ZM366.554 178.655L363.691 182.36L363.745 182.402L363.8 182.442L366.554 178.655ZM361.575 176.337L360.207 180.815L360.264 180.833L360.322 180.849L361.575 176.337ZM354.708 174.62L353.647 179.181L353.708 179.195L353.769 179.208L354.708 174.62ZM347.239 172.56L345.789 177.012L345.804 177.017L345.819 177.022L347.239 172.56ZM340.457 169.469L338.016 173.465L340.457 169.469ZM335.392 164.49L331.397 166.932L331.421 166.972L331.447 167.011L335.392 164.49ZM336.251 147.236L332.343 144.656L332.337 144.666L332.33 144.675L336.251 147.236ZM344.664 140.454L346.572 144.73L346.586 144.723L346.601 144.717L344.664 140.454ZM369.988 139.252L368.852 143.795L368.886 143.803L368.919 143.811L369.988 139.252ZM379.688 143.201L384.026 144.964L385.5 141.337L382.192 139.244L379.688 143.201ZM375.396 153.76L373.073 157.825L377.719 160.48L379.734 155.523L375.396 153.76ZM366.983 150.24L365.697 154.743L365.74 154.755L365.783 154.766L366.983 150.24ZM352.132 149.983L350.52 145.586V145.586L352.132 149.983ZM348.441 152.472L352.16 155.317L352.199 155.266L352.237 155.214L348.441 152.472ZM349.213 159.683L346.35 163.388L346.404 163.43L346.459 163.47L349.213 159.683ZM354.192 161.915L352.939 166.427H352.939L354.192 161.915ZM360.974 163.632L359.914 168.193L359.925 168.195L359.936 168.198L360.974 163.632ZM368.443 165.606L367.088 170.089L367.102 170.093L367.116 170.097L368.443 165.606ZM375.31 168.611L377.752 164.616L375.31 168.611ZM380.289 173.59L376.294 176.032L376.318 176.072L376.343 176.111L380.289 173.59ZM379.431 190.673L383.315 193.289L379.431 190.673ZM370.932 197.455L368.995 193.192L368.982 193.198L368.97 193.203L370.932 197.455ZM356.768 195.348C352.374 195.348 348.201 194.773 344.233 193.639L341.66 202.644C346.505 204.028 351.547 204.713 356.768 204.713V195.348ZM344.287 193.655C340.243 192.447 337.258 190.975 335.149 189.359L329.455 196.794C332.726 199.299 336.837 201.203 341.607 202.628L344.287 193.655ZM336.571 195.001L341.292 184.528L332.755 180.679L328.033 191.152L336.571 195.001ZM334.31 186.42C337.306 188.55 340.754 190.257 344.599 191.581L347.647 182.726C344.51 181.646 341.892 180.32 339.737 178.788L334.31 186.42ZM344.686 191.61C348.682 192.899 352.744 193.553 356.854 193.553V184.188C353.753 184.188 350.66 183.697 347.561 182.697L344.686 191.61ZM356.854 193.553C359.832 193.553 362.56 193.281 364.852 192.57L362.076 183.626C361.048 183.945 359.37 184.188 356.854 184.188V193.553ZM364.944 192.54C367.151 191.804 369.301 190.644 370.855 188.757L363.626 182.803C363.578 182.862 363.21 183.247 361.983 183.656L364.944 192.54ZM370.855 188.757C372.346 186.946 373.125 184.778 373.125 182.432H363.76C363.76 182.556 363.742 182.611 363.735 182.631C363.728 182.651 363.706 182.706 363.626 182.803L370.855 188.757ZM373.125 182.432C373.125 179.383 371.82 176.695 369.308 174.868L363.8 182.442C363.826 182.461 363.841 182.473 363.847 182.479C363.853 182.485 363.852 182.484 363.845 182.476C363.838 182.468 363.828 182.456 363.816 182.438C363.804 182.42 363.793 182.401 363.782 182.38C363.772 182.359 363.764 182.34 363.759 182.325C363.754 182.31 363.752 182.301 363.752 182.301C363.751 182.299 363.76 182.338 363.76 182.432H373.125ZM369.417 174.95C367.545 173.503 365.283 172.507 362.828 171.825L360.322 180.849C361.987 181.311 363.045 181.861 363.691 182.36L369.417 174.95ZM362.943 171.859C360.718 171.179 358.282 170.572 355.646 170.033L353.769 179.208C356.169 179.698 358.312 180.236 360.207 180.815L362.943 171.859ZM355.768 170.059C353.434 169.516 351.064 168.863 348.659 168.098L345.819 177.022C348.45 177.859 351.06 178.579 353.647 179.181L355.768 170.059ZM348.689 168.107C346.55 167.411 344.626 166.529 342.899 165.474L338.016 173.465C340.409 174.928 343.006 176.106 345.789 177.012L348.689 168.107ZM342.899 165.474C341.453 164.591 340.277 163.438 339.338 161.969L331.447 167.011C333.141 169.663 335.341 171.83 338.016 173.465L342.899 165.474ZM339.388 162.049C338.702 160.927 338.186 159.21 338.186 156.593H328.821C328.821 160.385 329.564 163.933 331.397 166.932L339.388 162.049ZM338.186 156.593C338.186 154.044 338.85 151.819 340.171 149.796L332.33 144.675C329.989 148.261 328.821 152.274 328.821 156.593H338.186ZM340.159 149.815C341.47 147.828 343.511 146.096 346.572 144.73L342.756 136.178C338.376 138.132 334.809 140.92 332.343 144.656L340.159 149.815ZM346.601 144.717C349.59 143.358 353.601 142.561 358.828 142.561V133.196C352.724 133.196 347.291 134.116 342.726 136.191L346.601 144.717ZM358.828 142.561C362.223 142.561 365.561 142.972 368.852 143.795L371.124 134.709C367.089 133.701 362.988 133.196 358.828 133.196V142.561ZM368.919 143.811C372.141 144.566 374.877 145.698 377.185 147.158L382.192 139.244C378.891 137.156 375.16 135.655 371.056 134.693L368.919 143.811ZM375.351 141.438L371.058 151.997L379.734 155.523L384.026 144.964L375.351 141.438ZM377.719 149.694C374.602 147.913 371.422 146.573 368.184 145.714L365.783 154.766C368.153 155.395 370.582 156.402 373.073 157.825L377.719 149.694ZM368.27 145.738C365.082 144.827 361.902 144.356 358.742 144.356V153.721C360.962 153.721 363.276 154.051 365.697 154.743L368.27 145.738ZM358.742 144.356C355.737 144.356 352.936 144.701 350.52 145.586L353.744 154.379C354.763 154.006 356.367 153.721 358.742 153.721V144.356ZM350.52 145.586C348.294 146.403 346.127 147.679 344.645 149.731L352.237 155.214C352.243 155.205 352.536 154.822 353.744 154.379L350.52 145.586ZM344.721 149.628C343.305 151.48 342.642 153.643 342.642 155.906H352.007C352.007 155.536 352.089 155.41 352.16 155.317L344.721 149.628ZM342.642 155.906C342.642 158.951 343.984 161.56 346.35 163.388L352.077 155.978C351.999 155.918 351.967 155.882 351.962 155.875C351.957 155.87 351.969 155.884 351.985 155.915C351.992 155.93 351.998 155.944 352.003 155.958C352.008 155.971 352.011 155.981 352.012 155.986C352.014 155.996 352.007 155.973 352.007 155.906H342.642ZM346.459 163.47C348.306 164.813 350.527 165.757 352.939 166.427L355.446 157.403C353.737 156.929 352.639 156.385 351.968 155.896L346.459 163.47ZM352.939 166.427C355.074 167.02 357.399 167.608 359.914 168.193L362.035 159.071C359.627 158.511 357.432 157.955 355.446 157.403L352.939 166.427ZM359.936 168.198C362.348 168.746 364.732 169.376 367.088 170.089L369.798 161.124C367.232 160.349 364.636 159.662 362.012 159.066L359.936 168.198ZM367.116 170.097C369.276 170.735 371.186 171.578 372.869 172.606L377.752 164.616C375.314 163.126 372.645 161.966 369.769 161.116L367.116 170.097ZM372.869 172.606C374.295 173.478 375.422 174.605 376.294 176.032L384.285 171.148C382.638 168.454 380.446 166.262 377.752 164.616L372.869 172.606ZM376.343 176.111C377.058 177.23 377.581 178.894 377.581 181.402H386.946C386.946 177.614 386.153 174.071 384.235 171.069L376.343 176.111ZM377.581 181.402C377.581 183.845 376.916 186.025 375.547 188.057L383.315 193.289C385.723 189.713 386.946 185.712 386.946 181.402H377.581ZM375.547 188.057C374.242 189.996 372.162 191.752 368.995 193.192L372.87 201.718C377.256 199.724 380.843 196.959 383.315 193.289L375.547 188.057ZM368.97 193.203C366.059 194.547 362.065 195.348 356.768 195.348V204.713C362.917 204.713 368.366 203.796 372.894 201.706L368.97 193.203ZM412.818 199H408.136V203.682H412.818V199ZM412.818 150.24H417.501V145.558H412.818V150.24ZM393.589 150.24H388.907V154.923H393.589V150.24ZM393.589 138.909V134.226H388.907V138.909H393.589ZM445.954 138.909H450.637V134.226H445.954V138.909ZM445.954 150.24V154.923H450.637V150.24H445.954ZM426.725 150.24V145.558H422.043V150.24H426.725ZM426.725 199V203.682H431.408V199H426.725ZM417.501 199V150.24H408.136V199H417.501ZM412.818 145.558H393.589V154.923H412.818V145.558ZM398.272 150.24V138.909H388.907V150.24H398.272ZM393.589 143.591H445.954V134.226H393.589V143.591ZM441.272 138.909V150.24H450.637V138.909H441.272ZM445.954 145.558H426.725V154.923H445.954V145.558ZM422.043 150.24V199H431.408V150.24H422.043ZM426.725 194.318H412.818V203.682H426.725V194.318ZM512.516 197.798L510.809 202.159L510.847 202.173L510.885 202.188L512.516 197.798ZM502.128 191.274L498.884 194.651L498.901 194.666L498.917 194.682L502.128 191.274ZM495.261 181.402L490.95 183.231L490.962 183.258L490.974 183.285L495.261 181.402ZM495.261 156.507L490.974 154.623L490.962 154.651L490.95 154.678L495.261 156.507ZM502.214 146.635L505.425 150.043V150.043L502.214 146.635ZM512.687 140.196L514.318 144.586L514.345 144.576L514.372 144.565L512.687 140.196ZM540.243 140.54L538.434 144.859L538.444 144.863L538.455 144.867L540.243 140.54ZM551.06 148.266L554.236 151.706L557.566 148.632L554.602 145.204L551.06 148.266ZM542.132 156.507L538.737 159.732L541.916 163.078L545.308 159.948L542.132 156.507ZM535.007 151.442L533.105 155.721L533.145 155.739L533.185 155.756L535.007 151.442ZM512.344 155.048L509.088 151.683L509.06 151.709L509.033 151.737L512.344 155.048ZM508.309 161.142L503.984 159.349L503.965 159.394L503.947 159.44L508.309 161.142ZM508.309 176.68L503.947 178.383L503.965 178.428L503.984 178.474L508.309 176.68ZM512.344 182.861L508.979 186.117L509.032 186.173L509.088 186.226L512.344 182.861ZM518.525 186.81L516.822 191.172L516.84 191.179L516.858 191.186L518.525 186.81ZM534.406 186.896L535.887 191.338L535.915 191.328L535.944 191.318L534.406 186.896ZM542.046 182.346L545.727 179.452L542.702 175.605L538.992 178.797L542.046 182.346ZM549.944 192.39L552.764 196.128L556.577 193.251L553.625 189.496L549.944 192.39ZM538.526 198.056L537.17 193.574L537.162 193.577L537.154 193.579L538.526 198.056ZM537.239 190.587H532.556V194.652L536.581 195.223L537.239 190.587ZM537.239 168.01V163.328H532.556V168.01H537.239ZM549.944 168.01H554.626V163.328H549.944V168.01ZM549.944 192.39L549.286 197.026L554.626 197.784V192.39H549.944ZM525.65 195.348C521.394 195.348 517.575 194.683 514.146 193.409L510.885 202.188C515.468 203.89 520.405 204.713 525.65 204.713V195.348ZM514.222 193.438C510.81 192.103 507.863 190.244 505.34 187.866L498.917 194.682C502.345 197.912 506.323 200.403 510.809 202.159L514.222 193.438ZM505.372 187.897C502.904 185.526 500.966 182.745 499.548 179.518L490.974 183.285C492.875 187.613 495.515 191.413 498.884 194.651L505.372 187.897ZM499.571 179.573C498.238 176.431 497.539 172.911 497.539 168.954H488.175C488.175 174.04 489.078 178.819 490.95 183.231L499.571 179.573ZM497.539 168.954C497.539 164.997 498.238 161.478 499.571 158.336L490.95 154.678C489.078 159.09 488.175 163.869 488.175 168.954H497.539ZM499.548 158.391C500.957 155.183 502.911 152.412 505.425 150.043L499.003 143.227C495.566 146.466 492.884 150.276 490.974 154.623L499.548 158.391ZM505.425 150.043C507.925 147.687 510.872 145.866 514.318 144.586L511.057 135.807C506.49 137.503 502.455 139.974 499.003 143.227L505.425 150.043ZM514.372 144.565C517.78 143.251 521.608 142.561 525.907 142.561V133.196C520.592 133.196 515.606 134.052 511.002 135.828L514.372 144.565ZM525.907 142.561C530.706 142.561 534.856 143.36 538.434 144.859L542.053 136.221C537.161 134.172 531.753 133.196 525.907 133.196V142.561ZM538.455 144.867C542.1 146.374 545.096 148.527 547.517 151.328L554.602 145.204C551.186 141.252 546.971 138.254 542.032 136.212L538.455 144.867ZM547.884 144.825L538.956 153.066L545.308 159.948L554.236 151.706L547.884 144.825ZM545.527 153.282C542.965 150.586 540.07 148.497 536.828 147.128L533.185 155.756C535.095 156.562 536.949 157.85 538.737 159.732L545.527 153.282ZM536.909 147.163C533.69 145.733 530.232 145.043 526.594 145.043V154.408C529.023 154.408 531.173 154.862 533.105 155.721L536.909 147.163ZM526.594 145.043C523.182 145.043 519.946 145.579 516.944 146.723L520.277 155.474C522.082 154.787 524.169 154.408 526.594 154.408V145.043ZM516.944 146.723C513.972 147.855 511.337 149.506 509.088 151.683L515.6 158.412C516.899 157.155 518.441 156.174 520.277 155.474L516.944 146.723ZM509.033 151.737C506.862 153.908 505.181 156.462 503.984 159.349L512.634 162.936C513.383 161.13 514.392 159.621 515.655 158.359L509.033 151.737ZM503.947 159.44C502.793 162.398 502.253 165.589 502.253 168.954H511.618C511.618 166.597 511.994 164.58 512.671 162.845L503.947 159.44ZM502.253 168.954C502.253 172.275 502.797 175.436 503.947 178.383L512.671 174.978C511.99 173.232 511.618 171.242 511.618 168.954H502.253ZM503.984 178.474C505.175 181.348 506.841 183.908 508.979 186.117L515.709 179.605C514.413 178.266 513.389 176.706 512.634 174.887L503.984 178.474ZM509.088 186.226C511.318 188.384 513.909 190.035 516.822 191.172L520.227 182.448C518.448 181.754 516.918 180.772 515.6 179.496L509.088 186.226ZM516.858 191.186C519.85 192.326 523.055 192.866 526.422 192.866V183.501C524.067 183.501 522.006 183.126 520.192 182.434L516.858 191.186ZM526.422 192.866C529.667 192.866 532.828 192.358 535.887 191.338L532.925 182.454C530.833 183.151 528.672 183.501 526.422 183.501V192.866ZM535.944 191.318C539.216 190.18 542.266 188.334 545.1 185.895L538.992 178.797C536.905 180.593 534.861 181.78 532.868 182.473L535.944 191.318ZM538.365 185.24L546.263 195.284L553.625 189.496L545.727 179.452L538.365 185.24ZM547.124 188.652C544.349 190.746 541.051 192.4 537.17 193.574L539.883 202.537C544.701 201.079 549.015 198.956 552.764 196.128L547.124 188.652ZM537.154 193.579C533.286 194.765 529.456 195.348 525.65 195.348V204.713C530.428 204.713 535.183 203.979 539.899 202.532L537.154 193.579ZM541.921 190.587V168.01H532.556V190.587H541.921ZM537.239 172.693H549.944V163.328H537.239V172.693ZM545.261 168.01V192.39H554.626V168.01H545.261ZM550.602 187.754L537.897 185.951L536.581 195.223L549.286 197.026L550.602 187.754ZM572.305 199H567.623V203.682H572.305V199ZM572.305 138.909V134.226H567.623V138.909H572.305ZM612.223 141.57L610.28 145.83L610.307 145.842L610.333 145.854L612.223 141.57ZM621.236 149.038L617.309 151.588L621.236 149.038ZM621.236 172.302L625.143 174.884L625.154 174.868L625.164 174.852L621.236 172.302ZM612.223 179.685L614.113 183.969L612.223 179.685ZM580.031 182.26L576.743 178.926L568.614 186.943H580.031V182.26ZM586.212 176.165H590.894V164.972L582.924 172.831L586.212 176.165ZM586.212 199V203.682H590.894V199H586.212ZM610.506 199L606.65 201.657L608.046 203.682H610.506V199ZM595.483 177.195V172.513H586.571L591.627 179.852L595.483 177.195ZM610.334 177.195L614.176 174.518L612.778 172.513H610.334V177.195ZM625.529 199V203.682H634.499L629.37 196.323L625.529 199ZM586.212 177.711L582.813 180.931L590.894 189.461V177.711H586.212ZM580.031 171.186V166.504H569.145L576.632 174.407L580.031 171.186ZM607.158 168.439L610.221 171.981L610.248 171.958L610.275 171.934L607.158 168.439ZM580.031 150.24L576.611 147.042L569.242 154.923H580.031V150.24ZM586.212 143.63H590.894V131.767L582.792 140.432L586.212 143.63ZM576.987 199V138.909H567.623V199H576.987ZM572.305 143.591H598.316V134.226H572.305V143.591ZM598.316 143.591C603.193 143.591 607.135 144.396 610.28 145.83L614.165 137.309C609.528 135.195 604.198 134.226 598.316 134.226V143.591ZM610.333 145.854C613.472 147.239 615.734 149.161 617.309 151.588L625.164 146.489C622.504 142.391 618.757 139.335 614.113 137.286L610.333 145.854ZM617.309 151.588C618.858 153.974 619.73 156.947 619.73 160.713H629.095C629.095 155.438 627.85 150.627 625.164 146.489L617.309 151.588ZM619.73 160.713C619.73 164.41 618.864 167.357 617.309 169.753L625.164 174.852C627.844 170.723 629.095 165.945 629.095 160.713H619.73ZM617.33 169.721C615.76 172.098 613.494 174.006 610.333 175.401L614.113 183.969C618.735 181.93 622.478 178.917 625.143 174.884L617.33 169.721ZM610.333 175.401C607.172 176.795 603.211 177.578 598.316 177.578V186.943C604.18 186.943 609.49 186.008 614.113 183.969L610.333 175.401ZM598.316 177.578H580.031V186.943H598.316V177.578ZM583.319 185.594L589.5 179.499L582.924 172.831L576.743 178.926L583.319 185.594ZM581.529 176.165V199H590.894V176.165H581.529ZM586.212 194.318H572.305V203.682H586.212V194.318ZM614.362 196.343L599.339 174.539L591.627 179.852L606.65 201.657L614.362 196.343ZM595.483 181.878H610.334V172.513H595.483V181.878ZM606.492 179.873L621.687 201.677L629.37 196.323L614.176 174.518L606.492 179.873ZM625.529 194.318H610.506V203.682H625.529V194.318ZM589.611 174.49L583.43 167.966L576.632 174.407L582.813 180.931L589.611 174.49ZM580.031 175.869H597.543V166.504H580.031V175.869ZM597.543 175.869C602.385 175.869 606.9 174.853 610.221 171.981L604.095 164.898C603.181 165.688 601.286 166.504 597.543 166.504V175.869ZM610.275 171.934C613.542 169.02 615.017 165.089 615.017 160.713H605.652C605.652 162.861 605.009 164.082 604.041 164.945L610.275 171.934ZM615.017 160.713C615.017 156.312 613.56 152.333 610.221 149.446L604.095 156.529C604.991 157.304 605.652 158.476 605.652 160.713H615.017ZM610.221 149.446C606.9 146.574 602.385 145.558 597.543 145.558V154.923C601.286 154.923 603.181 155.738 604.095 156.529L610.221 149.446ZM597.543 145.558H580.031V154.923H597.543V145.558ZM583.451 153.438L589.632 146.828L582.792 140.432L576.611 147.042L583.451 153.438ZM581.529 143.63V177.711H590.894V143.63H581.529ZM660.841 197.712L659.156 202.081L659.166 202.085L659.177 202.089L660.841 197.712ZM650.368 191.188L647.124 194.565L647.14 194.58L647.157 194.596L650.368 191.188ZM643.5 181.316L639.19 183.145L639.201 183.172L639.214 183.2L643.5 181.316ZM643.5 156.593L639.214 154.709L639.201 154.736L639.19 154.764L643.5 156.593ZM660.927 140.196L659.242 135.828V135.828L660.927 140.196ZM687.024 140.196L685.317 144.557L685.328 144.561L685.339 144.565L687.024 140.196ZM697.411 146.721L694.167 150.097L694.183 150.113L694.2 150.128L697.411 146.721ZM704.364 156.593L700.077 158.476L700.083 158.488L700.088 158.501L704.364 156.593ZM704.364 181.402L708.651 183.285L708.656 183.274L708.661 183.262L704.364 181.402ZM697.411 191.274L700.62 194.684L700.622 194.682L697.411 191.274ZM687.024 197.712L685.339 193.344L685.328 193.348L685.317 193.352L687.024 197.712ZM681.358 186.81L679.619 182.463L679.6 182.47L679.581 182.478L681.358 186.81ZM687.367 182.861L684.056 179.55V179.55L687.367 182.861ZM691.316 176.766L686.99 174.973L686.972 175.018L686.954 175.064L691.316 176.766ZM691.316 161.142L686.954 162.845L686.972 162.891L686.99 162.936L691.316 161.142ZM687.367 155.048L684 158.302L684.028 158.33L684.056 158.359L687.367 155.048ZM681.444 151.099L679.705 155.446L681.444 151.099ZM666.507 151.099L664.768 146.751L664.749 146.759L664.729 146.767L666.507 151.099ZM660.583 155.048L663.894 158.359L660.583 155.048ZM656.549 161.142L652.223 159.349L652.205 159.394L652.187 159.44L656.549 161.142ZM656.549 176.766L652.173 178.433L652.197 178.497L652.223 178.56L656.549 176.766ZM660.498 182.861L657.131 186.116L657.159 186.144L657.187 186.172L660.498 182.861ZM666.507 186.81L664.768 191.158V191.158L666.507 186.81ZM674.061 195.348C669.827 195.348 665.99 194.661 662.505 193.336L659.177 202.089C663.819 203.854 668.795 204.713 674.061 204.713V195.348ZM662.526 193.344C659.057 192.006 656.092 190.148 653.579 187.78L647.157 194.596C650.596 197.837 654.612 200.329 659.156 202.081L662.526 193.344ZM653.612 187.812C651.144 185.44 649.205 182.66 647.787 179.432L639.214 183.2C641.115 187.527 643.755 191.327 647.124 194.565L653.612 187.812ZM647.811 179.487C646.475 176.338 645.779 172.846 645.779 168.954H636.414C636.414 173.991 637.321 178.74 639.19 183.145L647.811 179.487ZM645.779 168.954C645.779 165.063 646.475 161.571 647.811 158.421L639.19 154.764C637.321 159.169 636.414 163.918 636.414 168.954H645.779ZM647.787 158.476C649.197 155.269 651.15 152.498 653.665 150.128L647.243 143.313C643.805 146.552 641.124 150.362 639.214 154.709L647.787 158.476ZM653.665 150.128C656.177 147.761 659.143 145.903 662.612 144.565L659.242 135.828C654.698 137.58 650.682 140.072 647.243 143.313L653.665 150.128ZM662.612 144.565C666.032 143.246 669.805 142.561 673.975 142.561V133.196C668.76 133.196 663.833 134.057 659.242 135.828L662.612 144.565ZM673.975 142.561C678.211 142.561 681.974 143.248 685.317 144.557L688.73 135.836C684.176 134.054 679.239 133.196 673.975 133.196V142.561ZM685.339 144.565C688.8 145.9 691.724 147.75 694.167 150.097L700.655 143.344C697.261 140.083 693.259 137.583 688.709 135.828L685.339 144.565ZM694.2 150.128C696.714 152.498 698.668 155.269 700.077 158.476L708.651 154.709C706.741 150.362 704.059 146.552 700.622 143.313L694.2 150.128ZM700.088 158.501C701.452 161.557 702.171 165.018 702.171 168.954H711.536C711.536 163.848 710.596 159.068 708.64 154.685L700.088 158.501ZM702.171 168.954C702.171 172.823 701.456 176.334 700.067 179.542L708.661 183.262C710.592 178.801 711.536 174.014 711.536 168.954H702.171ZM700.077 179.518C698.668 182.726 696.714 185.497 694.2 187.866L700.622 194.682C704.059 191.443 706.741 187.632 708.651 183.285L700.077 179.518ZM694.202 187.864C691.755 190.167 688.82 192.001 685.339 193.344L688.709 202.081C693.239 200.334 697.229 197.875 700.62 194.684L694.202 187.864ZM685.317 193.352C681.967 194.663 678.232 195.348 674.061 195.348V204.713C679.276 204.713 684.182 203.852 688.73 202.073L685.317 193.352ZM673.975 192.866C677.205 192.866 680.278 192.314 683.135 191.142L679.581 182.478C677.974 183.137 676.125 183.501 673.975 183.501V192.866ZM683.097 191.158C685.966 190.01 688.506 188.345 690.678 186.172L684.056 179.55C682.795 180.812 681.329 181.779 679.619 182.463L683.097 191.158ZM690.678 186.172C692.87 183.98 694.536 181.395 695.678 178.468L686.954 175.064C686.265 176.83 685.298 178.308 684.056 179.55L690.678 186.172ZM695.641 178.56C696.878 175.577 697.458 172.354 697.458 168.954H688.093C688.093 171.278 687.7 173.262 686.99 174.973L695.641 178.56ZM697.458 168.954C697.458 165.555 696.878 162.332 695.641 159.349L686.99 162.936C687.7 164.646 688.093 166.631 688.093 168.954H697.458ZM695.678 159.44C694.536 156.514 692.87 153.928 690.678 151.737L684.056 158.359C685.298 159.6 686.265 161.078 686.954 162.845L695.678 159.44ZM690.734 151.793C688.6 149.585 686.065 147.904 683.183 146.751L679.705 155.446C681.401 156.125 682.815 157.076 684 158.302L690.734 151.793ZM683.183 146.751C680.292 145.595 677.206 145.043 673.975 145.043V154.408C676.124 154.408 678.017 154.771 679.705 155.446L683.183 146.751ZM673.975 145.043C670.744 145.043 667.658 145.595 664.768 146.751L668.246 155.446C669.933 154.771 671.827 154.408 673.975 154.408V145.043ZM664.729 146.767C661.92 147.919 659.425 149.584 657.272 151.737L663.894 158.359C665.176 157.077 666.63 156.109 668.284 155.431L664.729 146.767ZM657.272 151.737C655.101 153.908 653.421 156.462 652.223 159.349L660.874 162.936C661.623 161.13 662.632 159.621 663.894 158.359L657.272 151.737ZM652.187 159.44C651.032 162.398 650.493 165.589 650.493 168.954H659.858C659.858 166.597 660.234 164.58 660.911 162.845L652.187 159.44ZM650.493 168.954C650.493 172.277 651.037 175.451 652.173 178.433L660.924 175.099C660.229 173.274 659.858 171.24 659.858 168.954H650.493ZM652.223 178.56C653.407 181.414 655.037 183.95 657.131 186.116L663.864 179.607C662.638 178.339 661.636 176.811 660.874 174.973L652.223 178.56ZM657.187 186.172C659.359 188.345 661.899 190.01 664.768 191.158L668.246 182.463C666.536 181.779 665.07 180.812 663.809 179.55L657.187 186.172ZM664.768 191.158C667.658 192.314 670.744 192.866 673.975 192.866V183.501C671.827 183.501 669.933 183.138 668.246 182.463L664.768 191.158ZM739.242 199L734.792 200.456L735.847 203.682H739.242V199ZM719.584 138.909V134.226H713.125L715.133 140.365L719.584 138.909ZM734.005 138.909L738.464 137.478L737.42 134.226H734.005V138.909ZM751.089 192.132V196.815H757.509L755.547 190.701L751.089 192.132ZM743.878 192.132L739.438 190.643L737.368 196.815H743.878V192.132ZM761.733 138.909V134.226H758.365L757.294 137.419L761.733 138.909ZM774.61 138.909L779.066 137.471L778.02 134.226H774.61V138.909ZM791.779 192.132V196.815H798.209L796.235 190.695L791.779 192.132ZM784.826 192.132L780.378 190.669L778.355 196.815H784.826V192.132ZM802.338 138.909V134.226H798.949L797.89 137.445L802.338 138.909ZM815.644 138.909L820.094 140.365L822.102 134.226H815.644V138.909ZM795.985 199V203.682H799.38L800.436 200.456L795.985 199ZM781.048 199L776.596 200.449L777.648 203.682H781.048V199ZM765.854 152.3V147.618H759.406L761.401 153.749L765.854 152.3ZM769.803 152.3L774.243 153.786L776.307 147.618H769.803V152.3ZM754.179 199V203.682H757.55L758.62 200.486L754.179 199ZM743.692 197.544L724.034 137.453L715.133 140.365L734.792 200.456L743.692 197.544ZM719.584 143.591H734.005V134.226H719.584V143.591ZM729.547 140.34L746.63 193.563L755.547 190.701L738.464 137.478L729.547 140.34ZM751.089 187.45H743.878V196.815H751.089V187.45ZM748.317 193.622L766.173 140.398L757.294 137.419L739.438 190.643L748.317 193.622ZM761.733 143.591H774.61V134.226H761.733V143.591ZM770.154 140.346L787.323 193.57L796.235 190.695L779.066 137.471L770.154 140.346ZM791.779 187.45H784.826V196.815H791.779V187.45ZM789.273 193.596L806.786 140.372L797.89 137.445L780.378 190.669L789.273 193.596ZM802.338 143.591H815.644V134.226H802.338V143.591ZM811.193 137.453L791.535 197.544L800.436 200.456L820.094 140.365L811.193 137.453ZM795.985 194.318H781.048V203.682H795.985V194.318ZM785.501 197.551L770.307 150.852L761.401 153.749L776.596 200.449L785.501 197.551ZM765.854 156.983H769.803V147.618H765.854V156.983ZM765.362 150.815L749.738 197.514L758.62 200.486L774.243 153.786L765.362 150.815ZM754.179 194.318H739.242V203.682H754.179V194.318ZM832.85 199H828.168V203.682H832.85V199ZM832.85 138.909V134.226H828.168V138.909H832.85ZM846.757 138.909H851.44V134.226H846.757V138.909ZM846.757 199V203.682H851.44V199H846.757ZM837.533 199V138.909H828.168V199H837.533ZM832.85 143.591H846.757V134.226H832.85V143.591ZM842.075 138.909V199H851.44V138.909H842.075ZM846.757 194.318H832.85V203.682H846.757V194.318ZM870.461 199H865.779V203.682H870.461V199ZM870.461 138.909V134.226H865.779V138.909H870.461ZM881.964 138.909L885.586 135.941L884.181 134.226H881.964V138.909ZM917.418 182.174V186.857H927.309L921.04 179.207L917.418 182.174ZM911.838 182.174H907.156V186.857H911.838V182.174ZM911.838 138.909V134.226H907.156V138.909H911.838ZM925.573 138.909H930.256V134.226H925.573V138.909ZM925.573 199V203.682H930.256V199H925.573ZM914.156 199L910.538 201.972L911.943 203.682H914.156V199ZM878.616 155.734V151.052H868.71L874.998 158.706L878.616 155.734ZM884.196 155.734H888.879V151.052H884.196V155.734ZM884.196 199V203.682H888.879V199H884.196ZM875.143 199V138.909H865.779V199H875.143ZM870.461 143.591H881.964V134.226H870.461V143.591ZM878.342 141.877L913.796 185.142L921.04 179.207L885.586 135.941L878.342 141.877ZM917.418 177.492H911.838V186.857H917.418V177.492ZM916.521 182.174V138.909H907.156V182.174H916.521ZM911.838 143.591H925.573V134.226H911.838V143.591ZM920.891 138.909V199H930.256V138.909H920.891ZM925.573 194.318H914.156V203.682H925.573V194.318ZM917.774 196.028L882.234 152.762L874.998 158.706L910.538 201.972L917.774 196.028ZM878.616 160.417H884.196V151.052H878.616V160.417ZM879.514 155.734V199H888.879V155.734H879.514ZM884.196 194.318H870.461V203.682H884.196V194.318ZM965.115 197.798L963.409 202.159L963.446 202.173L963.484 202.188L965.115 197.798ZM954.728 191.274L951.483 194.651L951.5 194.666L951.516 194.682L954.728 191.274ZM947.86 181.402L943.549 183.231L943.561 183.258L943.573 183.285L947.86 181.402ZM947.86 156.507L943.573 154.623L943.561 154.651L943.549 154.678L947.86 156.507ZM954.813 146.635L958.025 150.043V150.043L954.813 146.635ZM965.286 140.196L966.917 144.586L966.944 144.576L966.972 144.565L965.286 140.196ZM992.843 140.54L991.033 144.859L991.044 144.863L991.054 144.867L992.843 140.54ZM1003.66 148.266L1006.84 151.706L1010.17 148.632L1007.2 145.204L1003.66 148.266ZM994.731 156.507L991.336 159.732L994.516 163.078L997.907 159.948L994.731 156.507ZM987.606 151.442L985.704 155.721L985.744 155.739L985.785 155.756L987.606 151.442ZM964.943 155.048L961.687 151.683L961.659 151.709L961.632 151.737L964.943 155.048ZM960.908 161.142L956.583 159.349L956.564 159.394L956.546 159.44L960.908 161.142ZM960.908 176.68L956.546 178.383L956.564 178.428L956.583 178.474L960.908 176.68ZM964.943 182.861L961.578 186.117L961.632 186.173L961.687 186.226L964.943 182.861ZM971.124 186.81L969.422 191.172L969.439 191.179L969.457 191.186L971.124 186.81ZM987.005 186.896L988.486 191.338L988.515 191.328L988.543 191.318L987.005 186.896ZM994.645 182.346L998.326 179.452L995.301 175.605L991.591 178.797L994.645 182.346ZM1002.54 192.39L1005.36 196.128L1009.18 193.251L1006.22 189.496L1002.54 192.39ZM991.126 198.056L989.769 193.574L989.761 193.577L989.753 193.579L991.126 198.056ZM989.838 190.587H985.156V194.652L989.18 195.223L989.838 190.587ZM989.838 168.01V163.328H985.156V168.01H989.838ZM1002.54 168.01H1007.23V163.328H1002.54V168.01ZM1002.54 192.39L1001.89 197.026L1007.23 197.784V192.39H1002.54ZM978.249 195.348C973.994 195.348 970.175 194.683 966.745 193.409L963.484 202.188C968.067 203.89 973.004 204.713 978.249 204.713V195.348ZM966.821 193.438C963.409 192.103 960.463 190.244 957.939 187.866L951.516 194.682C954.945 197.912 958.923 200.403 963.409 202.159L966.821 193.438ZM957.972 187.897C955.504 185.526 953.565 182.745 952.147 179.518L943.573 183.285C945.474 187.613 948.114 191.413 951.483 194.651L957.972 187.897ZM952.171 179.573C950.837 176.431 950.139 172.911 950.139 168.954H940.774C940.774 174.04 941.678 178.819 943.549 183.231L952.171 179.573ZM950.139 168.954C950.139 164.997 950.837 161.478 952.171 158.336L943.549 154.678C941.678 159.09 940.774 163.869 940.774 168.954H950.139ZM952.147 158.391C953.556 155.183 955.51 152.412 958.025 150.043L951.602 143.227C948.165 146.466 945.483 150.276 943.573 154.623L952.147 158.391ZM958.025 150.043C960.524 147.687 963.471 145.866 966.917 144.586L963.656 135.807C959.09 137.503 955.055 139.974 951.602 143.227L958.025 150.043ZM966.972 144.565C970.38 143.251 974.207 142.561 978.507 142.561V133.196C973.192 133.196 968.206 134.052 963.601 135.828L966.972 144.565ZM978.507 142.561C983.305 142.561 987.455 143.36 991.033 144.859L994.652 136.221C989.76 134.172 984.352 133.196 978.507 133.196V142.561ZM991.054 144.867C994.699 146.374 997.695 148.527 1000.12 151.328L1007.2 145.204C1003.79 141.252 999.57 138.254 994.631 136.212L991.054 144.867ZM1000.48 144.825L991.555 153.066L997.907 159.948L1006.84 151.706L1000.48 144.825ZM998.126 153.282C995.565 150.586 992.669 148.497 989.427 147.128L985.785 155.756C987.694 156.562 989.548 157.85 991.336 159.732L998.126 153.282ZM989.508 147.163C986.289 145.733 982.831 145.043 979.193 145.043V154.408C981.622 154.408 983.772 154.862 985.704 155.721L989.508 147.163ZM979.193 145.043C975.781 145.043 972.546 145.579 969.543 146.723L972.877 155.474C974.681 154.787 976.768 154.408 979.193 154.408V145.043ZM969.543 146.723C966.572 147.855 963.936 149.506 961.687 151.683L968.199 158.412C969.499 157.155 971.04 156.174 972.877 155.474L969.543 146.723ZM961.632 151.737C959.461 153.908 957.78 156.462 956.583 159.349L965.234 162.936C965.982 161.13 966.992 159.621 968.254 158.359L961.632 151.737ZM956.546 159.44C955.392 162.398 954.852 165.589 954.852 168.954H964.217C964.217 166.597 964.593 164.58 965.27 162.845L956.546 159.44ZM954.852 168.954C954.852 172.275 955.396 175.436 956.546 178.383L965.27 174.978C964.589 173.232 964.217 171.242 964.217 168.954H954.852ZM956.583 178.474C957.775 181.348 959.44 183.908 961.578 186.117L968.308 179.605C967.012 178.266 965.988 176.706 965.234 174.887L956.583 178.474ZM961.687 186.226C963.917 188.384 966.508 190.035 969.422 191.172L972.826 182.448C971.047 181.754 969.518 180.772 968.199 179.496L961.687 186.226ZM969.457 191.186C972.45 192.326 975.654 192.866 979.022 192.866V183.501C976.666 183.501 974.606 183.126 972.791 182.434L969.457 191.186ZM979.022 192.866C982.266 192.866 985.427 192.358 988.486 191.338L985.524 182.454C983.432 183.151 981.271 183.501 979.022 183.501V192.866ZM988.543 191.318C991.815 190.18 994.865 188.334 997.699 185.895L991.591 178.797C989.504 180.593 987.46 181.78 985.467 182.473L988.543 191.318ZM990.965 185.24L998.862 195.284L1006.22 189.496L998.326 179.452L990.965 185.24ZM999.723 188.652C996.948 190.746 993.65 192.4 989.769 193.574L992.482 202.537C997.3 201.079 1001.61 198.956 1005.36 196.128L999.723 188.652ZM989.753 193.579C985.885 194.765 982.055 195.348 978.249 195.348V204.713C983.028 204.713 987.782 203.979 992.499 202.532L989.753 193.579ZM994.521 190.587V168.01H985.156V190.587H994.521ZM989.838 172.693H1002.54V163.328H989.838V172.693ZM997.861 168.01V192.39H1007.23V168.01H997.861ZM1003.2 187.754L990.496 185.951L989.18 195.223L1001.89 197.026L1003.2 187.754Z" fill="#005669" mask="url(#path-3-outside-1_304_197)"/>
</svg>
