<svg width="350" height="343" viewBox="0 0 350 343" fill="none" xmlns="http://www.w3.org/2000/svg">
<path d="M15.3913 270.798C12.6376 270.798 9.99864 270.437 7.47439 269.716C4.95014 268.962 2.91763 267.995 1.37686 266.815L4.08141 260.816C5.55662 261.865 7.29409 262.734 9.29381 263.422C11.3263 264.078 13.3752 264.405 15.4405 264.405C17.0141 264.405 18.2762 264.258 19.2269 263.963C20.2104 263.635 20.9316 263.193 21.3905 262.635C21.8495 262.078 22.079 261.439 22.079 260.717C22.079 259.8 21.7183 259.078 20.9971 258.554C20.2759 257.996 19.3252 257.554 18.1451 257.226C16.9649 256.866 15.6536 256.538 14.2112 256.243C12.8015 255.915 11.3755 255.521 9.93307 255.062C8.52343 254.604 7.22852 254.013 6.04835 253.292C4.86819 252.571 3.90111 251.62 3.14711 250.44C2.4259 249.26 2.06529 247.752 2.06529 245.916C2.06529 243.949 2.58981 242.163 3.63885 240.556C4.72067 238.917 6.32701 237.622 8.45786 236.672C10.6215 235.688 13.326 235.196 16.5715 235.196C18.7351 235.196 20.866 235.459 22.9641 235.983C25.0622 236.475 26.9144 237.229 28.5207 238.245L26.062 244.293C24.4557 243.376 22.8493 242.704 21.243 242.277C19.6367 241.818 18.0631 241.589 16.5223 241.589C14.9816 241.589 13.7194 241.769 12.736 242.13C11.7525 242.49 11.0477 242.966 10.6215 243.556C10.1953 244.113 9.98224 244.769 9.98224 245.523C9.98224 246.408 10.3429 247.129 11.0641 247.686C11.7853 248.211 12.736 248.637 13.9161 248.965C15.0963 249.293 16.3912 249.621 17.8008 249.948C19.2433 250.276 20.6693 250.653 22.079 251.079C23.5214 251.506 24.8327 252.079 26.0128 252.8C27.193 253.522 28.1437 254.472 28.8649 255.653C29.6189 256.833 29.9959 258.324 29.9959 260.127C29.9959 262.062 29.455 263.832 28.3732 265.438C27.2914 267.044 25.6686 268.339 23.505 269.323C21.3741 270.306 18.6696 270.798 15.3913 270.798ZM43.7495 249.653H60.321V255.849H43.7495V249.653ZM44.3396 263.815H63.0748V270.208H36.4227V235.786H62.4355V242.179H44.3396V263.815ZM65.8727 270.208L81.2148 235.786H89.0826L104.474 270.208H96.1144L83.526 239.819H86.6731L74.0355 270.208H65.8727ZM73.5438 262.832L75.6582 256.784H93.3607L95.5244 262.832H73.5438ZM125.022 270.798C122.366 270.798 119.891 270.372 117.596 269.52C115.334 268.634 113.367 267.389 111.696 265.782C110.024 264.176 108.712 262.291 107.762 260.127C106.844 257.964 106.385 255.587 106.385 252.997C106.385 250.407 106.844 248.031 107.762 245.867C108.712 243.703 110.024 241.818 111.696 240.212C113.4 238.606 115.384 237.376 117.646 236.524C119.908 235.639 122.383 235.196 125.071 235.196C128.054 235.196 130.742 235.721 133.135 236.77C135.561 237.786 137.594 239.294 139.233 241.294L134.119 246.015C132.939 244.67 131.627 243.671 130.185 243.015C128.742 242.327 127.169 241.982 125.464 241.982C123.858 241.982 122.383 242.245 121.039 242.769C119.694 243.294 118.531 244.048 117.547 245.031C116.564 246.015 115.793 247.178 115.236 248.522C114.712 249.866 114.449 251.358 114.449 252.997C114.449 254.636 114.712 256.128 115.236 257.472C115.793 258.816 116.564 259.98 117.547 260.963C118.531 261.947 119.694 262.701 121.039 263.225C122.383 263.75 123.858 264.012 125.464 264.012C127.169 264.012 128.742 263.684 130.185 263.029C131.627 262.34 132.939 261.308 134.119 259.931L139.233 264.651C137.594 266.651 135.561 268.175 133.135 269.224C130.742 270.274 128.038 270.798 125.022 270.798ZM161.594 270.798C158.874 270.798 156.349 270.355 154.022 269.47C151.727 268.585 149.727 267.339 148.023 265.733C146.351 264.127 145.039 262.242 144.089 260.078C143.171 257.915 142.712 255.554 142.712 252.997C142.712 250.44 143.171 248.08 144.089 245.916C145.039 243.753 146.367 241.868 148.072 240.261C149.776 238.655 151.776 237.409 154.071 236.524C156.366 235.639 158.857 235.196 161.545 235.196C164.266 235.196 166.758 235.639 169.02 236.524C171.314 237.409 173.298 238.655 174.97 240.261C176.674 241.868 178.002 243.753 178.953 245.916C179.903 248.047 180.379 250.407 180.379 252.997C180.379 255.554 179.903 257.931 178.953 260.127C178.002 262.291 176.674 264.176 174.97 265.782C173.298 267.356 171.314 268.585 169.02 269.47C166.758 270.355 164.283 270.798 161.594 270.798ZM161.545 264.012C163.086 264.012 164.496 263.75 165.774 263.225C167.086 262.701 168.233 261.947 169.216 260.963C170.2 259.98 170.954 258.816 171.478 257.472C172.036 256.128 172.314 254.636 172.314 252.997C172.314 251.358 172.036 249.866 171.478 248.522C170.954 247.178 170.2 246.015 169.216 245.031C168.266 244.048 167.135 243.294 165.823 242.769C164.512 242.245 163.086 241.982 161.545 241.982C160.005 241.982 158.579 242.245 157.267 242.769C155.989 243.294 154.858 244.048 153.874 245.031C152.891 246.015 152.12 247.178 151.563 248.522C151.039 249.866 150.776 251.358 150.776 252.997C150.776 254.604 151.039 256.095 151.563 257.472C152.12 258.816 152.874 259.98 153.825 260.963C154.809 261.947 155.956 262.701 157.267 263.225C158.579 263.75 160.005 264.012 161.545 264.012ZM187.349 270.208V235.786H193.938L214.247 260.57H211.051V235.786H218.919V270.208H212.379L192.021 245.424H195.217V270.208H187.349ZM238.229 270.208L223.378 235.786H231.983L244.965 266.274H239.9L253.079 235.786H260.996L246.096 270.208H238.229ZM281.188 270.798C278.467 270.798 275.943 270.355 273.615 269.47C271.321 268.585 269.321 267.339 267.616 265.733C265.944 264.127 264.633 262.242 263.682 260.078C262.764 257.915 262.305 255.554 262.305 252.997C262.305 250.44 262.764 248.08 263.682 245.916C264.633 243.753 265.961 241.868 267.665 240.261C269.37 238.655 271.37 237.409 273.665 236.524C275.959 235.639 278.451 235.196 281.139 235.196C283.86 235.196 286.351 235.639 288.613 236.524C290.908 237.409 292.891 238.655 294.563 240.261C296.268 241.868 297.596 243.753 298.546 245.916C299.497 248.047 299.972 250.407 299.972 252.997C299.972 255.554 299.497 257.931 298.546 260.127C297.596 262.291 296.268 264.176 294.563 265.782C292.891 267.356 290.908 268.585 288.613 269.47C286.351 270.355 283.876 270.798 281.188 270.798ZM281.139 264.012C282.68 264.012 284.089 263.75 285.368 263.225C286.679 262.701 287.827 261.947 288.81 260.963C289.794 259.98 290.548 258.816 291.072 257.472C291.629 256.128 291.908 254.636 291.908 252.997C291.908 251.358 291.629 249.866 291.072 248.522C290.548 247.178 289.794 246.015 288.81 245.031C287.859 244.048 286.728 243.294 285.417 242.769C284.106 242.245 282.68 241.982 281.139 241.982C279.598 241.982 278.172 242.245 276.861 242.769C275.582 243.294 274.451 244.048 273.468 245.031C272.484 246.015 271.714 247.178 271.157 248.522C270.632 249.866 270.37 251.358 270.37 252.997C270.37 254.604 270.632 256.095 271.157 257.472C271.714 258.816 272.468 259.98 273.419 260.963C274.402 261.947 275.55 262.701 276.861 263.225C278.172 263.75 279.598 264.012 281.139 264.012ZM314.01 270.208V256.144L315.83 260.963L300.684 235.786H309.142L320.747 255.112H315.879L327.533 235.786H335.352L320.206 260.963L321.977 256.144V270.208H314.01ZM4.08141 330.208V295.786H12.0475V330.208H4.08141ZM21.2 330.208V295.786H27.7892L48.0979 320.57H44.9017V295.786H52.7694V330.208H46.2293L25.8715 305.424H29.0678V330.208H21.2ZM76.8065 330.208V295.786H84.7726V330.208H76.8065ZM93.9251 330.208V295.786H100.514L120.823 320.57H117.627V295.786H125.495V330.208H118.954L98.5966 305.424H101.793V330.208H93.9251ZM134.622 330.208V295.786H150.259C153.996 295.786 157.291 296.508 160.143 297.95C162.995 299.36 165.224 301.343 166.831 303.9C168.437 306.457 169.24 309.489 169.24 312.997C169.24 316.472 168.437 319.504 166.831 322.094C165.224 324.651 162.995 326.651 160.143 328.093C157.291 329.503 153.996 330.208 150.259 330.208H134.622ZM142.588 323.668H149.866C152.161 323.668 154.144 323.242 155.816 322.389C157.52 321.504 158.832 320.258 159.75 318.652C160.7 317.046 161.176 315.161 161.176 312.997C161.176 310.801 160.7 308.916 159.75 307.342C158.832 305.736 157.52 304.507 155.816 303.654C154.144 302.769 152.161 302.327 149.866 302.327H142.588V323.668ZM176.231 330.208V295.786H184.197V330.208H176.231ZM188.826 330.208L204.168 295.786H212.036L227.427 330.208H219.068L206.479 299.819H209.626L196.989 330.208H188.826ZM196.497 322.832L198.611 316.784H216.314L218.478 322.832H196.497Z" fill="#005669"/>
<path d="M12.3426 48L1.08182 13.5785H9.34299L19.1285 44.0661H14.998L25.2261 13.5785H32.6021L42.4368 44.0661H38.4538L48.4852 13.5785H56.1071L44.8463 48H36.2901L27.5864 21.2496H29.8484L20.8988 48H12.3426ZM72.1573 48.3934C69.1413 48.3934 66.4859 47.8033 64.1912 46.6231C61.9292 45.443 60.1753 43.8366 58.9296 41.8041C57.6838 39.7388 57.061 37.3949 57.061 34.7723C57.061 32.1169 57.6675 29.773 58.8804 27.7405C60.1261 25.6752 61.8144 24.0688 63.9453 22.9215C66.0761 21.7413 68.4857 21.1512 71.1738 21.1512C73.7636 21.1512 76.0912 21.7085 78.1565 22.8231C80.2545 23.9049 81.9101 25.4785 83.123 27.5438C84.3359 29.5763 84.9424 32.0186 84.9424 34.8706C84.9424 35.1657 84.926 35.5099 84.8933 35.9033C84.8605 36.2639 84.8277 36.6081 84.7949 36.9359H63.306V32.4611H80.7627L77.8122 33.7888C77.8122 32.412 77.5336 31.2154 76.9763 30.1992C76.419 29.1829 75.6486 28.3961 74.6651 27.8388C73.6817 27.2487 72.5343 26.9537 71.223 26.9537C69.9117 26.9537 68.7479 27.2487 67.7317 27.8388C66.7482 28.3961 65.9778 29.1993 65.4205 30.2483C64.8632 31.2646 64.5845 32.4775 64.5845 33.8872V35.0673C64.5845 36.5098 64.896 37.7883 65.5188 38.9029C66.1745 39.9847 67.076 40.8207 68.2234 41.4107C69.4036 41.968 70.7804 42.2467 72.354 42.2467C73.7636 42.2467 74.993 42.0336 76.042 41.6074C77.1238 41.1813 78.1073 40.542 78.9924 39.6897L83.0738 44.1153C81.8609 45.4921 80.3365 46.5576 78.5007 47.3116C76.6649 48.0328 74.5504 48.3934 72.1573 48.3934ZM89.8014 27.8388L93.0468 16.0371L94.1287 20.5119C92.719 20.5119 91.5552 20.1022 90.6373 19.2826C89.7522 18.4303 89.3097 17.2829 89.3097 15.8405C89.3097 14.4308 89.7686 13.2998 90.6865 12.4475C91.6044 11.5623 92.7354 11.1198 94.0795 11.1198C95.4564 11.1198 96.5873 11.5623 97.4725 12.4475C98.3576 13.2998 98.8002 14.4308 98.8002 15.8405C98.8002 16.2666 98.7674 16.6928 98.7018 17.119C98.669 17.5124 98.5543 17.9877 98.3576 18.545C98.1937 19.1023 97.915 19.8399 97.5216 20.7578L94.6696 27.8388H89.8014ZM104.982 48V21.5446H112.309V29.019L111.276 26.8553C112.063 24.9867 113.325 23.5771 115.063 22.6264C116.8 21.6429 118.915 21.1512 121.406 21.1512V28.2322C121.078 28.1994 120.783 28.183 120.521 28.183C120.259 28.1503 119.98 28.1339 119.685 28.1339C117.587 28.1339 115.882 28.7403 114.571 29.9533C113.293 31.1334 112.653 32.9857 112.653 35.5099V48H104.982ZM139.888 48.3934C136.872 48.3934 134.217 47.8033 131.922 46.6231C129.66 45.443 127.906 43.8366 126.66 41.8041C125.415 39.7388 124.792 37.3949 124.792 34.7723C124.792 32.1169 125.398 29.773 126.611 27.7405C127.857 25.6752 129.545 24.0688 131.676 22.9215C133.807 21.7413 136.217 21.1512 138.905 21.1512C141.495 21.1512 143.822 21.7085 145.887 22.8231C147.985 23.9049 149.641 25.4785 150.854 27.5438C152.067 29.5763 152.673 32.0186 152.673 34.8706C152.673 35.1657 152.657 35.5099 152.624 35.9033C152.591 36.2639 152.559 36.6081 152.526 36.9359H131.037V32.4611H148.494L145.543 33.7888C145.543 32.412 145.264 31.2154 144.707 30.1992C144.15 29.1829 143.38 28.3961 142.396 27.8388C141.413 27.2487 140.265 26.9537 138.954 26.9537C137.643 26.9537 136.479 27.2487 135.463 27.8388C134.479 28.3961 133.709 29.1993 133.151 30.2483C132.594 31.2646 132.315 32.4775 132.315 33.8872V35.0673C132.315 36.5098 132.627 37.7883 133.25 38.9029C133.905 39.9847 134.807 40.8207 135.954 41.4107C137.134 41.968 138.511 42.2467 140.085 42.2467C141.495 42.2467 142.724 42.0336 143.773 41.6074C144.855 41.1813 145.838 40.542 146.723 39.6897L150.805 44.1153C149.592 45.4921 148.067 46.5576 146.232 47.3116C144.396 48.0328 142.281 48.3934 139.888 48.3934ZM11.2116 108V80.0694H0.196694V73.5785H30.1926V80.0694H19.1777V108H11.2116ZM51.0011 81.1512C53.0992 81.1512 54.9678 81.5774 56.6069 82.4297C58.2788 83.2493 59.5901 84.5278 60.5408 86.2653C61.4915 87.9699 61.9668 90.1664 61.9668 92.8545V108H54.2957V94.0347C54.2957 91.9038 53.8204 90.3303 52.8697 89.314C51.9518 88.2978 50.6405 87.7896 48.9358 87.7896C47.7229 87.7896 46.6247 88.0519 45.6412 88.5764C44.6905 89.0682 43.9365 89.8385 43.3792 90.8876C42.8547 91.9366 42.5924 93.2807 42.5924 94.9198V108H34.9213V71.5132H42.5924V88.8715L40.8713 86.6587C41.822 84.8884 43.1825 83.5279 44.9528 82.5772C46.723 81.6266 48.7391 81.1512 51.0011 81.1512ZM83.2252 108.393C80.2092 108.393 77.5538 107.803 75.2591 106.623C72.9971 105.443 71.2432 103.837 69.9975 101.804C68.7518 99.7388 68.1289 97.3949 68.1289 94.7723C68.1289 92.1169 68.7354 89.773 69.9483 87.7405C71.194 85.6752 72.8823 84.0688 75.0132 82.9215C77.1441 81.7413 79.5536 81.1512 82.2417 81.1512C84.8315 81.1512 87.1591 81.7085 89.2244 82.8231C91.3224 83.9049 92.978 85.4785 94.1909 87.5438C95.4039 89.5763 96.0103 92.0186 96.0103 94.8706C96.0103 95.1657 95.9939 95.5099 95.9612 95.9033C95.9284 96.2639 95.8956 96.6081 95.8628 96.9359H74.3739V92.4611H91.8306L88.8802 93.7888C88.8802 92.412 88.6015 91.2154 88.0442 90.1992C87.4869 89.1829 86.7165 88.3961 85.733 87.8388C84.7496 87.2487 83.6022 86.9537 82.2909 86.9537C80.9796 86.9537 79.8158 87.2487 78.7996 87.8388C77.8161 88.3961 77.0457 89.1993 76.4884 90.2483C75.9311 91.2646 75.6525 92.4775 75.6525 93.8872V95.0673C75.6525 96.5098 75.9639 97.7883 76.5868 98.9029C77.2424 99.9847 78.1439 100.821 79.2913 101.411C80.4715 101.968 81.8483 102.247 83.4219 102.247C84.8315 102.247 86.0609 102.034 87.1099 101.607C88.1917 101.181 89.1752 100.542 90.0603 99.6897L94.1417 104.115C92.9288 105.492 91.4044 106.558 89.5686 107.312C87.7328 108.033 85.6183 108.393 83.2252 108.393Z" fill="#005669"/>
<mask id="path-3-outside-1_350_385" maskUnits="userSpaceOnUse" x="-1" y="125.034" width="275" height="94" fill="black">
<rect fill="white" x="-1" y="125.034" width="275" height="94"/>
<path d="M10.5143 142.66H25.6766V148.527H10.5143V142.66ZM11.0558 160.034H3.74544V128.446H27.617V134.312H11.0558V160.034ZM32.1003 160.034L46.1796 128.446H53.3997L67.5241 160.034H59.8527L48.3005 132.146H51.1885L39.5912 160.034H32.1003ZM39.1399 153.265L41.0804 147.714H57.3256L59.3112 153.265H39.1399ZM86.1441 160.575C83.6171 160.575 81.1953 160.244 78.8789 159.582C76.5624 158.89 74.6972 158.003 73.2833 156.92L75.7652 151.415C77.119 152.377 78.7134 153.175 80.5485 153.806C82.4137 154.408 84.294 154.709 86.1892 154.709C87.6333 154.709 88.7915 154.573 89.6639 154.303C90.5664 154.002 91.2283 153.596 91.6495 153.084C92.0706 152.573 92.2812 151.986 92.2812 151.324C92.2812 150.482 91.9503 149.82 91.2885 149.339C90.6266 148.827 89.7542 148.421 88.6712 148.12C87.5881 147.79 86.3848 147.489 85.0611 147.218C83.7675 146.917 82.4588 146.556 81.1352 146.135C79.8415 145.714 78.6532 145.172 77.5702 144.51C76.4872 143.849 75.5997 142.976 74.9078 141.893C74.2459 140.81 73.915 139.426 73.915 137.741C73.915 135.936 74.3964 134.297 75.359 132.823C76.3518 131.319 77.8259 130.13 79.7814 129.258C81.7669 128.355 84.2488 127.904 87.2271 127.904C89.2127 127.904 91.1681 128.145 93.0935 128.626C95.0189 129.077 96.7186 129.769 98.1927 130.702L95.9364 136.252C94.4623 135.41 92.9882 134.793 91.5141 134.402C90.04 133.981 88.596 133.77 87.182 133.77C85.7681 133.77 84.6098 133.936 83.7073 134.267C82.8048 134.598 82.158 135.034 81.7669 135.575C81.3758 136.087 81.1803 136.689 81.1803 137.38C81.1803 138.193 81.5112 138.855 82.173 139.366C82.8349 139.847 83.7073 140.238 84.7903 140.539C85.8734 140.84 87.0617 141.141 88.3553 141.442C89.679 141.743 90.9876 142.089 92.2812 142.48C93.6049 142.871 94.8083 143.397 95.8913 144.059C96.9743 144.721 97.8467 145.593 98.5086 146.676C99.2005 147.759 99.5465 149.128 99.5465 150.783C99.5465 152.558 99.0501 154.182 98.0573 155.656C97.0646 157.131 95.5754 158.319 93.5899 159.221C91.6344 160.124 89.1525 160.575 86.1441 160.575ZM115.608 160.034V134.402H105.5V128.446H133.027V134.402H122.918V160.034H115.608ZM148.648 141.171H163.855V146.857H148.648V141.171ZM149.189 154.167H166.382V160.034H141.924V128.446H165.795V134.312H149.189V154.167ZM187.541 160.575C185.014 160.575 182.593 160.244 180.276 159.582C177.96 158.89 176.095 158.003 174.681 156.92L177.163 151.415C178.516 152.377 180.111 153.175 181.946 153.806C183.811 154.408 185.691 154.709 187.587 154.709C189.031 154.709 190.189 154.573 191.061 154.303C191.964 154.002 192.626 153.596 193.047 153.084C193.468 152.573 193.679 151.986 193.679 151.324C193.679 150.482 193.348 149.82 192.686 149.339C192.024 148.827 191.152 148.421 190.069 148.12C188.985 147.79 187.782 147.489 186.458 147.218C185.165 146.917 183.856 146.556 182.532 146.135C181.239 145.714 180.051 145.172 178.968 144.51C177.885 143.849 176.997 142.976 176.305 141.893C175.643 140.81 175.312 139.426 175.312 137.741C175.312 135.936 175.794 134.297 176.756 132.823C177.749 131.319 179.223 130.13 181.179 129.258C183.164 128.355 185.646 127.904 188.624 127.904C190.61 127.904 192.565 128.145 194.491 128.626C196.416 129.077 198.116 129.769 199.59 130.702L197.334 136.252C195.86 135.41 194.386 134.793 192.911 134.402C191.437 133.981 189.993 133.77 188.579 133.77C187.165 133.77 186.007 133.936 185.105 134.267C184.202 134.598 183.555 135.034 183.164 135.575C182.773 136.087 182.578 136.689 182.578 137.38C182.578 138.193 182.909 138.855 183.57 139.366C184.232 139.847 185.105 140.238 186.188 140.539C187.271 140.84 188.459 141.141 189.753 141.442C191.076 141.743 192.385 142.089 193.679 142.48C195.002 142.871 196.206 143.397 197.289 144.059C198.372 144.721 199.244 145.593 199.906 146.676C200.598 147.759 200.944 149.128 200.944 150.783C200.944 152.558 200.447 154.182 199.455 155.656C198.462 157.131 196.973 158.319 194.987 159.221C193.032 160.124 190.55 160.575 187.541 160.575ZM217.005 160.034V134.402H206.897V128.446H234.424V134.402H224.316V160.034H217.005ZM18.998 215.575C16.501 215.575 14.1996 215.184 12.0937 214.402C10.0179 213.59 8.19786 212.446 6.63349 210.972C5.09922 209.498 3.89586 207.768 3.02343 205.783C2.18108 203.797 1.75991 201.616 1.75991 199.24C1.75991 196.863 2.18108 194.682 3.02343 192.696C3.89586 190.711 5.11426 188.981 6.67862 187.507C8.24298 186.033 10.0781 184.905 12.184 184.122C14.2898 183.31 16.6063 182.904 19.1333 182.904C21.9311 182.904 24.4431 183.37 26.6694 184.303C28.9256 185.236 30.8209 186.589 32.3552 188.364L27.6621 192.696C26.5189 191.493 25.2705 190.606 23.9167 190.034C22.5629 189.432 21.0888 189.131 19.4944 189.131C17.9601 189.131 16.5612 189.372 15.2977 189.853C14.0341 190.335 12.9361 191.027 12.0035 191.929C11.101 192.832 10.394 193.9 9.88255 195.133C9.40121 196.367 9.16054 197.735 9.16054 199.24C9.16054 200.714 9.40121 202.067 9.88255 203.301C10.394 204.534 11.101 205.617 12.0035 206.55C12.9361 207.453 14.0191 208.144 15.2525 208.626C16.516 209.107 17.8999 209.348 19.4041 209.348C20.8481 209.348 22.247 209.122 23.6008 208.671C24.9847 208.19 26.3234 207.392 27.617 206.279L31.7686 211.559C30.0538 212.853 28.0532 213.845 25.7668 214.537C23.5105 215.229 21.2543 215.575 18.998 215.575ZM25.09 210.611V198.743H31.7686V211.559L25.09 210.611ZM43.5231 215.034V183.446H57.1963C60.0241 183.446 62.4609 183.912 64.5066 184.844C66.5523 185.747 68.1318 187.056 69.2449 188.77C70.358 190.485 70.9145 192.531 70.9145 194.908C70.9145 197.254 70.358 199.285 69.2449 201C68.1318 202.684 66.5523 203.978 64.5066 204.88C62.4609 205.783 60.0241 206.234 57.1963 206.234H47.5845L50.8335 203.03V215.034H43.5231ZM63.6041 215.034L55.7071 203.572H63.5139L71.5011 215.034H63.6041ZM50.8335 203.842L47.5845 200.413H56.7901C59.0464 200.413 60.7311 199.932 61.8442 198.969C62.9573 197.976 63.5139 196.622 63.5139 194.908C63.5139 193.163 62.9573 191.809 61.8442 190.846C60.7311 189.884 59.0464 189.402 56.7901 189.402H47.5845L50.8335 185.927V203.842ZM97.0131 215.575C94.5161 215.575 92.1997 215.169 90.0637 214.357C87.9578 213.544 86.1227 212.401 84.5584 210.927C83.0241 209.453 81.8207 207.723 80.9483 205.738C80.106 203.752 79.6848 201.586 79.6848 199.24C79.6848 196.893 80.106 194.727 80.9483 192.741C81.8207 190.756 83.0391 189.026 84.6035 187.552C86.1679 186.078 88.003 184.935 90.1088 184.122C92.2147 183.31 94.5011 182.904 96.968 182.904C99.4649 182.904 101.751 183.31 103.827 184.122C105.933 184.935 107.753 186.078 109.287 187.552C110.852 189.026 112.07 190.756 112.943 192.741C113.815 194.697 114.251 196.863 114.251 199.24C114.251 201.586 113.815 203.767 112.943 205.783C112.07 207.768 110.852 209.498 109.287 210.972C107.753 212.416 105.933 213.544 103.827 214.357C101.751 215.169 99.48 215.575 97.0131 215.575ZM96.968 209.348C98.3819 209.348 99.6755 209.107 100.849 208.626C102.052 208.144 103.105 207.453 104.008 206.55C104.91 205.647 105.602 204.579 106.083 203.346C106.595 202.113 106.851 200.744 106.851 199.24C106.851 197.735 106.595 196.367 106.083 195.133C105.602 193.9 104.91 192.832 104.008 191.929C103.135 191.027 102.097 190.335 100.894 189.853C99.6906 189.372 98.3819 189.131 96.968 189.131C95.554 189.131 94.2454 189.372 93.042 189.853C91.8687 190.335 90.8309 191.027 89.9283 191.929C89.0258 192.832 88.3189 193.9 87.8074 195.133C87.3261 196.367 87.0854 197.735 87.0854 199.24C87.0854 200.714 87.3261 202.083 87.8074 203.346C88.3189 204.579 89.0108 205.647 89.8832 206.55C90.7857 207.453 91.8387 208.144 93.042 208.626C94.2454 209.107 95.554 209.348 96.968 209.348ZM131.277 215.034L120.943 183.446H128.524L137.504 211.424H133.713L143.1 183.446H149.868L158.894 211.424H155.238L164.444 183.446H171.439L161.105 215.034H153.253L145.266 190.485H147.341L139.129 215.034H131.277ZM180.484 215.034V183.446H187.794V215.034H180.484ZM200.254 215.034V183.446H206.301L224.938 206.189H222.005V183.446H229.225V215.034H223.223L204.541 192.29H207.474V215.034H200.254ZM256.915 215.575C254.418 215.575 252.117 215.184 250.011 214.402C247.935 213.59 246.115 212.446 244.551 210.972C243.016 209.498 241.813 207.768 240.94 205.783C240.098 203.797 239.677 201.616 239.677 199.24C239.677 196.863 240.098 194.682 240.94 192.696C241.813 190.711 243.031 188.981 244.596 187.507C246.16 186.033 247.995 184.905 250.101 184.122C252.207 183.31 254.523 182.904 257.05 182.904C259.848 182.904 262.36 183.37 264.586 184.303C266.843 185.236 268.738 186.589 270.272 188.364L265.579 192.696C264.436 191.493 263.187 190.606 261.834 190.034C260.48 189.432 259.006 189.131 257.411 189.131C255.877 189.131 254.478 189.372 253.215 189.853C251.951 190.335 250.853 191.027 249.921 191.929C249.018 192.832 248.311 193.9 247.8 195.133C247.318 196.367 247.078 197.735 247.078 199.24C247.078 200.714 247.318 202.067 247.8 203.301C248.311 204.534 249.018 205.617 249.921 206.55C250.853 207.453 251.936 208.144 253.17 208.626C254.433 209.107 255.817 209.348 257.321 209.348C258.765 209.348 260.164 209.122 261.518 208.671C262.902 208.19 264.24 207.392 265.534 206.279L269.686 211.559C267.971 212.853 265.97 213.845 263.684 214.537C261.428 215.229 259.171 215.575 256.915 215.575ZM263.007 210.611V198.743H269.686V211.559L263.007 210.611Z"/>
</mask>
<path d="M10.5143 142.66V140.199H8.05291V142.66H10.5143ZM25.6766 142.66H28.138V140.199H25.6766V142.66ZM25.6766 148.527V150.988H28.138V148.527H25.6766ZM10.5143 148.527H8.05291V150.988H10.5143V148.527ZM11.0558 160.034V162.495H13.5172V160.034H11.0558ZM3.74544 160.034H1.28403V162.495H3.74544V160.034ZM3.74544 128.446V125.984H1.28403V128.446H3.74544ZM27.617 128.446H30.0784V125.984H27.617V128.446ZM27.617 134.312V136.773H30.0784V134.312H27.617ZM11.0558 134.312V131.851H8.59442V134.312H11.0558ZM10.5143 145.122H25.6766V140.199H10.5143V145.122ZM23.2152 142.66V148.527H28.138V142.66H23.2152ZM25.6766 146.065H10.5143V150.988H25.6766V146.065ZM12.9757 148.527V142.66H8.05291V148.527H12.9757ZM11.0558 157.572H3.74544V162.495H11.0558V157.572ZM6.20685 160.034V128.446H1.28403V160.034H6.20685ZM3.74544 130.907H27.617V125.984H3.74544V130.907ZM25.1556 128.446V134.312H30.0784V128.446H25.1556ZM27.617 131.851H11.0558V136.773H27.617V131.851ZM8.59442 134.312V160.034H13.5172V134.312H8.59442ZM32.1003 160.034L29.8521 159.032L28.3084 162.495H32.1003V160.034ZM46.1796 128.446V125.984H44.5818L43.9314 127.444L46.1796 128.446ZM53.3997 128.446L55.6467 127.441L54.9954 125.984H53.3997V128.446ZM67.5241 160.034V162.495H71.3209L69.7711 159.029L67.5241 160.034ZM59.8527 160.034L57.5787 160.976L58.2081 162.495H59.8527V160.034ZM48.3005 132.146V129.684H44.6166L46.0265 133.088L48.3005 132.146ZM51.1885 132.146L53.4613 133.091L54.8779 129.684H51.1885V132.146ZM39.5912 160.034V162.495H41.2334L41.8639 160.979L39.5912 160.034ZM39.1399 153.265L36.8164 152.452L35.672 155.726H39.1399V153.265ZM41.0804 147.714V145.253H39.3334L38.7568 146.902L41.0804 147.714ZM57.3256 147.714L59.6432 146.885L59.0593 145.253H57.3256V147.714ZM59.3112 153.265V155.726H62.8058L61.6288 152.436L59.3112 153.265ZM34.3485 161.036L48.4278 129.448L43.9314 127.444L29.8521 159.032L34.3485 161.036ZM46.1796 130.907H53.3997V125.984H46.1796V130.907ZM51.1527 129.45L65.2771 161.038L69.7711 159.029L55.6467 127.441L51.1527 129.45ZM67.5241 157.572H59.8527V162.495H67.5241V157.572ZM62.1267 159.092L50.5745 131.204L46.0265 133.088L57.5787 160.976L62.1267 159.092ZM48.3005 134.607H51.1885V129.684H48.3005V134.607ZM48.9158 131.201L37.3185 159.089L41.8639 160.979L53.4613 133.091L48.9158 131.201ZM39.5912 157.572H32.1003V162.495H39.5912V157.572ZM41.4635 154.077L43.4039 148.527L38.7568 146.902L36.8164 152.452L41.4635 154.077ZM41.0804 150.176H57.3256V145.253H41.0804V150.176ZM55.0081 148.543L56.9936 154.094L61.6288 152.436L59.6432 146.885L55.0081 148.543ZM59.3112 150.803H39.1399V155.726H59.3112V150.803ZM78.8789 159.582L78.1744 161.941L78.1885 161.945L78.2027 161.949L78.8789 159.582ZM73.2833 156.92L71.0393 155.908L70.2373 157.687L71.7865 158.874L73.2833 156.92ZM75.7652 151.415L77.1916 149.409L74.7517 147.674L73.5213 150.403L75.7652 151.415ZM80.5485 153.806L79.7473 156.134L79.77 156.141L79.7929 156.149L80.5485 153.806ZM89.6639 154.303L90.3935 156.653L90.418 156.646L90.4423 156.638L89.6639 154.303ZM91.6495 153.084L89.7494 151.52L91.6495 153.084ZM91.2885 149.339L89.7834 151.286L89.8118 151.308L89.8407 151.329L91.2885 149.339ZM88.6712 148.12L87.9519 150.474L87.982 150.484L88.0124 150.492L88.6712 148.12ZM85.0611 147.218L84.5036 149.615L84.5356 149.623L84.5678 149.629L85.0611 147.218ZM81.1352 146.135L80.3731 148.475L80.381 148.478L80.3888 148.48L81.1352 146.135ZM77.5702 144.51L76.2867 146.611V146.611L77.5702 144.51ZM74.9078 141.893L72.8075 143.177L72.8203 143.198L72.8336 143.218L74.9078 141.893ZM75.359 132.823L73.3047 131.467L73.2982 131.477L75.359 132.823ZM79.7814 129.258L80.7843 131.506L80.7921 131.502L80.7999 131.499L79.7814 129.258ZM93.0935 128.626L92.4965 131.014L92.5141 131.018L92.5318 131.023L93.0935 128.626ZM98.1927 130.702L100.473 131.629L101.248 129.722L99.5087 128.622L98.1927 130.702ZM95.9364 136.252L94.7152 138.389L97.1574 139.785L98.2166 137.179L95.9364 136.252ZM91.5141 134.402L90.8379 136.769L90.8603 136.775L90.8829 136.781L91.5141 134.402ZM83.7073 134.267L82.86 131.956V131.956L83.7073 134.267ZM81.7669 135.575L83.7222 137.071L83.7426 137.044L83.7623 137.017L81.7669 135.575ZM82.173 139.366L80.668 141.314L80.6964 141.336L80.7253 141.357L82.173 139.366ZM84.7903 140.539L84.1316 142.911L84.7903 140.539ZM88.3553 141.442L87.7977 143.839L87.8098 143.842L88.3553 141.442ZM92.2812 142.48L91.5689 144.836L91.5764 144.838L91.5838 144.84L92.2812 142.48ZM95.8913 144.059L97.1748 141.959L95.8913 144.059ZM98.5086 146.676L96.4083 147.96L96.4211 147.981L96.4344 148.002L98.5086 146.676ZM98.0573 155.656L100.099 157.031L98.0573 155.656ZM93.5899 159.221L92.5713 156.981L92.5649 156.984L92.5584 156.987L93.5899 159.221ZM86.1441 158.114C83.8346 158.114 81.6411 157.812 79.5551 157.216L78.2027 161.949C80.7496 162.677 83.3996 163.037 86.1441 163.037V158.114ZM79.5833 157.224C77.4576 156.589 75.8884 155.815 74.78 154.966L71.7865 158.874C73.506 160.191 75.6672 161.192 78.1744 161.941L79.5833 157.224ZM75.5272 157.932L78.0091 152.426L73.5213 150.403L71.0393 155.908L75.5272 157.932ZM74.3387 153.421C75.9136 154.54 77.726 155.438 79.7473 156.134L81.3497 151.479C79.7009 150.911 78.3243 150.214 77.1916 149.409L74.3387 153.421ZM79.7929 156.149C81.8938 156.827 84.0287 157.17 86.1892 157.17V152.247C84.5592 152.247 82.9336 151.989 81.3042 151.464L79.7929 156.149ZM86.1892 157.17C87.7547 157.17 89.1889 157.027 90.3935 156.653L88.9344 151.952C88.3941 152.12 87.5118 152.247 86.1892 152.247V157.17ZM90.4423 156.638C91.6022 156.251 92.7326 155.641 93.5495 154.649L89.7494 151.52C89.7239 151.55 89.5306 151.753 88.8856 151.968L90.4423 156.638ZM93.5495 154.649C94.3332 153.697 94.7426 152.558 94.7426 151.324H89.8198C89.8198 151.389 89.8104 151.419 89.8066 151.429C89.8029 151.44 89.7914 151.469 89.7494 151.52L93.5495 154.649ZM94.7426 151.324C94.7426 149.722 94.0566 148.309 92.7362 147.348L89.8407 151.329C89.8544 151.339 89.8622 151.346 89.8654 151.349C89.8686 151.352 89.8678 151.352 89.8643 151.348C89.8608 151.344 89.8555 151.337 89.8493 151.328C89.843 151.318 89.837 151.308 89.8315 151.297C89.826 151.286 89.822 151.276 89.8192 151.268C89.8164 151.26 89.8153 151.256 89.8153 151.255C89.815 151.254 89.8198 151.275 89.8198 151.324H94.7426ZM92.7935 147.391C91.8092 146.631 90.6204 146.107 89.3299 145.749L88.0124 150.492C88.8879 150.735 89.444 151.024 89.7834 151.286L92.7935 147.391ZM89.3904 145.766C88.2205 145.409 86.9402 145.09 85.5544 144.806L84.5678 149.629C85.8294 149.887 86.9558 150.17 87.9519 150.474L89.3904 145.766ZM85.6186 144.82C84.3914 144.535 83.1458 144.192 81.8815 143.789L80.3888 148.48C81.7719 148.92 83.1435 149.299 84.5036 149.615L85.6186 144.82ZM81.8972 143.794C80.7731 143.428 79.7616 142.965 78.8537 142.41L76.2867 146.611C77.5449 147.38 78.9099 147.999 80.3731 148.475L81.8972 143.794ZM78.8537 142.41C78.0938 141.946 77.4753 141.34 76.982 140.568L72.8336 143.218C73.7242 144.612 74.8805 145.751 76.2867 146.611L78.8537 142.41ZM77.0081 140.61C76.6477 140.02 76.3764 139.118 76.3764 137.741H71.4536C71.4536 139.735 71.8441 141.6 72.8075 143.177L77.0081 140.61ZM76.3764 137.741C76.3764 136.402 76.7255 135.232 77.4199 134.169L73.2982 131.477C72.0672 133.362 71.4536 135.471 71.4536 137.741H76.3764ZM77.4134 134.179C78.1026 133.134 79.1755 132.223 80.7843 131.506L78.7785 127.01C76.4764 128.037 74.601 129.503 73.3047 131.467L77.4134 134.179ZM80.7999 131.499C82.3712 130.784 84.4792 130.365 87.2271 130.365V125.443C84.0185 125.443 81.1626 125.926 78.7628 127.017L80.7999 131.499ZM87.2271 130.365C89.0115 130.365 90.7665 130.581 92.4965 131.014L93.6905 126.238C91.5698 125.708 89.4138 125.443 87.2271 125.443V130.365ZM92.5318 131.023C94.2252 131.419 95.6634 132.014 96.8767 132.782L99.5087 128.622C97.7738 127.524 95.8126 126.735 93.6552 126.23L92.5318 131.023ZM95.9125 129.775L93.6562 135.325L98.2166 137.179L100.473 131.629L95.9125 129.775ZM97.1576 134.115C95.5188 133.179 93.8475 132.475 92.1453 132.023L90.8829 136.781C92.1289 137.112 93.4058 137.641 94.7152 138.389L97.1576 134.115ZM92.1903 132.035C90.5147 131.557 88.843 131.309 87.182 131.309V136.232C88.3489 136.232 89.5653 136.405 90.8379 136.769L92.1903 132.035ZM87.182 131.309C85.6024 131.309 84.1297 131.49 82.86 131.956L84.5547 136.578C85.09 136.381 85.9337 136.232 87.182 136.232V131.309ZM82.86 131.956C81.6898 132.385 80.5506 133.056 79.7715 134.134L83.7623 137.017C83.7654 137.012 83.9199 136.811 84.5547 136.578L82.86 131.956ZM79.8117 134.08C79.0671 135.054 78.7189 136.191 78.7189 137.38H83.6417C83.6417 137.186 83.6846 137.12 83.7222 137.071L79.8117 134.08ZM78.7189 137.38C78.7189 138.981 79.424 140.352 80.668 141.314L83.6781 137.418C83.6376 137.387 83.6207 137.368 83.6177 137.364C83.6153 137.362 83.6218 137.369 83.63 137.385C83.6338 137.393 83.637 137.401 83.6396 137.408C83.6421 137.415 83.6434 137.42 83.644 137.422C83.6452 137.428 83.6417 137.416 83.6417 137.38H78.7189ZM80.7253 141.357C81.6959 142.063 82.8635 142.559 84.1316 142.911L85.4491 138.168C84.5511 137.918 83.9738 137.632 83.6208 137.375L80.7253 141.357ZM84.1316 142.911C85.2535 143.223 86.4761 143.532 87.7977 143.839L88.9128 139.044C87.6473 138.75 86.4932 138.458 85.4491 138.168L84.1316 142.911ZM87.8098 143.842C89.0776 144.13 90.3306 144.461 91.5689 144.836L92.9935 140.124C91.6446 139.716 90.2803 139.355 88.9008 139.042L87.8098 143.842ZM91.5838 144.84C92.7195 145.176 93.7232 145.619 94.6078 146.159L97.1748 141.959C95.8934 141.176 94.4904 140.566 92.9787 140.119L91.5838 144.84ZM94.6078 146.159C95.3576 146.618 95.9501 147.21 96.4083 147.96L100.609 145.393C99.7434 143.977 98.591 142.824 97.1748 141.959L94.6078 146.159ZM96.4344 148.002C96.8102 148.59 97.0851 149.465 97.0851 150.783H102.008C102.008 148.792 101.591 146.929 100.583 145.351L96.4344 148.002ZM97.0851 150.783C97.0851 152.067 96.7352 153.213 96.0157 154.281L100.099 157.031C101.365 155.152 102.008 153.048 102.008 150.783H97.0851ZM96.0157 154.281C95.3295 155.3 94.2365 156.224 92.5713 156.981L94.6084 161.462C96.9143 160.414 98.7996 158.961 100.099 157.031L96.0157 154.281ZM92.5584 156.987C91.028 157.693 88.9286 158.114 86.1441 158.114V163.037C89.3764 163.037 92.2408 162.555 94.6214 161.456L92.5584 156.987ZM115.608 160.034H113.147V162.495H115.608V160.034ZM115.608 134.402H118.07V131.941H115.608V134.402ZM105.5 134.402H103.039V136.864H105.5V134.402ZM105.5 128.446V125.984H103.039V128.446H105.5ZM133.027 128.446H135.488V125.984H133.027V128.446ZM133.027 134.402V136.864H135.488V134.402H133.027ZM122.918 134.402V131.941H120.457V134.402H122.918ZM122.918 160.034V162.495H125.38V160.034H122.918ZM118.07 160.034V134.402H113.147V160.034H118.07ZM115.608 131.941H105.5V136.864H115.608V131.941ZM107.961 134.402V128.446H103.039V134.402H107.961ZM105.5 130.907H133.027V125.984H105.5V130.907ZM130.565 128.446V134.402H135.488V128.446H130.565ZM133.027 131.941H122.918V136.864H133.027V131.941ZM120.457 134.402V160.034H125.38V134.402H120.457ZM122.918 157.572H115.608V162.495H122.918V157.572ZM148.648 141.171V138.71H146.186V141.171H148.648ZM163.855 141.171H166.316V138.71H163.855V141.171ZM163.855 146.857V149.318H166.316V146.857H163.855ZM148.648 146.857H146.186V149.318H148.648V146.857ZM149.189 154.167H146.728V156.629H149.189V154.167ZM166.382 154.167H168.843V151.706H166.382V154.167ZM166.382 160.034V162.495H168.843V160.034H166.382ZM141.924 160.034H139.462V162.495H141.924V160.034ZM141.924 128.446V125.984H139.462V128.446H141.924ZM165.795 128.446H168.257V125.984H165.795V128.446ZM165.795 134.312V136.773H168.257V134.312H165.795ZM149.189 134.312V131.851H146.728V134.312H149.189ZM148.648 143.632H163.855V138.71H148.648V143.632ZM161.394 141.171V146.857H166.316V141.171H161.394ZM163.855 144.395H148.648V149.318H163.855V144.395ZM151.109 146.857V141.171H146.186V146.857H151.109ZM149.189 156.629H166.382V151.706H149.189V156.629ZM163.921 154.167V160.034H168.843V154.167H163.921ZM166.382 157.572H141.924V162.495H166.382V157.572ZM144.385 160.034V128.446H139.462V160.034H144.385ZM141.924 130.907H165.795V125.984H141.924V130.907ZM163.334 128.446V134.312H168.257V128.446H163.334ZM165.795 131.851H149.189V136.773H165.795V131.851ZM146.728 134.312V154.167H151.651V134.312H146.728ZM180.276 159.582L179.572 161.941L179.586 161.945L179.6 161.949L180.276 159.582ZM174.681 156.92L172.437 155.908L171.635 157.687L173.184 158.874L174.681 156.92ZM177.163 151.415L178.589 149.409L176.149 147.674L174.919 150.403L177.163 151.415ZM181.946 153.806L181.145 156.134L181.167 156.141L181.19 156.149L181.946 153.806ZM191.061 154.303L191.791 156.653L191.815 156.646L191.84 156.638L191.061 154.303ZM193.047 153.084L191.147 151.52L193.047 153.084ZM192.686 149.339L191.181 151.286L191.209 151.308L191.238 151.329L192.686 149.339ZM190.069 148.12L189.349 150.474L189.379 150.484L189.41 150.492L190.069 148.12ZM186.458 147.218L185.901 149.615L185.933 149.623L185.965 149.629L186.458 147.218ZM182.533 146.135L181.77 148.475L181.778 148.478L181.786 148.48L182.533 146.135ZM178.968 144.51L177.684 146.611V146.611L178.968 144.51ZM176.305 141.893L174.205 143.177L174.218 143.198L174.231 143.218L176.305 141.893ZM176.756 132.823L174.702 131.467L174.696 131.477L176.756 132.823ZM181.179 129.258L182.182 131.506L182.189 131.502L182.197 131.499L181.179 129.258ZM194.491 128.626L193.894 131.014L193.911 131.018L193.929 131.023L194.491 128.626ZM199.59 130.702L201.87 131.629L202.645 129.722L200.906 128.622L199.59 130.702ZM197.334 136.252L196.113 138.389L198.555 139.785L199.614 137.179L197.334 136.252ZM192.911 134.402L192.235 136.769L192.258 136.775L192.28 136.781L192.911 134.402ZM185.105 134.267L184.257 131.956L184.257 131.956L185.105 134.267ZM183.164 135.575L185.119 137.071L185.14 137.044L185.16 137.017L183.164 135.575ZM183.57 139.366L182.065 141.314L182.094 141.336L182.123 141.357L183.57 139.366ZM186.188 140.539L185.529 142.911L186.188 140.539ZM189.753 141.442L189.195 143.839L189.207 143.842L189.753 141.442ZM193.679 142.48L192.966 144.836L192.974 144.838L192.981 144.84L193.679 142.48ZM197.289 144.059L198.572 141.959L197.289 144.059ZM199.906 146.676L197.806 147.96L197.818 147.981L197.832 148.002L199.906 146.676ZM199.455 155.656L201.496 157.031L199.455 155.656ZM194.987 159.221L193.969 156.981L193.962 156.984L193.956 156.987L194.987 159.221ZM187.541 158.114C185.232 158.114 183.038 157.812 180.952 157.216L179.6 161.949C182.147 162.677 184.797 163.037 187.541 163.037V158.114ZM180.981 157.224C178.855 156.589 177.286 155.815 176.177 154.966L173.184 158.874C174.903 160.191 177.065 161.192 179.572 161.941L180.981 157.224ZM176.925 157.932L179.406 152.426L174.919 150.403L172.437 155.908L176.925 157.932ZM175.736 153.421C177.311 154.54 179.123 155.438 181.145 156.134L182.747 151.479C181.098 150.911 179.722 150.214 178.589 149.409L175.736 153.421ZM181.19 156.149C183.291 156.827 185.426 157.17 187.587 157.17V152.247C185.957 152.247 184.331 151.989 182.702 151.464L181.19 156.149ZM187.587 157.17C189.152 157.17 190.586 157.027 191.791 156.653L190.332 151.952C189.791 152.12 188.909 152.247 187.587 152.247V157.17ZM191.84 156.638C193 156.251 194.13 155.641 194.947 154.649L191.147 151.52C191.121 151.55 190.928 151.753 190.283 151.968L191.84 156.638ZM194.947 154.649C195.731 153.697 196.14 152.558 196.14 151.324H191.217C191.217 151.389 191.208 151.419 191.204 151.429C191.2 151.44 191.189 151.469 191.147 151.52L194.947 154.649ZM196.14 151.324C196.14 149.722 195.454 148.309 194.134 147.348L191.238 151.329C191.252 151.339 191.26 151.346 191.263 151.349C191.266 151.352 191.265 151.352 191.262 151.348C191.258 151.344 191.253 151.337 191.247 151.328C191.24 151.318 191.234 151.308 191.229 151.297C191.223 151.286 191.219 151.276 191.217 151.268C191.214 151.26 191.213 151.256 191.213 151.255C191.212 151.254 191.217 151.275 191.217 151.324H196.14ZM194.191 147.391C193.207 146.631 192.018 146.107 190.727 145.749L189.41 150.492C190.285 150.735 190.841 151.024 191.181 151.286L194.191 147.391ZM190.788 145.766C189.618 145.409 188.338 145.09 186.952 144.806L185.965 149.629C187.227 149.887 188.353 150.17 189.349 150.474L190.788 145.766ZM187.016 144.82C185.789 144.535 184.543 144.192 183.279 143.789L181.786 148.48C183.169 148.92 184.541 149.299 185.901 149.615L187.016 144.82ZM183.295 143.794C182.17 143.428 181.159 142.965 180.251 142.41L177.684 146.611C178.942 147.38 180.307 147.999 181.77 148.475L183.295 143.794ZM180.251 142.41C179.491 141.946 178.873 141.34 178.379 140.568L174.231 143.218C175.122 144.612 176.278 145.751 177.684 146.611L180.251 142.41ZM178.405 140.61C178.045 140.02 177.774 139.118 177.774 137.741H172.851C172.851 139.735 173.241 141.6 174.205 143.177L178.405 140.61ZM177.774 137.741C177.774 136.402 178.123 135.232 178.817 134.169L174.696 131.477C173.465 133.362 172.851 135.471 172.851 137.741H177.774ZM178.811 134.179C179.5 133.134 180.573 132.223 182.182 131.506L180.176 127.01C177.874 128.037 175.998 129.503 174.702 131.467L178.811 134.179ZM182.197 131.499C183.769 130.784 185.877 130.365 188.624 130.365V125.443C185.416 125.443 182.56 125.926 180.16 127.017L182.197 131.499ZM188.624 130.365C190.409 130.365 192.164 130.581 193.894 131.014L195.088 126.238C192.967 125.708 190.811 125.443 188.624 125.443V130.365ZM193.929 131.023C195.622 131.419 197.061 132.014 198.274 132.782L200.906 128.622C199.171 127.524 197.21 126.735 195.053 126.23L193.929 131.023ZM197.31 129.775L195.054 135.325L199.614 137.179L201.87 131.629L197.31 129.775ZM198.555 134.115C196.916 133.179 195.245 132.475 193.543 132.023L192.28 136.781C193.526 137.112 194.803 137.641 196.113 138.389L198.555 134.115ZM193.588 132.035C191.912 131.557 190.24 131.309 188.579 131.309V136.232C189.746 136.232 190.963 136.405 192.235 136.769L193.588 132.035ZM188.579 131.309C187 131.309 185.527 131.49 184.257 131.956L185.952 136.578C186.487 136.381 187.331 136.232 188.579 136.232V131.309ZM184.257 131.956C183.087 132.385 181.948 133.056 181.169 134.134L185.16 137.017C185.163 137.012 185.317 136.811 185.952 136.578L184.257 131.956ZM181.209 134.08C180.464 135.054 180.116 136.191 180.116 137.38H185.039C185.039 137.186 185.082 137.12 185.119 137.071L181.209 134.08ZM180.116 137.38C180.116 138.981 180.821 140.352 182.065 141.314L185.075 137.418C185.035 137.387 185.018 137.368 185.015 137.364C185.013 137.362 185.019 137.369 185.027 137.385C185.031 137.393 185.034 137.401 185.037 137.408C185.039 137.415 185.041 137.42 185.041 137.422C185.043 137.428 185.039 137.416 185.039 137.38H180.116ZM182.123 141.357C183.093 142.063 184.261 142.559 185.529 142.911L186.846 138.168C185.948 137.918 185.371 137.632 185.018 137.375L182.123 141.357ZM185.529 142.911C186.651 143.223 187.873 143.532 189.195 143.839L190.31 139.044C189.045 138.75 187.891 138.458 186.846 138.168L185.529 142.911ZM189.207 143.842C190.475 144.13 191.728 144.461 192.966 144.836L194.391 140.124C193.042 139.716 191.678 139.355 190.298 139.042L189.207 143.842ZM192.981 144.84C194.117 145.176 195.121 145.619 196.005 146.159L198.572 141.959C197.291 141.176 195.888 140.566 194.376 140.119L192.981 144.84ZM196.005 146.159C196.755 146.618 197.347 147.21 197.806 147.96L202.006 145.393C201.141 143.977 199.988 142.824 198.572 141.959L196.005 146.159ZM197.832 148.002C198.208 148.59 198.482 149.465 198.482 150.783H203.405C203.405 148.792 202.988 146.929 201.98 145.351L197.832 148.002ZM198.482 150.783C198.482 152.067 198.133 153.213 197.413 154.281L201.496 157.031C202.762 155.152 203.405 153.048 203.405 150.783H198.482ZM197.413 154.281C196.727 155.3 195.634 156.224 193.969 156.981L196.006 161.462C198.312 160.414 200.197 158.961 201.496 157.031L197.413 154.281ZM193.956 156.987C192.425 157.693 190.326 158.114 187.541 158.114V163.037C190.774 163.037 193.638 162.555 196.019 161.456L193.956 156.987ZM217.005 160.034H214.544V162.495H217.005V160.034ZM217.005 134.402H219.467V131.941H217.005V134.402ZM206.897 134.402H204.436V136.864H206.897V134.402ZM206.897 128.446V125.984H204.436V128.446H206.897ZM234.424 128.446H236.885V125.984H234.424V128.446ZM234.424 134.402V136.864H236.885V134.402H234.424ZM224.316 134.402V131.941H221.854V134.402H224.316ZM224.316 160.034V162.495H226.777V160.034H224.316ZM219.467 160.034V134.402H214.544V160.034H219.467ZM217.005 131.941H206.897V136.864H217.005V131.941ZM209.359 134.402V128.446H204.436V134.402H209.359ZM206.897 130.907H234.424V125.984H206.897V130.907ZM231.963 128.446V134.402H236.885V128.446H231.963ZM234.424 131.941H224.316V136.864H234.424V131.941ZM221.854 134.402V160.034H226.777V134.402H221.854ZM224.316 157.572H217.005V162.495H224.316V157.572ZM12.0937 214.402L11.1968 216.694L11.2167 216.702L11.2367 216.709L12.0937 214.402ZM6.63349 210.972L4.92817 212.747L4.93677 212.756L4.94546 212.764L6.63349 210.972ZM3.02343 205.783L0.757502 206.744L0.76364 206.759L0.769963 206.773L3.02343 205.783ZM3.02343 192.696L0.769963 191.706L0.76364 191.721L0.757502 191.735L3.02343 192.696ZM6.67862 187.507L8.36666 189.298H8.36666L6.67862 187.507ZM12.184 184.122L13.041 186.43L13.0554 186.424L13.0698 186.419L12.184 184.122ZM26.6694 184.303L25.7183 186.573L25.7291 186.578L26.6694 184.303ZM32.3552 188.364L34.0247 190.173L35.7753 188.557L34.2174 186.755L32.3552 188.364ZM27.6621 192.696L25.8776 194.392L27.5488 196.151L29.3316 194.505L27.6621 192.696ZM23.9167 190.034L22.917 192.283L22.9381 192.293L22.9593 192.302L23.9167 190.034ZM12.0035 191.929L10.2917 190.16L10.2773 190.174L10.263 190.189L12.0035 191.929ZM9.88255 195.133L7.60885 194.19L7.59895 194.214L7.58956 194.238L9.88255 195.133ZM9.88255 203.301L7.58956 204.196L7.59895 204.22L7.60885 204.244L9.88255 203.301ZM12.0035 206.55L10.2347 208.262L10.2628 208.291L10.2918 208.319L12.0035 206.55ZM15.2525 208.626L14.3577 210.919L14.367 210.922L14.3763 210.926L15.2525 208.626ZM23.6008 208.671L24.3792 211.006L24.3943 211.001L24.4094 210.996L23.6008 208.671ZM27.617 206.279L29.5519 204.758L27.9617 202.735L26.0116 204.413L27.617 206.279ZM31.7686 211.559L33.2509 213.524L35.2557 212.012L33.7034 210.038L31.7686 211.559ZM25.7668 214.537L25.0539 212.181L25.0452 212.184L25.7668 214.537ZM25.09 210.611H22.6285V212.748L24.7442 213.048L25.09 210.611ZM25.09 198.743V196.282H22.6285V198.743H25.09ZM31.7686 198.743H34.23V196.282H31.7686V198.743ZM31.7686 211.559L31.4228 213.996L34.23 214.394V211.559H31.7686ZM18.998 213.114C16.7611 213.114 14.7535 212.764 12.9507 212.094L11.2367 216.709C13.6457 217.604 16.2409 218.037 18.998 218.037V213.114ZM12.9907 212.11C11.1971 211.408 9.64817 210.431 8.32153 209.181L4.94546 212.764C6.74754 214.462 8.83874 215.771 11.1968 216.694L12.9907 212.11ZM8.33882 209.197C7.0414 207.951 6.0223 206.489 5.2769 204.793L0.769963 206.773C1.76943 209.048 3.15703 211.046 4.92817 212.747L8.33882 209.197ZM5.28936 204.822C4.58859 203.17 4.22131 201.32 4.22131 199.24H-0.701501C-0.701501 201.913 -0.226429 204.425 0.757502 206.744L5.28936 204.822ZM4.22131 199.24C4.22131 197.159 4.58859 195.309 5.28936 193.658L0.757502 191.735C-0.226429 194.054 -0.701501 196.566 -0.701501 199.24H4.22131ZM5.2769 193.687C6.01773 192 7.04481 190.544 8.36666 189.298L4.99058 185.716C3.1837 187.418 1.774 189.421 0.769963 191.706L5.2769 193.687ZM8.36666 189.298C9.68055 188.06 11.2297 187.103 13.041 186.43L11.3269 181.815C8.92653 182.707 6.80542 184.005 4.99058 185.716L8.36666 189.298ZM13.0698 186.419C14.8612 185.728 16.8731 185.365 19.1333 185.365V180.443C16.3395 180.443 13.7184 180.892 11.2982 181.826L13.0698 186.419ZM19.1333 185.365C21.656 185.365 23.8374 185.785 25.7183 186.573L27.6204 182.033C25.0489 180.955 22.2063 180.443 19.1333 180.443V185.365ZM25.7291 186.578C27.6453 187.37 29.2203 188.502 30.4931 189.974L34.2174 186.755C32.4216 184.677 30.206 183.101 27.6096 182.028L25.7291 186.578ZM30.6857 186.556L25.9926 190.888L29.3316 194.505L34.0247 190.173L30.6857 186.556ZM29.4466 191.001C28.1003 189.584 26.578 188.486 24.8741 187.766L22.9593 192.302C23.9629 192.725 24.9376 193.402 25.8776 194.392L29.4466 191.001ZM24.9164 187.785C23.2244 187.033 21.4066 186.67 19.4944 186.67V191.593C20.771 191.593 21.9014 191.832 22.917 192.283L24.9164 187.785ZM19.4944 186.67C17.7006 186.67 15.9998 186.952 14.4214 187.553L16.1739 192.154C17.1225 191.792 18.2196 191.593 19.4944 191.593V186.67ZM14.4214 187.553C12.8596 188.148 11.474 189.016 10.2917 190.16L13.7152 193.698C14.3981 193.037 15.2087 192.521 16.1739 192.154L14.4214 187.553ZM10.263 190.189C9.12163 191.33 8.23815 192.673 7.60885 194.19L12.1563 196.076C12.5498 195.127 13.0803 194.333 13.7439 193.67L10.263 190.189ZM7.58956 194.238C6.98283 195.793 6.69913 197.471 6.69913 199.24H11.6219C11.6219 198 11.8196 196.94 12.1755 196.028L7.58956 194.238ZM6.69913 199.24C6.69913 200.985 6.98499 202.647 7.58956 204.196L12.1755 202.406C11.8174 201.488 11.6219 200.442 11.6219 199.24H6.69913ZM7.60885 204.244C8.23528 205.754 9.11079 207.1 10.2347 208.262L13.7722 204.838C13.0911 204.134 12.5527 203.314 12.1563 202.358L7.60885 204.244ZM10.2918 208.319C11.464 209.453 12.8262 210.321 14.3577 210.919L16.1474 206.333C15.212 205.968 14.4082 205.452 13.7152 204.781L10.2918 208.319ZM14.3763 210.926C15.9494 211.525 17.634 211.809 19.4041 211.809V206.886C18.1658 206.886 17.0827 206.689 16.1288 206.326L14.3763 210.926ZM19.4041 211.809C21.1095 211.809 22.7714 211.542 24.3792 211.006L22.8224 206.336C21.7227 206.702 20.5868 206.886 19.4041 206.886V211.809ZM24.4094 210.996C26.1293 210.397 27.7325 209.427 29.2224 208.145L26.0116 204.413C24.9143 205.358 23.84 205.982 22.7922 206.346L24.4094 210.996ZM25.6821 207.801L29.8337 213.08L33.7034 210.038L29.5519 204.758L25.6821 207.801ZM30.2862 209.594C28.8274 210.695 27.0937 211.564 25.0539 212.181L26.4798 216.893C29.0127 216.127 31.2802 215.011 33.2509 213.524L30.2862 209.594ZM25.0452 212.184C23.0119 212.808 20.9986 213.114 18.998 213.114V218.037C21.5099 218.037 24.0092 217.651 26.4885 216.89L25.0452 212.184ZM27.5514 210.611V198.743H22.6285V210.611H27.5514ZM25.09 201.205H31.7686V196.282H25.09V201.205ZM29.3072 198.743V211.559H34.23V198.743H29.3072ZM32.1144 209.122L25.4357 208.174L24.7442 213.048L31.4228 213.996L32.1144 209.122ZM43.5231 215.034H41.0617V217.495H43.5231V215.034ZM43.5231 183.446V180.984H41.0617V183.446H43.5231ZM64.5066 184.844L63.4856 187.084L63.4993 187.09L63.5131 187.096L64.5066 184.844ZM69.2449 188.77L67.1803 190.111L69.2449 188.77ZM69.2449 201L71.2985 202.356L71.304 202.348L71.3094 202.34L69.2449 201ZM64.5066 204.88L65.5002 207.132L64.5066 204.88ZM47.5845 206.234L45.8562 204.481L41.5828 208.696H47.5845V206.234ZM50.8335 203.03H53.2949V197.146L49.1053 201.278L50.8335 203.03ZM50.8335 215.034V217.495H53.2949V215.034H50.8335ZM63.6041 215.034L61.5772 216.43L62.3109 217.495H63.6041V215.034ZM55.7071 203.572V201.11H51.0222L53.6802 204.968L55.7071 203.572ZM63.5139 203.572L65.5333 202.164L64.7987 201.11H63.5139V203.572ZM71.5011 215.034V217.495H76.2165L73.5206 213.626L71.5011 215.034ZM50.8335 203.842L49.0467 205.535L53.2949 210.02V203.842H50.8335ZM47.5845 200.413V197.951H41.862L45.7976 202.106L47.5845 200.413ZM61.8442 198.969L63.4544 200.831L63.4686 200.818L63.4826 200.806L61.8442 198.969ZM47.5845 189.402L45.7866 187.721L41.9131 191.864H47.5845V189.402ZM50.8335 185.927H53.2949V179.691L49.0357 184.246L50.8335 185.927ZM45.9846 215.034V183.446H41.0617V215.034H45.9846ZM43.5231 185.907H57.1963V180.984H43.5231V185.907ZM57.1963 185.907C59.7599 185.907 61.8319 186.33 63.4856 187.084L65.5277 182.605C63.09 181.494 60.2884 180.984 57.1963 180.984V185.907ZM63.5131 187.096C65.1635 187.825 66.3522 188.835 67.1803 190.111L71.3094 187.43C69.9113 185.276 67.9412 183.669 65.5002 182.592L63.5131 187.096ZM67.1803 190.111C67.9945 191.365 68.4531 192.928 68.4531 194.908H73.3759C73.3759 192.134 72.7214 189.605 71.3094 187.43L67.1803 190.111ZM68.4531 194.908C68.4531 196.851 67.9977 198.4 67.1803 199.659L71.3094 202.34C72.7182 200.169 73.3759 197.658 73.3759 194.908H68.4531ZM67.1912 199.643C66.3658 200.892 65.1749 201.895 63.5131 202.628L65.5002 207.132C67.9298 206.06 69.8977 204.477 71.2985 202.356L67.1912 199.643ZM63.5131 202.628C61.8516 203.361 59.7695 203.773 57.1963 203.773V208.696C60.2788 208.696 63.0703 208.204 65.5002 207.132L63.5131 202.628ZM57.1963 203.773H47.5845V208.696H57.1963V203.773ZM49.3127 207.987L52.5618 204.783L49.1053 201.278L45.8562 204.481L49.3127 207.987ZM48.3721 203.03V215.034H53.2949V203.03H48.3721ZM50.8335 212.572H43.5231V217.495H50.8335V212.572ZM65.631 213.637L57.734 202.175L53.6802 204.968L61.5772 216.43L65.631 213.637ZM55.7071 206.033H63.5139V201.11H55.7071V206.033ZM61.4944 204.979L69.4817 216.441L73.5206 213.626L65.5333 202.164L61.4944 204.979ZM71.5011 212.572H63.6041V217.495H71.5011V212.572ZM52.6204 202.15L49.3713 198.72L45.7976 202.106L49.0467 205.535L52.6204 202.15ZM47.5845 202.874H56.7901V197.951H47.5845V202.874ZM56.7901 202.874C59.3353 202.874 61.7087 202.34 63.4544 200.831L60.2341 197.107C59.7535 197.523 58.7576 197.951 56.7901 197.951V202.874ZM63.4826 200.806C65.2001 199.274 65.9753 197.208 65.9753 194.908H61.0525C61.0525 196.037 60.7146 196.678 60.2059 197.132L63.4826 200.806ZM65.9753 194.908C65.9753 192.594 65.2095 190.502 63.4544 188.984L60.2341 192.708C60.7052 193.115 61.0525 193.731 61.0525 194.908H65.9753ZM63.4544 188.984C61.7087 187.475 59.3353 186.941 56.7901 186.941V191.864C58.7576 191.864 59.7535 192.292 60.2341 192.708L63.4544 188.984ZM56.7901 186.941H47.5845V191.864H56.7901V186.941ZM49.3823 191.083L52.6314 187.609L49.0357 184.246L45.7866 187.721L49.3823 191.083ZM48.3721 185.927V203.842H53.2949V185.927H48.3721ZM90.0637 214.357L89.1779 216.653L89.1888 216.657L90.0637 214.357ZM84.5584 210.927L82.853 212.702L82.8616 212.71L82.8703 212.719L84.5584 210.927ZM80.9483 205.738L78.6824 206.699L78.6885 206.713L78.6948 206.728L80.9483 205.738ZM80.9483 192.741L78.6948 191.751L78.6885 191.766L78.6824 191.78L80.9483 192.741ZM84.6035 187.552L86.2915 189.343L84.6035 187.552ZM90.1088 184.122L89.2231 181.826L90.1088 184.122ZM103.827 184.122L102.93 186.415L102.941 186.419L103.827 184.122ZM109.287 187.552L107.582 189.327L107.591 189.335L107.599 189.343L109.287 187.552ZM112.943 192.741L110.689 193.732L110.695 193.744L112.943 192.741ZM112.943 205.783L115.196 206.773L115.201 206.761L112.943 205.783ZM109.287 210.972L110.974 212.765L110.975 212.764L109.287 210.972ZM103.827 214.357L102.941 212.06L102.93 212.065L103.827 214.357ZM100.849 208.626L99.9346 206.34L99.9246 206.344L99.9145 206.349L100.849 208.626ZM104.008 206.55L102.267 204.81L104.008 206.55ZM106.083 203.346L103.81 202.403L103.8 202.427L103.79 202.451L106.083 203.346ZM106.083 195.133L103.79 196.028L103.8 196.052L103.81 196.076L106.083 195.133ZM104.008 191.929L102.238 193.64L102.252 193.655L102.267 193.67L104.008 191.929ZM100.894 189.853L99.9798 192.139L100.894 189.853ZM93.042 189.853L92.1279 187.568L92.1178 187.572L92.1078 187.576L93.042 189.853ZM89.9283 191.929L91.6688 193.67L89.9283 191.929ZM87.8074 195.133L85.5337 194.19L85.5238 194.214L85.5144 194.238L87.8074 195.133ZM87.8074 203.346L85.5073 204.222L85.52 204.256L85.5337 204.289L87.8074 203.346ZM89.8832 206.55L88.1135 208.261L88.128 208.276L88.1427 208.29L89.8832 206.55ZM93.042 208.626L92.1279 210.911L93.042 208.626ZM97.0131 213.114C94.7874 213.114 92.7703 212.753 90.9386 212.056L89.1888 216.657C91.629 217.585 94.2449 218.037 97.0131 218.037V213.114ZM90.9495 212.06C89.1261 211.357 87.5671 210.38 86.2464 209.136L82.8703 212.719C84.6784 214.422 86.7896 215.732 89.1779 216.653L90.9495 212.06ZM86.2637 209.152C84.9663 207.906 83.9472 206.444 83.2018 204.748L78.6948 206.728C79.6943 209.003 81.0819 211 82.853 212.702L86.2637 209.152ZM83.2142 204.776C82.5118 203.121 82.1462 201.285 82.1462 199.24H77.2234C77.2234 201.887 77.7001 204.384 78.6824 206.699L83.2142 204.776ZM82.1462 199.24C82.1462 197.194 82.5118 195.358 83.2142 193.703L78.6824 191.78C77.7001 194.096 77.2234 196.592 77.2234 199.24H82.1462ZM83.2018 193.732C83.9426 192.046 84.9697 190.589 86.2915 189.343L82.9155 185.761C81.1086 187.463 79.6989 189.466 78.6948 191.751L83.2018 193.732ZM86.2915 189.343C87.6122 188.099 89.1712 187.122 90.9946 186.419L89.2231 181.826C86.8347 182.747 84.7235 184.057 82.9155 185.761L86.2915 189.343ZM90.9946 186.419C92.7927 185.725 94.7758 185.365 96.968 185.365V180.443C94.2264 180.443 91.6367 180.895 89.2231 181.826L90.9946 186.419ZM96.968 185.365C99.1947 185.365 101.173 185.727 102.93 186.415L104.724 181.83C102.33 180.894 99.7351 180.443 96.968 180.443V185.365ZM102.941 186.419C104.761 187.121 106.298 188.093 107.582 189.327L110.993 185.777C109.208 184.063 107.105 182.749 104.713 181.826L102.941 186.419ZM107.599 189.343C108.921 190.589 109.948 192.046 110.689 193.732L115.196 191.751C114.192 189.466 112.782 187.463 110.975 185.761L107.599 189.343ZM110.695 193.744C111.412 195.351 111.79 197.17 111.79 199.24H116.713C116.713 196.556 116.218 194.043 115.19 191.739L110.695 193.744ZM111.79 199.24C111.79 201.273 111.413 203.119 110.684 204.805L115.201 206.761C116.216 204.416 116.713 201.899 116.713 199.24H111.79ZM110.689 204.793C109.948 206.479 108.921 207.935 107.599 209.181L110.975 212.764C112.782 211.061 114.192 209.058 115.196 206.773L110.689 204.793ZM107.6 209.18C106.314 210.39 104.771 211.354 102.941 212.06L104.713 216.653C107.095 215.735 109.192 214.442 110.974 212.765L107.6 209.18ZM102.93 212.065C101.169 212.754 99.2058 213.114 97.0131 213.114V218.037C99.7542 218.037 102.333 217.584 104.724 216.649L102.93 212.065ZM96.968 211.809C98.6655 211.809 100.281 211.519 101.783 210.903L99.9145 206.349C99.07 206.695 98.0983 206.886 96.968 206.886V211.809ZM101.763 210.911C103.271 210.308 104.606 209.432 105.748 208.29L102.267 204.81C101.604 205.473 100.833 205.981 99.9346 206.34L101.763 210.911ZM105.748 208.29C106.9 207.138 107.776 205.779 108.376 204.241L103.79 202.451C103.428 203.38 102.92 204.157 102.267 204.81L105.748 208.29ZM108.357 204.289C109.007 202.721 109.312 201.027 109.312 199.24H104.389C104.389 200.461 104.182 201.504 103.81 202.403L108.357 204.289ZM109.312 199.24C109.312 197.453 109.007 195.758 108.357 194.19L103.81 196.076C104.182 196.975 104.389 198.018 104.389 199.24H109.312ZM108.376 194.238C107.776 192.7 106.9 191.341 105.748 190.189L102.267 193.67C102.92 194.323 103.428 195.099 103.79 196.028L108.376 194.238ZM105.777 190.218C104.656 189.058 103.323 188.174 101.808 187.568L99.9798 192.139C100.871 192.495 101.615 192.995 102.238 193.64L105.777 190.218ZM101.808 187.568C100.289 186.96 98.6664 186.67 96.968 186.67V191.593C98.0974 191.593 99.0926 191.784 99.9798 192.139L101.808 187.568ZM96.968 186.67C95.2695 186.67 93.6474 186.96 92.1279 187.568L93.9562 192.139C94.8433 191.784 95.8386 191.593 96.968 191.593V186.67ZM92.1078 187.576C90.6309 188.182 89.3194 189.057 88.1879 190.189L91.6688 193.67C92.3423 192.996 93.1066 192.487 93.9763 192.131L92.1078 187.576ZM88.1879 190.189C87.0465 191.33 86.163 192.673 85.5337 194.19L90.0811 196.076C90.4747 195.127 91.0051 194.333 91.6688 193.67L88.1879 190.189ZM85.5144 194.238C84.9077 195.793 84.624 197.471 84.624 199.24H89.5468C89.5468 198 89.7445 196.94 90.1004 196.028L85.5144 194.238ZM84.624 199.24C84.624 200.986 84.9101 202.655 85.5073 204.222L90.1076 202.47C89.7421 201.51 89.5468 200.441 89.5468 199.24H84.624ZM85.5337 204.289C86.1558 205.789 87.013 207.122 88.1135 208.261L91.6529 204.839C91.0086 204.173 90.4819 203.37 90.0811 202.403L85.5337 204.289ZM88.1427 208.29C89.2847 209.432 90.6199 210.308 92.1279 210.911L93.9562 206.34C93.0574 205.981 92.2868 205.473 91.6237 204.81L88.1427 208.29ZM92.1279 210.911C93.6474 211.519 95.2695 211.809 96.968 211.809V206.886C95.8386 206.886 94.8433 206.695 93.9562 206.34L92.1279 210.911ZM131.277 215.034L128.937 215.799L129.492 217.495H131.277V215.034ZM120.943 183.446V180.984H117.548L118.603 184.211L120.943 183.446ZM128.524 183.446L130.868 182.693L130.319 180.984H128.524V183.446ZM137.504 211.424V213.885H140.879L139.848 210.671L137.504 211.424ZM133.713 211.424L131.38 210.641L130.291 213.885H133.713V211.424ZM143.1 183.446V180.984H141.329L140.766 182.663L143.1 183.446ZM149.868 183.446L152.211 182.69L151.661 180.984H149.868V183.446ZM158.894 211.424V213.885H162.274L161.236 210.668L158.894 211.424ZM155.238 211.424L152.9 210.654L151.837 213.885H155.238V211.424ZM164.444 183.446V180.984H162.663L162.106 182.676L164.444 183.446ZM171.439 183.446L173.778 184.211L174.834 180.984H171.439V183.446ZM161.105 215.034V217.495H162.889L163.444 215.799L161.105 215.034ZM153.253 215.034L150.912 215.795L151.465 217.495H153.253V215.034ZM145.266 190.485V188.024H141.876L142.925 191.247L145.266 190.485ZM147.341 190.485L149.676 191.266L150.76 188.024H147.341V190.485ZM139.129 215.034V217.495H140.901L141.463 215.815L139.129 215.034ZM133.616 214.268L123.282 182.68L118.603 184.211L128.937 215.799L133.616 214.268ZM120.943 185.907H128.524V180.984H120.943V185.907ZM126.18 184.198L135.16 212.176L139.848 210.671L130.868 182.693L126.18 184.198ZM137.504 208.962H133.713V213.885H137.504V208.962ZM136.047 212.206L145.433 184.228L140.766 182.663L131.38 210.641L136.047 212.206ZM143.1 185.907H149.868V180.984H143.1V185.907ZM147.526 184.201L156.551 212.179L161.236 210.668L152.211 182.69L147.526 184.201ZM158.894 208.962H155.238V213.885H158.894V208.962ZM157.577 212.193L166.782 184.215L162.106 182.676L152.9 210.654L157.577 212.193ZM164.444 185.907H171.439V180.984H164.444V185.907ZM169.099 182.68L158.765 214.268L163.444 215.799L173.778 184.211L169.099 182.68ZM161.105 212.572H153.253V217.495H161.105V212.572ZM155.594 214.272L147.606 189.724L142.925 191.247L150.912 215.795L155.594 214.272ZM145.266 192.947H147.341V188.024H145.266V192.947ZM145.007 189.704L136.794 214.253L141.463 215.815L149.676 191.266L145.007 189.704ZM139.129 212.572H131.277V217.495H139.129V212.572ZM180.484 215.034H178.022V217.495H180.484V215.034ZM180.484 183.446V180.984H178.022V183.446H180.484ZM187.794 183.446H190.255V180.984H187.794V183.446ZM187.794 215.034V217.495H190.255V215.034H187.794ZM182.945 215.034V183.446H178.022V215.034H182.945ZM180.484 185.907H187.794V180.984H180.484V185.907ZM185.332 183.446V215.034H190.255V183.446H185.332ZM187.794 212.572H180.484V217.495H187.794V212.572ZM200.254 215.034H197.793V217.495H200.254V215.034ZM200.254 183.446V180.984H197.793V183.446H200.254ZM206.301 183.446L208.205 181.885L207.466 180.984H206.301V183.446ZM224.938 206.189V208.65H230.137L226.842 204.629L224.938 206.189ZM222.005 206.189H219.544V208.65H222.005V206.189ZM222.005 183.446V180.984H219.544V183.446H222.005ZM229.225 183.446H231.686V180.984H229.225V183.446ZM229.225 215.034V217.495H231.686V215.034H229.225ZM223.223 215.034L221.321 216.596L222.06 217.495H223.223V215.034ZM204.541 192.29V189.829H199.334L202.639 193.853L204.541 192.29ZM207.474 192.29H209.936V189.829H207.474V192.29ZM207.474 215.034V217.495H209.936V215.034H207.474ZM202.716 215.034V183.446H197.793V215.034H202.716ZM200.254 185.907H206.301V180.984H200.254V185.907ZM204.397 185.006L223.034 207.749L226.842 204.629L208.205 181.885L204.397 185.006ZM224.938 203.728H222.005V208.65H224.938V203.728ZM224.466 206.189V183.446H219.544V206.189H224.466ZM222.005 185.907H229.225V180.984H222.005V185.907ZM226.764 183.446V215.034H231.686V183.446H226.764ZM229.225 212.572H223.223V217.495H229.225V212.572ZM225.125 213.471L206.443 190.728L202.639 193.853L221.321 216.596L225.125 213.471ZM204.541 194.752H207.474V189.829H204.541V194.752ZM205.013 192.29V215.034H209.936V192.29H205.013ZM207.474 212.572H200.254V217.495H207.474V212.572ZM250.011 214.402L249.114 216.694L249.134 216.702L249.154 216.709L250.011 214.402ZM244.551 210.972L242.845 212.747L242.854 212.756L242.863 212.764L244.551 210.972ZM240.94 205.783L238.675 206.744L238.681 206.759L238.687 206.773L240.94 205.783ZM240.94 192.696L238.687 191.706L238.681 191.721L238.675 191.735L240.94 192.696ZM244.596 187.507L246.284 189.298L244.596 187.507ZM250.101 184.122L250.958 186.43L250.972 186.424L250.987 186.419L250.101 184.122ZM264.586 184.303L263.635 186.573L263.646 186.578L264.586 184.303ZM270.272 188.364L271.942 190.173L273.692 188.557L272.134 186.755L270.272 188.364ZM265.579 192.696L263.795 194.392L265.466 196.151L267.249 194.505L265.579 192.696ZM261.834 190.034L260.834 192.283L260.855 192.293L260.876 192.302L261.834 190.034ZM249.921 191.929L248.209 190.16L248.194 190.174L248.18 190.189L249.921 191.929ZM247.8 195.133L245.526 194.19L245.516 194.214L245.507 194.238L247.8 195.133ZM247.8 203.301L245.507 204.196L245.516 204.22L245.526 204.244L247.8 203.301ZM249.921 206.55L248.152 208.262L248.18 208.291L248.209 208.319L249.921 206.55ZM253.17 208.626L252.275 210.919L252.284 210.922L252.293 210.926L253.17 208.626ZM261.518 208.671L262.296 211.006L262.311 211.001L262.326 210.996L261.518 208.671ZM265.534 206.279L267.469 204.758L265.879 202.735L263.929 204.413L265.534 206.279ZM269.686 211.559L271.168 213.524L273.173 212.012L271.62 210.038L269.686 211.559ZM263.684 214.537L262.971 212.181L262.962 212.184L263.684 214.537ZM263.007 210.611H260.546V212.748L262.661 213.048L263.007 210.611ZM263.007 198.743V196.282H260.546V198.743H263.007ZM269.686 198.743H272.147V196.282H269.686V198.743ZM269.686 211.559L269.34 213.996L272.147 214.394V211.559H269.686ZM256.915 213.114C254.678 213.114 252.671 212.764 250.868 212.094L249.154 216.709C251.563 217.604 254.158 218.037 256.915 218.037V213.114ZM250.908 212.11C249.114 211.408 247.565 210.431 246.239 209.181L242.863 212.764C244.665 214.462 246.756 215.771 249.114 216.694L250.908 212.11ZM246.256 209.197C244.958 207.951 243.939 206.489 243.194 204.793L238.687 206.773C239.686 209.048 241.074 211.046 242.845 212.747L246.256 209.197ZM243.206 204.822C242.506 203.17 242.138 201.32 242.138 199.24H237.216C237.216 201.913 237.691 204.425 238.675 206.744L243.206 204.822ZM242.138 199.24C242.138 197.159 242.506 195.309 243.206 193.658L238.675 191.735C237.691 194.054 237.216 196.566 237.216 199.24H242.138ZM243.194 193.687C243.935 192 244.962 190.544 246.284 189.298L242.908 185.716C241.101 187.418 239.691 189.421 238.687 191.706L243.194 193.687ZM246.284 189.298C247.598 188.06 249.147 187.103 250.958 186.43L249.244 181.815C246.844 182.707 244.722 184.005 242.908 185.716L246.284 189.298ZM250.987 186.419C252.778 185.728 254.79 185.365 257.05 185.365V180.443C254.257 180.443 251.635 180.892 249.215 181.826L250.987 186.419ZM257.05 185.365C259.573 185.365 261.754 185.785 263.635 186.573L265.537 182.033C262.966 180.955 260.123 180.443 257.05 180.443V185.365ZM263.646 186.578C265.562 187.37 267.137 188.502 268.41 189.974L272.134 186.755C270.339 184.677 268.123 183.101 265.527 182.028L263.646 186.578ZM268.603 186.556L263.91 190.888L267.249 194.505L271.942 190.173L268.603 186.556ZM267.364 191.001C266.017 189.584 264.495 188.486 262.791 187.766L260.876 192.302C261.88 192.725 262.855 193.402 263.795 194.392L267.364 191.001ZM262.833 187.785C261.141 187.033 259.324 186.67 257.411 186.67V191.593C258.688 191.593 259.818 191.832 260.834 192.283L262.833 187.785ZM257.411 186.67C255.618 186.67 253.917 186.952 252.338 187.553L254.091 192.154C255.04 191.792 256.137 191.593 257.411 191.593V186.67ZM252.338 187.553C250.777 188.148 249.391 189.016 248.209 190.16L251.632 193.698C252.315 193.037 253.126 192.521 254.091 192.154L252.338 187.553ZM248.18 190.189C247.039 191.33 246.155 192.673 245.526 194.19L250.073 196.076C250.467 195.127 250.997 194.333 251.661 193.67L248.18 190.189ZM245.507 194.238C244.9 195.793 244.616 197.471 244.616 199.24H249.539C249.539 198 249.737 196.94 250.093 196.028L245.507 194.238ZM244.616 199.24C244.616 200.985 244.902 202.647 245.507 204.196L250.093 202.406C249.734 201.488 249.539 200.442 249.539 199.24H244.616ZM245.526 204.244C246.152 205.754 247.028 207.1 248.152 208.262L251.689 204.838C251.008 204.134 250.47 203.314 250.073 202.358L245.526 204.244ZM248.209 208.319C249.381 209.453 250.743 210.321 252.275 210.919L254.064 206.333C253.129 205.968 252.325 205.452 251.632 204.781L248.209 208.319ZM252.293 210.926C253.866 211.525 255.551 211.809 257.321 211.809V206.886C256.083 206.886 255 206.689 254.046 206.326L252.293 210.926ZM257.321 211.809C259.027 211.809 260.688 211.542 262.296 211.006L260.739 206.336C259.64 206.702 258.504 206.886 257.321 206.886V211.809ZM262.326 210.996C264.046 210.397 265.649 209.427 267.139 208.145L263.929 204.413C262.831 205.358 261.757 205.982 260.709 206.346L262.326 210.996ZM263.599 207.801L267.751 213.08L271.62 210.038L267.469 204.758L263.599 207.801ZM268.203 209.594C266.744 210.695 265.011 211.564 262.971 212.181L264.397 216.893C266.93 216.127 269.197 215.011 271.168 213.524L268.203 209.594ZM262.962 212.184C260.929 212.808 258.916 213.114 256.915 213.114V218.037C259.427 218.037 261.926 217.651 264.406 216.89L262.962 212.184ZM265.468 210.611V198.743H260.546V210.611H265.468ZM263.007 201.205H269.686V196.282H263.007V201.205ZM267.224 198.743V211.559H272.147V198.743H267.224ZM270.031 209.122L263.353 208.174L262.661 213.048L269.34 213.996L270.031 209.122Z" fill="#005669" mask="url(#path-3-outside-1_350_385)"/>
</svg>
