<svg width="860" height="122" viewBox="0 0 860 122" fill="none" xmlns="http://www.w3.org/2000/svg">
<mask id="path-1-outside-1_34_325" maskUnits="userSpaceOnUse" x="2" y="26" width="520" height="70" fill="black">
<rect fill="white" x="2" y="26" width="520" height="70"/>
<path d="M7.12511 91V30.9087H18.6283L44.21 73.316H38.115L63.2675 30.9087H74.6849L74.8566 91H61.8082L61.7223 50.9105H64.126L44.0383 84.6475H37.7717L17.2548 50.9105H20.1735V91H7.12511ZM111.347 55.1169H140.277V65.9334H111.347V55.1169ZM112.377 79.8402H145.084V91H98.5564V30.9087H143.968V42.0685H112.377V79.8402ZM178.383 55.1169H207.313V65.9334H178.383V55.1169ZM179.413 79.8402H212.12V91H165.592V30.9087H211.004V42.0685H179.413V79.8402ZM245.076 91V42.2402H225.847V30.9087H278.212V42.2402H258.983V91H245.076ZM341.339 91V42.2402H322.11V30.9087H374.475V42.2402H355.246V91H341.339ZM432.606 30.9087H446.513V91H432.606V30.9087ZM405.308 91H391.401V30.9087H405.308V91ZM433.636 66.3626H404.277V54.6019H433.636V66.3626ZM482.964 55.1169H511.894V65.9334H482.964V55.1169ZM483.994 79.8402H516.701V91H470.173V30.9087H515.585V42.0685H483.994V79.8402Z"/>
</mask>
<path d="M7.12511 91H2.44267V95.6824H7.12511V91ZM7.12511 30.9087V26.2263H2.44267V30.9087H7.12511ZM18.6283 30.9087L22.6377 28.4901L21.2721 26.2263H18.6283V30.9087ZM44.21 73.316V77.9984H52.5031L48.2194 70.8974L44.21 73.316ZM38.115 73.316L34.0877 70.9273L29.8937 77.9984H38.115V73.316ZM63.2675 30.9087V26.2263H60.6007L59.2402 28.52L63.2675 30.9087ZM74.6849 30.9087L79.3673 30.8953L79.354 26.2263H74.6849V30.9087ZM74.8566 91V95.6824H79.5524L79.539 90.9866L74.8566 91ZM61.8082 91L57.1257 91.01L57.1357 95.6824H61.8082V91ZM61.7223 50.9105V46.2281H57.0299L57.0399 50.9206L61.7223 50.9105ZM64.126 50.9105L68.1492 53.3061L72.3636 46.2281H64.126V50.9105ZM44.0383 84.6475V89.3299H46.6999L48.0616 87.043L44.0383 84.6475ZM37.7717 84.6475L33.7709 87.0805L35.1389 89.3299H37.7717V84.6475ZM17.2548 50.9105V46.2281H8.92686L13.2541 53.3435L17.2548 50.9105ZM20.1735 50.9105H24.8559V46.2281H20.1735V50.9105ZM20.1735 91V95.6824H24.8559V91H20.1735ZM11.8075 91V30.9087H2.44267V91H11.8075ZM7.12511 35.5912H18.6283V26.2263H7.12511V35.5912ZM14.6189 33.3274L40.2006 75.7346L48.2194 70.8974L22.6377 28.4901L14.6189 33.3274ZM44.21 68.6336H38.115V77.9984H44.21V68.6336ZM42.1424 75.7047L67.2949 33.2974L59.2402 28.52L34.0877 70.9273L42.1424 75.7047ZM63.2675 35.5912H74.6849V26.2263H63.2675V35.5912ZM70.0025 30.9221L70.1741 91.0134L79.539 90.9866L79.3673 30.8953L70.0025 30.9221ZM74.8566 86.3176H61.8082V95.6824H74.8566V86.3176ZM66.4906 90.99L66.4047 50.9005L57.0399 50.9206L57.1257 91.01L66.4906 90.99ZM61.7223 55.593H64.126V46.2281H61.7223V55.593ZM60.1027 48.515L40.0151 82.252L48.0616 87.043L68.1492 53.3061L60.1027 48.515ZM44.0383 79.9651H37.7717V89.3299H44.0383V79.9651ZM41.7724 82.2145L21.2555 48.4775L13.2541 53.3435L33.7709 87.0805L41.7724 82.2145ZM17.2548 55.593H20.1735V46.2281H17.2548V55.593ZM15.4911 50.9105V91H24.8559V50.9105H15.4911ZM20.1735 86.3176H7.12511V95.6824H20.1735V86.3176ZM111.347 55.1169V50.4345H106.665V55.1169H111.347ZM140.277 55.1169H144.959V50.4345H140.277V55.1169ZM140.277 65.9334V70.6158H144.959V65.9334H140.277ZM111.347 65.9334H106.665V70.6158H111.347V65.9334ZM112.377 79.8402H107.695V84.5226H112.377V79.8402ZM145.084 79.8402H149.767V75.1578H145.084V79.8402ZM145.084 91V95.6824H149.767V91H145.084ZM98.5564 91H93.874V95.6824H98.5564V91ZM98.5564 30.9087V26.2263H93.874V30.9087H98.5564ZM143.968 30.9087H148.651V26.2263H143.968V30.9087ZM143.968 42.0685V46.751H148.651V42.0685H143.968ZM112.377 42.0685V37.3861H107.695V42.0685H112.377ZM111.347 59.7994H140.277V50.4345H111.347V59.7994ZM135.594 55.1169V65.9334H144.959V55.1169H135.594ZM140.277 61.2509H111.347V70.6158H140.277V61.2509ZM116.03 65.9334V55.1169H106.665V65.9334H116.03ZM112.377 84.5226H145.084V75.1578H112.377V84.5226ZM140.402 79.8402V91H149.767V79.8402H140.402ZM145.084 86.3176H98.5564V95.6824H145.084V86.3176ZM103.239 91V30.9087H93.874V91H103.239ZM98.5564 35.5912H143.968V26.2263H98.5564V35.5912ZM139.286 30.9087V42.0685H148.651V30.9087H139.286ZM143.968 37.3861H112.377V46.751H143.968V37.3861ZM107.695 42.0685V79.8402H117.06V42.0685H107.695ZM178.383 55.1169V50.4345H173.701V55.1169H178.383ZM207.313 55.1169H211.995V50.4345H207.313V55.1169ZM207.313 65.9334V70.6158H211.995V65.9334H207.313ZM178.383 65.9334H173.701V70.6158H178.383V65.9334ZM179.413 79.8402H174.731V84.5226H179.413V79.8402ZM212.12 79.8402H216.803V75.1578H212.12V79.8402ZM212.12 91V95.6824H216.803V91H212.12ZM165.592 91H160.91V95.6824H165.592V91ZM165.592 30.9087V26.2263H160.91V30.9087H165.592ZM211.004 30.9087H215.687V26.2263H211.004V30.9087ZM211.004 42.0685V46.751H215.687V42.0685H211.004ZM179.413 42.0685V37.3861H174.731V42.0685H179.413ZM178.383 59.7994H207.313V50.4345H178.383V59.7994ZM202.63 55.1169V65.9334H211.995V55.1169H202.63ZM207.313 61.2509H178.383V70.6158H207.313V61.2509ZM183.066 65.9334V55.1169H173.701V65.9334H183.066ZM179.413 84.5226H212.12V75.1578H179.413V84.5226ZM207.438 79.8402V91H216.803V79.8402H207.438ZM212.12 86.3176H165.592V95.6824H212.12V86.3176ZM170.275 91V30.9087H160.91V91H170.275ZM165.592 35.5912H211.004V26.2263H165.592V35.5912ZM206.322 30.9087V42.0685H215.687V30.9087H206.322ZM211.004 37.3861H179.413V46.751H211.004V37.3861ZM174.731 42.0685V79.8402H184.096V42.0685H174.731ZM245.076 91H240.393V95.6824H245.076V91ZM245.076 42.2402H249.758V37.5578H245.076V42.2402ZM225.847 42.2402H221.164V46.9227H225.847V42.2402ZM225.847 30.9087V26.2263H221.164V30.9087H225.847ZM278.212 30.9087H282.894V26.2263H278.212V30.9087ZM278.212 42.2402V46.9227H282.894V42.2402H278.212ZM258.983 42.2402V37.5578H254.3V42.2402H258.983ZM258.983 91V95.6824H263.665V91H258.983ZM249.758 91V42.2402H240.393V91H249.758ZM245.076 37.5578H225.847V46.9227H245.076V37.5578ZM230.529 42.2402V30.9087H221.164V42.2402H230.529ZM225.847 35.5912H278.212V26.2263H225.847V35.5912ZM273.529 30.9087V42.2402H282.894V30.9087H273.529ZM278.212 37.5578H258.983V46.9227H278.212V37.5578ZM254.3 42.2402V91H263.665V42.2402H254.3ZM258.983 86.3176H245.076V95.6824H258.983V86.3176ZM341.339 91H336.657V95.6824H341.339V91ZM341.339 42.2402H346.022V37.5578H341.339V42.2402ZM322.11 42.2402H317.428V46.9227H322.11V42.2402ZM322.11 30.9087V26.2263H317.428V30.9087H322.11ZM374.475 30.9087H379.158V26.2263H374.475V30.9087ZM374.475 42.2402V46.9227H379.158V42.2402H374.475ZM355.246 42.2402V37.5578H350.564V42.2402H355.246ZM355.246 91V95.6824H359.928V91H355.246ZM346.022 91V42.2402H336.657V91H346.022ZM341.339 37.5578H322.11V46.9227H341.339V37.5578ZM326.792 42.2402V30.9087H317.428V42.2402H326.792ZM322.11 35.5912H374.475V26.2263H322.11V35.5912ZM369.793 30.9087V42.2402H379.158V30.9087H369.793ZM374.475 37.5578H355.246V46.9227H374.475V37.5578ZM350.564 42.2402V91H359.928V42.2402H350.564ZM355.246 86.3176H341.339V95.6824H355.246V86.3176ZM432.606 30.9087V26.2263H427.924V30.9087H432.606ZM446.513 30.9087H451.195V26.2263H446.513V30.9087ZM446.513 91V95.6824H451.195V91H446.513ZM432.606 91H427.924V95.6824H432.606V91ZM405.308 91V95.6824H409.99V91H405.308ZM391.401 91H386.718V95.6824H391.401V91ZM391.401 30.9087V26.2263H386.718V30.9087H391.401ZM405.308 30.9087H409.99V26.2263H405.308V30.9087ZM433.636 66.3626V71.045H438.319V66.3626H433.636ZM404.277 66.3626H399.595V71.045H404.277V66.3626ZM404.277 54.6019V49.9194H399.595V54.6019H404.277ZM433.636 54.6019H438.319V49.9194H433.636V54.6019ZM432.606 35.5912H446.513V26.2263H432.606V35.5912ZM441.831 30.9087V91H451.195V30.9087H441.831ZM446.513 86.3176H432.606V95.6824H446.513V86.3176ZM437.289 91V30.9087H427.924V91H437.289ZM405.308 86.3176H391.401V95.6824H405.308V86.3176ZM396.083 91V30.9087H386.718V91H396.083ZM391.401 35.5912H405.308V26.2263H391.401V35.5912ZM400.625 30.9087V91H409.99V30.9087H400.625ZM433.636 61.6801H404.277V71.045H433.636V61.6801ZM408.96 66.3626V54.6019H399.595V66.3626H408.96ZM404.277 59.2843H433.636V49.9194H404.277V59.2843ZM428.954 54.6019V66.3626H438.319V54.6019H428.954ZM482.964 55.1169V50.4345H478.282V55.1169H482.964ZM511.894 55.1169H516.576V50.4345H511.894V55.1169ZM511.894 65.9334V70.6158H516.576V65.9334H511.894ZM482.964 65.9334H478.282V70.6158H482.964V65.9334ZM483.994 79.8402H479.312V84.5226H483.994V79.8402ZM516.701 79.8402H521.384V75.1578H516.701V79.8402ZM516.701 91V95.6824H521.384V91H516.701ZM470.173 91H465.491V95.6824H470.173V91ZM470.173 30.9087V26.2263H465.491V30.9087H470.173ZM515.585 30.9087H520.268V26.2263H515.585V30.9087ZM515.585 42.0685V46.751H520.268V42.0685H515.585ZM483.994 42.0685V37.3861H479.312V42.0685H483.994ZM482.964 59.7994H511.894V50.4345H482.964V59.7994ZM507.211 55.1169V65.9334H516.576V55.1169H507.211ZM511.894 61.2509H482.964V70.6158H511.894V61.2509ZM487.647 65.9334V55.1169H478.282V65.9334H487.647ZM483.994 84.5226H516.701V75.1578H483.994V84.5226ZM512.019 79.8402V91H521.384V79.8402H512.019ZM516.701 86.3176H470.173V95.6824H516.701V86.3176ZM474.856 91V30.9087H465.491V91H474.856ZM470.173 35.5912H515.585V26.2263H470.173V35.5912ZM510.903 30.9087V42.0685H520.268V30.9087H510.903ZM515.585 37.3861H483.994V46.751H515.585V37.3861ZM479.312 42.0685V79.8402H488.677V42.0685H479.312Z" fill="#005669" mask="url(#path-1-outside-1_34_325)"/>
<path d="M575.8 97V40.2H553.4V27H614.4V40.2H592V97H575.8ZM640.016 55.2H673.716V67.8H640.016V55.2ZM641.216 84H679.316V97H625.116V27H678.016V40H641.216V84ZM685.006 97L716.206 27H732.206L763.506 97H746.506L720.906 35.2H727.306L701.606 97H685.006ZM700.606 82L704.906 69.7H740.906L745.306 82H700.606ZM772.769 97V27H786.169L815.969 76.4H808.869L838.169 27H851.469L851.669 97H836.469L836.369 50.3H839.169L815.769 89.6H808.469L784.569 50.3H787.969V97H772.769Z" fill="#005669"/>
</svg>
