<svg width="578" height="292" viewBox="0 0 578 292" fill="none" xmlns="http://www.w3.org/2000/svg">
<path d="M263.368 291.846C242.637 291.846 224.194 288.481 208.04 281.75C191.886 275.019 179.097 265.865 169.674 254.288C160.25 242.711 155.539 229.383 155.539 214.306C155.539 200.306 158.635 187.786 164.828 176.747C171.02 165.439 180.847 154.939 194.309 145.247C207.771 135.285 224.867 125.592 245.599 116.169C260.676 109.169 272.522 102.976 281.138 97.5915C289.754 92.2068 295.812 87.0912 299.312 82.245C302.812 77.1295 304.562 72.0139 304.562 66.8984C304.562 59.8983 302.139 54.2443 297.292 49.9365C292.715 45.6287 285.85 43.4748 276.696 43.4748C267.003 43.4748 259.464 45.8979 254.08 50.7442C248.695 55.5905 246.003 61.7829 246.003 69.3216C246.003 73.3601 246.81 77.3987 248.426 81.4373C250.041 85.2066 253.137 89.649 257.714 94.7645C262.291 99.6108 268.753 105.938 277.1 113.746L426.122 251.865L391.795 291.846L227.425 139.189C218.002 130.573 210.463 122.496 204.809 114.957C199.155 107.419 194.982 100.015 192.29 92.7452C189.867 85.4758 188.655 77.9372 188.655 70.1293C188.655 56.3982 192.29 44.2825 199.559 33.7822C206.829 23.282 217.06 15.2049 230.252 9.55086C243.445 3.62763 258.926 0.666016 276.696 0.666016C293.119 0.666016 307.254 3.3584 319.101 8.74316C331.216 13.8587 340.64 21.2627 347.371 30.9552C354.371 40.6478 357.871 52.225 357.871 65.6869C357.871 77.5333 354.909 88.4374 348.986 98.3992C343.063 108.092 333.774 117.246 321.12 125.861C308.735 134.477 292.446 143.227 272.253 152.112C258.522 158.305 247.618 164.362 239.541 170.286C231.733 175.94 226.079 181.728 222.579 187.651C219.079 193.575 217.329 200.171 217.329 207.44C217.329 214.171 219.348 220.229 223.387 225.614C227.694 230.999 233.618 235.172 241.156 238.133C248.695 241.095 257.58 242.576 267.811 242.576C284.234 242.576 299.312 238.807 313.043 231.268C326.774 223.46 338.351 212.017 347.774 196.94C357.467 181.594 364.332 163.016 368.371 141.208L418.853 156.958C413.199 184.421 403.103 208.248 388.564 228.441C374.025 248.634 356.121 264.25 334.851 275.288C313.581 286.327 289.754 291.846 263.368 291.846Z" fill="#005669" fill-opacity="0.28"/>
<path d="M546.068 125.996C540.339 125.996 534.818 125.332 529.504 124.004C524.273 122.592 520.122 120.849 517.05 118.773L523.526 104.824C526.598 106.734 530.21 108.311 534.361 109.557C538.596 110.719 542.747 111.3 546.815 111.3C551.299 111.3 554.454 110.761 556.28 109.681C558.19 108.602 559.145 107.108 559.145 105.198C559.145 103.62 558.398 102.458 556.903 101.711C555.492 100.88 553.582 100.258 551.174 99.8426C548.766 99.4275 546.11 99.0123 543.204 98.5972C540.381 98.182 537.516 97.6424 534.61 96.9781C531.704 96.2309 529.047 95.1515 526.64 93.7401C524.232 92.3286 522.281 90.4189 520.786 88.0111C519.375 85.6033 518.669 82.4898 518.669 78.6705C518.669 74.4361 519.873 70.6998 522.281 67.4618C524.771 64.2237 528.342 61.6913 532.991 59.8647C537.641 57.9551 543.204 57.0002 549.68 57.0002C554.246 57.0002 558.896 57.4984 563.628 58.4947C568.361 59.4911 572.305 60.9441 575.46 62.8537L568.984 76.6778C565.746 74.7682 562.466 73.4813 559.145 72.817C555.907 72.0698 552.752 71.6962 549.68 71.6962C545.362 71.6962 542.207 72.2774 540.215 73.4397C538.222 74.6021 537.226 76.0966 537.226 77.9233C537.226 79.5838 537.931 80.8292 539.343 81.6595C540.837 82.4898 542.788 83.154 545.196 83.6522C547.604 84.1503 550.219 84.607 553.042 85.0221C555.948 85.3542 558.854 85.8939 561.76 86.6412C564.666 87.3884 567.282 88.4678 569.606 89.8793C572.014 91.2077 573.965 93.0758 575.46 95.4836C576.954 97.8084 577.702 100.88 577.702 104.7C577.702 108.851 576.456 112.546 573.965 115.784C571.475 118.939 567.863 121.43 563.13 123.256C558.481 125.083 552.793 125.996 546.068 125.996Z" fill="#005669"/>
<path d="M496.803 125.997C488.915 125.997 482.771 124.004 478.371 120.019C473.97 115.95 471.77 109.931 471.77 101.96V43.1763H491.199V101.711C491.199 104.534 491.946 106.734 493.44 108.312C494.935 109.806 496.969 110.553 499.543 110.553C502.615 110.553 505.23 109.723 507.389 108.063L512.62 121.762C510.627 123.174 508.219 124.253 505.396 125C502.656 125.664 499.792 125.997 496.803 125.997ZM461.433 74.4362V59.4912H507.887V74.4362H461.433Z" fill="#005669"/>
<path d="M427.23 125.996C420.007 125.996 413.572 124.543 407.926 121.637C402.28 118.648 397.838 114.539 394.6 109.308C391.445 104.077 389.867 98.1405 389.867 91.4983C389.867 84.773 391.445 78.8366 394.6 73.6888C397.838 68.4581 402.28 64.3897 407.926 61.4837C413.572 58.4947 420.007 57.0002 427.23 57.0002C434.287 57.0002 440.431 58.4947 445.662 61.4837C450.893 64.3897 454.754 68.5826 457.245 74.0625L442.175 82.1577C440.431 79.0026 438.231 76.6778 435.574 75.1833C433 73.6888 430.177 72.9416 427.105 72.9416C423.784 72.9416 420.795 73.6888 418.138 75.1833C415.482 76.6778 413.364 78.795 411.787 81.535C410.292 84.2749 409.545 87.596 409.545 91.4983C409.545 95.4006 410.292 98.7217 411.787 101.462C413.364 104.202 415.482 106.319 418.138 107.813C420.795 109.308 423.784 110.055 427.105 110.055C430.177 110.055 433 109.349 435.574 107.938C438.231 106.443 440.431 104.077 442.175 100.839L457.245 109.059C454.754 114.455 450.893 118.648 445.662 121.637C440.431 124.543 434.287 125.996 427.23 125.996Z" fill="#005669"/>
<path d="M337.619 125.996C332.056 125.996 327.075 124.917 322.674 122.758C318.357 120.6 314.994 117.32 312.586 112.919C310.178 108.436 308.975 102.749 308.975 95.8573V57.9966H328.403V92.9928C328.403 98.5557 329.566 102.666 331.89 105.322C334.298 107.896 337.661 109.183 341.978 109.183C344.967 109.183 347.624 108.561 349.949 107.315C352.274 105.987 354.1 103.994 355.429 101.337C356.757 98.5972 357.421 95.193 357.421 91.1247V57.9966H376.85V125H358.418V106.568L361.78 111.923C359.539 116.573 356.217 120.101 351.817 122.509C347.5 124.834 342.767 125.996 337.619 125.996Z" fill="#005669"/>
<path d="M251.887 125.996C245.577 125.996 239.889 124.585 234.825 121.762C229.76 118.856 225.733 114.829 222.744 109.681C219.838 104.534 218.385 98.4727 218.385 91.4983C218.385 84.441 219.838 78.3384 222.744 73.1907C225.733 68.043 229.76 64.0576 234.825 61.2347C239.889 58.4117 245.577 57.0003 251.887 57.0003C257.533 57.0003 262.473 58.2457 266.707 60.7365C270.942 63.2274 274.221 67.0051 276.546 72.0698C278.871 77.1345 280.033 83.6107 280.033 91.4983C280.033 99.3029 278.913 105.779 276.671 110.927C274.429 115.992 271.191 119.769 266.957 122.26C262.805 124.751 257.782 125.996 251.887 125.996ZM255.25 110.055C258.405 110.055 261.269 109.308 263.843 107.813C266.417 106.319 268.451 104.202 269.946 101.462C271.523 98.6387 272.312 95.3176 272.312 91.4983C272.312 87.596 271.523 84.2749 269.946 81.535C268.451 78.7951 266.417 76.6779 263.843 75.1834C261.269 73.6889 258.405 72.9416 255.25 72.9416C252.012 72.9416 249.106 73.6889 246.532 75.1834C243.958 76.6779 241.882 78.7951 240.305 81.535C238.81 84.2749 238.063 87.596 238.063 91.4983C238.063 95.3176 238.81 98.6387 240.305 101.462C241.882 104.202 243.958 106.319 246.532 107.813C249.106 109.308 252.012 110.055 255.25 110.055ZM272.81 125V111.3L273.184 91.3738L271.938 71.5716V32.5901H291.367V125H272.81Z" fill="#005669"/>
<path d="M173.391 125.996C166.251 125.996 159.899 124.502 154.337 121.513C148.857 118.524 144.498 114.455 141.26 109.308C138.105 104.077 136.527 98.1405 136.527 91.4983C136.527 84.773 138.105 78.8366 141.26 73.6888C144.498 68.4581 148.857 64.3897 154.337 61.4837C159.899 58.4947 166.251 57.0002 173.391 57.0002C180.449 57.0002 186.759 58.4947 192.322 61.4837C197.885 64.3897 202.244 68.4166 205.399 73.5643C208.554 78.712 210.131 84.69 210.131 91.4983C210.131 98.1405 208.554 104.077 205.399 109.308C202.244 114.455 197.885 118.524 192.322 121.513C186.759 124.502 180.449 125.996 173.391 125.996ZM173.391 110.055C176.63 110.055 179.536 109.308 182.109 107.813C184.683 106.319 186.717 104.202 188.212 101.462C189.706 98.6387 190.454 95.3176 190.454 91.4983C190.454 87.596 189.706 84.2749 188.212 81.535C186.717 78.795 184.683 76.6778 182.109 75.1833C179.536 73.6888 176.63 72.9416 173.391 72.9416C170.153 72.9416 167.247 73.6888 164.674 75.1833C162.1 76.6778 160.024 78.795 158.446 81.535C156.952 84.2749 156.205 87.596 156.205 91.4983C156.205 95.3176 156.952 98.6387 158.446 101.462C160.024 104.202 162.1 106.319 164.674 107.813C167.247 109.308 170.153 110.055 173.391 110.055Z" fill="#005669"/>
<path d="M88.8462 125V57.9966H107.403V76.9269L104.788 71.4471C106.78 66.7145 109.977 63.1443 114.377 60.7365C118.778 58.2457 124.133 57.0002 130.443 57.0002V74.9343C129.613 74.8512 128.866 74.8097 128.201 74.8097C127.537 74.7267 126.831 74.6852 126.084 74.6852C120.77 74.6852 116.453 76.2212 113.132 79.2932C109.894 82.2822 108.275 86.9733 108.275 93.3664V125H88.8462Z" fill="#005669"/>
<path d="M0.336914 125V37.8208H38.0731C45.8777 37.8208 52.6029 39.1077 58.2488 41.6816C63.8947 44.1724 68.2537 47.7841 71.3257 52.5167C74.3977 57.2493 75.9337 62.8952 75.9337 69.4544C75.9337 75.9306 74.3977 81.535 71.3257 86.2675C68.2537 91.0001 63.8947 94.6533 58.2488 97.2272C52.6029 99.718 45.8777 100.963 38.0731 100.963H11.5457L20.5127 91.8719V125H0.336914ZM20.5127 94.1137L11.5457 84.5239H36.9522C43.1793 84.5239 47.8288 83.1955 50.9009 80.5386C53.9729 77.8817 55.5089 74.187 55.5089 69.4544C55.5089 64.6388 53.9729 60.9025 50.9009 58.2456C47.8288 55.5888 43.1793 54.2603 36.9522 54.2603H11.5457L20.5127 44.6706V94.1137Z" fill="#005669"/>
<path d="M525.149 251.997C519.42 251.997 513.898 251.332 508.585 250.004C503.354 248.592 499.202 246.849 496.13 244.773L502.607 230.825C505.679 232.734 509.29 234.312 513.442 235.557C517.676 236.719 521.827 237.301 525.896 237.301C530.379 237.301 533.534 236.761 535.361 235.682C537.271 234.602 538.225 233.108 538.225 231.198C538.225 229.621 537.478 228.458 535.984 227.711C534.572 226.881 532.663 226.258 530.255 225.843C527.847 225.428 525.19 225.013 522.284 224.597C519.461 224.182 516.597 223.643 513.691 222.978C510.785 222.231 508.128 221.152 505.72 219.74C503.312 218.329 501.361 216.419 499.867 214.011C498.455 211.604 497.749 208.49 497.749 204.671C497.749 200.436 498.953 196.7 501.361 193.462C503.852 190.224 507.422 187.692 512.072 185.865C516.721 183.955 522.284 183 528.76 183C533.327 183 537.976 183.499 542.709 184.495C547.442 185.491 551.385 186.944 554.54 188.854L548.064 202.678C544.826 200.768 541.547 199.482 538.225 198.817C534.987 198.07 531.832 197.696 528.76 197.696C524.443 197.696 521.288 198.278 519.295 199.44C517.302 200.602 516.306 202.097 516.306 203.923C516.306 205.584 517.012 206.829 518.423 207.66C519.918 208.49 521.869 209.154 524.277 209.652C526.685 210.151 529.3 210.607 532.123 211.022C535.029 211.354 537.935 211.894 540.841 212.641C543.747 213.389 546.362 214.468 548.687 215.88C551.095 217.208 553.046 219.076 554.54 221.484C556.035 223.809 556.782 226.881 556.782 230.7C556.782 234.851 555.537 238.546 553.046 241.784C550.555 244.939 546.943 247.43 542.211 249.257C537.561 251.083 531.874 251.997 525.149 251.997Z" fill="white"/>
<path d="M457.291 251.997C449.652 251.997 442.927 250.502 437.115 247.513C431.386 244.524 426.944 240.456 423.789 235.308C420.634 230.077 419.057 224.141 419.057 217.499C419.057 210.773 420.593 204.837 423.665 199.689C426.82 194.458 431.096 190.39 436.492 187.484C441.889 184.495 447.992 183 454.8 183C461.359 183 467.254 184.412 472.485 187.235C477.799 189.975 481.992 193.96 485.064 199.191C488.136 204.339 489.672 210.524 489.672 217.748C489.672 218.495 489.63 219.367 489.547 220.363C489.464 221.276 489.381 222.148 489.298 222.978H434.873V211.645H479.086L471.613 215.008C471.613 211.521 470.908 208.49 469.496 205.916C468.085 203.342 466.133 201.35 463.643 199.938C461.152 198.444 458.246 197.696 454.925 197.696C451.604 197.696 448.656 198.444 446.082 199.938C443.591 201.35 441.64 203.384 440.229 206.041C438.817 208.615 438.112 211.687 438.112 215.257V218.246C438.112 221.899 438.9 225.137 440.478 227.96C442.138 230.7 444.422 232.817 447.328 234.312C450.317 235.723 453.804 236.429 457.789 236.429C461.359 236.429 464.473 235.889 467.13 234.81C469.87 233.73 472.361 232.111 474.602 229.953L484.939 241.161C481.867 244.649 478.006 247.347 473.357 249.257C468.707 251.083 463.352 251.997 457.291 251.997Z" fill="white"/>
<path d="M383.689 251.997C376.465 251.997 370.031 250.544 364.385 247.638C358.739 244.649 354.297 240.539 351.059 235.308C347.904 230.077 346.326 224.141 346.326 217.499C346.326 210.773 347.904 204.837 351.059 199.689C354.297 194.458 358.739 190.39 364.385 187.484C370.031 184.495 376.465 183 383.689 183C390.746 183 396.89 184.495 402.121 187.484C407.352 190.39 411.212 194.583 413.703 200.063L398.634 208.158C396.89 205.003 394.69 202.678 392.033 201.184C389.459 199.689 386.636 198.942 383.564 198.942C380.243 198.942 377.254 199.689 374.597 201.184C371.94 202.678 369.823 204.795 368.246 207.535C366.751 210.275 366.004 213.596 366.004 217.499C366.004 221.401 366.751 224.722 368.246 227.462C369.823 230.202 371.94 232.319 374.597 233.814C377.254 235.308 380.243 236.055 383.564 236.055C386.636 236.055 389.459 235.35 392.033 233.938C394.69 232.444 396.89 230.077 398.634 226.839L413.703 235.059C411.212 240.456 407.352 244.649 402.121 247.638C396.89 250.544 390.746 251.997 383.689 251.997Z" fill="white"/>
<path d="M313.848 251V183.997H333.276V251H313.848ZM323.562 174.656C319.992 174.656 317.086 173.618 314.844 171.543C312.603 169.467 311.482 166.893 311.482 163.821C311.482 160.749 312.603 158.175 314.844 156.099C317.086 154.024 319.992 152.986 323.562 152.986C327.132 152.986 330.038 153.982 332.28 155.975C334.522 157.884 335.643 160.375 335.643 163.447C335.643 166.685 334.522 169.384 332.28 171.543C330.121 173.618 327.215 174.656 323.562 174.656Z" fill="white"/>
<path d="M257.598 251L229.452 183.997H249.503L272.917 241.66H262.953L287.239 183.997H305.92L277.649 251H257.598Z" fill="white"/>
<path d="M183.955 251V183.997H202.512V202.927L199.896 197.447C201.889 192.715 205.085 189.145 209.486 186.737C213.886 184.246 219.242 183 225.552 183V200.934C224.721 200.851 223.974 200.81 223.31 200.81C222.646 200.727 221.94 200.685 221.193 200.685C215.879 200.685 211.562 202.221 208.24 205.293C205.002 208.282 203.383 212.974 203.383 219.367V251H183.955Z" fill="white"/>
<path d="M138.639 251.997C131.001 251.997 124.275 250.502 118.463 247.513C112.734 244.524 108.292 240.456 105.137 235.308C101.982 230.077 100.405 224.141 100.405 217.499C100.405 210.773 101.941 204.837 105.013 199.689C108.168 194.458 112.444 190.39 117.841 187.484C123.237 184.495 129.34 183 136.148 183C142.707 183 148.602 184.412 153.833 187.235C159.147 189.975 163.34 193.96 166.412 199.191C169.484 204.339 171.02 210.524 171.02 217.748C171.02 218.495 170.978 219.367 170.895 220.363C170.812 221.276 170.729 222.148 170.646 222.978H116.222V211.645H160.434L152.961 215.008C152.961 211.521 152.256 208.49 150.844 205.916C149.433 203.342 147.482 201.35 144.991 199.938C142.5 198.444 139.594 197.696 136.273 197.696C132.952 197.696 130.004 198.444 127.43 199.938C124.94 201.35 122.988 203.384 121.577 206.041C120.165 208.615 119.46 211.687 119.46 215.257V218.246C119.46 221.899 120.248 225.137 121.826 227.96C123.487 230.7 125.77 232.817 128.676 234.312C131.665 235.723 135.152 236.429 139.137 236.429C142.707 236.429 145.821 235.889 148.478 234.81C151.218 233.73 153.709 232.111 155.95 229.953L166.287 241.161C163.215 244.649 159.355 247.347 154.705 249.257C150.055 251.083 144.7 251.997 138.639 251.997Z" fill="white"/>
<path d="M55.9815 252.495C49.0071 252.495 42.3234 251.581 35.9302 249.755C29.5371 247.845 24.3894 245.396 20.4871 242.407L27.3369 227.213C31.0731 229.87 35.4736 232.07 40.5383 233.813C45.686 235.474 50.8752 236.304 56.106 236.304C60.0913 236.304 63.2879 235.931 65.6957 235.183C68.1865 234.353 70.0132 233.232 71.1755 231.821C72.3379 230.409 72.9191 228.79 72.9191 226.964C72.9191 224.639 72.0058 222.812 70.1792 221.484C68.3526 220.072 65.9448 218.951 62.9558 218.121C59.9668 217.208 56.6457 216.378 52.9925 215.63C49.4223 214.8 45.8105 213.804 42.1573 212.641C38.5871 211.479 35.3075 209.984 32.3185 208.158C29.3295 206.331 26.8802 203.923 24.9706 200.934C23.144 197.945 22.2306 194.126 22.2306 189.477C22.2306 184.495 23.5591 179.97 26.216 175.901C28.9559 171.75 33.0243 168.47 38.4211 166.063C43.9009 163.572 50.7507 162.326 58.9705 162.326C64.4503 162.326 69.8471 162.991 75.1609 164.319C80.4747 165.564 85.1657 167.474 89.2341 170.048L83.007 185.367C78.9386 183.042 74.8703 181.34 70.8019 180.26C66.7336 179.098 62.7482 178.517 58.8459 178.517C54.9436 178.517 51.747 178.973 49.2562 179.887C46.7654 180.8 44.9803 182.004 43.9009 183.499C42.8215 184.91 42.2819 186.571 42.2819 188.48C42.2819 190.722 43.1952 192.549 45.0218 193.96C46.8484 195.288 49.2562 196.368 52.2452 197.198C55.2342 198.028 58.5138 198.859 62.084 199.689C65.7372 200.519 69.3489 201.474 72.9191 202.553C76.5724 203.633 79.8935 205.086 82.8825 206.912C85.8715 208.739 88.2793 211.147 90.1059 214.136C92.0155 217.125 92.9703 220.903 92.9703 225.469C92.9703 230.368 91.6004 234.851 88.8605 238.92C86.1206 242.988 82.0107 246.268 76.5308 248.758C71.134 251.249 64.2842 252.495 55.9815 252.495Z" fill="white"/>
<path fill-rule="evenodd" clip-rule="evenodd" d="M508.585 250.004C513.898 251.332 519.42 251.996 525.149 251.996C531.874 251.996 537.561 251.083 542.211 249.257C546.944 247.43 550.555 244.939 553.046 241.784C555.537 238.546 556.782 234.851 556.782 230.7C556.782 226.881 556.035 223.809 554.541 221.484C553.046 219.076 551.095 217.208 548.687 215.879C546.362 214.468 543.747 213.389 540.841 212.641C537.935 211.894 535.029 211.354 532.123 211.022C529.3 210.607 526.685 210.15 524.277 209.652C521.869 209.154 519.918 208.49 518.423 207.66C517.012 206.829 516.306 205.584 516.306 203.923C516.306 202.097 517.303 200.602 519.295 199.44C521.288 198.277 524.443 197.696 528.76 197.696C531.832 197.696 534.988 198.07 538.226 198.817C540.469 199.266 542.693 199.999 544.898 201.015C545.958 201.504 547.013 202.058 548.064 202.678L554.541 188.854C551.386 186.944 547.442 185.491 542.709 184.495C537.977 183.499 533.327 183 528.76 183C522.284 183 516.721 183.955 512.072 185.865C507.422 187.691 503.852 190.224 501.361 193.462C498.953 196.7 497.75 200.436 497.75 204.671C497.75 208.49 498.455 211.603 499.867 214.011C501.361 216.419 503.312 218.329 505.72 219.74C508.128 221.152 510.785 222.231 513.691 222.978C516.597 223.642 519.461 224.182 522.284 224.597C525.19 225.012 527.847 225.428 530.255 225.843C532.663 226.258 534.572 226.881 535.984 227.711C537.478 228.458 538.226 229.62 538.226 231.198C538.226 233.108 537.271 234.602 535.361 235.682C533.535 236.761 530.379 237.301 525.896 237.301C521.828 237.301 517.676 236.719 513.442 235.557C510.625 234.712 508.057 233.714 505.738 232.564C504.638 232.018 503.595 231.439 502.607 230.824L496.13 244.773C499.203 246.849 503.354 248.592 508.585 250.004ZM510.74 182.55C505.633 184.56 501.49 187.435 498.53 191.284L498.512 191.307L498.495 191.33C495.605 195.216 494.177 199.709 494.177 204.671C494.177 208.901 494.955 212.696 496.785 215.818L496.808 215.857L496.831 215.895C498.627 218.788 500.997 221.112 503.914 222.822C506.629 224.414 509.598 225.614 512.801 226.438L512.848 226.45L512.895 226.461C515.888 227.145 518.845 227.702 521.764 228.132L521.772 228.133L521.779 228.134C524.658 228.545 527.28 228.955 529.648 229.363C531.82 229.738 533.268 230.258 534.173 230.79L534.277 230.852L534.386 230.906C534.532 230.979 534.61 231.037 534.645 231.066C534.646 231.068 534.646 231.071 534.646 231.073C534.65 231.1 534.653 231.141 534.653 231.198C534.653 231.605 534.592 232.013 533.603 232.572L533.573 232.588L533.544 232.606C532.607 233.159 530.306 233.728 525.896 233.728C522.184 233.728 518.364 233.2 514.428 232.123C510.539 230.953 507.24 229.498 504.493 227.79L501.066 225.66L491.609 246.029L494.13 247.733C497.643 250.106 502.202 251.982 507.654 253.453L507.686 253.462L507.718 253.47C513.328 254.872 519.141 255.569 525.149 255.569C532.17 255.569 538.325 254.619 543.505 252.586C548.677 250.589 552.873 247.769 555.85 243.998L555.864 243.98L555.878 243.962C558.857 240.089 560.355 235.625 560.355 230.7C560.355 226.459 559.531 222.653 557.561 219.576C555.769 216.698 553.401 214.415 550.479 212.788C547.842 211.196 544.917 210.001 541.731 209.181C538.689 208.399 535.641 207.831 532.587 207.48C529.843 207.075 527.315 206.633 525.001 206.154C522.836 205.706 521.275 205.149 520.203 204.562C519.986 204.429 519.945 204.344 519.944 204.342C519.939 204.333 519.879 204.23 519.879 203.923V203.917C519.879 203.702 519.878 203.236 521.095 202.526C522.246 201.854 524.611 201.269 528.76 201.269C531.541 201.269 534.426 201.607 537.422 202.298L537.473 202.31L537.525 202.32C540.413 202.898 543.319 204.027 546.25 205.755L549.633 207.75L559.138 187.461L556.39 185.798C552.803 183.626 548.455 182.054 543.445 180.999C538.485 179.955 533.588 179.428 528.76 179.428C521.958 179.428 515.919 180.427 510.74 182.55Z" fill="#005566"/>
<path fill-rule="evenodd" clip-rule="evenodd" d="M437.115 247.513C442.927 250.502 449.653 251.996 457.291 251.996C463.352 251.996 468.707 251.083 473.357 249.257C478.007 247.347 481.867 244.649 484.939 241.161L474.602 229.953C474.336 230.209 474.067 230.457 473.794 230.698C471.766 232.488 469.545 233.858 467.13 234.81C464.473 235.889 461.359 236.429 457.789 236.429C453.804 236.429 450.317 235.723 447.328 234.312C444.422 232.817 442.139 230.7 440.478 227.96C440.222 227.501 439.986 227.031 439.771 226.551C439.267 225.42 438.877 224.23 438.602 222.978H489.298C489.381 222.148 489.464 221.276 489.547 220.363C489.63 219.367 489.672 218.495 489.672 217.748C489.672 210.524 488.136 204.339 485.064 199.191C481.992 193.96 477.799 189.975 472.485 187.235C467.254 184.412 461.359 183 454.8 183C447.992 183 441.889 184.495 436.493 187.484C431.096 190.39 426.82 194.458 423.665 199.689C420.593 204.837 419.057 210.773 419.057 217.498C419.057 224.141 420.634 230.077 423.789 235.308C426.944 240.456 431.386 244.524 437.115 247.513ZM439.3 208.073C438.883 209.186 438.576 210.377 438.378 211.645H471.374C471.353 211.505 471.331 211.366 471.307 211.228C471.118 210.119 470.84 209.067 470.475 208.073C470.199 207.321 469.873 206.602 469.496 205.916C468.085 203.342 466.134 201.35 463.643 199.938C461.152 198.444 458.246 197.696 454.925 197.696C451.604 197.696 448.656 198.444 446.082 199.938C443.591 201.35 441.64 203.384 440.229 206.041C439.875 206.687 439.565 207.364 439.3 208.073ZM466.593 208.073C466.519 207.924 466.443 207.778 466.364 207.634C465.263 205.626 463.78 204.122 461.881 203.046L461.843 203.024L461.805 203.001C459.945 201.885 457.693 201.269 454.925 201.269C452.159 201.269 449.844 201.885 447.876 203.027L447.86 203.037L447.844 203.046C445.975 204.105 444.493 205.628 443.384 207.717L443.373 207.738L443.361 207.758C443.305 207.862 443.249 207.966 443.195 208.073H466.593ZM474.152 184.075C468.355 180.953 461.877 179.428 454.8 179.428C447.458 179.428 440.756 181.043 434.781 184.348C428.831 187.556 424.089 192.069 420.606 197.844L420.601 197.851L420.597 197.858C417.156 203.625 415.484 210.209 415.484 217.498C415.484 224.732 417.21 231.317 420.73 237.153L420.737 237.164L420.744 237.175C424.261 242.913 429.202 247.414 435.463 250.68L435.472 250.685L435.482 250.69C441.878 253.979 449.18 255.569 457.291 255.569C463.706 255.569 469.519 254.602 474.663 252.582L474.689 252.572L474.714 252.561C479.829 250.46 484.156 247.455 487.62 243.523L489.749 241.107L476.325 226.551H492.531L492.853 223.334C492.937 222.492 493.021 221.609 493.105 220.686L493.106 220.673L493.107 220.66C493.196 219.595 493.244 218.62 493.244 217.748C493.244 210.016 491.598 203.173 488.137 197.37C484.735 191.581 480.058 187.127 474.152 184.075ZM472.985 226.551H443.812C445.084 228.484 446.764 229.994 448.908 231.107C451.322 232.235 454.251 232.856 457.789 232.856C461.008 232.856 463.646 232.369 465.785 231.5L465.803 231.493L465.821 231.486C468.101 230.588 470.2 229.233 472.124 227.379L472.985 226.551Z" fill="#005566"/>
<path fill-rule="evenodd" clip-rule="evenodd" d="M364.385 247.638C370.031 250.544 376.465 251.996 383.689 251.996C390.746 251.996 396.89 250.544 402.121 247.638C407.352 244.649 411.213 240.456 413.703 235.059L398.635 226.84L398.634 226.839C398.591 226.918 398.548 226.997 398.505 227.076C396.782 230.193 394.625 232.48 392.033 233.938C389.459 235.349 386.636 236.055 383.564 236.055C380.243 236.055 377.254 235.308 374.597 233.813C371.94 232.319 369.823 230.202 368.246 227.462C366.751 224.722 366.004 221.401 366.004 217.498C366.004 213.596 366.751 210.275 368.246 207.535C369.823 204.795 371.94 202.678 374.597 201.183C377.254 199.689 380.243 198.942 383.564 198.942C386.636 198.942 389.459 199.689 392.033 201.183C394.69 202.678 396.89 205.002 398.633 208.157C398.634 208.157 398.633 208.157 398.633 208.157L413.703 200.063C411.213 194.583 407.352 190.39 402.121 187.484C396.89 184.495 390.746 183 383.689 183C376.465 183 370.031 184.495 364.385 187.484C358.739 190.39 354.297 194.458 351.059 199.689C347.904 204.837 346.326 210.773 346.326 217.498C346.326 224.141 347.904 230.077 351.059 235.308C354.297 240.539 358.739 244.649 364.385 247.638ZM362.732 184.317C368.952 181.028 375.967 179.428 383.689 179.428C391.252 179.428 398.022 181.032 403.874 184.371C409.769 187.651 414.153 192.419 416.956 198.584L418.339 201.628L397.215 212.975L395.507 209.886C394.025 207.204 392.262 205.411 390.282 204.297L390.26 204.285L390.239 204.273C388.228 203.105 386.027 202.514 383.564 202.514C380.8 202.514 378.424 203.13 376.349 204.297C374.284 205.458 372.629 207.095 371.362 209.282C370.229 211.376 369.576 214.067 369.576 217.498C369.576 220.93 370.229 223.621 371.362 225.715C372.629 227.902 374.284 229.538 376.349 230.7C378.424 231.867 380.8 232.483 383.564 232.483C386.058 232.483 388.28 231.918 390.298 230.815C392.247 229.714 394.003 227.904 395.488 225.145L397.191 221.983L418.347 233.522L416.947 236.556C414.14 242.637 409.76 247.387 403.893 250.739L403.875 250.75L403.856 250.76C398.007 254.01 391.244 255.569 383.689 255.569C375.976 255.569 368.967 254.014 362.75 250.814L362.732 250.804L362.713 250.795C356.529 247.521 351.607 242.98 348.021 237.188L348.011 237.171L348 237.153C344.48 231.317 342.754 224.732 342.754 217.498C342.754 210.191 344.475 203.594 348.013 197.822L348.017 197.815L348.021 197.809C351.609 192.014 356.537 187.509 362.732 184.317Z" fill="#005566"/>
<path fill-rule="evenodd" clip-rule="evenodd" d="M310.276 254.572V180.424H336.849V254.572H310.276ZM334.758 174.116L334.756 174.118C331.792 176.968 327.924 178.228 323.562 178.228C319.254 178.228 315.429 176.953 312.417 174.164C309.441 171.408 307.909 167.882 307.909 163.821C307.909 159.76 309.441 156.234 312.417 153.478C315.429 150.689 319.254 149.413 323.562 149.413C327.819 149.413 331.614 150.616 334.626 153.28C337.684 155.898 339.215 159.393 339.215 163.447C339.215 167.612 337.73 171.254 334.758 174.116ZM332.28 155.975C330.039 153.982 327.133 152.986 323.562 152.986C319.992 152.986 317.086 154.024 314.844 156.099C312.603 158.175 311.482 160.749 311.482 163.821C311.482 166.893 312.603 169.467 314.844 171.542C317.086 173.618 319.992 174.656 323.562 174.656C327.216 174.656 330.122 173.618 332.28 171.542C334.522 169.384 335.643 166.685 335.643 163.447C335.643 160.375 334.522 157.884 332.28 155.975ZM313.848 251H333.277V183.997H313.848V251Z" fill="#005566"/>
<path fill-rule="evenodd" clip-rule="evenodd" d="M225.552 183.937L255.224 254.573H280.019L311.305 180.424H284.867L268.086 220.268L251.908 180.424H224.076L225.159 183.002C225.29 183.001 225.421 183 225.552 183V183.937ZM268.026 229.615L249.503 183.997H229.452L257.598 251H277.649L305.92 183.997H287.239L268.026 229.615Z" fill="#005566"/>
<path fill-rule="evenodd" clip-rule="evenodd" d="M183.955 183.997V251H203.383V219.367C203.383 212.973 205.003 208.282 208.241 205.293C211.562 202.221 215.879 200.685 221.193 200.685C221.46 200.685 221.723 200.691 221.98 200.701C222.44 200.72 222.884 200.757 223.31 200.81C223.974 200.81 224.722 200.851 225.552 200.934V183C224.325 183 223.134 183.047 221.98 183.142C217.195 183.532 213.031 184.73 209.486 186.737C208.258 187.408 207.124 188.171 206.084 189.023C204.736 190.128 203.545 191.385 202.512 192.794V183.997H183.955ZM206.084 184.608V180.424H180.383V254.573H206.956V219.367C206.956 213.515 208.437 209.974 210.664 207.918L210.666 207.916C213.214 205.559 216.611 204.258 221.193 204.258C221.809 204.258 222.366 204.292 222.867 204.355L223.088 204.382H223.31C223.83 204.382 224.456 204.415 225.196 204.489L229.124 204.882V179.428H225.552C218.786 179.428 212.799 180.763 207.749 183.615C207.177 183.929 206.622 184.26 206.084 184.608Z" fill="#005566"/>
<path fill-rule="evenodd" clip-rule="evenodd" d="M118.463 247.513C124.275 250.502 131.001 251.996 138.639 251.996C144.7 251.996 150.056 251.083 154.705 249.257C159.355 247.347 163.215 244.649 166.287 241.161L155.951 229.953C155.684 230.209 155.415 230.458 155.142 230.699C153.114 232.488 150.893 233.858 148.478 234.81C145.821 235.889 142.708 236.429 139.137 236.429C135.152 236.429 131.665 235.723 128.676 234.312C125.77 232.817 123.487 230.7 121.826 227.96C121.57 227.501 121.334 227.031 121.119 226.551C120.615 225.42 120.225 224.23 119.951 222.978H170.646C170.729 222.148 170.813 221.276 170.896 220.363C170.979 219.367 171.02 218.495 171.02 217.748C171.02 210.524 169.484 204.339 166.412 199.191C163.34 193.96 159.147 189.975 153.833 187.235C148.603 184.412 142.708 183 136.148 183C129.34 183 123.238 184.495 117.841 187.484C112.444 190.39 108.168 194.458 105.013 199.689C101.941 204.837 100.405 210.773 100.405 217.498C100.405 224.141 101.982 230.077 105.137 235.308C108.293 240.456 112.735 244.524 118.463 247.513ZM120.648 208.073C120.231 209.186 119.924 210.377 119.726 211.645H152.722C152.701 211.505 152.679 211.366 152.655 211.228C152.466 210.119 152.188 209.067 151.823 208.073C151.547 207.321 151.221 206.602 150.844 205.916C149.433 203.342 147.482 201.35 144.991 199.938C142.5 198.444 139.594 197.696 136.273 197.696C132.952 197.696 130.004 198.444 127.43 199.938C124.94 201.35 122.988 203.384 121.577 206.041C121.223 206.687 120.913 207.364 120.648 208.073ZM147.941 208.073C147.867 207.924 147.791 207.778 147.712 207.634C146.611 205.626 145.128 204.122 143.23 203.046L143.191 203.024L143.153 203.001C141.293 201.885 139.041 201.269 136.273 201.269C133.507 201.269 131.192 201.885 129.224 203.027L129.208 203.037L129.192 203.046C127.323 204.105 125.841 205.628 124.732 207.717L124.721 207.738L124.709 207.758C124.653 207.862 124.597 207.966 124.543 208.073H147.941ZM169.486 197.37C172.946 203.173 174.592 210.016 174.592 217.748C174.592 218.62 174.544 219.595 174.456 220.66L174.454 220.673L174.453 220.686C174.369 221.609 174.285 222.492 174.201 223.334L173.879 226.551H157.673L171.097 241.107L168.968 243.523C165.504 247.455 161.177 250.46 156.062 252.561L156.037 252.572L156.011 252.582C150.867 254.602 145.055 255.569 138.639 255.569C130.528 255.569 123.226 253.979 116.83 250.69L116.82 250.685L116.811 250.68C110.55 247.414 105.609 242.913 102.092 237.175L102.085 237.164L102.078 237.153C98.5584 231.317 96.8325 224.732 96.8325 217.498C96.8325 210.209 98.504 203.625 101.945 197.858L101.95 197.851L101.954 197.844C105.437 192.069 110.179 187.556 116.128 184.349C122.104 181.043 128.806 179.428 136.148 179.428C143.225 179.428 149.703 180.953 155.5 184.075C161.406 187.127 166.083 191.581 169.486 197.37ZM154.333 226.551H125.16C126.432 228.484 128.112 229.994 130.256 231.107C132.67 232.235 135.6 232.856 139.137 232.856C142.356 232.856 144.994 232.369 147.133 231.5L147.151 231.493L147.169 231.486C149.449 230.588 151.548 229.233 153.473 227.379L154.333 226.551Z" fill="#005566"/>
<path fill-rule="evenodd" clip-rule="evenodd" d="M35.9303 249.755C42.3235 251.581 49.0072 252.495 55.9816 252.495C64.2843 252.495 71.1341 251.249 76.5309 248.758C82.0108 246.267 86.1207 242.988 88.8606 238.919C91.6005 234.851 92.9705 230.368 92.9705 225.469C92.9705 220.902 92.0156 217.125 90.106 214.136C88.2794 211.147 85.8716 208.739 82.8826 206.912C79.8936 205.086 76.5725 203.633 72.9192 202.553C69.349 201.474 65.7373 200.519 62.0841 199.689C58.5139 198.859 55.2343 198.028 52.2453 197.198C49.2563 196.368 46.8485 195.288 45.0219 193.96C43.1953 192.548 42.282 190.722 42.282 188.48C42.282 186.57 42.8217 184.91 43.901 183.498C44.9804 182.004 46.7655 180.8 49.2563 179.887C51.7471 178.973 54.9437 178.517 58.846 178.517C62.7483 178.517 66.7337 179.098 70.802 180.26C73.8134 181.059 76.8248 182.199 79.8362 183.681C80.8932 184.201 81.9501 184.763 83.0071 185.367L89.2342 170.048C85.1658 167.474 80.4748 165.564 75.161 164.319C69.8472 162.991 64.4504 162.326 58.9706 162.326C50.7508 162.326 43.901 163.572 38.4212 166.063C33.0244 168.47 28.956 171.75 26.2161 175.901C23.5592 179.97 22.2308 184.495 22.2308 189.476C22.2308 194.126 23.1441 197.945 24.9707 200.934C26.8803 203.923 29.3296 206.331 32.3186 208.158C35.3076 209.984 38.5872 211.479 42.1574 212.641C45.8107 213.804 49.4224 214.8 52.9926 215.63C56.6458 216.377 59.9669 217.208 62.9559 218.121C65.9449 218.951 68.3527 220.072 70.1793 221.484C72.0059 222.812 72.9192 224.639 72.9192 226.963C72.9192 228.79 72.338 230.409 71.1757 231.821C70.0133 233.232 68.1867 234.353 65.6958 235.183C63.288 235.93 60.0914 236.304 56.1061 236.304C50.8754 236.304 45.6861 235.474 40.5384 233.813C36.7831 232.52 33.3929 230.977 30.3679 229.182C29.3132 228.556 28.3029 227.899 27.337 227.213L20.4872 242.407C24.3895 245.396 29.5372 247.845 35.9303 249.755ZM41.668 230.424C46.4627 231.967 51.2714 232.732 56.1061 232.732C59.8922 232.732 62.6775 232.373 64.602 231.782C66.6963 231.079 67.8332 230.26 68.418 229.55C69.0543 228.777 69.3468 227.961 69.3468 226.963C69.3468 225.742 68.9489 225.006 68.0781 224.373L68.0361 224.342L67.995 224.31C66.6364 223.261 64.6876 222.31 61.9998 221.563L61.9557 221.551L61.912 221.537C59.0491 220.663 55.8397 219.859 52.2767 219.13L52.2299 219.121L52.1834 219.11C48.5168 218.257 44.8137 217.235 41.0743 216.045L41.0629 216.042L41.0515 216.038C37.2351 214.796 33.699 213.188 30.4558 211.206C26.9978 209.093 24.1582 206.298 21.9602 202.858L21.941 202.828L21.9224 202.797C19.6582 199.092 18.6584 194.574 18.6584 189.476C18.6584 183.82 20.1788 178.613 23.225 173.948L23.2298 173.941L23.2345 173.934C26.413 169.118 31.0598 165.437 36.9545 162.805C43.0333 160.045 50.4219 158.754 58.9706 158.754C64.7336 158.754 70.4129 159.452 76.002 160.847C81.6422 162.171 86.7041 164.22 91.1442 167.029L93.6685 168.626L84.7792 190.494L81.2347 188.468C77.4054 186.28 73.6232 184.705 69.8859 183.713L69.8532 183.705L69.8206 183.695C66.0447 182.616 62.3897 182.089 58.846 182.089C55.1841 182.089 52.444 182.523 50.4861 183.241C48.3838 184.012 47.3134 184.875 46.7971 185.59L46.7685 185.63L46.7388 185.668C46.1725 186.409 45.8544 187.292 45.8544 188.48C45.8544 189.563 46.2148 190.353 47.1673 191.103C48.5438 192.093 50.51 193.008 53.2014 193.756C56.1314 194.57 59.3582 195.387 62.8841 196.207C66.6117 197.055 70.2977 198.029 73.9419 199.13C77.864 200.29 81.4714 201.863 84.7454 203.864C88.208 205.98 91.0159 208.784 93.1359 212.243C95.4907 215.944 96.5429 220.428 96.5429 225.469C96.5429 231.08 94.9602 236.258 91.8237 240.915C88.6406 245.641 83.9591 249.304 78.0188 252.006C72.0067 254.779 64.605 256.067 55.9816 256.067C48.6916 256.067 41.6765 255.112 34.9489 253.19L34.9284 253.184L34.9079 253.178C28.238 251.185 22.6606 248.571 18.3149 245.243L16.0664 243.52L25.8661 221.783L29.4073 224.301C32.8148 226.724 36.888 228.775 41.668 230.424Z" fill="#005566"/>
</svg>
