<svg width="1315" height="152" viewBox="0 0 1315 152" fill="none" xmlns="http://www.w3.org/2000/svg">
<path d="M10.8768 121V33.8208H48.6129C56.4175 33.8208 63.1428 35.1077 68.7887 37.6816C74.4346 40.1724 78.7935 43.7841 81.8655 48.5167C84.9376 53.2493 86.4736 58.8952 86.4736 65.4544C86.4736 71.9306 84.9376 77.5349 81.8655 82.2675C78.7935 87.0001 74.4346 90.6533 68.7887 93.2272C63.1428 95.718 56.4175 96.9634 48.6129 96.9634H22.0855L31.0525 87.8719V121H10.8768ZM31.0525 90.1137L22.0855 80.5239H47.492C53.7191 80.5239 58.3687 79.1955 61.4407 76.5386C64.5127 73.8817 66.0487 70.187 66.0487 65.4544C66.0487 60.6388 64.5127 56.9025 61.4407 54.2456C58.3687 51.5887 53.7191 50.2603 47.492 50.2603H22.0855L31.0525 40.6706V90.1137ZM99.386 121V53.9965H117.943V72.9269L115.327 67.4471C117.32 62.7145 120.517 59.1443 124.917 56.7365C129.318 54.2456 134.673 53.0002 140.983 53.0002V70.9342C140.153 70.8512 139.405 70.8097 138.741 70.8097C138.077 70.7267 137.371 70.6851 136.624 70.6851C131.31 70.6851 126.993 72.2212 123.672 75.2932C120.434 78.2822 118.815 82.9733 118.815 89.3664V121H99.386ZM183.931 121.996C176.791 121.996 170.439 120.502 164.876 117.513C159.397 114.524 155.038 110.455 151.8 105.308C148.645 100.077 147.067 94.1405 147.067 87.4983C147.067 80.773 148.645 74.8365 151.8 69.6888C155.038 64.4581 159.397 60.3897 164.876 57.4837C170.439 54.4947 176.791 53.0002 183.931 53.0002C190.989 53.0002 197.299 54.4947 202.862 57.4837C208.425 60.3897 212.784 64.4165 215.939 69.5643C219.094 74.712 220.671 80.69 220.671 87.4983C220.671 94.1405 219.094 100.077 215.939 105.308C212.784 110.455 208.425 114.524 202.862 117.513C197.299 120.502 190.989 121.996 183.931 121.996ZM183.931 106.055C187.169 106.055 190.075 105.308 192.649 103.813C195.223 102.319 197.257 100.202 198.752 97.4616C200.246 94.6387 200.994 91.3176 200.994 87.4983C200.994 83.596 200.246 80.2749 198.752 77.5349C197.257 74.795 195.223 72.6778 192.649 71.1833C190.075 69.6888 187.169 68.9416 183.931 68.9416C180.693 68.9416 177.787 69.6888 175.213 71.1833C172.64 72.6778 170.564 74.795 168.986 77.5349C167.492 80.2749 166.745 83.596 166.745 87.4983C166.745 91.3176 167.492 94.6387 168.986 97.4616C170.564 100.202 172.64 102.319 175.213 103.813C177.787 105.308 180.693 106.055 183.931 106.055ZM262.427 121.996C256.117 121.996 250.429 120.585 245.365 117.762C240.3 114.856 236.273 110.829 233.284 105.681C230.378 100.534 228.925 94.4726 228.925 87.4983C228.925 80.4409 230.378 74.3384 233.284 69.1906C236.273 64.0429 240.3 60.0576 245.365 57.2346C250.429 54.4117 256.117 53.0002 262.427 53.0002C268.073 53.0002 273.013 54.2456 277.247 56.7365C281.482 59.2273 284.761 63.0051 287.086 68.0698C289.411 73.1345 290.573 79.6106 290.573 87.4983C290.573 95.3029 289.452 101.779 287.211 106.927C284.969 111.991 281.731 115.769 277.496 118.26C273.345 120.751 268.322 121.996 262.427 121.996ZM265.789 106.055C268.944 106.055 271.809 105.308 274.383 103.813C276.957 102.319 278.991 100.202 280.485 97.4616C282.063 94.6387 282.852 91.3176 282.852 87.4983C282.852 83.596 282.063 80.2749 280.485 77.5349C278.991 74.795 276.957 72.6778 274.383 71.1833C271.809 69.6888 268.944 68.9416 265.789 68.9416C262.551 68.9416 259.645 69.6888 257.071 71.1833C254.498 72.6778 252.422 74.795 250.844 77.5349C249.35 80.2749 248.603 83.596 248.603 87.4983C248.603 91.3176 249.35 94.6387 250.844 97.4616C252.422 100.202 254.498 102.319 257.071 103.813C259.645 105.308 262.551 106.055 265.789 106.055ZM283.35 121V107.3L283.723 87.3737L282.478 67.5716V28.59H301.906V121H283.35ZM348.159 121.996C342.596 121.996 337.615 120.917 333.214 118.758C328.897 116.6 325.534 113.32 323.126 108.919C320.718 104.436 319.515 98.7485 319.515 91.8572V53.9965H338.943V88.9928C338.943 94.5556 340.105 98.6655 342.43 101.322C344.838 103.896 348.201 105.183 352.518 105.183C355.507 105.183 358.164 104.56 360.489 103.315C362.814 101.987 364.64 99.994 365.969 97.3371C367.297 94.5972 367.961 91.193 367.961 87.1246V53.9965H387.39V121H368.958V102.568L372.32 107.923C370.078 112.573 366.757 116.101 362.357 118.509C358.039 120.834 353.307 121.996 348.159 121.996ZM437.77 121.996C430.546 121.996 424.112 120.543 418.466 117.637C412.82 114.648 408.378 110.538 405.14 105.308C401.985 100.077 400.407 94.1405 400.407 87.4983C400.407 80.773 401.985 74.8365 405.14 69.6888C408.378 64.4581 412.82 60.3897 418.466 57.4837C424.112 54.4947 430.546 53.0002 437.77 53.0002C444.827 53.0002 450.971 54.4947 456.202 57.4837C461.433 60.3897 465.294 64.5826 467.784 70.0624L452.715 78.1576C450.971 75.0026 448.771 72.6778 446.114 71.1833C443.54 69.6888 440.717 68.9416 437.645 68.9416C434.324 68.9416 431.335 69.6888 428.678 71.1833C426.021 72.6778 423.904 74.795 422.327 77.5349C420.832 80.2749 420.085 83.596 420.085 87.4983C420.085 91.4006 420.832 94.7217 422.327 97.4616C423.904 100.202 426.021 102.319 428.678 103.813C431.335 105.308 434.324 106.055 437.645 106.055C440.717 106.055 443.54 105.349 446.114 103.938C448.771 102.443 450.971 100.077 452.715 96.8389L467.784 105.059C465.294 110.455 461.433 114.648 456.202 117.637C450.971 120.543 444.827 121.996 437.77 121.996ZM507.343 121.996C499.455 121.996 493.311 120.004 488.911 116.018C484.51 111.95 482.31 105.93 482.31 97.9598V39.1761H501.739V97.7107C501.739 100.534 502.486 102.734 503.98 104.311C505.475 105.806 507.509 106.553 510.083 106.553C513.155 106.553 515.77 105.723 517.929 104.062L523.16 117.762C521.167 119.173 518.759 120.253 515.936 121C513.196 121.664 510.332 121.996 507.343 121.996ZM471.973 70.4361V55.491H518.427V70.4361H471.973ZM556.608 121.996C550.879 121.996 545.358 121.332 540.044 120.004C534.813 118.592 530.662 116.849 527.59 114.773L534.066 100.824C537.138 102.734 540.75 104.311 544.901 105.557C549.135 106.719 553.287 107.3 557.355 107.3C561.839 107.3 564.994 106.761 566.82 105.681C568.73 104.602 569.685 103.108 569.685 101.198C569.685 99.6203 568.938 98.4579 567.443 97.7107C566.032 96.8804 564.122 96.2577 561.714 95.8426C559.306 95.4274 556.649 95.0123 553.743 94.5972C550.921 94.182 548.056 93.6423 545.15 92.9781C542.244 92.2309 539.587 91.1515 537.179 89.74C534.772 88.3286 532.82 86.4189 531.326 84.0111C529.914 81.6033 529.209 78.4898 529.209 74.6705C529.209 70.4361 530.413 66.6998 532.82 63.4617C535.311 60.2236 538.881 57.6913 543.531 55.8647C548.181 53.955 553.743 53.0002 560.22 53.0002C564.786 53.0002 569.436 53.4984 574.168 54.4947C578.901 55.491 582.845 56.944 586 58.8537L579.524 72.6778C576.286 70.7682 573.006 69.4812 569.685 68.817C566.447 68.0698 563.292 67.6961 560.22 67.6961C555.902 67.6961 552.747 68.2773 550.754 69.4397C548.762 70.6021 547.765 72.0966 547.765 73.9232C547.765 75.5838 548.471 76.8292 549.883 77.6595C551.377 78.4898 553.328 79.154 555.736 79.6521C558.144 80.1503 560.759 80.607 563.582 81.0221C566.488 81.3542 569.394 81.8939 572.3 82.6411C575.206 83.3884 577.822 84.4678 580.146 85.8792C582.554 87.2077 584.505 89.0758 586 91.4836C587.494 93.8084 588.242 96.8804 588.242 100.7C588.242 104.851 586.996 108.546 584.505 111.784C582.014 114.939 578.403 117.43 573.67 119.256C569.021 121.083 563.333 121.996 556.608 121.996Z" fill="#005669"/>
<mask id="path-2-outside-1_22_146" maskUnits="userSpaceOnUse" x="633.051" y="19" width="669" height="109" fill="black">
<rect fill="white" x="633.051" y="19" width="669" height="109"/>
<path d="M670.058 122.495C663.665 122.495 657.977 121.457 652.996 119.381C648.014 117.305 644.07 114.482 641.164 110.912C638.258 107.342 636.805 103.232 636.805 98.5825C636.805 94.265 637.76 90.4042 639.67 87.0001C641.579 83.5129 644.61 80.2749 648.761 77.2859C652.913 74.2138 658.185 71.2248 664.578 68.3188C669.228 66.1601 672.881 64.2505 675.538 62.5899C678.195 60.9294 680.063 59.3518 681.142 57.8573C682.221 56.2798 682.761 54.7023 682.761 53.1248C682.761 50.966 682.014 49.2224 680.519 47.894C679.108 46.5656 676.991 45.9013 674.168 45.9013C671.179 45.9013 668.854 46.6486 667.193 48.1431C665.533 49.6376 664.703 51.5472 664.703 53.872C664.703 55.1174 664.952 56.3628 665.45 57.6083C665.948 58.7706 666.903 60.1406 668.314 61.7181C669.726 63.2126 671.718 65.1638 674.292 67.5716L720.248 110.165L709.662 122.495L658.974 75.4177C656.068 72.7608 653.743 70.27 651.999 67.9452C650.256 65.6204 648.969 63.3372 648.138 61.0954C647.391 58.8537 647.018 56.5289 647.018 54.1211C647.018 49.8867 648.138 46.1504 650.38 42.9123C652.622 39.6743 655.777 37.1834 659.845 35.4398C663.914 33.6132 668.688 32.6999 674.168 32.6999C679.232 32.6999 683.591 33.5302 687.245 35.1908C690.981 36.7683 693.887 39.0515 695.963 42.0405C698.121 45.0295 699.201 48.5997 699.201 52.7511C699.201 56.4044 698.287 59.767 696.461 62.839C694.634 65.828 691.77 68.651 687.867 71.3078C684.048 73.9647 679.025 76.6631 672.798 79.4031C668.563 81.3127 665.201 83.1808 662.71 85.0074C660.302 86.751 658.558 88.5361 657.479 90.3627C656.4 92.1893 655.86 94.2235 655.86 96.4653C655.86 98.541 656.483 100.409 657.728 102.07C659.057 103.73 660.883 105.017 663.208 105.93C665.533 106.844 668.273 107.3 671.428 107.3C676.492 107.3 681.142 106.138 685.376 103.813C689.611 101.405 693.181 97.8768 696.087 93.2272C699.076 88.4946 701.193 82.7657 702.439 76.0404L718.006 80.8976C716.263 89.3664 713.149 96.7144 708.666 102.941C704.182 109.169 698.661 113.984 692.102 117.388C685.543 120.792 678.195 122.495 670.058 122.495ZM797.183 122.495C790.208 122.495 783.525 121.581 777.132 119.755C770.738 117.845 765.591 115.396 761.688 112.407L768.538 97.2125C772.274 99.8694 776.675 102.07 781.74 103.813C786.887 105.474 792.077 106.304 797.307 106.304C801.293 106.304 804.489 105.93 806.897 105.183C809.388 104.353 811.215 103.232 812.377 101.821C813.539 100.409 814.121 98.7901 814.121 96.9634C814.121 94.6387 813.207 92.8121 811.381 91.4836C809.554 90.0721 807.146 88.9513 804.157 88.121C801.168 87.2077 797.847 86.3774 794.194 85.6301C790.624 84.7999 787.012 83.8035 783.359 82.6411C779.788 81.4788 776.509 79.9843 773.52 78.1576C770.531 76.331 768.082 73.9232 766.172 70.9342C764.345 67.9452 763.432 64.1259 763.432 59.4764C763.432 54.4947 764.76 49.9697 767.417 45.9013C770.157 41.7499 774.226 38.4703 779.622 36.0625C785.102 33.5717 791.952 32.3263 800.172 32.3263C805.652 32.3263 811.048 32.9905 816.362 34.319C821.676 35.5644 826.367 37.474 830.435 40.0479L824.208 55.3665C820.14 53.0417 816.072 51.3397 812.003 50.2603C807.935 49.0979 803.95 48.5167 800.047 48.5167C796.145 48.5167 792.948 48.9734 790.458 49.8867C787.967 50.8 786.182 52.0039 785.102 53.4984C784.023 54.9099 783.483 56.5704 783.483 58.48C783.483 60.7218 784.397 62.5484 786.223 63.9599C788.05 65.2883 790.458 66.3677 793.447 67.198C796.436 68.0283 799.715 68.8585 803.285 69.6888C806.939 70.5191 810.55 71.4739 814.121 72.5533C817.774 73.6326 821.095 75.0856 824.084 76.9122C827.073 78.7388 829.481 81.1466 831.307 84.1356C833.217 87.1246 834.172 90.9024 834.172 95.4689C834.172 100.368 832.802 104.851 830.062 108.919C827.322 112.988 823.212 116.267 817.732 118.758C812.335 121.249 805.486 122.495 797.183 122.495ZM879.841 121.996C872.202 121.996 865.477 120.502 859.665 117.513C853.936 114.524 849.494 110.455 846.339 105.308C843.184 100.077 841.606 94.1405 841.606 87.4983C841.606 80.773 843.142 74.8365 846.214 69.6888C849.369 64.4581 853.645 60.3897 859.042 57.4837C864.439 54.4947 870.541 53.0002 877.35 53.0002C883.909 53.0002 889.804 54.4117 895.035 57.2346C900.348 59.9746 904.541 63.9599 907.613 69.1906C910.685 74.3384 912.221 80.5239 912.221 87.7474C912.221 88.4946 912.18 89.3664 912.097 90.3627C912.014 91.276 911.931 92.1478 911.848 92.9781H857.423V81.6448H901.635L894.163 85.0074C894.163 81.5203 893.457 78.4898 892.046 75.9159C890.634 73.342 888.683 71.3494 886.192 69.9379C883.701 68.4434 880.795 67.6961 877.474 67.6961C874.153 67.6961 871.206 68.4434 868.632 69.9379C866.141 71.3494 864.19 73.3835 862.778 76.0404C861.367 78.6143 860.661 81.6863 860.661 85.2565V88.2455C860.661 91.8987 861.45 95.1368 863.027 97.9598C864.688 100.7 866.971 102.817 869.877 104.311C872.866 105.723 876.353 106.429 880.339 106.429C883.909 106.429 887.022 105.889 889.679 104.81C892.419 103.73 894.91 102.111 897.152 99.9524L907.489 111.161C904.417 114.648 900.556 117.347 895.906 119.256C891.257 121.083 885.902 121.996 879.841 121.996ZM925.156 121V53.9965H943.713V72.9269L941.098 67.4471C943.09 62.7145 946.287 59.1443 950.687 56.7365C955.088 54.2456 960.443 53.0002 966.753 53.0002V70.9342C965.923 70.8512 965.176 70.8097 964.511 70.8097C963.847 70.7267 963.142 70.6851 962.394 70.6851C957.08 70.6851 952.763 72.2212 949.442 75.2932C946.204 78.2822 944.585 82.9733 944.585 89.3664V121H925.156ZM998.799 121L970.653 53.9965H990.704L1014.12 111.659H1004.15L1028.44 53.9965H1047.12L1018.85 121H998.799ZM1055.05 121V53.9965H1074.48V121H1055.05ZM1064.76 44.6559C1061.19 44.6559 1058.29 43.6181 1056.05 41.5424C1053.8 39.4667 1052.68 36.8928 1052.68 33.8208C1052.68 30.7488 1053.8 28.1749 1056.05 26.0992C1058.29 24.0235 1061.19 22.9857 1064.76 22.9857C1068.33 22.9857 1071.24 23.982 1073.48 25.9747C1075.72 27.8843 1076.84 30.3751 1076.84 33.4472C1076.84 36.6852 1075.72 39.3837 1073.48 41.5424C1071.32 43.6181 1068.42 44.6559 1064.76 44.6559ZM1124.89 121.996C1117.67 121.996 1111.23 120.543 1105.59 117.637C1099.94 114.648 1095.5 110.538 1092.26 105.308C1089.11 100.077 1087.53 94.1405 1087.53 87.4983C1087.53 80.773 1089.11 74.8365 1092.26 69.6888C1095.5 64.4581 1099.94 60.3897 1105.59 57.4837C1111.23 54.4947 1117.67 53.0002 1124.89 53.0002C1131.95 53.0002 1138.09 54.4947 1143.32 57.4837C1148.55 60.3897 1152.41 64.5826 1154.9 70.0624L1139.84 78.1576C1138.09 75.0026 1135.89 72.6778 1133.23 71.1833C1130.66 69.6888 1127.84 68.9416 1124.77 68.9416C1121.44 68.9416 1118.46 69.6888 1115.8 71.1833C1113.14 72.6778 1111.02 74.795 1109.45 77.5349C1107.95 80.2749 1107.21 83.596 1107.21 87.4983C1107.21 91.4006 1107.95 94.7217 1109.45 97.4616C1111.02 100.202 1113.14 102.319 1115.8 103.813C1118.46 105.308 1121.44 106.055 1124.77 106.055C1127.84 106.055 1130.66 105.349 1133.23 103.938C1135.89 102.443 1138.09 100.077 1139.84 96.8389L1154.9 105.059C1152.41 110.455 1148.55 114.648 1143.32 117.637C1138.09 120.543 1131.95 121.996 1124.89 121.996ZM1198.49 121.996C1190.85 121.996 1184.13 120.502 1178.32 117.513C1172.59 114.524 1168.15 110.455 1164.99 105.308C1161.84 100.077 1160.26 94.1405 1160.26 87.4983C1160.26 80.773 1161.79 74.8365 1164.87 69.6888C1168.02 64.4581 1172.3 60.3897 1177.69 57.4837C1183.09 54.4947 1189.19 53.0002 1196 53.0002C1202.56 53.0002 1208.46 54.4117 1213.69 57.2346C1219 59.9746 1223.19 63.9599 1226.27 69.1906C1229.34 74.3384 1230.87 80.5239 1230.87 87.7474C1230.87 88.4946 1230.83 89.3664 1230.75 90.3627C1230.67 91.276 1230.58 92.1478 1230.5 92.9781H1176.07V81.6448H1220.29L1212.81 85.0074C1212.81 81.5203 1212.11 78.4898 1210.7 75.9159C1209.29 73.342 1207.33 71.3494 1204.84 69.9379C1202.35 68.4434 1199.45 67.6961 1196.13 67.6961C1192.8 67.6961 1189.86 68.4434 1187.28 69.9379C1184.79 71.3494 1182.84 73.3835 1181.43 76.0404C1180.02 78.6143 1179.31 81.6863 1179.31 85.2565V88.2455C1179.31 91.8987 1180.1 95.1368 1181.68 97.9598C1183.34 100.7 1185.62 102.817 1188.53 104.311C1191.52 105.723 1195.01 106.429 1198.99 106.429C1202.56 106.429 1205.67 105.889 1208.33 104.81C1211.07 103.73 1213.56 102.111 1215.8 99.9524L1226.14 111.161C1223.07 114.648 1219.21 117.347 1214.56 119.256C1209.91 121.083 1204.55 121.996 1198.49 121.996ZM1266.35 121.996C1260.62 121.996 1255.1 121.332 1249.79 120.004C1244.56 118.592 1240.4 116.849 1237.33 114.773L1243.81 100.824C1246.88 102.734 1250.49 104.311 1254.64 105.557C1258.88 106.719 1263.03 107.3 1267.1 107.3C1271.58 107.3 1274.74 106.761 1276.56 105.681C1278.47 104.602 1279.43 103.108 1279.43 101.198C1279.43 99.6203 1278.68 98.4579 1277.19 97.7107C1275.77 96.8804 1273.86 96.2577 1271.46 95.8426C1269.05 95.4274 1266.39 95.0123 1263.49 94.5972C1260.66 94.182 1257.8 93.6423 1254.89 92.9781C1251.99 92.2309 1249.33 91.1515 1246.92 89.74C1244.51 88.3286 1242.56 86.4189 1241.07 84.0111C1239.66 81.6033 1238.95 78.4898 1238.95 74.6705C1238.95 70.4361 1240.15 66.6998 1242.56 63.4617C1245.05 60.2236 1248.62 57.6913 1253.27 55.8647C1257.92 53.955 1263.49 53.0002 1269.96 53.0002C1274.53 53.0002 1279.18 53.4984 1283.91 54.4947C1288.64 55.491 1292.59 56.944 1295.74 58.8537L1289.27 72.6778C1286.03 70.7682 1282.75 69.4812 1279.43 68.817C1276.19 68.0698 1273.03 67.6961 1269.96 67.6961C1265.64 67.6961 1262.49 68.2773 1260.5 69.4397C1258.5 70.6021 1257.51 72.0966 1257.51 73.9232C1257.51 75.5838 1258.21 76.8292 1259.62 77.6595C1261.12 78.4898 1263.07 79.154 1265.48 79.6521C1267.89 80.1503 1270.5 80.607 1273.32 81.0221C1276.23 81.3542 1279.14 81.8939 1282.04 82.6411C1284.95 83.3884 1287.56 84.4678 1289.89 85.8792C1292.3 87.2077 1294.25 89.0758 1295.74 91.4836C1297.24 93.8084 1297.98 96.8804 1297.98 100.7C1297.98 104.851 1296.74 108.546 1294.25 111.784C1291.76 114.939 1288.14 117.43 1283.41 119.256C1278.76 121.083 1273.08 121.996 1266.35 121.996Z"/>
</mask>
<path d="M670.058 122.495C663.665 122.495 657.977 121.457 652.996 119.381C648.014 117.305 644.07 114.482 641.164 110.912C638.258 107.342 636.805 103.232 636.805 98.5825C636.805 94.265 637.76 90.4042 639.67 87.0001C641.579 83.5129 644.61 80.2749 648.761 77.2859C652.913 74.2138 658.185 71.2248 664.578 68.3188C669.228 66.1601 672.881 64.2505 675.538 62.5899C678.195 60.9294 680.063 59.3518 681.142 57.8573C682.221 56.2798 682.761 54.7023 682.761 53.1248C682.761 50.966 682.014 49.2224 680.519 47.894C679.108 46.5656 676.991 45.9013 674.168 45.9013C671.179 45.9013 668.854 46.6486 667.193 48.1431C665.533 49.6376 664.703 51.5472 664.703 53.872C664.703 55.1174 664.952 56.3628 665.45 57.6083C665.948 58.7706 666.903 60.1406 668.314 61.7181C669.726 63.2126 671.718 65.1638 674.292 67.5716L720.248 110.165L709.662 122.495L658.974 75.4177C656.068 72.7608 653.743 70.27 651.999 67.9452C650.256 65.6204 648.969 63.3372 648.138 61.0954C647.391 58.8537 647.018 56.5289 647.018 54.1211C647.018 49.8867 648.138 46.1504 650.38 42.9123C652.622 39.6743 655.777 37.1834 659.845 35.4398C663.914 33.6132 668.688 32.6999 674.168 32.6999C679.232 32.6999 683.591 33.5302 687.245 35.1908C690.981 36.7683 693.887 39.0515 695.963 42.0405C698.121 45.0295 699.201 48.5997 699.201 52.7511C699.201 56.4044 698.287 59.767 696.461 62.839C694.634 65.828 691.77 68.651 687.867 71.3078C684.048 73.9647 679.025 76.6631 672.798 79.4031C668.563 81.3127 665.201 83.1808 662.71 85.0074C660.302 86.751 658.558 88.5361 657.479 90.3627C656.4 92.1893 655.86 94.2235 655.86 96.4653C655.86 98.541 656.483 100.409 657.728 102.07C659.057 103.73 660.883 105.017 663.208 105.93C665.533 106.844 668.273 107.3 671.428 107.3C676.492 107.3 681.142 106.138 685.376 103.813C689.611 101.405 693.181 97.8768 696.087 93.2272C699.076 88.4946 701.193 82.7657 702.439 76.0404L718.006 80.8976C716.263 89.3664 713.149 96.7144 708.666 102.941C704.182 109.169 698.661 113.984 692.102 117.388C685.543 120.792 678.195 122.495 670.058 122.495ZM797.183 122.495C790.208 122.495 783.525 121.581 777.132 119.755C770.738 117.845 765.591 115.396 761.688 112.407L768.538 97.2125C772.274 99.8694 776.675 102.07 781.74 103.813C786.887 105.474 792.077 106.304 797.307 106.304C801.293 106.304 804.489 105.93 806.897 105.183C809.388 104.353 811.215 103.232 812.377 101.821C813.539 100.409 814.121 98.7901 814.121 96.9634C814.121 94.6387 813.207 92.8121 811.381 91.4836C809.554 90.0721 807.146 88.9513 804.157 88.121C801.168 87.2077 797.847 86.3774 794.194 85.6301C790.624 84.7999 787.012 83.8035 783.359 82.6411C779.788 81.4788 776.509 79.9843 773.52 78.1576C770.531 76.331 768.082 73.9232 766.172 70.9342C764.345 67.9452 763.432 64.1259 763.432 59.4764C763.432 54.4947 764.76 49.9697 767.417 45.9013C770.157 41.7499 774.226 38.4703 779.622 36.0625C785.102 33.5717 791.952 32.3263 800.172 32.3263C805.652 32.3263 811.048 32.9905 816.362 34.319C821.676 35.5644 826.367 37.474 830.435 40.0479L824.208 55.3665C820.14 53.0417 816.072 51.3397 812.003 50.2603C807.935 49.0979 803.95 48.5167 800.047 48.5167C796.145 48.5167 792.948 48.9734 790.458 49.8867C787.967 50.8 786.182 52.0039 785.102 53.4984C784.023 54.9099 783.483 56.5704 783.483 58.48C783.483 60.7218 784.397 62.5484 786.223 63.9599C788.05 65.2883 790.458 66.3677 793.447 67.198C796.436 68.0283 799.715 68.8585 803.285 69.6888C806.939 70.5191 810.55 71.4739 814.121 72.5533C817.774 73.6326 821.095 75.0856 824.084 76.9122C827.073 78.7388 829.481 81.1466 831.307 84.1356C833.217 87.1246 834.172 90.9024 834.172 95.4689C834.172 100.368 832.802 104.851 830.062 108.919C827.322 112.988 823.212 116.267 817.732 118.758C812.335 121.249 805.486 122.495 797.183 122.495ZM879.841 121.996C872.202 121.996 865.477 120.502 859.665 117.513C853.936 114.524 849.494 110.455 846.339 105.308C843.184 100.077 841.606 94.1405 841.606 87.4983C841.606 80.773 843.142 74.8365 846.214 69.6888C849.369 64.4581 853.645 60.3897 859.042 57.4837C864.439 54.4947 870.541 53.0002 877.35 53.0002C883.909 53.0002 889.804 54.4117 895.035 57.2346C900.348 59.9746 904.541 63.9599 907.613 69.1906C910.685 74.3384 912.221 80.5239 912.221 87.7474C912.221 88.4946 912.18 89.3664 912.097 90.3627C912.014 91.276 911.931 92.1478 911.848 92.9781H857.423V81.6448H901.635L894.163 85.0074C894.163 81.5203 893.457 78.4898 892.046 75.9159C890.634 73.342 888.683 71.3494 886.192 69.9379C883.701 68.4434 880.795 67.6961 877.474 67.6961C874.153 67.6961 871.206 68.4434 868.632 69.9379C866.141 71.3494 864.19 73.3835 862.778 76.0404C861.367 78.6143 860.661 81.6863 860.661 85.2565V88.2455C860.661 91.8987 861.45 95.1368 863.027 97.9598C864.688 100.7 866.971 102.817 869.877 104.311C872.866 105.723 876.353 106.429 880.339 106.429C883.909 106.429 887.022 105.889 889.679 104.81C892.419 103.73 894.91 102.111 897.152 99.9524L907.489 111.161C904.417 114.648 900.556 117.347 895.906 119.256C891.257 121.083 885.902 121.996 879.841 121.996ZM925.156 121V53.9965H943.713V72.9269L941.098 67.4471C943.09 62.7145 946.287 59.1443 950.687 56.7365C955.088 54.2456 960.443 53.0002 966.753 53.0002V70.9342C965.923 70.8512 965.176 70.8097 964.511 70.8097C963.847 70.7267 963.142 70.6851 962.394 70.6851C957.08 70.6851 952.763 72.2212 949.442 75.2932C946.204 78.2822 944.585 82.9733 944.585 89.3664V121H925.156ZM998.799 121L970.653 53.9965H990.704L1014.12 111.659H1004.15L1028.44 53.9965H1047.12L1018.85 121H998.799ZM1055.05 121V53.9965H1074.48V121H1055.05ZM1064.76 44.6559C1061.19 44.6559 1058.29 43.6181 1056.05 41.5424C1053.8 39.4667 1052.68 36.8928 1052.68 33.8208C1052.68 30.7488 1053.8 28.1749 1056.05 26.0992C1058.29 24.0235 1061.19 22.9857 1064.76 22.9857C1068.33 22.9857 1071.24 23.982 1073.48 25.9747C1075.72 27.8843 1076.84 30.3751 1076.84 33.4472C1076.84 36.6852 1075.72 39.3837 1073.48 41.5424C1071.32 43.6181 1068.42 44.6559 1064.76 44.6559ZM1124.89 121.996C1117.67 121.996 1111.23 120.543 1105.59 117.637C1099.94 114.648 1095.5 110.538 1092.26 105.308C1089.11 100.077 1087.53 94.1405 1087.53 87.4983C1087.53 80.773 1089.11 74.8365 1092.26 69.6888C1095.5 64.4581 1099.94 60.3897 1105.59 57.4837C1111.23 54.4947 1117.67 53.0002 1124.89 53.0002C1131.95 53.0002 1138.09 54.4947 1143.32 57.4837C1148.55 60.3897 1152.41 64.5826 1154.9 70.0624L1139.84 78.1576C1138.09 75.0026 1135.89 72.6778 1133.23 71.1833C1130.66 69.6888 1127.84 68.9416 1124.77 68.9416C1121.44 68.9416 1118.46 69.6888 1115.8 71.1833C1113.14 72.6778 1111.02 74.795 1109.45 77.5349C1107.95 80.2749 1107.21 83.596 1107.21 87.4983C1107.21 91.4006 1107.95 94.7217 1109.45 97.4616C1111.02 100.202 1113.14 102.319 1115.8 103.813C1118.46 105.308 1121.44 106.055 1124.77 106.055C1127.84 106.055 1130.66 105.349 1133.23 103.938C1135.89 102.443 1138.09 100.077 1139.84 96.8389L1154.9 105.059C1152.41 110.455 1148.55 114.648 1143.32 117.637C1138.09 120.543 1131.95 121.996 1124.89 121.996ZM1198.49 121.996C1190.85 121.996 1184.13 120.502 1178.32 117.513C1172.59 114.524 1168.15 110.455 1164.99 105.308C1161.84 100.077 1160.26 94.1405 1160.26 87.4983C1160.26 80.773 1161.79 74.8365 1164.87 69.6888C1168.02 64.4581 1172.3 60.3897 1177.69 57.4837C1183.09 54.4947 1189.19 53.0002 1196 53.0002C1202.56 53.0002 1208.46 54.4117 1213.69 57.2346C1219 59.9746 1223.19 63.9599 1226.27 69.1906C1229.34 74.3384 1230.87 80.5239 1230.87 87.7474C1230.87 88.4946 1230.83 89.3664 1230.75 90.3627C1230.67 91.276 1230.58 92.1478 1230.5 92.9781H1176.07V81.6448H1220.29L1212.81 85.0074C1212.81 81.5203 1212.11 78.4898 1210.7 75.9159C1209.29 73.342 1207.33 71.3494 1204.84 69.9379C1202.35 68.4434 1199.45 67.6961 1196.13 67.6961C1192.8 67.6961 1189.86 68.4434 1187.28 69.9379C1184.79 71.3494 1182.84 73.3835 1181.43 76.0404C1180.02 78.6143 1179.31 81.6863 1179.31 85.2565V88.2455C1179.31 91.8987 1180.1 95.1368 1181.68 97.9598C1183.34 100.7 1185.62 102.817 1188.53 104.311C1191.52 105.723 1195.01 106.429 1198.99 106.429C1202.56 106.429 1205.67 105.889 1208.33 104.81C1211.07 103.73 1213.56 102.111 1215.8 99.9524L1226.14 111.161C1223.07 114.648 1219.21 117.347 1214.56 119.256C1209.91 121.083 1204.55 121.996 1198.49 121.996ZM1266.35 121.996C1260.62 121.996 1255.1 121.332 1249.79 120.004C1244.56 118.592 1240.4 116.849 1237.33 114.773L1243.81 100.824C1246.88 102.734 1250.49 104.311 1254.64 105.557C1258.88 106.719 1263.03 107.3 1267.1 107.3C1271.58 107.3 1274.74 106.761 1276.56 105.681C1278.47 104.602 1279.43 103.108 1279.43 101.198C1279.43 99.6203 1278.68 98.4579 1277.19 97.7107C1275.77 96.8804 1273.86 96.2577 1271.46 95.8426C1269.05 95.4274 1266.39 95.0123 1263.49 94.5972C1260.66 94.182 1257.8 93.6423 1254.89 92.9781C1251.99 92.2309 1249.33 91.1515 1246.92 89.74C1244.51 88.3286 1242.56 86.4189 1241.07 84.0111C1239.66 81.6033 1238.95 78.4898 1238.95 74.6705C1238.95 70.4361 1240.15 66.6998 1242.56 63.4617C1245.05 60.2236 1248.62 57.6913 1253.27 55.8647C1257.92 53.955 1263.49 53.0002 1269.96 53.0002C1274.53 53.0002 1279.18 53.4984 1283.91 54.4947C1288.64 55.491 1292.59 56.944 1295.74 58.8537L1289.27 72.6778C1286.03 70.7682 1282.75 69.4812 1279.43 68.817C1276.19 68.0698 1273.03 67.6961 1269.96 67.6961C1265.64 67.6961 1262.49 68.2773 1260.5 69.4397C1258.5 70.6021 1257.51 72.0966 1257.51 73.9232C1257.51 75.5838 1258.21 76.8292 1259.62 77.6595C1261.12 78.4898 1263.07 79.154 1265.48 79.6521C1267.89 80.1503 1270.5 80.607 1273.32 81.0221C1276.23 81.3542 1279.14 81.8939 1282.04 82.6411C1284.95 83.3884 1287.56 84.4678 1289.89 85.8792C1292.3 87.2077 1294.25 89.0758 1295.74 91.4836C1297.24 93.8084 1297.98 96.8804 1297.98 100.7C1297.98 104.851 1296.74 108.546 1294.25 111.784C1291.76 114.939 1288.14 117.43 1283.41 119.256C1278.76 121.083 1273.08 121.996 1266.35 121.996Z" fill="white"/>
<path d="M652.996 119.381L651.622 122.679L651.622 122.679L652.996 119.381ZM641.164 110.912L638.394 113.167L638.394 113.167L641.164 110.912ZM639.67 87.0001L642.785 88.7479L642.794 88.732L642.803 88.716L639.67 87.0001ZM648.761 77.2859L650.849 80.185L650.867 80.1714L650.886 80.1575L648.761 77.2859ZM664.578 68.3188L666.056 71.571L666.069 71.5651L666.082 71.559L664.578 68.3188ZM675.538 62.5899L677.431 65.6193L677.431 65.6193L675.538 62.5899ZM681.142 57.8573L684.038 59.9489L684.065 59.9121L684.09 59.8746L681.142 57.8573ZM680.519 47.894L678.071 50.4954L678.108 50.5303L678.146 50.564L680.519 47.894ZM667.193 48.1431L664.804 45.4877L664.804 45.4877L667.193 48.1431ZM665.45 57.6083L662.133 58.935L662.149 58.9755L662.166 59.0155L665.45 57.6083ZM668.314 61.7181L665.652 64.1002L665.684 64.136L665.717 64.171L668.314 61.7181ZM674.292 67.5716L671.852 70.1804L671.858 70.1861L671.864 70.1917L674.292 67.5716ZM720.248 110.165L722.959 112.492L725.199 109.883L722.677 107.545L720.248 110.165ZM709.662 122.495L707.231 125.112L709.953 127.64L712.373 124.822L709.662 122.495ZM658.974 75.4177L661.405 72.8001L661.394 72.7906L661.384 72.7812L658.974 75.4177ZM648.138 61.0954L644.749 62.2251L644.768 62.281L644.788 62.3362L648.138 61.0954ZM650.38 42.9123L647.443 40.8789L647.443 40.8789L650.38 42.9123ZM659.845 35.4398L661.253 38.7234L661.281 38.7113L661.309 38.6988L659.845 35.4398ZM687.245 35.1908L685.766 38.4429L685.81 38.463L685.855 38.4818L687.245 35.1908ZM695.963 42.0405L693.028 44.0782L693.047 44.1054L693.066 44.1321L695.963 42.0405ZM696.461 62.839L699.509 64.7018L699.52 64.6834L699.531 64.6648L696.461 62.839ZM687.867 71.3078L685.857 68.3549L685.842 68.365L685.827 68.3753L687.867 71.3078ZM672.798 79.4031L671.359 76.1332L671.344 76.1398L671.329 76.1465L672.798 79.4031ZM662.71 85.0074L664.805 87.9009L664.814 87.8946L664.822 87.8882L662.71 85.0074ZM657.728 102.07L654.87 104.213L654.904 104.258L654.939 104.301L657.728 102.07ZM663.208 105.93L664.514 102.605L664.514 102.605L663.208 105.93ZM685.376 103.813L687.096 106.945L687.119 106.932L687.142 106.919L685.376 103.813ZM696.087 93.2272L693.067 91.3196L693.062 91.3267L693.058 91.3338L696.087 93.2272ZM702.439 76.0404L703.503 72.6302L699.659 71.431L698.926 75.3899L702.439 76.0404ZM718.006 80.8976L721.505 81.6179L722.158 78.4505L719.07 77.4873L718.006 80.8976ZM708.666 102.941L705.767 100.854L705.767 100.854L708.666 102.941ZM692.102 117.388L690.456 114.217L690.456 114.217L692.102 117.388ZM670.058 118.922C664.051 118.922 658.843 117.947 654.37 116.083L651.622 122.679C657.111 124.966 663.279 126.067 670.058 126.067V118.922ZM654.37 116.083C649.838 114.195 646.409 111.697 643.935 108.657L638.394 113.167C641.731 117.268 646.19 120.415 651.622 122.679L654.37 116.083ZM643.935 108.657C641.553 105.731 640.378 102.419 640.378 98.5825H633.233C633.233 104.045 634.963 108.953 638.394 113.167L643.935 108.657ZM640.378 98.5825C640.378 94.8107 641.206 91.5631 642.785 88.7479L636.554 85.2523C634.314 89.2454 633.233 93.7194 633.233 98.5825H640.378ZM642.803 88.716C644.394 85.8104 647.01 82.9487 650.849 80.185L646.674 74.3867C642.21 77.6011 638.764 81.2155 636.536 85.2842L642.803 88.716ZM650.886 80.1575C654.779 77.277 659.816 74.4076 666.056 71.571L663.1 65.0667C656.554 68.0421 651.046 71.1506 646.636 74.4142L650.886 80.1575ZM666.082 71.559C670.793 69.3719 674.596 67.3914 677.431 65.6193L673.644 59.5605C671.166 61.1096 667.662 62.9484 663.074 65.0787L666.082 71.559ZM677.431 65.6193C680.244 63.8612 682.563 61.9915 684.038 59.9489L678.246 55.7657C677.562 56.7122 676.145 57.9976 673.644 59.5605L677.431 65.6193ZM684.09 59.8746C685.489 57.8305 686.333 55.5627 686.333 53.1248H679.189C679.189 53.8418 678.954 54.7291 678.194 55.8401L684.09 59.8746ZM686.333 53.1248C686.333 50.0371 685.216 47.2888 682.893 45.224L678.146 50.564C678.812 51.1561 679.189 51.895 679.189 53.1248H686.333ZM682.968 45.2926C680.645 43.1063 677.489 42.3289 674.168 42.3289V49.4737C676.492 49.4737 677.571 50.0248 678.071 50.4954L682.968 45.2926ZM674.168 42.3289C670.599 42.3289 667.315 43.2275 664.804 45.4877L669.583 50.7984C670.393 50.0697 671.758 49.4737 674.168 49.4737V42.3289ZM664.804 45.4877C662.356 47.6903 661.13 50.5812 661.13 53.872H668.275C668.275 52.5133 668.709 51.5848 669.583 50.7984L664.804 45.4877ZM661.13 53.872C661.13 55.6059 661.479 57.3004 662.133 58.935L668.767 56.2815C668.424 55.4253 668.275 54.6289 668.275 53.872H661.13ZM662.166 59.0155C662.886 60.6945 664.131 62.4008 665.652 64.1002L670.977 59.3361C669.674 57.8804 669.01 56.8468 668.733 56.201L662.166 59.0155ZM665.717 64.171C667.202 65.7436 669.256 67.7523 671.852 70.1804L676.733 64.9628C674.181 62.5753 672.249 60.6817 670.911 59.2652L665.717 64.171ZM671.864 70.1917L717.82 112.785L722.677 107.545L676.721 64.9515L671.864 70.1917ZM717.538 107.838L706.952 120.167L712.373 124.822L722.959 112.492L717.538 107.838ZM712.093 119.877L661.405 72.8001L656.543 78.0353L707.231 125.112L712.093 119.877ZM661.384 72.7812C658.589 70.2254 656.43 67.8987 654.857 65.8018L649.141 70.0887C651.056 72.6413 653.547 75.2963 656.563 78.0543L661.384 72.7812ZM654.857 65.8018C653.277 63.6955 652.177 61.7126 651.489 59.8547L644.788 62.3362C645.761 64.9617 647.234 67.5454 649.141 70.0887L654.857 65.8018ZM651.528 59.9657C650.904 58.0952 650.59 56.1523 650.59 54.1211H643.445C643.445 56.9055 643.878 59.6122 644.749 62.2251L651.528 59.9657ZM650.59 54.1211C650.59 50.5558 651.521 47.5408 653.317 44.9458L647.443 40.8789C644.756 44.76 643.445 49.2175 643.445 54.1211H650.59ZM653.317 44.9458C655.131 42.3263 657.723 40.2361 661.253 38.7234L658.438 32.1563C653.831 34.1307 650.113 37.0222 647.443 40.8789L653.317 44.9458ZM661.309 38.6988C664.824 37.1204 669.08 36.2723 674.168 36.2723V29.1275C668.296 29.1275 663.003 30.106 658.382 32.1808L661.309 38.6988ZM674.168 36.2723C678.852 36.2723 682.682 37.0411 685.766 38.4429L688.723 31.9386C684.501 30.0193 679.613 29.1275 674.168 29.1275V36.2723ZM685.855 38.4818C689.042 39.8273 691.382 41.707 693.028 44.0782L698.897 40.0029C696.392 36.3961 692.92 33.7092 688.634 31.8997L685.855 38.4818ZM693.066 44.1321C694.731 46.4369 695.628 49.252 695.628 52.7511H702.773C702.773 47.9475 701.511 43.6221 698.859 39.9489L693.066 44.1321ZM695.628 52.7511C695.628 55.7767 694.881 58.5063 693.39 61.0133L699.531 64.6648C701.694 61.0277 702.773 57.032 702.773 52.7511H695.628ZM693.412 60.9762C691.925 63.4094 689.478 65.8896 685.857 68.3549L689.878 74.2608C694.062 71.4123 697.343 68.2466 699.509 64.7018L693.412 60.9762ZM685.827 68.3753C682.262 70.8555 677.462 73.4477 671.359 76.1332L674.236 82.6729C680.587 79.8786 685.834 77.0739 689.907 74.2404L685.827 68.3753ZM671.329 76.1465C666.969 78.1129 663.362 80.0989 660.597 82.1266L664.822 87.8882C667.039 86.2628 670.158 84.5125 674.266 82.6596L671.329 76.1465ZM660.615 82.114C657.958 84.0378 655.811 86.1632 654.404 88.5454L660.555 92.1801C661.306 90.9091 662.646 89.4643 664.805 87.9009L660.615 82.114ZM654.404 88.5454C652.98 90.9539 652.288 93.6218 652.288 96.4653H659.432C659.432 94.8252 659.819 93.4248 660.555 92.1801L654.404 88.5454ZM652.288 96.4653C652.288 99.3139 653.161 101.934 654.87 104.213L660.586 99.9262C659.804 98.884 659.432 97.768 659.432 96.4653H652.288ZM654.939 104.301C656.721 106.529 659.098 108.154 661.902 109.255L664.514 102.605C662.669 101.88 661.393 100.931 660.518 99.838L654.939 104.301ZM661.902 109.255C664.736 110.369 667.939 110.873 671.428 110.873V103.728C668.607 103.728 666.329 103.319 664.514 102.605L661.902 109.255ZM671.428 110.873C677.063 110.873 682.309 109.573 687.096 106.945L683.657 100.682C679.976 102.703 675.922 103.728 671.428 103.728V110.873ZM687.142 106.919C691.954 104.183 695.936 100.209 699.116 95.1206L693.058 91.3338C690.426 95.5449 687.268 98.6281 683.611 100.708L687.142 106.919ZM699.107 95.1348C702.386 89.9434 704.641 83.7665 705.951 76.6909L698.926 75.3899C697.745 81.7649 695.766 87.0458 693.067 91.3196L699.107 95.1348ZM701.375 79.4507L716.942 84.3078L719.07 77.4873L703.503 72.6302L701.375 79.4507ZM714.507 80.1772C712.852 88.2158 709.921 95.0842 705.767 100.854L711.565 105.029C716.378 98.3445 719.673 90.517 721.505 81.6179L714.507 80.1772ZM705.767 100.854C701.597 106.645 696.499 111.081 690.456 114.217L693.747 120.559C700.823 116.887 706.767 111.692 711.565 105.029L705.767 100.854ZM690.456 114.217C684.455 117.332 677.681 118.922 670.058 118.922V126.067C678.708 126.067 686.63 124.253 693.747 120.559L690.456 114.217ZM777.132 119.755L776.109 123.178L776.13 123.184L776.15 123.19L777.132 119.755ZM761.688 112.407L758.432 110.938L757.268 113.52L759.516 115.243L761.688 112.407ZM768.538 97.2125L770.609 94.3012L767.067 91.783L765.281 95.7443L768.538 97.2125ZM781.74 103.813L780.577 107.191L780.61 107.202L780.643 107.213L781.74 103.813ZM806.897 105.183L807.956 108.595L807.991 108.584L808.027 108.572L806.897 105.183ZM812.377 101.821L809.619 99.5496L809.619 99.5496L812.377 101.821ZM811.381 91.4836L809.196 94.3104L809.237 94.3422L809.279 94.3727L811.381 91.4836ZM804.157 88.121L803.113 91.5375L803.157 91.5508L803.201 91.5631L804.157 88.121ZM794.194 85.6301L793.385 89.1097L793.431 89.1205L793.478 89.1301L794.194 85.6301ZM783.359 82.6411L782.253 86.038L782.264 86.0417L782.276 86.0454L783.359 82.6411ZM773.52 78.1576L771.657 81.2059L771.657 81.2059L773.52 78.1576ZM766.172 70.9342L763.124 72.7971L763.142 72.8275L763.161 72.8576L766.172 70.9342ZM767.417 45.9013L764.436 43.9335L764.431 43.9407L764.426 43.948L767.417 45.9013ZM779.622 36.0625L781.078 39.325L781.089 39.3199L781.101 39.3147L779.622 36.0625ZM816.362 34.319L815.496 37.7847L815.521 37.7911L815.547 37.7971L816.362 34.319ZM830.435 40.0479L833.745 41.3932L834.87 38.626L832.345 37.0289L830.435 40.0479ZM824.208 55.3665L822.436 58.4682L825.98 60.4936L827.518 56.7118L824.208 55.3665ZM812.003 50.2603L811.022 53.6952L811.054 53.7045L811.087 53.7132L812.003 50.2603ZM790.458 49.8867L789.228 46.5326L789.228 46.5326L790.458 49.8867ZM785.102 53.4984L787.94 55.6684L787.97 55.6296L787.998 55.59L785.102 53.4984ZM786.223 63.9599L784.039 66.7867L784.08 66.8184L784.122 66.849L786.223 63.9599ZM793.447 67.198L792.49 70.64L792.49 70.64L793.447 67.198ZM803.285 69.6888L802.476 73.1683L802.485 73.1704L802.494 73.1724L803.285 69.6888ZM814.121 72.5533L813.087 75.9728L813.097 75.9761L813.108 75.9793L814.121 72.5533ZM824.084 76.9122L825.947 73.864L825.947 73.864L824.084 76.9122ZM831.307 84.1356L828.259 85.9985L828.278 86.0289L828.297 86.059L831.307 84.1356ZM830.062 108.919L833.025 110.915L833.025 110.915L830.062 108.919ZM817.732 118.758L816.254 115.506L816.245 115.51L816.235 115.515L817.732 118.758ZM797.183 118.922C790.524 118.922 784.172 118.051 778.113 116.32L776.15 123.19C782.878 125.112 789.893 126.067 797.183 126.067V118.922ZM778.154 116.332C772.038 114.505 767.32 112.22 763.861 109.571L759.516 115.243C763.862 118.571 769.439 121.185 776.109 123.178L778.154 116.332ZM764.945 113.875L771.795 98.6807L765.281 95.7443L758.432 110.938L764.945 113.875ZM766.468 100.124C770.525 103.009 775.242 105.354 780.577 107.191L782.903 100.435C778.108 98.7849 774.024 96.7299 770.609 94.3012L766.468 100.124ZM780.643 107.213C786.133 108.984 791.692 109.876 797.307 109.876V102.732C792.462 102.732 787.642 101.964 782.836 100.413L780.643 107.213ZM797.307 109.876C801.469 109.876 805.066 109.492 807.956 108.595L805.838 101.771C803.913 102.369 801.116 102.732 797.307 102.732V109.876ZM808.027 108.572C810.891 107.617 813.398 106.2 815.135 104.092L809.619 99.5496C809.031 100.264 807.885 101.088 805.767 101.794L808.027 108.572ZM815.135 104.092C816.823 102.041 817.693 99.6196 817.693 96.9634H810.548C810.548 97.9605 810.256 98.777 809.619 99.5496L815.135 104.092ZM817.693 96.9634C817.693 93.5353 816.264 90.6181 813.482 88.5945L809.279 94.3727C810.15 95.006 810.548 95.742 810.548 96.9634H817.693ZM813.565 88.6568C811.27 86.8837 808.403 85.5928 805.113 84.6789L803.201 91.5631C805.889 92.3097 807.838 93.2606 809.196 94.3104L813.565 88.6568ZM805.201 84.7045C802.086 83.7527 798.653 82.8959 794.91 82.1302L793.478 89.1301C797.041 89.8589 800.25 90.6627 803.113 91.5375L805.201 84.7045ZM795.003 82.1506C791.529 81.3427 788.009 80.3719 784.442 79.2369L782.276 86.0454C786.015 87.2352 789.718 88.257 793.385 89.1097L795.003 82.1506ZM784.465 79.2443C781.141 78.162 778.118 76.7807 775.383 75.1094L771.657 81.2059C774.9 83.1879 778.436 84.7955 782.253 86.038L784.465 79.2443ZM775.383 75.1094C772.863 73.5694 770.804 71.5486 769.182 69.0109L763.161 72.8576C765.359 76.2979 768.199 79.0927 771.657 81.2059L775.383 75.1094ZM769.22 69.0714C767.831 66.7985 767.004 63.678 767.004 59.4764H759.86C759.86 64.5739 760.859 69.0919 763.124 72.7971L769.22 69.0714ZM767.004 59.4764C767.004 55.1699 768.141 51.3269 770.408 47.8547L764.426 43.948C761.38 48.6125 759.86 53.8195 759.86 59.4764H767.004ZM770.399 47.8692C772.698 44.3852 776.184 41.5083 781.078 39.325L778.167 32.8001C772.267 35.4324 767.616 39.1147 764.436 43.9335L770.399 47.8692ZM781.101 39.3147C785.979 37.0972 792.286 35.8987 800.172 35.8987V28.7539C791.618 28.7539 784.225 30.0462 778.144 32.8103L781.101 39.3147ZM800.172 35.8987C805.36 35.8987 810.466 36.5271 815.496 37.7847L817.229 30.8532C811.631 29.4539 805.944 28.7539 800.172 28.7539V35.8987ZM815.547 37.7971C820.524 38.9636 824.836 40.7324 828.526 43.0668L832.345 37.0289C827.899 34.2156 822.828 32.1652 817.177 30.8408L815.547 37.7971ZM827.126 38.7026L820.899 54.0212L827.518 56.7118L833.745 41.3932L827.126 38.7026ZM825.981 52.2648C821.673 49.8034 817.319 47.9746 812.919 46.8074L811.087 53.7132C814.824 54.7048 818.607 56.28 822.436 58.4682L825.981 52.2648ZM812.985 46.8254C808.624 45.5794 804.308 44.9443 800.047 44.9443V52.0891C803.591 52.0891 807.246 52.6164 811.022 53.6952L812.985 46.8254ZM800.047 44.9443C795.905 44.9443 792.251 45.4239 789.228 46.5326L791.687 53.2407C793.645 52.5228 796.385 52.0891 800.047 52.0891V44.9443ZM789.228 46.5326C786.348 47.5884 783.849 49.1326 782.206 51.4068L787.998 55.59C788.515 54.8751 789.585 54.0116 791.687 53.2407L789.228 46.5326ZM782.265 51.3283C780.672 53.4107 779.911 55.8484 779.911 58.48H787.056C787.056 57.2924 787.374 56.409 787.94 55.6684L782.265 51.3283ZM779.911 58.48C779.911 61.8661 781.367 64.7222 784.039 66.7867L788.407 61.1331C787.426 60.3746 787.056 59.5775 787.056 58.48H779.911ZM784.122 66.849C786.397 68.5034 789.233 69.7352 792.49 70.64L794.403 63.7559C791.682 63.0002 789.703 62.0733 788.324 61.0708L784.122 66.849ZM792.49 70.64C795.536 71.486 798.865 72.3286 802.476 73.1683L804.095 66.2093C800.565 65.3885 797.335 64.5705 794.403 63.7559L792.49 70.64ZM802.494 73.1724C806.066 73.9842 809.597 74.9177 813.087 75.9728L815.154 69.1337C811.504 68.0301 807.811 67.0539 804.077 66.2052L802.494 73.1724ZM813.108 75.9793C816.489 76.978 819.52 78.3098 822.221 79.9605L825.947 73.864C822.67 71.8614 819.059 70.2873 815.133 69.1273L813.108 75.9793ZM822.221 79.9605C824.726 81.4916 826.728 83.4931 828.259 85.9985L834.356 82.2728C832.233 78.8002 829.419 75.9861 825.947 73.864L822.221 79.9605ZM828.297 86.059C829.748 88.3298 830.599 91.3905 830.599 95.4689H837.744C837.744 90.4143 836.686 85.9195 834.318 82.2123L828.297 86.059ZM830.599 95.4689C830.599 99.6556 829.442 103.444 827.099 106.924L833.025 110.915C836.161 106.258 837.744 101.08 837.744 95.4689H830.599ZM827.099 106.924C824.804 110.332 821.269 113.227 816.254 115.506L819.21 122.01C825.155 119.308 829.84 115.644 833.025 110.915L827.099 106.924ZM816.235 115.515C811.455 117.721 805.161 118.922 797.183 118.922V126.067C805.811 126.067 813.215 124.777 819.229 122.002L816.235 115.515ZM859.665 117.513L858.012 120.68L858.022 120.685L858.031 120.69L859.665 117.513ZM846.339 105.308L843.28 107.153L843.286 107.164L843.293 107.175L846.339 105.308ZM846.214 69.6888L843.155 67.8437L843.151 67.8509L843.147 67.8581L846.214 69.6888ZM859.042 57.4837L860.736 60.6291L860.754 60.6191L860.773 60.6088L859.042 57.4837ZM895.035 57.2346L893.338 60.3784L893.368 60.3944L893.397 60.4098L895.035 57.2346ZM907.613 69.1906L904.533 70.9998L904.539 71.0106L904.546 71.0213L907.613 69.1906ZM912.097 90.3627L915.655 90.6862L915.656 90.6728L915.657 90.6594L912.097 90.3627ZM911.848 92.9781V96.5505H915.081L915.402 93.3336L911.848 92.9781ZM857.423 92.9781H853.851V96.5505H857.423V92.9781ZM857.423 81.6448V78.0724H853.851V81.6448H857.423ZM901.635 81.6448L903.101 84.9026L901.635 78.0724V81.6448ZM894.163 85.0074H890.59V90.5325L895.629 88.2652L894.163 85.0074ZM892.046 75.9159L888.913 77.6336L888.913 77.6336L892.046 75.9159ZM886.192 69.9379L884.354 73.0012L884.392 73.024L884.431 73.046L886.192 69.9379ZM868.632 69.9379L870.393 73.046L870.409 73.0367L870.426 73.0273L868.632 69.9379ZM862.778 76.0404L865.911 77.7582L865.922 77.7374L865.933 77.7164L862.778 76.0404ZM863.027 97.9598L859.909 99.7025L859.94 99.7575L859.972 99.8114L863.027 97.9598ZM869.877 104.311L868.243 107.488L868.297 107.516L868.352 107.542L869.877 104.311ZM889.679 104.81L888.37 101.486L888.352 101.493L888.335 101.5L889.679 104.81ZM897.152 99.9524L899.778 97.5306L897.303 94.8472L894.674 97.3792L897.152 99.9524ZM907.489 111.161L910.169 113.523L912.298 111.106L910.115 108.739L907.489 111.161ZM895.906 119.256L897.213 122.581L897.238 122.571L897.264 122.561L895.906 119.256ZM879.841 118.424C872.674 118.424 866.526 117.024 861.299 114.336L858.031 120.69C864.427 123.979 871.73 125.569 879.841 125.569V118.424ZM861.317 114.346C856.12 111.634 852.178 107.998 849.385 103.441L843.293 107.175C846.81 112.913 851.752 117.414 858.012 120.68L861.317 114.346ZM849.398 103.463C846.608 98.837 845.179 93.549 845.179 87.4983H838.034C838.034 94.732 839.76 101.317 843.28 107.153L849.398 103.463ZM845.179 87.4983C845.179 81.3371 846.579 76.0485 849.282 71.5195L843.147 67.8581C839.705 73.6246 838.034 80.2089 838.034 87.4983H845.179ZM849.273 71.5339C852.097 66.853 855.9 63.2328 860.736 60.6291L857.348 54.3383C851.39 57.5465 846.642 62.0631 843.155 67.8437L849.273 71.5339ZM860.773 60.6088C865.587 57.9428 871.083 56.5726 877.35 56.5726V49.4278C870 49.4278 863.291 51.0467 857.311 54.3586L860.773 60.6088ZM877.35 56.5726C883.379 56.5726 888.681 57.8651 893.338 60.3784L896.731 54.0908C890.927 50.9583 884.439 49.4278 877.35 49.4278V56.5726ZM893.397 60.4098C898.101 62.8353 901.798 66.3427 904.533 70.9998L910.694 67.3815C907.285 61.5771 902.595 57.1138 896.672 54.0595L893.397 60.4098ZM904.546 71.0213C907.226 75.5119 908.649 81.0361 908.649 87.7474H915.794C915.794 80.0118 914.145 73.1648 910.681 67.3599L904.546 71.0213ZM908.649 87.7474C908.649 88.369 908.614 89.1378 908.537 90.0661L915.657 90.6594C915.746 89.595 915.794 88.6202 915.794 87.7474H908.649ZM908.539 90.0393C908.457 90.943 908.375 91.804 908.293 92.6226L915.402 93.3336C915.487 92.4916 915.571 91.6091 915.655 90.6862L908.539 90.0393ZM911.848 89.4057H857.423V96.5505H911.848V89.4057ZM860.995 92.9781V81.6448H853.851V92.9781H860.995ZM857.423 85.2172H901.635V78.0724H857.423V85.2172ZM900.169 78.3871L892.697 81.7497L895.629 88.2652L903.101 84.9026L900.169 78.3871ZM897.735 85.0074C897.735 81.0326 896.928 77.3893 895.178 74.1982L888.913 77.6336C889.986 79.5902 890.59 82.0079 890.59 85.0074H897.735ZM895.178 74.1982C893.456 71.058 891.037 68.577 887.953 66.8298L884.431 73.046C886.329 74.1217 887.812 75.626 888.913 77.6336L895.178 74.1982ZM888.03 66.8746C884.908 65.0014 881.348 64.1237 877.474 64.1237V71.2685C880.243 71.2685 882.494 71.8853 884.354 73.0012L888.03 66.8746ZM877.474 64.1237C873.598 64.1237 870.018 65.0021 866.838 66.8485L870.426 73.0273C872.393 71.8847 874.709 71.2685 877.474 71.2685V64.1237ZM866.871 66.8298C863.758 68.5938 861.337 71.1394 859.624 74.3644L865.933 77.7164C867.043 75.6277 868.524 74.1049 870.393 73.046L866.871 66.8298ZM859.646 74.3227C857.89 77.5255 857.089 81.2147 857.089 85.2565H864.234C864.234 82.1579 864.844 79.7031 865.911 77.7582L859.646 74.3227ZM857.089 85.2565V88.2455H864.234V85.2565H857.089ZM857.089 88.2455C857.089 92.4284 857.997 96.2809 859.909 99.7025L866.146 96.2171C864.903 93.9928 864.234 91.3691 864.234 88.2455H857.089ZM859.972 99.8114C861.982 103.128 864.763 105.698 868.243 107.488L871.511 101.135C869.18 99.9356 867.394 98.2717 866.083 96.1082L859.972 99.8114ZM868.352 107.542C871.906 109.22 875.933 110.001 880.339 110.001V102.856C876.774 102.856 873.827 102.226 871.403 101.081L868.352 107.542ZM880.339 110.001C884.261 110.001 887.849 109.409 891.024 108.119L888.335 101.5C886.196 102.369 883.557 102.856 880.339 102.856V110.001ZM890.989 108.133C894.188 106.873 897.071 104.99 899.63 102.526L894.674 97.3792C892.749 99.2324 890.651 100.587 888.37 101.486L890.989 108.133ZM894.526 102.374L904.863 113.583L910.115 108.739L899.778 97.5306L894.526 102.374ZM904.808 108.8C902.128 111.842 898.733 114.233 894.549 115.952L897.264 122.561C902.379 120.46 906.706 117.455 910.169 113.523L904.808 108.8ZM894.6 115.931C890.445 117.564 885.547 118.424 879.841 118.424V125.569C886.256 125.569 892.069 124.602 897.213 122.581L894.6 115.931ZM925.156 121H921.584V124.572H925.156V121ZM925.156 53.9965V50.4242H921.584V53.9965H925.156ZM943.713 53.9965H947.285V50.4242H943.713V53.9965ZM943.713 72.9269L940.489 74.4656L947.285 72.9269H943.713ZM941.098 67.4471L937.805 66.0608L937.183 67.5386L937.874 68.9858L941.098 67.4471ZM950.687 56.7365L952.402 59.8704L952.425 59.858L952.447 59.8454L950.687 56.7365ZM966.753 53.0002H970.326V49.4278H966.753V53.0002ZM966.753 70.9342L966.398 74.4889L970.326 74.8817V70.9342H966.753ZM964.511 70.8097L964.068 74.3545L964.289 74.3821H964.511V70.8097ZM949.442 75.2932L951.865 77.9182L951.868 77.9157L949.442 75.2932ZM944.585 121V124.572H948.157V121H944.585ZM928.729 121V53.9965H921.584V121H928.729ZM925.156 57.5689H943.713V50.4242H925.156V57.5689ZM940.141 53.9965V72.9269H947.285V53.9965H940.141ZM946.937 71.3882L944.322 65.9083L937.874 68.9858L940.489 74.4656L946.937 71.3882ZM944.39 68.8334C946.077 64.8257 948.728 61.8808 952.402 59.8704L948.973 53.6025C943.846 56.4077 940.103 60.6032 937.805 66.0608L944.39 68.8334ZM952.447 59.8454C956.193 57.7249 960.909 56.5726 966.753 56.5726V49.4278C959.977 49.4278 953.982 50.7664 948.928 53.6276L952.447 59.8454ZM963.181 53.0002V70.9342H970.326V53.0002H963.181ZM967.109 67.3796C966.189 67.2876 965.32 67.2373 964.511 67.2373V74.3821C965.031 74.3821 965.657 74.4148 966.398 74.4889L967.109 67.3796ZM964.955 67.2649C964.128 67.1615 963.273 67.1127 962.394 67.1127V74.2575C963.01 74.2575 963.567 74.2918 964.068 74.3545L964.955 67.2649ZM962.394 67.1127C956.348 67.1127 951.111 68.8832 947.016 72.6707L951.868 77.9157C954.415 75.5591 957.813 74.2575 962.394 74.2575V67.1127ZM947.019 72.6682C942.77 76.5906 941.012 82.4319 941.012 89.3664H948.157C948.157 83.5146 949.638 79.9738 951.865 77.9182L947.019 72.6682ZM941.012 89.3664V121H948.157V89.3664H941.012ZM944.585 117.428H925.156V124.572H944.585V117.428ZM998.799 121L995.506 122.384L996.425 124.572H998.799V121ZM970.653 53.9965V50.4242H965.277L967.359 55.3801L970.653 53.9965ZM990.704 53.9965L994.014 52.6526L993.109 50.4242H990.704V53.9965ZM1014.12 111.659V115.232H1019.42L1017.43 110.315L1014.12 111.659ZM1004.15 111.659L1000.86 110.273L998.774 115.232H1004.15V111.659ZM1028.44 53.9965V50.4242H1026.07L1025.15 52.6099L1028.44 53.9965ZM1047.12 53.9965L1050.41 55.3853L1052.51 50.4242H1047.12V53.9965ZM1018.85 121V124.572H1021.22L1022.14 122.389L1018.85 121ZM1002.09 119.616L973.947 52.613L967.359 55.3801L995.506 122.384L1002.09 119.616ZM970.653 57.5689H990.704V50.4242H970.653V57.5689ZM987.394 55.3405L1010.81 113.003L1017.43 110.315L994.014 52.6526L987.394 55.3405ZM1014.12 108.087H1004.15V115.232H1014.12V108.087ZM1007.45 113.046L1031.73 55.3832L1025.15 52.6099L1000.86 110.273L1007.45 113.046ZM1028.44 57.5689H1047.12V50.4242H1028.44V57.5689ZM1043.83 52.6078L1015.56 119.611L1022.14 122.389L1050.41 55.3853L1043.83 52.6078ZM1018.85 117.428H998.799V124.572H1018.85V117.428ZM1055.05 121H1051.48V124.572H1055.05V121ZM1055.05 53.9965V50.4242H1051.48V53.9965H1055.05ZM1074.48 53.9965H1078.05V50.4242H1074.48V53.9965ZM1074.48 121V124.572H1078.05V121H1074.48ZM1056.05 41.5424L1053.62 44.1637L1053.62 44.1637L1056.05 41.5424ZM1056.05 26.0992L1058.47 28.7205L1058.47 28.7205L1056.05 26.0992ZM1073.48 25.9747L1071.11 28.6447L1071.14 28.6697L1071.16 28.6941L1073.48 25.9747ZM1073.48 41.5424L1075.96 44.1175L1075.96 44.1156L1073.48 41.5424ZM1058.62 121V53.9965H1051.48V121H1058.62ZM1055.05 57.5689H1074.48V50.4242H1055.05V57.5689ZM1070.91 53.9965V121H1078.05V53.9965H1070.91ZM1074.48 117.428H1055.05V124.572H1074.48V117.428ZM1064.76 41.0835C1061.93 41.0835 1059.94 40.2836 1058.47 38.9211L1053.62 44.1637C1056.63 46.9525 1060.46 48.2283 1064.76 48.2283V41.0835ZM1058.47 38.9211C1056.97 37.5257 1056.26 35.9039 1056.26 33.8208H1049.11C1049.11 37.8817 1050.64 41.4076 1053.62 44.1637L1058.47 38.9211ZM1056.26 33.8208C1056.26 31.7376 1056.97 30.1158 1058.47 28.7205L1053.62 23.4779C1050.64 26.234 1049.11 29.7599 1049.11 33.8208H1056.26ZM1058.47 28.7205C1059.94 27.3579 1061.93 26.558 1064.76 26.558V19.4133C1060.46 19.4133 1056.63 20.6891 1053.62 23.4779L1058.47 28.7205ZM1064.76 26.558C1067.63 26.558 1069.64 27.3402 1071.11 28.6447L1075.85 23.3046C1072.84 20.6238 1069.03 19.4133 1064.76 19.4133V26.558ZM1071.16 28.6941C1072.57 29.8922 1073.27 31.3701 1073.27 33.4472H1080.42C1080.42 29.3802 1078.88 25.8764 1075.8 23.2552L1071.16 28.6941ZM1073.27 33.4472C1073.27 35.7585 1072.51 37.5138 1071 38.9691L1075.96 44.1156C1078.93 41.2535 1080.42 37.612 1080.42 33.4472H1073.27ZM1071.01 38.9673C1069.65 40.2682 1067.71 41.0835 1064.76 41.0835V48.2283C1069.13 48.2283 1072.99 46.9679 1075.96 44.1175L1071.01 38.9673ZM1105.59 117.637L1103.91 120.795L1103.93 120.804L1103.95 120.814L1105.59 117.637ZM1092.26 105.308L1089.2 107.153L1089.21 107.171L1089.22 107.188L1092.26 105.308ZM1092.26 69.6888L1089.22 67.8085L1089.22 67.8152L1089.21 67.822L1092.26 69.6888ZM1105.59 57.4837L1107.22 60.6601L1107.24 60.6506L1107.26 60.641L1105.59 57.4837ZM1143.32 57.4837L1141.55 60.5854L1141.57 60.5961L1141.59 60.6065L1143.32 57.4837ZM1154.9 70.0624L1156.6 73.2095L1159.54 71.6275L1158.16 68.5842L1154.9 70.0624ZM1139.84 78.1576L1136.71 79.8856L1138.42 82.9753L1141.53 81.3047L1139.84 78.1576ZM1133.23 71.1833L1131.44 74.2727L1131.46 74.2849L1131.48 74.2969L1133.23 71.1833ZM1115.8 71.1833L1117.55 74.2969L1117.55 74.2969L1115.8 71.1833ZM1109.45 77.5349L1106.35 75.7524L1106.33 75.7881L1106.31 75.8243L1109.45 77.5349ZM1109.45 97.4616L1106.31 99.1723L1106.33 99.2084L1106.35 99.2441L1109.45 97.4616ZM1115.8 103.813L1117.55 100.7L1117.55 100.7L1115.8 103.813ZM1133.23 103.938L1134.95 107.07L1134.97 107.061L1134.99 107.051L1133.23 103.938ZM1139.84 96.8389L1141.55 93.7027L1138.39 91.9828L1136.69 95.1452L1139.84 96.8389ZM1154.9 105.059L1158.15 106.556L1159.55 103.522L1156.62 101.922L1154.9 105.059ZM1143.32 117.637L1145.06 120.76L1145.08 120.75L1145.09 120.739L1143.32 117.637ZM1124.89 118.424C1118.16 118.424 1112.3 117.073 1107.22 114.461L1103.95 120.814C1110.17 124.014 1117.18 125.569 1124.89 125.569V118.424ZM1107.26 114.48C1102.15 111.776 1098.19 108.098 1095.3 103.427L1089.22 107.188C1092.81 112.979 1097.73 117.521 1103.91 120.795L1107.26 114.48ZM1095.32 103.463C1092.53 98.837 1091.1 93.549 1091.1 87.4983H1083.96C1083.96 94.732 1085.68 101.317 1089.2 107.153L1095.32 103.463ZM1091.1 87.4983C1091.1 81.3547 1092.53 76.0791 1095.31 71.5556L1089.21 67.822C1085.68 73.5939 1083.96 80.1913 1083.96 87.4983H1091.1ZM1095.3 71.5692C1098.18 66.908 1102.13 63.2793 1107.22 60.6601L1103.95 54.3074C1097.75 57.5 1092.81 62.0081 1089.22 67.8085L1095.3 71.5692ZM1107.26 60.641C1112.32 57.9585 1118.17 56.5726 1124.89 56.5726V49.4278C1117.16 49.4278 1110.14 51.0309 1103.91 54.3265L1107.26 60.641ZM1124.89 56.5726C1131.43 56.5726 1136.95 57.9541 1141.55 60.5854L1145.09 54.382C1139.24 51.0353 1132.46 49.4278 1124.89 49.4278V56.5726ZM1141.59 60.6065C1146.14 63.1386 1149.48 66.7529 1151.65 71.5407L1158.16 68.5842C1155.35 62.4123 1150.96 57.6408 1145.06 54.3609L1141.59 60.6065ZM1153.21 66.9154L1138.14 75.0106L1141.53 81.3047L1156.6 73.2095L1153.21 66.9154ZM1142.96 76.4297C1140.96 72.8013 1138.32 69.9447 1134.99 68.0697L1131.48 74.2969C1133.46 75.4109 1135.23 77.2039 1136.71 79.8856L1142.96 76.4297ZM1135.03 68.0939C1131.89 66.2726 1128.45 65.3692 1124.77 65.3692V72.514C1127.23 72.514 1129.43 73.105 1131.44 74.2727L1135.03 68.0939ZM1124.77 65.3692C1120.89 65.3692 1117.29 66.2479 1114.05 68.0697L1117.55 74.2969C1119.62 73.1297 1122 72.514 1124.77 72.514V65.3692ZM1114.05 68.0697C1110.81 69.891 1108.24 72.4777 1106.35 75.7524L1112.54 79.3174C1113.81 77.1124 1115.47 75.4646 1117.55 74.2969L1114.05 68.0697ZM1106.31 75.8243C1104.47 79.2045 1103.63 83.1454 1103.63 87.4983H1110.78C1110.78 84.0466 1111.44 81.3452 1112.58 79.2456L1106.31 75.8243ZM1103.63 87.4983C1103.63 91.8512 1104.47 95.792 1106.31 99.1723L1112.58 95.751C1111.44 93.6513 1110.78 90.95 1110.78 87.4983H1103.63ZM1106.35 99.2441C1108.24 102.519 1110.81 105.106 1114.05 106.927L1117.55 100.7C1115.47 99.5319 1113.81 97.8842 1112.54 95.6791L1106.35 99.2441ZM1114.05 106.927C1117.29 108.749 1120.89 109.627 1124.77 109.627V102.483C1122 102.483 1119.62 101.867 1117.55 100.7L1114.05 106.927ZM1124.77 109.627C1128.41 109.627 1131.83 108.784 1134.95 107.07L1131.52 100.805C1129.49 101.915 1127.27 102.483 1124.77 102.483V109.627ZM1134.99 107.051C1138.34 105.162 1140.98 102.242 1142.98 98.5326L1136.69 95.1452C1135.2 97.9115 1133.44 99.7243 1131.48 100.824L1134.99 107.051ZM1138.12 99.9751L1153.19 108.195L1156.62 101.922L1141.55 93.7027L1138.12 99.9751ZM1151.66 103.562C1149.49 108.274 1146.14 111.91 1141.55 114.536L1145.09 120.739C1150.96 117.387 1155.34 112.637 1158.15 106.556L1151.66 103.562ZM1141.59 114.515C1136.98 117.077 1131.45 118.424 1124.89 118.424V125.569C1132.45 125.569 1139.21 124.01 1145.06 120.76L1141.59 114.515ZM1178.32 117.513L1176.66 120.68L1176.67 120.685L1176.68 120.69L1178.32 117.513ZM1164.99 105.308L1161.93 107.153L1161.94 107.164L1161.94 107.175L1164.99 105.308ZM1164.87 69.6888L1161.81 67.8437L1161.8 67.8509L1161.8 67.8581L1164.87 69.6888ZM1177.69 57.4837L1179.39 60.6291L1179.41 60.6191L1179.42 60.6088L1177.69 57.4837ZM1213.69 57.2346L1211.99 60.3784L1212.02 60.3944L1212.05 60.4098L1213.69 57.2346ZM1226.27 69.1906L1223.18 70.9998L1223.19 71.0106L1223.2 71.0213L1226.27 69.1906ZM1230.75 90.3627L1234.31 90.6862L1234.31 90.6728L1234.31 90.6594L1230.75 90.3627ZM1230.5 92.9781V96.5505H1233.73L1234.05 93.3336L1230.5 92.9781ZM1176.07 92.9781H1172.5V96.5505H1176.07V92.9781ZM1176.07 81.6448V78.0724H1172.5V81.6448H1176.07ZM1220.29 81.6448L1221.75 84.9026L1220.29 78.0724V81.6448ZM1212.81 85.0074H1209.24V90.5325L1214.28 88.2652L1212.81 85.0074ZM1210.7 75.9159L1207.57 77.6336L1207.57 77.6336L1210.7 75.9159ZM1204.84 69.9379L1203.01 73.0012L1203.04 73.024L1203.08 73.046L1204.84 69.9379ZM1187.28 69.9379L1189.04 73.046L1189.06 73.0367L1189.08 73.0273L1187.28 69.9379ZM1181.43 76.0404L1184.56 77.7582L1184.57 77.7374L1184.58 77.7164L1181.43 76.0404ZM1181.68 97.9598L1178.56 99.7025L1178.59 99.7575L1178.62 99.8114L1181.68 97.9598ZM1188.53 104.311L1186.9 107.488L1186.95 107.516L1187 107.542L1188.53 104.311ZM1208.33 104.81L1207.02 101.486L1207 101.493L1206.99 101.5L1208.33 104.81ZM1215.8 99.9524L1218.43 97.5306L1215.96 94.8472L1213.33 97.3792L1215.8 99.9524ZM1226.14 111.161L1228.82 113.523L1230.95 111.106L1228.77 108.739L1226.14 111.161ZM1214.56 119.256L1215.86 122.581L1215.89 122.571L1215.92 122.561L1214.56 119.256ZM1198.49 118.424C1191.33 118.424 1185.18 117.024 1179.95 114.336L1176.68 120.69C1183.08 123.979 1190.38 125.569 1198.49 125.569V118.424ZM1179.97 114.346C1174.77 111.634 1170.83 107.998 1168.04 103.441L1161.94 107.175C1165.46 112.913 1170.4 117.414 1176.66 120.68L1179.97 114.346ZM1168.05 103.463C1165.26 98.837 1163.83 93.549 1163.83 87.4983H1156.69C1156.69 94.732 1158.41 101.317 1161.93 107.153L1168.05 103.463ZM1163.83 87.4983C1163.83 81.3371 1165.23 76.0485 1167.93 71.5195L1161.8 67.8581C1158.36 73.6246 1156.69 80.2089 1156.69 87.4983H1163.83ZM1167.93 71.5339C1170.75 66.853 1174.55 63.2328 1179.39 60.6291L1176 54.3383C1170.04 57.5465 1165.29 62.0631 1161.81 67.8437L1167.93 71.5339ZM1179.42 60.6088C1184.24 57.9428 1189.73 56.5726 1196 56.5726V49.4278C1188.65 49.4278 1181.94 51.0467 1175.96 54.3586L1179.42 60.6088ZM1196 56.5726C1202.03 56.5726 1207.33 57.8651 1211.99 60.3784L1215.38 54.0908C1209.58 50.9583 1203.09 49.4278 1196 49.4278V56.5726ZM1212.05 60.4098C1216.75 62.8353 1220.45 66.3427 1223.18 70.9998L1229.35 67.3815C1225.94 61.5771 1221.25 57.1138 1215.32 54.0595L1212.05 60.4098ZM1223.2 71.0213C1225.88 75.5119 1227.3 81.0361 1227.3 87.7474H1234.45C1234.45 80.0118 1232.8 73.1648 1229.33 67.3599L1223.2 71.0213ZM1227.3 87.7474C1227.3 88.369 1227.27 89.1378 1227.19 90.0661L1234.31 90.6594C1234.4 89.595 1234.45 88.6202 1234.45 87.7474H1227.3ZM1227.19 90.0393C1227.11 90.943 1227.03 91.804 1226.94 92.6226L1234.05 93.3336C1234.14 92.4916 1234.22 91.6091 1234.31 90.6862L1227.19 90.0393ZM1230.5 89.4057H1176.07V96.5505H1230.5V89.4057ZM1179.65 92.9781V81.6448H1172.5V92.9781H1179.65ZM1176.07 85.2172H1220.29V78.0724H1176.07V85.2172ZM1218.82 78.3871L1211.35 81.7497L1214.28 88.2652L1221.75 84.9026L1218.82 78.3871ZM1216.39 85.0074C1216.39 81.0326 1215.58 77.3893 1213.83 74.1982L1207.57 77.6336C1208.64 79.5902 1209.24 82.0079 1209.24 85.0074H1216.39ZM1213.83 74.1982C1212.11 71.058 1209.69 68.577 1206.61 66.8298L1203.08 73.046C1204.98 74.1217 1206.46 75.626 1207.57 77.6336L1213.83 74.1982ZM1206.68 66.8746C1203.56 65.0014 1200 64.1237 1196.13 64.1237V71.2685C1198.89 71.2685 1201.15 71.8853 1203.01 73.0012L1206.68 66.8746ZM1196.13 64.1237C1192.25 64.1237 1188.67 65.0021 1185.49 66.8485L1189.08 73.0273C1191.05 71.8847 1193.36 71.2685 1196.13 71.2685V64.1237ZM1185.52 66.8298C1182.41 68.5938 1179.99 71.1394 1178.28 74.3644L1184.58 77.7164C1185.69 75.6277 1187.18 74.1049 1189.04 73.046L1185.52 66.8298ZM1178.3 74.3227C1176.54 77.5255 1175.74 81.2147 1175.74 85.2565H1182.89C1182.89 82.1579 1183.5 79.7031 1184.56 77.7582L1178.3 74.3227ZM1175.74 85.2565V88.2455H1182.89V85.2565H1175.74ZM1175.74 88.2455C1175.74 92.4284 1176.65 96.2809 1178.56 99.7025L1184.8 96.2171C1183.55 93.9928 1182.89 91.3691 1182.89 88.2455H1175.74ZM1178.62 99.8114C1180.63 103.128 1183.41 105.698 1186.9 107.488L1190.16 101.135C1187.83 99.9356 1186.05 98.2717 1184.73 96.1082L1178.62 99.8114ZM1187 107.542C1190.56 109.22 1194.58 110.001 1198.99 110.001V102.856C1195.43 102.856 1192.48 102.226 1190.05 101.081L1187 107.542ZM1198.99 110.001C1202.91 110.001 1206.5 109.409 1209.68 108.119L1206.99 101.5C1204.85 102.369 1202.21 102.856 1198.99 102.856V110.001ZM1209.64 108.133C1212.84 106.873 1215.72 104.99 1218.28 102.526L1213.33 97.3792C1211.4 99.2324 1209.3 100.587 1207.02 101.486L1209.64 108.133ZM1213.18 102.374L1223.51 113.583L1228.77 108.739L1218.43 97.5306L1213.18 102.374ZM1223.46 108.8C1220.78 111.842 1217.39 114.233 1213.2 115.952L1215.92 122.561C1221.03 120.46 1225.36 117.455 1228.82 113.523L1223.46 108.8ZM1213.25 115.931C1209.1 117.564 1204.2 118.424 1198.49 118.424V125.569C1204.91 125.569 1210.72 124.602 1215.86 122.581L1213.25 115.931ZM1249.79 120.004L1248.86 123.453L1248.89 123.461L1248.92 123.469L1249.79 120.004ZM1237.33 114.773L1234.09 113.269L1232.81 116.029L1235.33 117.733L1237.33 114.773ZM1243.81 100.824L1245.69 97.7903L1242.27 95.66L1240.57 99.3199L1243.81 100.824ZM1254.64 105.557L1253.62 108.979L1253.66 108.991L1253.7 109.002L1254.64 105.557ZM1276.56 105.681L1274.8 102.571L1274.77 102.588L1274.75 102.606L1276.56 105.681ZM1277.19 97.7107L1275.37 100.79L1275.48 100.852L1275.59 100.906L1277.19 97.7107ZM1271.46 95.8426L1270.85 99.363L1270.85 99.363L1271.46 95.8426ZM1263.49 94.5972L1262.97 98.1315L1262.97 98.1326L1262.98 98.1336L1263.49 94.5972ZM1254.89 92.9781L1254 96.438L1254.05 96.45L1254.1 96.4607L1254.89 92.9781ZM1246.92 89.74L1248.73 86.6581L1248.73 86.6581L1246.92 89.74ZM1241.07 84.0111L1237.99 85.8177L1238.01 85.8567L1238.03 85.8951L1241.07 84.0111ZM1242.56 63.4617L1239.73 61.2836L1239.71 61.3067L1239.7 61.3301L1242.56 63.4617ZM1253.27 55.8647L1254.58 59.1897L1254.6 59.1796L1254.63 59.1692L1253.27 55.8647ZM1283.91 54.4947L1284.65 50.9989L1284.65 50.9989L1283.91 54.4947ZM1295.74 58.8537L1298.98 60.3692L1300.34 57.4606L1297.59 55.7975L1295.74 58.8537ZM1289.27 72.6778L1287.45 75.7549L1290.83 77.7503L1292.5 74.1933L1289.27 72.6778ZM1279.43 68.817L1278.62 72.2979L1278.67 72.3097L1278.73 72.32L1279.43 68.817ZM1260.5 69.4397L1258.7 66.354L1258.7 66.354L1260.5 69.4397ZM1259.62 77.6595L1257.81 80.7386L1257.85 80.761L1257.89 80.7823L1259.62 77.6595ZM1273.32 81.0221L1272.8 84.5565L1272.86 84.5649L1272.92 84.5714L1273.32 81.0221ZM1282.04 82.6411L1282.93 79.1813L1282.93 79.1813L1282.04 82.6411ZM1289.89 85.8792L1288.03 88.9329L1288.1 88.9713L1288.16 89.0071L1289.89 85.8792ZM1295.74 91.4836L1292.71 93.3676L1292.72 93.3916L1292.74 93.4154L1295.74 91.4836ZM1294.25 111.784L1297.05 113.998L1297.07 113.98L1297.08 113.962L1294.25 111.784ZM1283.41 119.256L1282.13 115.924L1282.12 115.927L1282.11 115.931L1283.41 119.256ZM1266.35 118.424C1260.9 118.424 1255.67 117.792 1250.65 116.538L1248.92 123.469C1254.53 124.872 1260.34 125.569 1266.35 125.569V118.424ZM1250.72 116.555C1245.71 115.203 1241.96 113.591 1239.33 111.813L1235.33 117.733C1238.84 120.106 1243.4 121.981 1248.86 123.453L1250.72 116.555ZM1240.57 116.277L1247.05 102.329L1240.57 99.3199L1234.09 113.269L1240.57 116.277ZM1241.92 103.858C1245.31 105.964 1249.22 107.66 1253.62 108.979L1255.67 102.135C1251.76 100.963 1248.45 99.5042 1245.69 97.7903L1241.92 103.858ZM1253.7 109.002C1258.22 110.242 1262.69 110.873 1267.1 110.873V103.728C1263.37 103.728 1259.54 103.196 1255.59 102.112L1253.7 109.002ZM1267.1 110.873C1271.65 110.873 1275.66 110.362 1278.38 108.757L1274.75 102.606C1273.81 103.159 1271.51 103.728 1267.1 103.728V110.873ZM1278.32 108.791C1281.15 107.191 1283 104.61 1283 101.198H1275.85C1275.85 101.605 1275.79 102.013 1274.8 102.571L1278.32 108.791ZM1283 101.198C1283 99.8237 1282.67 98.4469 1281.87 97.2111C1281.08 95.9871 1279.98 95.116 1278.78 94.5154L1275.59 100.906C1275.74 100.981 1275.82 101.04 1275.85 101.068C1275.88 101.095 1275.88 101.098 1275.86 101.075C1275.85 101.051 1275.84 101.031 1275.84 101.033C1275.84 101.037 1275.85 101.086 1275.85 101.198H1283ZM1279 94.6315C1277.08 93.503 1274.71 92.7779 1272.06 92.3221L1270.85 99.363C1273.02 99.7375 1274.47 100.258 1275.37 100.79L1279 94.6315ZM1272.06 92.3221C1269.62 91.9001 1266.92 91.4797 1263.99 91.0607L1262.98 98.1336C1265.86 98.5449 1268.48 98.9547 1270.85 99.363L1272.06 92.3221ZM1264.01 91.0628C1261.28 90.6619 1258.51 90.1398 1255.69 89.4955L1254.1 96.4607C1257.09 97.1449 1260.05 97.7022 1262.97 98.1315L1264.01 91.0628ZM1255.78 89.5183C1253.17 88.8476 1250.83 87.8895 1248.73 86.6581L1245.11 92.8219C1247.83 94.4135 1250.8 95.6141 1254 96.438L1255.78 89.5183ZM1248.73 86.6581C1246.83 85.5449 1245.3 84.0497 1244.1 82.1272L1238.03 85.8951C1239.83 88.7882 1242.2 91.1122 1245.11 92.8219L1248.73 86.6581ZM1244.15 82.2045C1243.16 80.5103 1242.52 78.0791 1242.52 74.6705H1235.38C1235.38 78.9004 1236.16 82.6963 1237.99 85.8177L1244.15 82.2045ZM1242.52 74.6705C1242.52 71.1635 1243.5 68.1835 1245.43 65.5934L1239.7 61.3301C1236.81 65.2161 1235.38 69.7086 1235.38 74.6705H1242.52ZM1245.39 65.6398C1247.41 63.0187 1250.4 60.8321 1254.58 59.1897L1251.97 52.5397C1246.85 54.5505 1242.7 57.4286 1239.73 61.2836L1245.39 65.6398ZM1254.63 59.1692C1258.74 57.4794 1263.82 56.5726 1269.96 56.5726V49.4278C1263.15 49.4278 1257.1 50.4307 1251.92 52.5601L1254.63 59.1692ZM1269.96 56.5726C1274.27 56.5726 1278.67 57.0421 1283.17 57.9905L1284.65 50.9989C1279.69 49.9547 1274.79 49.4278 1269.96 49.4278V56.5726ZM1283.17 57.9905C1287.63 58.9283 1291.17 60.2618 1293.89 61.9099L1297.59 55.7975C1294 53.6263 1289.66 52.0538 1284.65 50.9989L1283.17 57.9905ZM1292.51 57.3382L1286.03 71.1623L1292.5 74.1933L1298.98 60.3692L1292.51 57.3382ZM1291.08 69.6007C1287.54 67.5099 1283.88 66.0649 1280.13 65.314L1278.73 72.32C1281.61 72.8976 1284.52 74.0265 1287.45 75.7549L1291.08 69.6007ZM1280.23 65.3361C1276.75 64.533 1273.33 64.1237 1269.96 64.1237V71.2685C1272.74 71.2685 1275.63 71.6066 1278.62 72.2979L1280.23 65.3361ZM1269.96 64.1237C1265.48 64.1237 1261.53 64.7004 1258.7 66.354L1262.3 72.5255C1263.45 71.8543 1265.81 71.2685 1269.96 71.2685V64.1237ZM1258.7 66.354C1255.94 67.9616 1253.94 70.4815 1253.94 73.9232H1261.08C1261.08 73.7118 1261.07 73.2427 1262.3 72.5255L1258.7 66.354ZM1253.94 73.9232C1253.94 76.8278 1255.29 79.2555 1257.81 80.7386L1261.44 74.5803C1261.19 74.4366 1261.15 74.3441 1261.14 74.3415C1261.14 74.3365 1261.08 74.2359 1261.08 73.9232H1253.94ZM1257.89 80.7823C1259.81 81.8466 1262.13 82.6082 1264.75 83.1504L1266.2 76.1538C1264.01 75.6997 1262.43 75.1329 1261.36 74.5366L1257.89 80.7823ZM1264.75 83.1504C1267.24 83.6646 1269.92 84.1328 1272.8 84.5565L1273.84 77.4877C1271.08 77.0811 1268.53 76.636 1266.2 76.1538L1264.75 83.1504ZM1272.92 84.5714C1275.66 84.8844 1278.4 85.3936 1281.15 86.101L1282.93 79.1813C1279.87 78.3942 1276.8 77.8241 1273.73 77.4728L1272.92 84.5714ZM1281.15 86.101C1283.75 86.7698 1286.04 87.7211 1288.03 88.9329L1291.74 82.8256C1289.09 81.2144 1286.14 80.007 1282.93 79.1813L1281.15 86.101ZM1288.16 89.0071C1290.02 90.0307 1291.52 91.4632 1292.71 93.3676L1298.78 89.5997C1296.97 86.6884 1294.57 84.3847 1291.61 82.7513L1288.16 89.0071ZM1292.74 93.4154C1293.74 94.9833 1294.41 97.3132 1294.41 100.7H1301.56C1301.56 96.4477 1300.73 92.6335 1298.75 89.5518L1292.74 93.4154ZM1294.41 100.7C1294.41 104.077 1293.42 107.003 1291.42 109.606L1297.08 113.962C1300.06 110.089 1301.56 105.625 1301.56 100.7H1294.41ZM1291.44 109.57C1289.44 112.107 1286.42 114.268 1282.13 115.924L1284.7 122.589C1289.87 120.592 1294.07 117.77 1297.05 113.998L1291.44 109.57ZM1282.11 115.931C1277.99 117.549 1272.77 118.424 1266.35 118.424V125.569C1273.38 125.569 1279.54 124.617 1284.72 122.581L1282.11 115.931Z" fill="#005566" mask="url(#path-2-outside-1_22_146)"/>
</svg>
