<svg width="392" height="119" viewBox="0 0 392 119" fill="none" xmlns="http://www.w3.org/2000/svg">
<mask id="path-1-outside-1_25_153" maskUnits="userSpaceOnUse" x="-2" y="-2" width="396" height="123" fill="black">
<rect fill="white" x="-2" y="-2" width="396" height="123"/>
<path d="M0.532974 41V2.7701H17.0811C20.5035 2.7701 23.4527 3.33445 25.9285 4.46314C28.4044 5.55542 30.3159 7.13923 31.663 9.21457C33.0102 11.2899 33.6838 13.7657 33.6838 16.6421C33.6838 19.482 33.0102 21.9397 31.663 24.015C30.3159 26.0903 28.4044 27.6924 25.9285 28.821C23.4527 29.9133 20.5035 30.4595 17.0811 30.4595H5.44825L9.38046 26.4726V41H0.532974ZM9.38046 27.4557L5.44825 23.2504H16.5895C19.3202 23.2504 21.3592 22.6679 22.7063 21.5028C24.0535 20.3377 24.727 18.7174 24.727 16.6421C24.727 14.5303 24.0535 12.8919 22.7063 11.7268C21.3592 10.5617 19.3202 9.97917 16.5895 9.97917H5.44825L9.38046 5.77388V27.4557ZM39.8923 41V11.6176H48.0298V19.9189L46.8829 17.5159C47.7567 15.4406 49.1585 13.875 51.0882 12.8191C53.0179 11.7268 55.3663 11.1807 58.1334 11.1807V19.0451C57.7693 19.0087 57.4416 18.9905 57.1503 18.9905C56.8591 18.9541 56.5496 18.9359 56.2219 18.9359C53.8917 18.9359 51.9984 19.6095 50.542 20.9566C49.1221 22.2674 48.4121 24.3245 48.4121 27.128V41H39.8923ZM77.5133 41.4369C74.3821 41.4369 71.5968 40.7815 69.1573 39.4708C66.7543 38.1601 64.8428 36.376 63.4229 34.1186C62.0393 31.8248 61.3475 29.2216 61.3475 26.3088C61.3475 23.3596 62.0393 20.7564 63.4229 18.499C64.8428 16.2052 66.7543 14.4211 69.1573 13.1468C71.5968 11.8361 74.3821 11.1807 77.5133 11.1807C80.6081 11.1807 83.3752 11.8361 85.8147 13.1468C88.2541 14.4211 90.1656 16.187 91.5491 18.4444C92.9327 20.7017 93.6245 23.3232 93.6245 26.3088C93.6245 29.2216 92.9327 31.8248 91.5491 34.1186C90.1656 36.376 88.2541 38.1601 85.8147 39.4708C83.3752 40.7815 80.6081 41.4369 77.5133 41.4369ZM77.5133 34.4463C78.9333 34.4463 80.2076 34.1186 81.3363 33.4632C82.465 32.8079 83.357 31.8794 84.0124 30.6779C84.6678 29.44 84.9954 27.9836 84.9954 26.3088C84.9954 24.5976 84.6678 23.1412 84.0124 21.9397C83.357 20.7382 82.465 19.8097 81.3363 19.1543C80.2076 18.499 78.9333 18.1713 77.5133 18.1713C76.0933 18.1713 74.819 18.499 73.6903 19.1543C72.5616 19.8097 71.6514 20.7382 70.9596 21.9397C70.3042 23.1412 69.9766 24.5976 69.9766 26.3088C69.9766 27.9836 70.3042 29.44 70.9596 30.6779C71.6514 31.8794 72.5616 32.8079 73.6903 33.4632C74.819 34.1186 76.0933 34.4463 77.5133 34.4463ZM112.481 41.4369C109.714 41.4369 107.22 40.818 104.999 39.58C102.778 38.3057 101.012 36.5398 99.7016 34.2825C98.4273 32.0251 97.7901 29.3672 97.7901 26.3088C97.7901 23.214 98.4273 20.5379 99.7016 18.2805C101.012 16.0231 102.778 14.2755 104.999 13.0376C107.22 11.7996 109.714 11.1807 112.481 11.1807C114.957 11.1807 117.123 11.7268 118.98 12.8191C120.837 13.9114 122.275 15.568 123.295 17.789C124.314 20.01 124.824 22.8499 124.824 26.3088C124.824 29.7313 124.333 32.5712 123.35 34.8286C122.366 37.0496 120.946 38.7062 119.09 39.7985C117.269 40.8908 115.066 41.4369 112.481 41.4369ZM113.956 34.4463C115.339 34.4463 116.596 34.1186 117.724 33.4632C118.853 32.8079 119.745 31.8794 120.4 30.6779C121.092 29.44 121.438 27.9836 121.438 26.3088C121.438 24.5976 121.092 23.1412 120.4 21.9397C119.745 20.7382 118.853 19.8097 117.724 19.1543C116.596 18.499 115.339 18.1713 113.956 18.1713C112.536 18.1713 111.262 18.499 110.133 19.1543C109.004 19.8097 108.094 20.7382 107.402 21.9397C106.747 23.1412 106.419 24.5976 106.419 26.3088C106.419 27.9836 106.747 29.44 107.402 30.6779C108.094 31.8794 109.004 32.8079 110.133 33.4632C111.262 34.1186 112.536 34.4463 113.956 34.4463ZM121.656 41V34.9924L121.82 26.2542L121.274 17.5705V0.476309H129.794V41H121.656ZM150.623 41.4369C148.183 41.4369 145.999 40.9636 144.069 40.0169C142.176 39.0703 140.701 37.6321 139.645 35.7024C138.59 33.7363 138.062 31.2423 138.062 28.2203V11.6176H146.581V26.9642C146.581 29.4036 147.091 31.2059 148.111 32.371C149.166 33.4997 150.641 34.064 152.534 34.064C153.845 34.064 155.01 33.7909 156.03 33.2448C157.049 32.6622 157.85 31.7884 158.433 30.6233C159.015 29.4218 159.307 27.929 159.307 26.145V11.6176H167.826V41H159.743V32.9171L161.218 35.2655C160.235 37.3044 158.779 38.8518 156.849 39.9077C154.956 40.9272 152.88 41.4369 150.623 41.4369ZM190.465 41.4369C187.298 41.4369 184.476 40.7997 182 39.5254C179.524 38.2147 177.576 36.4124 176.156 34.1186C174.773 31.8248 174.081 29.2216 174.081 26.3088C174.081 23.3596 174.773 20.7564 176.156 18.499C177.576 16.2052 179.524 14.4211 182 13.1468C184.476 11.8361 187.298 11.1807 190.465 11.1807C193.56 11.1807 196.254 11.8361 198.548 13.1468C200.842 14.4211 202.535 16.2598 203.627 18.6628L197.019 22.2127C196.254 20.8292 195.289 19.8097 194.124 19.1543C192.996 18.499 191.758 18.1713 190.411 18.1713C188.954 18.1713 187.643 18.499 186.478 19.1543C185.313 19.8097 184.385 20.7382 183.693 21.9397C183.038 23.1412 182.71 24.5976 182.71 26.3088C182.71 28.02 183.038 29.4764 183.693 30.6779C184.385 31.8794 185.313 32.8079 186.478 33.4632C187.643 34.1186 188.954 34.4463 190.411 34.4463C191.758 34.4463 192.996 34.1368 194.124 33.5179C195.289 32.8625 196.254 31.8248 197.019 30.4049L203.627 34.0094C202.535 36.376 200.842 38.2147 198.548 39.5254C196.254 40.7997 193.56 41.4369 190.465 41.4369ZM221.521 41.4369C218.062 41.4369 215.367 40.5631 213.438 38.8154C211.508 37.0314 210.543 34.3917 210.543 30.8964V5.11851H219.063V30.7872C219.063 32.0251 219.391 32.9899 220.046 33.6817C220.701 34.3371 221.593 34.6648 222.722 34.6648C224.069 34.6648 225.216 34.3007 226.163 33.5725L228.457 39.58C227.583 40.199 226.527 40.6723 225.289 41C224.087 41.2913 222.831 41.4369 221.521 41.4369ZM206.01 18.8267V12.273H226.381V18.8267H206.01ZM0.532974 108V69.7701H9.38046V108H0.532974ZM56.0278 78.1807C58.358 78.1807 60.4151 78.654 62.1992 79.6006C64.0196 80.5109 65.4396 81.9309 66.4591 83.8606C67.5149 85.7538 68.0429 88.1933 68.0429 91.1788V108H59.5231V92.4896C59.5231 90.123 59.0315 88.3753 58.0485 87.2466C57.0654 86.1179 55.6819 85.5536 53.8978 85.5536C52.6599 85.5536 51.5494 85.8449 50.5663 86.4274C49.5833 86.9736 48.8187 87.811 48.2726 88.9397C47.7264 90.0684 47.4533 91.5065 47.4533 93.2542V108H38.9335V92.4896C38.9335 90.123 38.442 88.3753 37.459 87.2466C36.5123 86.1179 35.147 85.5536 33.3629 85.5536C32.125 85.5536 31.0145 85.8449 30.0314 86.4274C29.0484 86.9736 28.2838 87.811 27.7376 88.9397C27.1915 90.0684 26.9184 91.5065 26.9184 93.2542V108H18.3986V78.6176H26.5361V86.6459L25.0069 84.2975C26.0264 82.2949 27.4646 80.784 29.3214 79.7645C31.2147 78.7086 33.3629 78.1807 35.7659 78.1807C38.4602 78.1807 40.8086 78.8725 42.8111 80.256C44.8501 81.6032 46.1972 83.6785 46.8526 86.482L43.8488 85.6628C44.8319 83.369 46.3975 81.5486 48.5456 80.2014C50.7302 78.8543 53.2242 78.1807 56.0278 78.1807ZM93.5929 108.437C91.1171 108.437 88.9507 107.891 87.0938 106.798C85.2369 105.706 83.7806 104.05 82.7247 101.829C81.7052 99.5712 81.1955 96.7313 81.1955 93.3088C81.1955 89.8499 81.687 87.01 82.6701 84.789C83.6531 82.568 85.0731 80.9114 86.93 79.8191C88.7869 78.7268 91.0078 78.1807 93.5929 78.1807C96.36 78.1807 98.8359 78.8178 101.02 80.0922C103.241 81.3301 104.989 83.0777 106.263 85.3351C107.574 87.5925 108.229 90.2504 108.229 93.3088C108.229 96.4036 107.574 99.0797 106.263 101.337C104.989 103.594 103.241 105.342 101.02 106.58C98.8359 107.818 96.36 108.437 93.5929 108.437ZM76.2256 118.595V78.6176H84.3631V84.6251L84.1993 93.3634L84.7454 102.047V118.595H76.2256ZM92.1183 101.446C93.5383 101.446 94.7944 101.119 95.8867 100.463C97.0154 99.8079 97.9074 98.8794 98.5628 97.6779C99.2546 96.44 99.6005 94.9836 99.6005 93.3088C99.6005 91.5976 99.2546 90.1412 98.5628 88.9397C97.9074 87.7382 97.0154 86.8097 95.8867 86.1543C94.7944 85.499 93.5383 85.1713 92.1183 85.1713C90.6984 85.1713 89.424 85.499 88.2953 86.1543C87.1666 86.8097 86.2746 87.7382 85.6192 88.9397C84.9639 90.1412 84.6362 91.5976 84.6362 93.3088C84.6362 94.9836 84.9639 96.44 85.6192 97.6779C86.2746 98.8794 87.1666 99.8079 88.2953 100.463C89.424 101.119 90.6984 101.446 92.1183 101.446ZM114.479 108V78.6176H122.616V86.9189L121.47 84.5159C122.343 82.4406 123.745 80.875 125.675 79.8191C127.605 78.7268 129.953 78.1807 132.72 78.1807V86.0451C132.356 86.0087 132.028 85.9905 131.737 85.9905C131.446 85.9541 131.136 85.9359 130.809 85.9359C128.478 85.9359 126.585 86.6095 125.129 87.9566C123.709 89.2674 122.999 91.3245 122.999 94.128V108H114.479ZM152.1 108.437C148.969 108.437 146.183 107.782 143.744 106.471C141.341 105.16 139.43 103.376 138.01 101.119C136.626 98.8248 135.934 96.2216 135.934 93.3088C135.934 90.3596 136.626 87.7564 138.01 85.499C139.43 83.2052 141.341 81.4211 143.744 80.1468C146.183 78.8361 148.969 78.1807 152.1 78.1807C155.195 78.1807 157.962 78.8361 160.401 80.1468C162.841 81.4211 164.752 83.187 166.136 85.4444C167.519 87.7017 168.211 90.3232 168.211 93.3088C168.211 96.2216 167.519 98.8248 166.136 101.119C164.752 103.376 162.841 105.16 160.401 106.471C157.962 107.782 155.195 108.437 152.1 108.437ZM152.1 101.446C153.52 101.446 154.794 101.119 155.923 100.463C157.052 99.8079 157.944 98.8794 158.599 97.6779C159.254 96.44 159.582 94.9836 159.582 93.3088C159.582 91.5976 159.254 90.1412 158.599 88.9397C157.944 87.7382 157.052 86.8097 155.923 86.1543C154.794 85.499 153.52 85.1713 152.1 85.1713C150.68 85.1713 149.406 85.499 148.277 86.1543C147.148 86.8097 146.238 87.7382 145.546 88.9397C144.891 90.1412 144.563 91.5976 144.563 93.3088C144.563 94.9836 144.891 96.44 145.546 97.6779C146.238 98.8794 147.148 99.8079 148.277 100.463C149.406 101.119 150.68 101.446 152.1 101.446ZM181.626 108L169.283 78.6176H178.076L188.343 103.904H183.974L194.624 78.6176H202.816L190.419 108H181.626ZM220.621 108.437C217.271 108.437 214.322 107.782 211.773 106.471C209.261 105.16 207.313 103.376 205.929 101.119C204.546 98.8248 203.854 96.2216 203.854 93.3088C203.854 90.3596 204.528 87.7564 205.875 85.499C207.258 83.2052 209.134 81.4211 211.5 80.1468C213.867 78.8361 216.543 78.1807 219.528 78.1807C222.405 78.1807 224.99 78.7996 227.284 80.0376C229.614 81.2391 231.452 82.9867 232.8 85.2805C234.147 87.5379 234.82 90.2504 234.82 93.418C234.82 93.7457 234.802 94.128 234.766 94.5649C234.729 94.9654 234.693 95.3477 234.657 95.7118H210.79V90.7419H230.178L226.901 92.2165C226.901 90.6873 226.592 89.3584 225.973 88.2297C225.354 87.101 224.498 86.2272 223.406 85.6082C222.314 84.9528 221.039 84.6251 219.583 84.6251C218.127 84.6251 216.834 84.9528 215.705 85.6082C214.613 86.2272 213.758 87.1192 213.139 88.2843C212.52 89.413 212.21 90.7601 212.21 92.3257V93.6365C212.21 95.2385 212.556 96.6585 213.248 97.8964C213.976 99.0979 214.977 100.026 216.252 100.682C217.562 101.301 219.091 101.61 220.839 101.61C222.405 101.61 223.77 101.373 224.935 100.9C226.137 100.427 227.229 99.7169 228.212 98.7702L232.745 103.685C231.398 105.215 229.705 106.398 227.666 107.235C225.627 108.036 223.279 108.437 220.621 108.437ZM278.668 78.1807C280.998 78.1807 283.055 78.654 284.839 79.6006C286.66 80.5109 288.08 81.9309 289.099 83.8606C290.155 85.7538 290.683 88.1933 290.683 91.1788V108H282.163V92.4896C282.163 90.123 281.672 88.3753 280.689 87.2466C279.706 86.1179 278.322 85.5536 276.538 85.5536C275.3 85.5536 274.189 85.8449 273.206 86.4274C272.223 86.9736 271.459 87.811 270.913 88.9397C270.366 90.0684 270.093 91.5065 270.093 93.2542V108H261.574V92.4896C261.574 90.123 261.082 88.3753 260.099 87.2466C259.152 86.1179 257.787 85.5536 256.003 85.5536C254.765 85.5536 253.655 85.8449 252.672 86.4274C251.688 86.9736 250.924 87.811 250.378 88.9397C249.832 90.0684 249.558 91.5065 249.558 93.2542V108H241.039V78.6176H249.176V86.6459L247.647 84.2975C248.666 82.2949 250.105 80.784 251.962 79.7645C253.855 78.7086 256.003 78.1807 258.406 78.1807C261.1 78.1807 263.449 78.8725 265.451 80.256C267.49 81.6032 268.837 83.6785 269.493 86.482L266.489 85.6628C267.472 83.369 269.038 81.5486 271.186 80.2014C273.37 78.8543 275.864 78.1807 278.668 78.1807ZM313.661 108.437C310.311 108.437 307.362 107.782 304.813 106.471C302.301 105.16 300.353 103.376 298.97 101.119C297.586 98.8248 296.894 96.2216 296.894 93.3088C296.894 90.3596 297.568 87.7564 298.915 85.499C300.299 83.2052 302.174 81.4211 304.54 80.1468C306.907 78.8361 309.583 78.1807 312.569 78.1807C315.445 78.1807 318.03 78.7996 320.324 80.0376C322.654 81.2391 324.493 82.9867 325.84 85.2805C327.187 87.5379 327.861 90.2504 327.861 93.418C327.861 93.7457 327.842 94.128 327.806 94.5649C327.77 94.9654 327.733 95.3477 327.697 95.7118H303.83V90.7419H323.218L319.942 92.2165C319.942 90.6873 319.632 89.3584 319.013 88.2297C318.394 87.101 317.539 86.2272 316.446 85.6082C315.354 84.9528 314.08 84.6251 312.623 84.6251C311.167 84.6251 309.874 84.9528 308.746 85.6082C307.653 86.2272 306.798 87.1192 306.179 88.2843C305.56 89.413 305.25 90.7601 305.25 92.3257V93.6365C305.25 95.2385 305.596 96.6585 306.288 97.8964C307.016 99.0979 308.018 100.026 309.292 100.682C310.603 101.301 312.132 101.61 313.879 101.61C315.445 101.61 316.81 101.373 317.975 100.9C319.177 100.427 320.269 99.7169 321.252 98.7702L325.785 103.685C324.438 105.215 322.745 106.398 320.706 107.235C318.667 108.036 316.319 108.437 313.661 108.437ZM351.938 78.1807C354.268 78.1807 356.343 78.654 358.164 79.6006C360.021 80.5109 361.477 81.9309 362.533 83.8606C363.589 85.7538 364.117 88.1933 364.117 91.1788V108H355.597V92.4896C355.597 90.123 355.069 88.3753 354.013 87.2466C352.994 86.1179 351.537 85.5536 349.644 85.5536C348.297 85.5536 347.077 85.8449 345.985 86.4274C344.929 86.9736 344.092 87.8292 343.473 88.9943C342.89 90.1594 342.599 91.6522 342.599 93.4726V108H334.079V78.6176H342.217V86.7551L340.687 84.2975C341.743 82.3314 343.254 80.8204 345.22 79.7645C347.186 78.7086 349.426 78.1807 351.938 78.1807ZM384.401 108.437C380.942 108.437 378.248 107.563 376.318 105.815C374.388 104.031 373.423 101.392 373.423 97.8964V72.1185H381.943V97.7872C381.943 99.0251 382.271 99.9899 382.926 100.682C383.582 101.337 384.474 101.665 385.602 101.665C386.949 101.665 388.096 101.301 389.043 100.572L391.337 106.58C390.463 107.199 389.407 107.672 388.169 108C386.968 108.291 385.712 108.437 384.401 108.437ZM368.89 85.8267V79.273H389.261V85.8267H368.89Z"/>
</mask>
<path d="M0.532974 41V2.7701H17.0811C20.5035 2.7701 23.4527 3.33445 25.9285 4.46314C28.4044 5.55542 30.3159 7.13923 31.663 9.21457C33.0102 11.2899 33.6838 13.7657 33.6838 16.6421C33.6838 19.482 33.0102 21.9397 31.663 24.015C30.3159 26.0903 28.4044 27.6924 25.9285 28.821C23.4527 29.9133 20.5035 30.4595 17.0811 30.4595H5.44825L9.38046 26.4726V41H0.532974ZM9.38046 27.4557L5.44825 23.2504H16.5895C19.3202 23.2504 21.3592 22.6679 22.7063 21.5028C24.0535 20.3377 24.727 18.7174 24.727 16.6421C24.727 14.5303 24.0535 12.8919 22.7063 11.7268C21.3592 10.5617 19.3202 9.97917 16.5895 9.97917H5.44825L9.38046 5.77388V27.4557ZM39.8923 41V11.6176H48.0298V19.9189L46.8829 17.5159C47.7567 15.4406 49.1585 13.875 51.0882 12.8191C53.0179 11.7268 55.3663 11.1807 58.1334 11.1807V19.0451C57.7693 19.0087 57.4416 18.9905 57.1503 18.9905C56.8591 18.9541 56.5496 18.9359 56.2219 18.9359C53.8917 18.9359 51.9984 19.6095 50.542 20.9566C49.1221 22.2674 48.4121 24.3245 48.4121 27.128V41H39.8923ZM77.5133 41.4369C74.3821 41.4369 71.5968 40.7815 69.1573 39.4708C66.7543 38.1601 64.8428 36.376 63.4229 34.1186C62.0393 31.8248 61.3475 29.2216 61.3475 26.3088C61.3475 23.3596 62.0393 20.7564 63.4229 18.499C64.8428 16.2052 66.7543 14.4211 69.1573 13.1468C71.5968 11.8361 74.3821 11.1807 77.5133 11.1807C80.6081 11.1807 83.3752 11.8361 85.8147 13.1468C88.2541 14.4211 90.1656 16.187 91.5491 18.4444C92.9327 20.7017 93.6245 23.3232 93.6245 26.3088C93.6245 29.2216 92.9327 31.8248 91.5491 34.1186C90.1656 36.376 88.2541 38.1601 85.8147 39.4708C83.3752 40.7815 80.6081 41.4369 77.5133 41.4369ZM77.5133 34.4463C78.9333 34.4463 80.2076 34.1186 81.3363 33.4632C82.465 32.8079 83.357 31.8794 84.0124 30.6779C84.6678 29.44 84.9954 27.9836 84.9954 26.3088C84.9954 24.5976 84.6678 23.1412 84.0124 21.9397C83.357 20.7382 82.465 19.8097 81.3363 19.1543C80.2076 18.499 78.9333 18.1713 77.5133 18.1713C76.0933 18.1713 74.819 18.499 73.6903 19.1543C72.5616 19.8097 71.6514 20.7382 70.9596 21.9397C70.3042 23.1412 69.9766 24.5976 69.9766 26.3088C69.9766 27.9836 70.3042 29.44 70.9596 30.6779C71.6514 31.8794 72.5616 32.8079 73.6903 33.4632C74.819 34.1186 76.0933 34.4463 77.5133 34.4463ZM112.481 41.4369C109.714 41.4369 107.22 40.818 104.999 39.58C102.778 38.3057 101.012 36.5398 99.7016 34.2825C98.4273 32.0251 97.7901 29.3672 97.7901 26.3088C97.7901 23.214 98.4273 20.5379 99.7016 18.2805C101.012 16.0231 102.778 14.2755 104.999 13.0376C107.22 11.7996 109.714 11.1807 112.481 11.1807C114.957 11.1807 117.123 11.7268 118.98 12.8191C120.837 13.9114 122.275 15.568 123.295 17.789C124.314 20.01 124.824 22.8499 124.824 26.3088C124.824 29.7313 124.333 32.5712 123.35 34.8286C122.366 37.0496 120.946 38.7062 119.09 39.7985C117.269 40.8908 115.066 41.4369 112.481 41.4369ZM113.956 34.4463C115.339 34.4463 116.596 34.1186 117.724 33.4632C118.853 32.8079 119.745 31.8794 120.4 30.6779C121.092 29.44 121.438 27.9836 121.438 26.3088C121.438 24.5976 121.092 23.1412 120.4 21.9397C119.745 20.7382 118.853 19.8097 117.724 19.1543C116.596 18.499 115.339 18.1713 113.956 18.1713C112.536 18.1713 111.262 18.499 110.133 19.1543C109.004 19.8097 108.094 20.7382 107.402 21.9397C106.747 23.1412 106.419 24.5976 106.419 26.3088C106.419 27.9836 106.747 29.44 107.402 30.6779C108.094 31.8794 109.004 32.8079 110.133 33.4632C111.262 34.1186 112.536 34.4463 113.956 34.4463ZM121.656 41V34.9924L121.82 26.2542L121.274 17.5705V0.476309H129.794V41H121.656ZM150.623 41.4369C148.183 41.4369 145.999 40.9636 144.069 40.0169C142.176 39.0703 140.701 37.6321 139.645 35.7024C138.59 33.7363 138.062 31.2423 138.062 28.2203V11.6176H146.581V26.9642C146.581 29.4036 147.091 31.2059 148.111 32.371C149.166 33.4997 150.641 34.064 152.534 34.064C153.845 34.064 155.01 33.7909 156.03 33.2448C157.049 32.6622 157.85 31.7884 158.433 30.6233C159.015 29.4218 159.307 27.929 159.307 26.145V11.6176H167.826V41H159.743V32.9171L161.218 35.2655C160.235 37.3044 158.779 38.8518 156.849 39.9077C154.956 40.9272 152.88 41.4369 150.623 41.4369ZM190.465 41.4369C187.298 41.4369 184.476 40.7997 182 39.5254C179.524 38.2147 177.576 36.4124 176.156 34.1186C174.773 31.8248 174.081 29.2216 174.081 26.3088C174.081 23.3596 174.773 20.7564 176.156 18.499C177.576 16.2052 179.524 14.4211 182 13.1468C184.476 11.8361 187.298 11.1807 190.465 11.1807C193.56 11.1807 196.254 11.8361 198.548 13.1468C200.842 14.4211 202.535 16.2598 203.627 18.6628L197.019 22.2127C196.254 20.8292 195.289 19.8097 194.124 19.1543C192.996 18.499 191.758 18.1713 190.411 18.1713C188.954 18.1713 187.643 18.499 186.478 19.1543C185.313 19.8097 184.385 20.7382 183.693 21.9397C183.038 23.1412 182.71 24.5976 182.71 26.3088C182.71 28.02 183.038 29.4764 183.693 30.6779C184.385 31.8794 185.313 32.8079 186.478 33.4632C187.643 34.1186 188.954 34.4463 190.411 34.4463C191.758 34.4463 192.996 34.1368 194.124 33.5179C195.289 32.8625 196.254 31.8248 197.019 30.4049L203.627 34.0094C202.535 36.376 200.842 38.2147 198.548 39.5254C196.254 40.7997 193.56 41.4369 190.465 41.4369ZM221.521 41.4369C218.062 41.4369 215.367 40.5631 213.438 38.8154C211.508 37.0314 210.543 34.3917 210.543 30.8964V5.11851H219.063V30.7872C219.063 32.0251 219.391 32.9899 220.046 33.6817C220.701 34.3371 221.593 34.6648 222.722 34.6648C224.069 34.6648 225.216 34.3007 226.163 33.5725L228.457 39.58C227.583 40.199 226.527 40.6723 225.289 41C224.087 41.2913 222.831 41.4369 221.521 41.4369ZM206.01 18.8267V12.273H226.381V18.8267H206.01ZM0.532974 108V69.7701H9.38046V108H0.532974ZM56.0278 78.1807C58.358 78.1807 60.4151 78.654 62.1992 79.6006C64.0196 80.5109 65.4396 81.9309 66.4591 83.8606C67.5149 85.7538 68.0429 88.1933 68.0429 91.1788V108H59.5231V92.4896C59.5231 90.123 59.0315 88.3753 58.0485 87.2466C57.0654 86.1179 55.6819 85.5536 53.8978 85.5536C52.6599 85.5536 51.5494 85.8449 50.5663 86.4274C49.5833 86.9736 48.8187 87.811 48.2726 88.9397C47.7264 90.0684 47.4533 91.5065 47.4533 93.2542V108H38.9335V92.4896C38.9335 90.123 38.442 88.3753 37.459 87.2466C36.5123 86.1179 35.147 85.5536 33.3629 85.5536C32.125 85.5536 31.0145 85.8449 30.0314 86.4274C29.0484 86.9736 28.2838 87.811 27.7376 88.9397C27.1915 90.0684 26.9184 91.5065 26.9184 93.2542V108H18.3986V78.6176H26.5361V86.6459L25.0069 84.2975C26.0264 82.2949 27.4646 80.784 29.3214 79.7645C31.2147 78.7086 33.3629 78.1807 35.7659 78.1807C38.4602 78.1807 40.8086 78.8725 42.8111 80.256C44.8501 81.6032 46.1972 83.6785 46.8526 86.482L43.8488 85.6628C44.8319 83.369 46.3975 81.5486 48.5456 80.2014C50.7302 78.8543 53.2242 78.1807 56.0278 78.1807ZM93.5929 108.437C91.1171 108.437 88.9507 107.891 87.0938 106.798C85.2369 105.706 83.7806 104.05 82.7247 101.829C81.7052 99.5712 81.1955 96.7313 81.1955 93.3088C81.1955 89.8499 81.687 87.01 82.6701 84.789C83.6531 82.568 85.0731 80.9114 86.93 79.8191C88.7869 78.7268 91.0078 78.1807 93.5929 78.1807C96.36 78.1807 98.8359 78.8178 101.02 80.0922C103.241 81.3301 104.989 83.0777 106.263 85.3351C107.574 87.5925 108.229 90.2504 108.229 93.3088C108.229 96.4036 107.574 99.0797 106.263 101.337C104.989 103.594 103.241 105.342 101.02 106.58C98.8359 107.818 96.36 108.437 93.5929 108.437ZM76.2256 118.595V78.6176H84.3631V84.6251L84.1993 93.3634L84.7454 102.047V118.595H76.2256ZM92.1183 101.446C93.5383 101.446 94.7944 101.119 95.8867 100.463C97.0154 99.8079 97.9074 98.8794 98.5628 97.6779C99.2546 96.44 99.6005 94.9836 99.6005 93.3088C99.6005 91.5976 99.2546 90.1412 98.5628 88.9397C97.9074 87.7382 97.0154 86.8097 95.8867 86.1543C94.7944 85.499 93.5383 85.1713 92.1183 85.1713C90.6984 85.1713 89.424 85.499 88.2953 86.1543C87.1666 86.8097 86.2746 87.7382 85.6192 88.9397C84.9639 90.1412 84.6362 91.5976 84.6362 93.3088C84.6362 94.9836 84.9639 96.44 85.6192 97.6779C86.2746 98.8794 87.1666 99.8079 88.2953 100.463C89.424 101.119 90.6984 101.446 92.1183 101.446ZM114.479 108V78.6176H122.616V86.9189L121.47 84.5159C122.343 82.4406 123.745 80.875 125.675 79.8191C127.605 78.7268 129.953 78.1807 132.72 78.1807V86.0451C132.356 86.0087 132.028 85.9905 131.737 85.9905C131.446 85.9541 131.136 85.9359 130.809 85.9359C128.478 85.9359 126.585 86.6095 125.129 87.9566C123.709 89.2674 122.999 91.3245 122.999 94.128V108H114.479ZM152.1 108.437C148.969 108.437 146.183 107.782 143.744 106.471C141.341 105.16 139.43 103.376 138.01 101.119C136.626 98.8248 135.934 96.2216 135.934 93.3088C135.934 90.3596 136.626 87.7564 138.01 85.499C139.43 83.2052 141.341 81.4211 143.744 80.1468C146.183 78.8361 148.969 78.1807 152.1 78.1807C155.195 78.1807 157.962 78.8361 160.401 80.1468C162.841 81.4211 164.752 83.187 166.136 85.4444C167.519 87.7017 168.211 90.3232 168.211 93.3088C168.211 96.2216 167.519 98.8248 166.136 101.119C164.752 103.376 162.841 105.16 160.401 106.471C157.962 107.782 155.195 108.437 152.1 108.437ZM152.1 101.446C153.52 101.446 154.794 101.119 155.923 100.463C157.052 99.8079 157.944 98.8794 158.599 97.6779C159.254 96.44 159.582 94.9836 159.582 93.3088C159.582 91.5976 159.254 90.1412 158.599 88.9397C157.944 87.7382 157.052 86.8097 155.923 86.1543C154.794 85.499 153.52 85.1713 152.1 85.1713C150.68 85.1713 149.406 85.499 148.277 86.1543C147.148 86.8097 146.238 87.7382 145.546 88.9397C144.891 90.1412 144.563 91.5976 144.563 93.3088C144.563 94.9836 144.891 96.44 145.546 97.6779C146.238 98.8794 147.148 99.8079 148.277 100.463C149.406 101.119 150.68 101.446 152.1 101.446ZM181.626 108L169.283 78.6176H178.076L188.343 103.904H183.974L194.624 78.6176H202.816L190.419 108H181.626ZM220.621 108.437C217.271 108.437 214.322 107.782 211.773 106.471C209.261 105.16 207.313 103.376 205.929 101.119C204.546 98.8248 203.854 96.2216 203.854 93.3088C203.854 90.3596 204.528 87.7564 205.875 85.499C207.258 83.2052 209.134 81.4211 211.5 80.1468C213.867 78.8361 216.543 78.1807 219.528 78.1807C222.405 78.1807 224.99 78.7996 227.284 80.0376C229.614 81.2391 231.452 82.9867 232.8 85.2805C234.147 87.5379 234.82 90.2504 234.82 93.418C234.82 93.7457 234.802 94.128 234.766 94.5649C234.729 94.9654 234.693 95.3477 234.657 95.7118H210.79V90.7419H230.178L226.901 92.2165C226.901 90.6873 226.592 89.3584 225.973 88.2297C225.354 87.101 224.498 86.2272 223.406 85.6082C222.314 84.9528 221.039 84.6251 219.583 84.6251C218.127 84.6251 216.834 84.9528 215.705 85.6082C214.613 86.2272 213.758 87.1192 213.139 88.2843C212.52 89.413 212.21 90.7601 212.21 92.3257V93.6365C212.21 95.2385 212.556 96.6585 213.248 97.8964C213.976 99.0979 214.977 100.026 216.252 100.682C217.562 101.301 219.091 101.61 220.839 101.61C222.405 101.61 223.77 101.373 224.935 100.9C226.137 100.427 227.229 99.7169 228.212 98.7702L232.745 103.685C231.398 105.215 229.705 106.398 227.666 107.235C225.627 108.036 223.279 108.437 220.621 108.437ZM278.668 78.1807C280.998 78.1807 283.055 78.654 284.839 79.6006C286.66 80.5109 288.08 81.9309 289.099 83.8606C290.155 85.7538 290.683 88.1933 290.683 91.1788V108H282.163V92.4896C282.163 90.123 281.672 88.3753 280.689 87.2466C279.706 86.1179 278.322 85.5536 276.538 85.5536C275.3 85.5536 274.189 85.8449 273.206 86.4274C272.223 86.9736 271.459 87.811 270.913 88.9397C270.366 90.0684 270.093 91.5065 270.093 93.2542V108H261.574V92.4896C261.574 90.123 261.082 88.3753 260.099 87.2466C259.152 86.1179 257.787 85.5536 256.003 85.5536C254.765 85.5536 253.655 85.8449 252.672 86.4274C251.688 86.9736 250.924 87.811 250.378 88.9397C249.832 90.0684 249.558 91.5065 249.558 93.2542V108H241.039V78.6176H249.176V86.6459L247.647 84.2975C248.666 82.2949 250.105 80.784 251.962 79.7645C253.855 78.7086 256.003 78.1807 258.406 78.1807C261.1 78.1807 263.449 78.8725 265.451 80.256C267.49 81.6032 268.837 83.6785 269.493 86.482L266.489 85.6628C267.472 83.369 269.038 81.5486 271.186 80.2014C273.37 78.8543 275.864 78.1807 278.668 78.1807ZM313.661 108.437C310.311 108.437 307.362 107.782 304.813 106.471C302.301 105.16 300.353 103.376 298.97 101.119C297.586 98.8248 296.894 96.2216 296.894 93.3088C296.894 90.3596 297.568 87.7564 298.915 85.499C300.299 83.2052 302.174 81.4211 304.54 80.1468C306.907 78.8361 309.583 78.1807 312.569 78.1807C315.445 78.1807 318.03 78.7996 320.324 80.0376C322.654 81.2391 324.493 82.9867 325.84 85.2805C327.187 87.5379 327.861 90.2504 327.861 93.418C327.861 93.7457 327.842 94.128 327.806 94.5649C327.77 94.9654 327.733 95.3477 327.697 95.7118H303.83V90.7419H323.218L319.942 92.2165C319.942 90.6873 319.632 89.3584 319.013 88.2297C318.394 87.101 317.539 86.2272 316.446 85.6082C315.354 84.9528 314.08 84.6251 312.623 84.6251C311.167 84.6251 309.874 84.9528 308.746 85.6082C307.653 86.2272 306.798 87.1192 306.179 88.2843C305.56 89.413 305.25 90.7601 305.25 92.3257V93.6365C305.25 95.2385 305.596 96.6585 306.288 97.8964C307.016 99.0979 308.018 100.026 309.292 100.682C310.603 101.301 312.132 101.61 313.879 101.61C315.445 101.61 316.81 101.373 317.975 100.9C319.177 100.427 320.269 99.7169 321.252 98.7702L325.785 103.685C324.438 105.215 322.745 106.398 320.706 107.235C318.667 108.036 316.319 108.437 313.661 108.437ZM351.938 78.1807C354.268 78.1807 356.343 78.654 358.164 79.6006C360.021 80.5109 361.477 81.9309 362.533 83.8606C363.589 85.7538 364.117 88.1933 364.117 91.1788V108H355.597V92.4896C355.597 90.123 355.069 88.3753 354.013 87.2466C352.994 86.1179 351.537 85.5536 349.644 85.5536C348.297 85.5536 347.077 85.8449 345.985 86.4274C344.929 86.9736 344.092 87.8292 343.473 88.9943C342.89 90.1594 342.599 91.6522 342.599 93.4726V108H334.079V78.6176H342.217V86.7551L340.687 84.2975C341.743 82.3314 343.254 80.8204 345.22 79.7645C347.186 78.7086 349.426 78.1807 351.938 78.1807ZM384.401 108.437C380.942 108.437 378.248 107.563 376.318 105.815C374.388 104.031 373.423 101.392 373.423 97.8964V72.1185H381.943V97.7872C381.943 99.0251 382.271 99.9899 382.926 100.682C383.582 101.337 384.474 101.665 385.602 101.665C386.949 101.665 388.096 101.301 389.043 100.572L391.337 106.58C390.463 107.199 389.407 107.672 388.169 108C386.968 108.291 385.712 108.437 384.401 108.437ZM368.89 85.8267V79.273H389.261V85.8267H368.89Z" fill="white"/>
<path d="M0.532974 41H-1.15914V42.6921H0.532974V41ZM0.532974 2.7701V1.07799H-1.15914V2.7701H0.532974ZM25.9285 4.46314L25.2266 6.00281L25.2361 6.0071L25.2455 6.01129L25.9285 4.46314ZM31.663 9.21457L30.2437 10.1359L30.2437 10.1359L31.663 9.21457ZM25.9285 28.821L26.6116 30.3692L26.621 30.365L26.6305 30.3607L25.9285 28.821ZM5.44825 30.4595L4.24352 29.2712L1.40264 32.1516H5.44825V30.4595ZM9.38046 26.4726H11.0726V22.3473L8.17574 25.2844L9.38046 26.4726ZM9.38046 41V42.6921H11.0726V41H9.38046ZM9.38046 27.4557L8.1445 28.6114L11.0726 31.7428V27.4557H9.38046ZM5.44825 23.2504V21.5583H1.5494L4.21229 24.4061L5.44825 23.2504ZM5.44825 9.97917L4.21229 8.82347L1.5494 11.6713H5.44825V9.97917ZM9.38046 5.77388H11.0726V1.48677L8.1445 4.61818L9.38046 5.77388ZM2.22509 41V2.7701H-1.15914V41H2.22509ZM0.532974 4.46221H17.0811V1.07799H0.532974V4.46221ZM17.0811 4.46221C20.3219 4.46221 23.0203 4.99696 25.2266 6.00281L26.6305 2.92348C23.8851 1.67194 20.6852 1.07799 17.0811 1.07799V4.46221ZM25.2455 6.01129C27.4496 6.98366 29.0925 8.36242 30.2437 10.1359L33.0823 8.29327C31.5392 5.91605 29.3592 4.12719 26.6116 2.915L25.2455 6.01129ZM30.2437 10.1359C31.3854 11.8947 31.9916 14.0384 31.9916 16.6421H35.3759C35.3759 13.4931 34.635 10.6852 33.0823 8.29327L30.2437 10.1359ZM31.9916 16.6421C31.9916 19.2046 31.3876 21.3315 30.2437 23.0937L33.0823 24.9363C34.6327 22.5479 35.3759 19.7595 35.3759 16.6421H31.9916ZM30.2437 23.0937C29.0893 24.8722 27.4397 26.2725 25.2266 27.2814L26.6305 30.3607C29.3691 29.1122 31.5425 27.3085 33.0823 24.9363L30.2437 23.0937ZM25.2455 27.2729C23.0338 28.2487 20.3285 28.7674 17.0811 28.7674V32.1516C20.6786 32.1516 23.8716 31.578 26.6116 30.3692L25.2455 27.2729ZM17.0811 28.7674H5.44825V32.1516H17.0811V28.7674ZM6.65297 31.6477L10.5852 27.6609L8.17574 25.2844L4.24352 29.2712L6.65297 31.6477ZM7.68835 26.4726V41H11.0726V26.4726H7.68835ZM9.38046 39.3079H0.532974V42.6921H9.38046V39.3079ZM10.6164 26.3L6.68421 22.0947L4.21229 24.4061L8.1445 28.6114L10.6164 26.3ZM5.44825 24.9425H16.5895V21.5583H5.44825V24.9425ZM16.5895 24.9425C19.5188 24.9425 22.0312 24.3238 23.8132 22.7826L21.5994 20.2229C20.6871 21.0119 19.1217 21.5583 16.5895 21.5583V24.9425ZM23.8132 22.7826C25.5949 21.2417 26.4191 19.119 26.4191 16.6421H23.0349C23.0349 18.3159 22.512 19.4336 21.5994 20.2229L23.8132 22.7826ZM26.4191 16.6421C26.4191 14.1394 25.6017 11.9938 23.8132 10.447L21.5994 13.0067C22.5052 13.7901 23.0349 14.9213 23.0349 16.6421H26.4191ZM23.8132 10.447C22.0312 8.9058 19.5188 8.28706 16.5895 8.28706V11.6713C19.1217 11.6713 20.6871 12.2176 21.5994 13.0067L23.8132 10.447ZM16.5895 8.28706H5.44825V11.6713H16.5895V8.28706ZM6.68421 11.1349L10.6164 6.92958L8.1445 4.61818L4.21229 8.82347L6.68421 11.1349ZM7.68835 5.77388V27.4557H11.0726V5.77388H7.68835ZM39.8923 41H38.2002V42.6921H39.8923V41ZM39.8923 11.6176V9.92548H38.2002V11.6176H39.8923ZM48.0298 11.6176H49.7219V9.92548H48.0298V11.6176ZM48.0298 19.9189L46.5027 20.6478L49.7219 19.9189H48.0298ZM46.8829 17.5159L45.3234 16.8593L45.0286 17.5593L45.3558 18.2448L46.8829 17.5159ZM51.0882 12.8191L51.9004 14.3035L51.9111 14.2977L51.9217 14.2917L51.0882 12.8191ZM58.1334 11.1807H59.8255V9.48857H58.1334V11.1807ZM58.1334 19.0451L57.965 20.7288L59.8255 20.9149V19.0451H58.1334ZM57.1503 18.9905L56.9405 20.6695L57.045 20.6826H57.1503V18.9905ZM50.542 20.9566L51.6898 22.2L51.691 22.1988L50.542 20.9566ZM48.4121 41V42.6921H50.1042V41H48.4121ZM41.5844 41V11.6176H38.2002V41H41.5844ZM39.8923 13.3097H48.0298V9.92548H39.8923V13.3097ZM46.3377 11.6176V19.9189H49.7219V11.6176H46.3377ZM49.5569 19.1901L48.41 16.7871L45.3558 18.2448L46.5027 20.6478L49.5569 19.1901ZM48.4424 18.1726C49.1716 16.4406 50.3147 15.1712 51.9004 14.3035L50.2759 11.3347C48.0022 12.5788 46.3418 14.4406 45.3234 16.8593L48.4424 18.1726ZM51.9217 14.2917C53.5415 13.3748 55.5869 12.8728 58.1334 12.8728V9.48857C55.1456 9.48857 52.4943 10.0788 50.2546 11.3465L51.9217 14.2917ZM56.4413 11.1807V19.0451H59.8255V11.1807H56.4413ZM58.3018 17.3614C57.8952 17.3207 57.5099 17.2984 57.1503 17.2984V20.6826C57.3733 20.6826 57.6434 20.6967 57.965 20.7288L58.3018 17.3614ZM57.3602 17.3115C56.9919 17.2654 56.6118 17.2438 56.2219 17.2438V20.628C56.4874 20.628 56.7263 20.6428 56.9405 20.6695L57.3602 17.3115ZM56.2219 17.2438C53.5449 17.2438 51.2158 18.0284 49.393 19.7144L51.691 22.1988C52.7811 21.1905 54.2385 20.628 56.2219 20.628V17.2438ZM49.3943 19.7132C47.4954 21.4661 46.72 24.0681 46.72 27.128H50.1042C50.1042 24.5809 50.7487 23.0686 51.6898 22.2L49.3943 19.7132ZM46.72 27.128V41H50.1042V27.128H46.72ZM48.4121 39.3079H39.8923V42.6921H48.4121V39.3079ZM69.1573 39.4708L68.3471 40.9563L68.3564 40.9614L69.1573 39.4708ZM63.4229 34.1186L61.9739 34.9926L61.9821 35.0062L61.9906 35.0196L63.4229 34.1186ZM63.4229 18.499L61.9841 17.6083L61.9802 17.6147L63.4229 18.499ZM69.1573 13.1468L69.9501 14.6417L69.9582 14.6374L69.1573 13.1468ZM85.8147 13.1468L85.0138 14.6374L85.0224 14.642L85.0312 14.6466L85.8147 13.1468ZM91.5491 18.4444L90.1064 19.3286L91.5491 18.4444ZM91.5491 34.1186L92.9919 35.0029L92.9981 34.9926L91.5491 34.1186ZM85.8147 39.4708L85.0138 37.9802L85.0138 37.9802L85.8147 39.4708ZM81.3363 33.4632L82.186 34.9266L82.186 34.9266L81.3363 33.4632ZM84.0124 30.6779L85.4979 31.4882L85.5029 31.479L85.5079 31.4696L84.0124 30.6779ZM84.0124 21.9397L82.5269 22.7499L82.5269 22.7499L84.0124 21.9397ZM81.3363 19.1543L80.4866 20.6177L80.4866 20.6177L81.3363 19.1543ZM73.6903 19.1543L74.54 20.6177L74.54 20.6177L73.6903 19.1543ZM70.9596 21.9397L69.4932 21.0954L69.4835 21.1123L69.4741 21.1294L70.9596 21.9397ZM70.9596 30.6779L69.4641 31.4696L69.4782 31.4962L69.4932 31.5222L70.9596 30.6779ZM73.6903 33.4632L74.54 31.9999L74.54 31.9999L73.6903 33.4632ZM77.5133 39.7448C74.6246 39.7448 72.1208 39.1422 69.9582 37.9802L68.3564 40.9614C71.0728 42.4209 74.1396 43.129 77.5133 43.129V39.7448ZM69.9676 37.9853C67.8115 36.8092 66.117 35.2236 64.8552 33.2177L61.9906 35.0196C63.5687 37.5284 65.6972 39.5109 68.3471 40.9563L69.9676 37.9853ZM64.8718 33.2447C63.6611 31.2375 63.0396 28.9414 63.0396 26.3088H59.6554C59.6554 29.5017 60.4175 32.4122 61.9739 34.9926L64.8718 33.2447ZM63.0396 26.3088C63.0396 23.6352 63.6632 21.3449 64.8656 19.3832L61.9802 17.6147C60.4154 20.1678 59.6554 23.0841 59.6554 26.3088H63.0396ZM64.8616 19.3896C66.1223 17.3532 67.8099 15.7767 69.9501 14.6417L68.3646 11.6519C65.6988 13.0656 63.5634 15.0572 61.9841 17.6083L64.8616 19.3896ZM69.9582 14.6374C72.1208 13.4754 74.6246 12.8728 77.5133 12.8728V9.48857C74.1396 9.48857 71.0728 10.1967 68.3564 11.6562L69.9582 14.6374ZM77.5133 12.8728C80.362 12.8728 82.8484 13.4739 85.0138 14.6374L86.6156 11.6562C83.9021 10.1982 80.8542 9.48857 77.5133 9.48857V12.8728ZM85.0312 14.6466C87.2104 15.785 88.8894 17.3428 90.1064 19.3286L92.9918 17.5601C91.4418 15.0311 89.2977 13.0572 86.5981 11.647L85.0312 14.6466ZM90.1064 19.3286C91.3068 21.2871 91.9324 23.5945 91.9324 26.3088H95.3166C95.3166 23.052 94.5586 20.1164 92.9918 17.5601L90.1064 19.3286ZM91.9324 26.3088C91.9324 28.9414 91.3109 31.2375 90.1002 33.2447L92.9981 34.9926C94.5545 32.4122 95.3166 29.5017 95.3166 26.3088H91.9324ZM90.1064 33.2344C88.8867 35.2245 87.202 36.8045 85.0138 37.9802L86.6156 40.9614C89.3062 39.5157 91.4444 37.5275 92.9918 35.0029L90.1064 33.2344ZM85.0138 37.9802C82.8484 39.1437 80.362 39.7448 77.5133 39.7448V43.129C80.8542 43.129 83.9021 42.4194 86.6156 40.9614L85.0138 37.9802ZM77.5133 36.1384C79.2047 36.1384 80.7767 35.7448 82.186 34.9266L80.4866 31.9999C79.6385 32.4924 78.6619 32.7542 77.5133 32.7542V36.1384ZM82.186 34.9266C83.5956 34.1081 84.7018 32.9476 85.4979 31.4882L82.5269 29.8677C82.0122 30.8112 81.3343 31.5077 80.4866 31.9999L82.186 34.9266ZM85.5079 31.4696C86.3154 29.9444 86.6876 28.2059 86.6876 26.3088H83.3033C83.3033 27.7614 83.0202 28.9357 82.5169 29.8862L85.5079 31.4696ZM86.6876 26.3088C86.6876 24.3841 86.3187 22.6342 85.4979 21.1294L82.5269 22.7499C83.0168 23.6482 83.3033 24.811 83.3033 26.3088H86.6876ZM85.4979 21.1294C84.7018 19.67 83.5956 18.5095 82.186 17.691L80.4866 20.6177C81.3343 21.1099 82.0122 21.8064 82.5269 22.7499L85.4979 21.1294ZM82.186 17.691C80.7767 16.8728 79.2047 16.4792 77.5133 16.4792V19.8634C78.6619 19.8634 79.6385 20.1252 80.4866 20.6177L82.186 17.691ZM77.5133 16.4792C75.822 16.4792 74.2499 16.8728 72.8406 17.691L74.54 20.6177C75.3882 20.1252 76.3647 19.8634 77.5133 19.8634V16.4792ZM72.8406 17.691C71.4397 18.5045 70.3233 19.6536 69.4932 21.0954L72.426 22.784C72.9795 21.8227 73.6836 21.1149 74.54 20.6177L72.8406 17.691ZM69.4741 21.1294C68.6533 22.6342 68.2844 24.3841 68.2844 26.3088H71.6687C71.6687 24.811 71.9552 23.6482 72.4451 22.7499L69.4741 21.1294ZM68.2844 26.3088C68.2844 28.2059 68.6566 29.9444 69.4641 31.4696L72.4551 29.8862C71.9518 28.9357 71.6687 27.7614 71.6687 26.3088H68.2844ZM69.4932 31.5222C70.3233 32.9639 71.4397 34.1131 72.8406 34.9266L74.54 31.9999C73.6836 31.5027 72.9795 30.7949 72.426 29.8336L69.4932 31.5222ZM72.8406 34.9266C74.2499 35.7448 75.822 36.1384 77.5133 36.1384V32.7542C76.3647 32.7542 75.3882 32.4924 74.54 31.9999L72.8406 34.9266ZM104.999 39.58L104.157 41.0477L104.166 41.0529L104.175 41.0581L104.999 39.58ZM99.7016 34.2825L98.228 35.1143L98.2331 35.1232L98.2383 35.1321L99.7016 34.2825ZM99.7016 18.2805L98.2383 17.4308L98.2331 17.4397L98.228 17.4487L99.7016 18.2805ZM104.999 13.0376L104.175 11.5595L104.175 11.5595L104.999 13.0376ZM118.98 12.8191L119.838 11.3606L119.838 11.3606L118.98 12.8191ZM123.295 17.789L124.833 17.0831L124.833 17.0831L123.295 17.789ZM123.35 34.8286L124.897 35.5135L124.901 35.5042L123.35 34.8286ZM119.09 39.7985L118.232 38.34L118.225 38.3437L118.219 38.3475L119.09 39.7985ZM117.724 33.4632L116.875 31.9999L116.875 31.9999L117.724 33.4632ZM120.4 30.6779L118.923 29.8525L118.919 29.86L118.915 29.8677L120.4 30.6779ZM120.4 21.9397L118.915 22.7499L118.924 22.7671L118.934 22.784L120.4 21.9397ZM117.724 19.1543L116.875 20.6177L116.875 20.6177L117.724 19.1543ZM110.133 19.1543L110.983 20.6177L110.983 20.6177L110.133 19.1543ZM107.402 21.9397L105.936 21.0954L105.926 21.1123L105.917 21.1294L107.402 21.9397ZM107.402 30.6779L105.907 31.4696L105.921 31.4962L105.936 31.5222L107.402 30.6779ZM110.133 33.4632L110.983 31.9999L110.983 31.9999L110.133 33.4632ZM121.656 41H119.964V42.6921H121.656V41ZM121.656 34.9924L119.965 34.9607L119.964 34.9766V34.9924H121.656ZM121.82 26.2542L123.512 26.2859L123.513 26.2169L123.509 26.148L121.82 26.2542ZM121.274 17.5705H119.582V17.6237L119.585 17.6767L121.274 17.5705ZM121.274 0.476309V-1.2158H119.582V0.476309H121.274ZM129.794 0.476309H131.486V-1.2158H129.794V0.476309ZM129.794 41V42.6921H131.486V41H129.794ZM112.481 39.7448C109.976 39.7448 107.77 39.1873 105.823 38.102L104.175 41.0581C106.67 42.4486 109.452 43.129 112.481 43.129V39.7448ZM105.841 38.1124C103.883 36.9889 102.329 35.4384 101.165 33.4328L98.2383 35.1321C99.6952 37.6413 101.673 39.6225 104.157 41.0477L105.841 38.1124ZM101.175 33.4506C100.068 31.4893 99.4822 29.1284 99.4822 26.3088H96.098C96.098 29.606 96.7866 32.5609 98.228 35.1143L101.175 33.4506ZM99.4822 26.3088C99.4822 23.4489 100.07 21.0708 101.175 19.1124L98.228 17.4487C96.785 20.005 96.098 22.9791 96.098 26.3088H99.4822ZM101.165 19.1302C102.327 17.1286 103.875 15.6013 105.823 14.5156L104.175 11.5595C101.681 12.9497 99.6975 14.9177 98.2383 17.4308L101.165 19.1302ZM105.823 14.5156C107.77 13.4303 109.976 12.8728 112.481 12.8728V9.48857C109.452 9.48857 106.67 10.169 104.175 11.5595L105.823 14.5156ZM112.481 12.8728C114.701 12.8728 116.562 13.3599 118.122 14.2776L119.838 11.3606C117.685 10.0937 115.213 9.48857 112.481 9.48857V12.8728ZM118.122 14.2776C119.642 15.1715 120.862 16.5446 121.757 18.4949L124.833 17.0831C123.689 14.5915 122.032 12.6513 119.838 11.3606L118.122 14.2776ZM121.757 18.4949C122.642 20.4224 123.132 22.9994 123.132 26.3088H126.516C126.516 22.7004 125.987 19.5976 124.833 17.0831L121.757 18.4949ZM123.132 26.3088C123.132 29.5835 122.66 32.1747 121.798 34.153L124.901 35.5042C126.005 32.9678 126.516 29.8791 126.516 26.3088H123.132ZM121.802 34.1437C120.943 36.0841 119.745 37.4496 118.232 38.34L119.948 41.257C122.148 39.9628 123.79 38.0151 124.897 35.5135L121.802 34.1437ZM118.219 38.3475C116.713 39.2509 114.826 39.7448 112.481 39.7448V43.129C115.306 43.129 117.825 42.5307 119.96 41.2495L118.219 38.3475ZM113.956 36.1384C115.619 36.1384 117.172 35.7409 118.574 34.9266L116.875 31.9999C116.02 32.4964 115.06 32.7542 113.956 32.7542V36.1384ZM118.574 34.9266C119.984 34.1081 121.09 32.9476 121.886 31.4882L118.915 29.8677C118.4 30.8112 117.722 31.5077 116.875 31.9999L118.574 34.9266ZM121.877 31.5034C122.734 29.971 123.13 28.2201 123.13 26.3088H119.746C119.746 27.7471 119.45 28.909 118.923 29.8525L121.877 31.5034ZM123.13 26.3088C123.13 24.3701 122.737 22.6074 121.867 21.0954L118.934 22.784C119.447 23.6749 119.746 24.825 119.746 26.3088H123.13ZM121.886 21.1294C121.09 19.67 119.984 18.5095 118.574 17.691L116.875 20.6177C117.722 21.1099 118.4 21.8064 118.915 22.7499L121.886 21.1294ZM118.574 17.691C117.172 16.8767 115.619 16.4792 113.956 16.4792V19.8634C115.06 19.8634 116.02 20.1212 116.875 20.6177L118.574 17.691ZM113.956 16.4792C112.265 16.4792 110.692 16.8728 109.283 17.691L110.983 20.6177C111.831 20.1252 112.807 19.8634 113.956 19.8634V16.4792ZM109.283 17.691C107.882 18.5045 106.766 19.6536 105.936 21.0954L108.869 22.784C109.422 21.8227 110.126 21.1149 110.983 20.6177L109.283 17.691ZM105.917 21.1294C105.096 22.6342 104.727 24.3841 104.727 26.3088H108.111C108.111 24.811 108.398 23.6482 108.888 22.7499L105.917 21.1294ZM104.727 26.3088C104.727 28.2059 105.099 29.9444 105.907 31.4696L108.898 29.8862C108.394 28.9357 108.111 27.7614 108.111 26.3088H104.727ZM105.936 31.5222C106.766 32.9639 107.882 34.1131 109.283 34.9266L110.983 31.9999C110.126 31.5027 109.422 30.7949 108.869 29.8336L105.936 31.5222ZM109.283 34.9266C110.692 35.7448 112.265 36.1384 113.956 36.1384V32.7542C112.807 32.7542 111.831 32.4924 110.983 31.9999L109.283 34.9266ZM123.349 41V34.9924H119.964V41H123.349ZM123.348 35.0242L123.512 26.2859L120.128 26.2225L119.965 34.9607L123.348 35.0242ZM123.509 26.148L122.963 17.4643L119.585 17.6767L120.132 26.3604L123.509 26.148ZM122.966 17.5705V0.476309H119.582V17.5705H122.966ZM121.274 2.16842H129.794V-1.2158H121.274V2.16842ZM128.102 0.476309V41H131.486V0.476309H128.102ZM129.794 39.3079H121.656V42.6921H129.794V39.3079ZM144.069 40.0169L143.312 41.5305L143.324 41.5361L144.069 40.0169ZM139.645 35.7024L138.155 36.503L138.161 36.5147L139.645 35.7024ZM138.062 11.6176V9.92548H136.369V11.6176H138.062ZM146.581 11.6176H148.274V9.92548H146.581V11.6176ZM148.111 32.371L146.837 33.4852L146.856 33.5064L146.875 33.5269L148.111 32.371ZM156.03 33.2448L156.829 34.7364L156.849 34.7254L156.869 34.714L156.03 33.2448ZM158.433 30.6233L159.946 31.38L159.951 31.3708L159.955 31.3615L158.433 30.6233ZM159.307 11.6176V9.92548H157.614V11.6176H159.307ZM167.826 11.6176H169.518V9.92548H167.826V11.6176ZM167.826 41V42.6921H169.518V41H167.826ZM159.743 41H158.051V42.6921H159.743V41ZM159.743 32.9171L161.176 32.0173L158.051 27.0402V32.9171H159.743ZM161.218 35.2655L162.742 36.0004L163.148 35.1579L162.651 34.3657L161.218 35.2655ZM156.849 39.9077L157.651 41.3976L157.661 41.3921L156.849 39.9077ZM150.623 39.7448C148.407 39.7448 146.483 39.3162 144.814 38.4978L143.324 41.5361C145.515 42.611 147.96 43.129 150.623 43.129V39.7448ZM144.826 38.5035C143.254 37.7173 142.027 36.5301 141.13 34.8902L138.161 36.5147C139.375 38.7342 141.098 40.4233 143.312 41.5304L144.826 38.5035ZM141.136 34.9018C140.251 33.2535 139.754 31.0575 139.754 28.2203H136.369C136.369 31.4271 136.928 34.2191 138.155 36.503L141.136 34.9018ZM139.754 28.2203V11.6176H136.369V28.2203H139.754ZM138.062 13.3097H146.581V9.92548H138.062V13.3097ZM144.889 11.6176V26.9642H148.274V11.6176H144.889ZM144.889 26.9642C144.889 29.5893 145.43 31.8768 146.837 33.4852L149.384 31.2567C148.752 30.5349 148.274 29.2179 148.274 26.9642H144.889ZM146.875 33.5269C148.321 35.0724 150.286 35.7561 152.534 35.7561V32.3719C150.996 32.3719 150.012 31.9269 149.346 31.215L146.875 33.5269ZM152.534 35.7561C154.086 35.7561 155.532 35.4308 156.829 34.7364L155.231 31.7532C154.488 32.151 153.604 32.3719 152.534 32.3719V35.7561ZM156.869 34.714C158.21 33.9478 159.231 32.81 159.946 31.38L156.919 29.8666C156.469 30.7668 155.888 31.3767 155.19 31.7756L156.869 34.714ZM159.955 31.3615C160.68 29.8661 160.999 28.1028 160.999 26.145H157.614C157.614 27.7552 157.35 28.9775 156.91 29.8851L159.955 31.3615ZM160.999 26.145V11.6176H157.614V26.145H160.999ZM159.307 13.3097H167.826V9.92548H159.307V13.3097ZM166.134 11.6176V41H169.518V11.6176H166.134ZM167.826 39.3079H159.743V42.6921H167.826V39.3079ZM161.436 41V32.9171H158.051V41H161.436ZM158.31 33.8169L159.785 36.1653L162.651 34.3657L161.176 32.0173L158.31 33.8169ZM159.694 34.5306C158.859 36.2614 157.647 37.5421 156.037 38.4233L157.661 41.3921C159.91 40.1616 161.611 38.3475 162.742 36.0004L159.694 34.5306ZM156.047 38.4179C154.412 39.2979 152.615 39.7448 150.623 39.7448V43.129C153.146 43.129 155.499 42.5565 157.651 41.3976L156.047 38.4179ZM182 39.5254L181.208 41.0209L181.217 41.0255L181.226 41.0299L182 39.5254ZM176.156 34.1186L174.707 34.9926L174.712 35.001L174.717 35.0093L176.156 34.1186ZM176.156 18.499L174.717 17.6083L174.714 17.6147L176.156 18.499ZM182 13.1468L182.774 14.6513L182.783 14.6468L182.792 14.6423L182 13.1468ZM198.548 13.1468L197.709 14.616L197.717 14.621L197.726 14.626L198.548 13.1468ZM203.627 18.6628L204.428 20.1535L205.823 19.4041L205.168 17.9626L203.627 18.6628ZM197.019 22.2127L195.538 23.0312L196.347 24.4947L197.82 23.7034L197.019 22.2127ZM194.124 19.1543L193.275 20.6177L193.285 20.6235L193.295 20.6291L194.124 19.1543ZM186.478 19.1543L187.308 20.6291L187.308 20.6291L186.478 19.1543ZM183.693 21.9397L182.227 21.0954L182.217 21.1123L182.207 21.1294L183.693 21.9397ZM183.693 30.6779L182.207 31.4882L182.217 31.5053L182.227 31.5222L183.693 30.6779ZM186.478 33.4632L187.308 31.9884L187.308 31.9884L186.478 33.4632ZM194.124 33.5179L194.938 35.0015L194.946 34.9971L194.954 34.9927L194.124 33.5179ZM197.019 30.4049L197.829 28.9194L196.336 28.1047L195.529 29.6026L197.019 30.4049ZM203.627 34.0094L205.164 34.7185L205.827 33.2817L204.437 32.5239L203.627 34.0094ZM198.548 39.5254L199.37 41.0046L199.379 40.9996L199.388 40.9946L198.548 39.5254ZM190.465 39.7448C187.53 39.7448 184.98 39.1559 182.774 38.0209L181.226 41.0299C183.972 42.4436 187.065 43.129 190.465 43.129V39.7448ZM182.792 38.03C180.571 36.8542 178.851 35.2562 177.595 33.228L174.717 35.0093C176.302 37.5686 178.478 39.5752 181.208 41.0209L182.792 38.03ZM177.605 33.2447C176.395 31.2375 175.773 28.9414 175.773 26.3088H172.389C172.389 29.5017 173.151 32.4122 174.707 34.9926L177.605 33.2447ZM175.773 26.3088C175.773 23.6352 176.397 21.3449 177.599 19.3832L174.714 17.6147C173.149 20.1678 172.389 23.0841 172.389 26.3088H175.773ZM177.595 19.3896C178.848 17.3656 180.562 15.7898 182.774 14.6513L181.226 11.6423C178.486 13.0524 176.304 15.0447 174.717 17.6083L177.595 19.3896ZM182.792 14.6423C184.993 13.4767 187.537 12.8728 190.465 12.8728V9.48857C187.058 9.48857 183.958 10.1954 181.208 11.6513L182.792 14.6423ZM190.465 12.8728C193.316 12.8728 195.711 13.4746 197.709 14.616L199.388 11.6776C196.797 10.1975 193.804 9.48857 190.465 9.48857V12.8728ZM197.726 14.626C199.701 15.7232 201.143 17.2878 202.087 19.363L205.168 17.9626C203.926 15.2318 201.982 13.1191 199.37 11.6676L197.726 14.626ZM202.826 17.1722L196.218 20.7221L197.82 23.7034L204.428 20.1535L202.826 17.1722ZM198.5 21.3943C197.611 19.7865 196.439 18.5151 194.954 17.6795L193.295 20.6291C194.139 21.1043 194.897 21.8719 195.538 23.0312L198.5 21.3943ZM194.974 17.691C193.579 16.8808 192.046 16.4792 190.411 16.4792V19.8634C191.469 19.8634 192.413 20.1171 193.275 20.6177L194.974 17.691ZM190.411 16.4792C188.69 16.4792 187.089 16.8692 185.649 17.6795L187.308 20.6291C188.197 20.1288 189.218 19.8634 190.411 19.8634V16.4792ZM185.649 17.6795C184.208 18.4897 183.064 19.6405 182.227 21.0954L185.159 22.784C185.705 21.8358 186.418 21.1297 187.308 20.6291L185.649 17.6795ZM182.207 21.1294C181.387 22.6342 181.018 24.3841 181.018 26.3088H184.402C184.402 24.811 184.689 23.6482 185.178 22.7499L182.207 21.1294ZM181.018 26.3088C181.018 28.2335 181.387 29.9834 182.207 31.4882L185.178 29.8677C184.689 28.9694 184.402 27.8066 184.402 26.3088H181.018ZM182.227 31.5222C183.064 32.9771 184.208 34.1279 185.649 34.9381L187.308 31.9884C186.418 31.4879 185.705 30.7818 185.159 29.8336L182.227 31.5222ZM185.649 34.9381C187.089 35.7484 188.69 36.1384 190.411 36.1384V32.7542C189.218 32.7542 188.197 32.4888 187.308 31.9884L185.649 34.9381ZM190.411 36.1384C192.028 36.1384 193.548 35.7637 194.938 35.0015L193.311 32.0342C192.443 32.51 191.487 32.7542 190.411 32.7542V36.1384ZM194.954 34.9927C196.451 34.1504 197.624 32.8505 198.509 31.2071L195.529 29.6026C194.885 30.7991 194.128 31.5746 193.295 32.0431L194.954 34.9927ZM196.209 31.8904L202.817 35.4949L204.437 32.5239L197.829 28.9194L196.209 31.8904ZM202.091 33.3003C201.148 35.3426 199.701 36.9177 197.709 38.0563L199.388 40.9946C201.983 39.5117 203.922 37.4094 205.164 34.7185L202.091 33.3003ZM197.726 38.0462C195.726 39.1578 193.324 39.7448 190.465 39.7448V43.129C193.796 43.129 196.783 42.4417 199.37 41.0046L197.726 38.0462ZM213.438 38.8154L212.289 40.0579L212.295 40.0638L212.302 40.0696L213.438 38.8154ZM210.543 5.11851V3.4264H208.851V5.11851H210.543ZM219.063 5.11851H220.755V3.4264H219.063V5.11851ZM220.046 33.6817L218.818 34.8454L218.833 34.862L218.849 34.8782L220.046 33.6817ZM226.163 33.5725L227.744 32.9689L226.933 30.8454L225.131 32.2313L226.163 33.5725ZM228.457 39.58L229.435 40.9608L230.505 40.2024L230.037 38.9765L228.457 39.58ZM225.289 41L225.688 42.6445L225.705 42.6403L225.722 42.6358L225.289 41ZM206.01 18.8267H204.318V20.5188H206.01V18.8267ZM206.01 12.273V10.5809H204.318V12.273H206.01ZM226.381 12.273H228.073V10.5809H226.381V12.273ZM226.381 18.8267V20.5188H228.073V18.8267H226.381ZM221.521 39.7448C218.341 39.7448 216.102 38.9451 214.574 37.5612L212.302 40.0696C214.633 42.1811 217.782 43.129 221.521 43.129V39.7448ZM214.586 37.573C213.107 36.2052 212.235 34.0829 212.235 30.8964H208.851C208.851 34.7005 209.909 37.8575 212.289 40.0579L214.586 37.573ZM212.235 30.8964V5.11851H208.851V30.8964H212.235ZM210.543 6.81062H219.063V3.4264H210.543V6.81062ZM217.371 5.11851V30.7872H220.755V5.11851H217.371ZM217.371 30.7872C217.371 32.3241 217.784 33.754 218.818 34.8454L221.274 32.518C220.998 32.2258 220.755 31.726 220.755 30.7872H217.371ZM218.849 34.8782C219.889 35.9176 221.249 36.3569 222.722 36.3569V32.9726C221.938 32.9726 221.514 32.7565 221.242 32.4852L218.849 34.8782ZM222.722 36.3569C224.392 36.3569 225.915 35.8982 227.194 34.9137L225.131 32.2313C224.518 32.7031 223.746 32.9726 222.722 32.9726V36.3569ZM224.582 34.1761L226.876 40.1836L230.037 38.9765L227.744 32.9689L224.582 34.1761ZM227.478 38.1992C226.798 38.6809 225.936 39.0784 224.856 39.3642L225.722 42.6358C227.118 42.2662 228.367 41.7171 229.435 40.9608L227.478 38.1992ZM224.89 39.3555C223.827 39.6133 222.705 39.7448 221.521 39.7448V43.129C222.958 43.129 224.348 42.9692 225.688 42.6445L224.89 39.3555ZM207.702 18.8267V12.273H204.318V18.8267H207.702ZM206.01 13.9651H226.381V10.5809H206.01V13.9651ZM224.689 12.273V18.8267H228.073V12.273H224.689ZM226.381 17.1345H206.01V20.5188H226.381V17.1345ZM0.532974 108H-1.15914V109.692H0.532974V108ZM0.532974 69.7701V68.078H-1.15914V69.7701H0.532974ZM9.38046 69.7701H11.0726V68.078H9.38046V69.7701ZM9.38046 108V109.692H11.0726V108H9.38046ZM2.22509 108V69.7701H-1.15914V108H2.22509ZM0.532974 71.4622H9.38046V68.078H0.532974V71.4622ZM7.68835 69.7701V108H11.0726V69.7701H7.68835ZM9.38046 106.308H0.532974V109.692H9.38046V106.308ZM62.1992 79.6006L61.406 81.0954L61.4241 81.105L61.4424 81.1141L62.1992 79.6006ZM66.4591 83.8606L64.9629 84.651L64.9719 84.668L64.9812 84.6847L66.4591 83.8606ZM68.0429 108V109.692H69.735V108H68.0429ZM59.5231 108H57.831V109.692H59.5231V108ZM58.0485 87.2466L59.3245 86.1353L59.3245 86.1353L58.0485 87.2466ZM50.5663 86.4274L51.3881 87.9066L51.4087 87.8951L51.429 87.8831L50.5663 86.4274ZM48.2726 88.9397L49.7957 89.6767L49.7957 89.6767L48.2726 88.9397ZM47.4533 108V109.692H49.1455V108H47.4533ZM38.9335 108H37.2414V109.692H38.9335V108ZM37.459 87.2466L36.1625 88.334L36.1726 88.3461L36.183 88.358L37.459 87.2466ZM30.0314 86.4274L30.8532 87.9066L30.8738 87.8951L30.8941 87.8831L30.0314 86.4274ZM27.7376 88.9397L29.2608 89.6767L29.2608 89.6767L27.7376 88.9397ZM26.9184 108V109.692H28.6105V108H26.9184ZM18.3986 108H16.7065V109.692H18.3986V108ZM18.3986 78.6176V76.9255H16.7065V78.6176H18.3986ZM26.5361 78.6176H28.2282V76.9255H26.5361V78.6176ZM26.5361 86.6459L25.1181 87.5692L28.2282 92.3454V86.6459H26.5361ZM25.0069 84.2975L23.499 83.5298L23.0553 84.4013L23.5889 85.2208L25.0069 84.2975ZM29.3214 79.7645L30.1358 81.2478L30.1456 81.2423L29.3214 79.7645ZM42.8111 80.256L41.8493 81.6482L41.8637 81.6581L41.8784 81.6678L42.8111 80.256ZM46.8526 86.482L46.4074 88.1145L49.1466 88.8616L48.5003 86.0969L46.8526 86.482ZM43.8488 85.6628L42.2935 84.9963L41.5275 86.7836L43.4036 87.2953L43.8488 85.6628ZM48.5456 80.2014L47.6574 78.7611L47.6466 78.7679L48.5456 80.2014ZM56.0278 79.8728C58.1242 79.8728 59.9014 80.297 61.406 81.0954L62.9923 78.1059C60.9288 77.011 58.5917 76.4886 56.0278 76.4886V79.8728ZM61.4424 81.1141C62.9237 81.8548 64.0958 83.0097 64.9629 84.651L67.9552 83.0701C66.7834 80.852 65.1156 79.167 62.9559 78.0872L61.4424 81.1141ZM64.9812 84.6847C65.8535 86.2488 66.3508 88.3781 66.3508 91.1788H69.735C69.735 88.0085 69.1764 85.2589 67.9369 83.0364L64.9812 84.6847ZM66.3508 91.1788V108H69.735V91.1788H66.3508ZM68.0429 106.308H59.5231V109.692H68.0429V106.308ZM61.2152 108V92.4896H57.831V108H61.2152ZM61.2152 92.4896C61.2152 89.9396 60.6938 87.7075 59.3245 86.1353L56.7725 88.358C57.3693 89.0431 57.831 90.3064 57.831 92.4896H61.2152ZM59.3245 86.1353C57.9581 84.5664 56.0681 83.8615 53.8978 83.8615V87.2457C55.2956 87.2457 56.1728 87.6694 56.7725 88.358L59.3245 86.1353ZM53.8978 83.8615C52.3825 83.8615 50.9695 84.2216 49.7037 84.9717L51.429 87.8831C52.1293 87.4681 52.9373 87.2457 53.8978 87.2457V83.8615ZM49.7446 84.9482C48.4223 85.6829 47.4291 86.7979 46.7494 88.2026L49.7957 89.6767C50.2083 88.8241 50.7443 88.2642 51.3881 87.9066L49.7446 84.9482ZM46.7494 88.2026C46.0572 89.6332 45.7612 91.3457 45.7612 93.2542H49.1455C49.1455 91.6674 49.3956 90.5035 49.7957 89.6767L46.7494 88.2026ZM45.7612 93.2542V108H49.1455V93.2542H45.7612ZM47.4533 106.308H38.9335V109.692H47.4533V106.308ZM40.6256 108V92.4896H37.2414V108H40.6256ZM40.6256 92.4896C40.6256 89.9396 40.1043 87.7075 38.7349 86.1353L36.183 88.358C36.7797 89.0431 37.2414 90.3064 37.2414 92.4896H40.6256ZM38.7554 86.1593C37.4195 84.5664 35.5312 83.8615 33.3629 83.8615V87.2457C34.7627 87.2457 35.6051 87.6694 36.1625 88.334L38.7554 86.1593ZM33.3629 83.8615C31.8476 83.8615 30.4346 84.2216 29.1688 84.9717L30.8941 87.8831C31.5944 87.4681 32.4024 87.2457 33.3629 87.2457V83.8615ZM29.2097 84.9482C27.8873 85.6829 26.8942 86.7979 26.2145 88.2026L29.2608 89.6767C29.6734 88.8241 30.2094 88.2642 30.8532 87.9066L29.2097 84.9482ZM26.2145 88.2026C25.5223 89.6332 25.2263 91.3457 25.2263 93.2542H28.6105C28.6105 91.6674 28.8607 90.5035 29.2608 89.6767L26.2145 88.2026ZM25.2263 93.2542V108H28.6105V93.2542H25.2263ZM26.9184 106.308H18.3986V109.692H26.9184V106.308ZM20.0907 108V78.6176H16.7065V108H20.0907ZM18.3986 80.3097H26.5361V76.9255H18.3986V80.3097ZM24.844 78.6176V86.6459H28.2282V78.6176H24.844ZM27.9541 85.7225L26.4249 83.3741L23.5889 85.2208L25.1181 87.5692L27.9541 85.7225ZM26.5149 85.0651C27.3901 83.346 28.5952 82.0936 30.1358 81.2478L28.5071 78.2812C26.3339 79.4744 24.6627 81.2439 23.499 83.5298L26.5149 85.0651ZM30.1456 81.2423C31.7604 80.3418 33.6194 79.8728 35.7659 79.8728V76.4886C33.1064 76.4886 30.6691 77.0755 28.4973 78.2867L30.1456 81.2423ZM35.7659 79.8728C38.1549 79.8728 40.1595 80.4807 41.8493 81.6482L43.773 78.8639C41.4578 77.2643 38.7655 76.4886 35.7659 76.4886V79.8728ZM41.8784 81.6678C43.4934 82.7349 44.6292 84.4046 45.2049 86.8672L48.5003 86.0969C47.7652 82.9524 46.2067 80.4714 43.7439 78.8442L41.8784 81.6678ZM47.2978 84.8495L44.294 84.0303L43.4036 87.2953L46.4074 88.1145L47.2978 84.8495ZM45.4041 86.3294C46.2492 84.3574 47.5832 82.8023 49.4446 81.6349L47.6466 78.7679C45.2118 80.2948 43.4145 82.3806 42.2935 84.9963L45.4041 86.3294ZM49.4338 81.6417C51.3269 80.4742 53.5079 79.8728 56.0278 79.8728V76.4886C52.9405 76.4886 50.1334 77.2343 47.6575 78.7611L49.4338 81.6417ZM87.0938 106.798L87.9518 105.34L87.9518 105.34L87.0938 106.798ZM82.7247 101.829L81.1825 102.525L81.1894 102.54L81.1965 102.555L82.7247 101.829ZM82.6701 84.789L84.2174 85.4739L84.2174 85.4739L82.6701 84.789ZM86.93 79.8191L86.072 78.3606L86.072 78.3606L86.93 79.8191ZM101.02 80.0922L100.168 81.5538L100.182 81.5621L100.197 81.5702L101.02 80.0922ZM106.263 85.3351L104.79 86.167L104.795 86.1759L104.8 86.1848L106.263 85.3351ZM106.263 101.337L104.8 100.487L104.795 100.496L104.79 100.505L106.263 101.337ZM101.02 106.58L100.197 105.102L100.186 105.108L101.02 106.58ZM76.2256 118.595H74.5335V120.287H76.2256V118.595ZM76.2256 78.6176V76.9255H74.5335V78.6176H76.2256ZM84.3631 78.6176H86.0552V76.9255H84.3631V78.6176ZM84.3631 84.6251L86.0549 84.6569L86.0552 84.641V84.6251H84.3631ZM84.1993 93.3634L82.5075 93.3317L82.5062 93.4007L82.5105 93.4696L84.1993 93.3634ZM84.7454 102.047H86.4375V101.994L86.4342 101.941L84.7454 102.047ZM84.7454 118.595V120.287H86.4375V118.595H84.7454ZM95.8867 100.463L95.037 98.9999L95.0265 99.006L95.0161 99.0123L95.8867 100.463ZM98.5628 97.6779L97.0857 96.8525L97.0814 96.86L97.0773 96.8677L98.5628 97.6779ZM98.5628 88.9397L97.0773 89.7499L97.0866 89.7671L97.0964 89.784L98.5628 88.9397ZM95.8867 86.1543L95.0161 87.6053L95.0265 87.6116L95.037 87.6177L95.8867 86.1543ZM88.2953 86.1543L89.145 87.6177L89.145 87.6177L88.2953 86.1543ZM85.6192 88.9397L87.1047 89.7499L87.1047 89.7499L85.6192 88.9397ZM85.6192 97.6779L84.1238 98.4696L84.1287 98.479L84.1337 98.4882L85.6192 97.6779ZM88.2953 100.463L89.145 98.9999L89.145 98.9999L88.2953 100.463ZM93.5929 106.745C91.373 106.745 89.5118 106.258 87.9518 105.34L86.2359 108.257C88.3896 109.524 90.8611 110.129 93.5929 110.129V106.745ZM87.9518 105.34C86.4263 104.443 85.1847 103.062 84.2529 101.102L81.1965 102.555C82.3764 105.037 84.0476 106.97 86.2359 108.257L87.9518 105.34ZM84.2668 101.132C83.3764 99.1604 82.8876 96.5771 82.8876 93.3088H79.5034C79.5034 96.8855 80.0341 99.9821 81.1825 102.525L84.2668 101.132ZM82.8876 93.3088C82.8876 89.9931 83.3613 87.408 84.2174 85.4739L81.1228 84.1041C80.0127 86.6119 79.5034 89.7067 79.5034 93.3088H82.8876ZM84.2174 85.4739C85.0762 83.5335 86.2742 82.168 87.7879 81.2776L86.072 78.3606C83.872 79.6548 82.23 81.6025 81.1228 84.1041L84.2174 85.4739ZM87.7879 81.2776C89.3372 80.3663 91.249 79.8728 93.5929 79.8728V76.4886C90.7666 76.4886 88.2366 77.0874 86.072 78.3606L87.7879 81.2776ZM93.5929 79.8728C96.0895 79.8728 98.266 80.4444 100.168 81.5538L101.873 78.6306C99.4057 77.1913 96.6306 76.4886 93.5929 76.4886V79.8728ZM100.197 81.5702C102.14 82.6535 103.665 84.1751 104.79 86.167L107.737 84.5033C106.313 81.9804 104.343 80.0067 101.844 78.6141L100.197 81.5702ZM104.8 86.1848C105.937 88.1428 106.537 90.4972 106.537 93.3088H109.922C109.922 90.0036 109.211 87.0422 107.727 84.4855L104.8 86.1848ZM106.537 93.3088C106.537 96.1608 105.935 98.5323 104.8 100.487L107.727 102.187C109.213 99.627 109.922 96.6464 109.922 93.3088H106.537ZM104.79 100.505C103.665 102.497 102.14 104.019 100.197 105.102L101.844 108.058C104.343 106.666 106.313 104.692 107.737 102.169L104.79 100.505ZM100.186 105.108C98.2814 106.187 96.0982 106.745 93.5929 106.745V110.129C96.6218 110.129 99.3903 109.449 101.855 108.052L100.186 105.108ZM77.9177 118.595V78.6176H74.5335V118.595H77.9177ZM76.2256 80.3097H84.3631V76.9255H76.2256V80.3097ZM82.671 78.6176V84.6251H86.0552V78.6176H82.671ZM82.6713 84.5934L82.5075 93.3317L85.8911 93.3951L86.0549 84.6569L82.6713 84.5934ZM82.5105 93.4696L83.0566 102.153L86.4342 101.941L85.888 93.2572L82.5105 93.4696ZM83.0533 102.047V118.595H86.4375V102.047H83.0533ZM84.7454 116.903H76.2256V120.287H84.7454V116.903ZM92.1183 103.138C93.8088 103.138 95.3727 102.745 96.7573 101.914L95.0161 99.0123C94.2162 99.4922 93.2677 99.7542 92.1183 99.7542V103.138ZM96.7364 101.927C98.146 101.108 99.2522 99.9476 100.048 98.4882L97.0773 96.8677C96.5626 97.8112 95.8847 98.5077 95.037 98.9999L96.7364 101.927ZM100.04 98.5034C100.896 96.971 101.293 95.2201 101.293 93.3088H97.9083C97.9083 94.7471 97.6129 95.909 97.0857 96.8525L100.04 98.5034ZM101.293 93.3088C101.293 91.3701 100.9 89.6074 100.029 88.0954L97.0964 89.784C97.6093 90.6749 97.9083 91.825 97.9083 93.3088H101.293ZM100.048 88.1294C99.2522 86.67 98.146 85.5095 96.7364 84.691L95.037 87.6177C95.8847 88.1099 96.5626 88.8064 97.0773 89.7499L100.048 88.1294ZM96.7573 84.7034C95.3727 83.8726 93.8088 83.4792 92.1183 83.4792V86.8634C93.2677 86.8634 94.2162 87.1253 95.0161 87.6053L96.7573 84.7034ZM92.1183 83.4792C90.427 83.4792 88.8549 83.8728 87.4457 84.691L89.145 87.6177C89.9932 87.1252 90.9697 86.8634 92.1183 86.8634V83.4792ZM87.4457 84.691C86.036 85.5095 84.9298 86.67 84.1337 88.1294L87.1047 89.7499C87.6194 88.8064 88.2973 88.1099 89.145 87.6177L87.4457 84.691ZM84.1337 88.1294C83.3129 89.6342 82.9441 91.3841 82.9441 93.3088H86.3283C86.3283 91.811 86.6148 90.6482 87.1047 89.7499L84.1337 88.1294ZM82.9441 93.3088C82.9441 95.2059 83.3163 96.9444 84.1238 98.4696L87.1147 96.8862C86.6115 95.9357 86.3283 94.7614 86.3283 93.3088H82.9441ZM84.1337 98.4882C84.9298 99.9476 86.036 101.108 87.4457 101.927L89.145 98.9999C88.2973 98.5077 87.6194 97.8112 87.1047 96.8677L84.1337 98.4882ZM87.4457 101.927C88.8549 102.745 90.427 103.138 92.1183 103.138V99.7542C90.9697 99.7542 89.9932 99.4924 89.145 98.9999L87.4457 101.927ZM114.479 108H112.787V109.692H114.479V108ZM114.479 78.6176V76.9255H112.787V78.6176H114.479ZM122.616 78.6176H124.309V76.9255H122.616V78.6176ZM122.616 86.9189L121.089 87.6478L124.309 86.9189H122.616ZM121.47 84.5159L119.91 83.8593L119.615 84.5593L119.942 85.2448L121.47 84.5159ZM125.675 79.8191L126.487 81.3035L126.498 81.2977L126.508 81.2917L125.675 79.8191ZM132.72 78.1807H134.412V76.4886H132.72V78.1807ZM132.72 86.0451L132.552 87.7288L134.412 87.9149V86.0451H132.72ZM131.737 85.9905L131.527 87.6695L131.632 87.6826H131.737V85.9905ZM125.129 87.9566L126.276 89.2L126.278 89.1988L125.129 87.9566ZM122.999 108V109.692H124.691V108H122.999ZM116.171 108V78.6176H112.787V108H116.171ZM114.479 80.3097H122.616V76.9255H114.479V80.3097ZM120.924 78.6176V86.9189H124.309V78.6176H120.924ZM124.144 86.1901L122.997 83.7871L119.942 85.2448L121.089 87.6478L124.144 86.1901ZM123.029 85.1726C123.758 83.4406 124.901 82.1712 126.487 81.3035L124.863 78.3347C122.589 79.5788 120.928 81.4406 119.91 83.8593L123.029 85.1726ZM126.508 81.2917C128.128 80.3748 130.174 79.8728 132.72 79.8728V76.4886C129.732 76.4886 127.081 77.0788 124.841 78.3465L126.508 81.2917ZM131.028 78.1807V86.0451H134.412V78.1807H131.028ZM132.888 84.3614C132.482 84.3207 132.097 84.2984 131.737 84.2984V87.6826C131.96 87.6826 132.23 87.6967 132.552 87.7288L132.888 84.3614ZM131.947 84.3115C131.579 84.2654 131.198 84.2438 130.809 84.2438V87.628C131.074 87.628 131.313 87.6428 131.527 87.6695L131.947 84.3115ZM130.809 84.2438C128.132 84.2438 125.802 85.0284 123.98 86.7144L126.278 89.1988C127.368 88.1905 128.825 87.628 130.809 87.628V84.2438ZM123.981 86.7132C122.082 88.4661 121.307 91.0681 121.307 94.128H124.691C124.691 91.5809 125.335 90.0686 126.276 89.2L123.981 86.7132ZM121.307 94.128V108H124.691V94.128H121.307ZM122.999 106.308H114.479V109.692H122.999V106.308ZM143.744 106.471L142.934 107.956L142.943 107.961L143.744 106.471ZM138.01 101.119L136.561 101.993L136.569 102.006L136.577 102.02L138.01 101.119ZM138.01 85.499L136.571 84.6083L136.567 84.6147L138.01 85.499ZM143.744 80.1468L144.537 81.6417L144.545 81.6374L143.744 80.1468ZM160.401 80.1468L159.6 81.6374L159.609 81.642L159.618 81.6466L160.401 80.1468ZM166.136 85.4444L164.693 86.3286L166.136 85.4444ZM166.136 101.119L167.579 102.003L167.585 101.993L166.136 101.119ZM160.401 106.471L159.6 104.98L159.6 104.98L160.401 106.471ZM155.923 100.463L156.773 101.927L156.773 101.927L155.923 100.463ZM158.599 97.6779L160.085 98.4882L160.09 98.479L160.095 98.4696L158.599 97.6779ZM158.599 88.9397L157.114 89.7499L157.114 89.7499L158.599 88.9397ZM155.923 86.1543L155.073 87.6177L155.073 87.6177L155.923 86.1543ZM148.277 86.1543L149.127 87.6177L149.127 87.6177L148.277 86.1543ZM145.546 88.9397L144.08 88.0954L144.07 88.1123L144.061 88.1294L145.546 88.9397ZM145.546 97.6779L144.051 98.4696L144.065 98.4962L144.08 98.5222L145.546 97.6779ZM148.277 100.463L149.127 98.9999L149.127 98.9999L148.277 100.463ZM152.1 106.745C149.211 106.745 146.707 106.142 144.545 104.98L142.943 107.961C145.659 109.421 148.726 110.129 152.1 110.129V106.745ZM144.554 104.985C142.398 103.809 140.704 102.224 139.442 100.218L136.577 102.02C138.155 104.528 140.284 106.511 142.934 107.956L144.554 104.985ZM139.458 100.245C138.248 98.2375 137.626 95.9414 137.626 93.3088H134.242C134.242 96.5017 135.004 99.4122 136.561 101.993L139.458 100.245ZM137.626 93.3088C137.626 90.6352 138.25 88.3449 139.452 86.3832L136.567 84.6147C135.002 87.1678 134.242 90.0841 134.242 93.3088H137.626ZM139.448 86.3896C140.709 84.3532 142.397 82.7767 144.537 81.6417L142.951 78.6519C140.285 80.0656 138.15 82.0572 136.571 84.6083L139.448 86.3896ZM144.545 81.6374C146.707 80.4754 149.211 79.8728 152.1 79.8728V76.4886C148.726 76.4886 145.659 77.1967 142.943 78.6562L144.545 81.6374ZM152.1 79.8728C154.949 79.8728 157.435 80.4739 159.6 81.6374L161.202 78.6562C158.489 77.1982 155.441 76.4886 152.1 76.4886V79.8728ZM159.618 81.6466C161.797 82.785 163.476 84.3428 164.693 86.3286L167.579 84.5601C166.028 82.0311 163.884 80.0572 161.185 78.647L159.618 81.6466ZM164.693 86.3286C165.894 88.2871 166.519 90.5945 166.519 93.3088H169.903C169.903 90.052 169.145 87.1164 167.579 84.5601L164.693 86.3286ZM166.519 93.3088C166.519 95.9414 165.898 98.2375 164.687 100.245L167.585 101.993C169.141 99.4122 169.903 96.5017 169.903 93.3088H166.519ZM164.693 100.234C163.473 102.224 161.789 103.804 159.6 104.98L161.202 107.961C163.893 106.516 166.031 104.528 167.579 102.003L164.693 100.234ZM159.6 104.98C157.435 106.144 154.949 106.745 152.1 106.745V110.129C155.441 110.129 158.489 109.419 161.202 107.961L159.6 104.98ZM152.1 103.138C153.791 103.138 155.363 102.745 156.773 101.927L155.073 98.9999C154.225 99.4924 153.249 99.7542 152.1 99.7542V103.138ZM156.773 101.927C158.182 101.108 159.289 99.9476 160.085 98.4882L157.114 96.8677C156.599 97.8112 155.921 98.5077 155.073 98.9999L156.773 101.927ZM160.095 98.4696C160.902 96.9444 161.274 95.2059 161.274 93.3088H157.89C157.89 94.7614 157.607 95.9357 157.104 96.8862L160.095 98.4696ZM161.274 93.3088C161.274 91.3841 160.905 89.6342 160.085 88.1294L157.114 89.7499C157.604 90.6482 157.89 91.811 157.89 93.3088H161.274ZM160.085 88.1294C159.289 86.67 158.182 85.5095 156.773 84.691L155.073 87.6177C155.921 88.1099 156.599 88.8064 157.114 89.7499L160.085 88.1294ZM156.773 84.691C155.363 83.8728 153.791 83.4792 152.1 83.4792V86.8634C153.249 86.8634 154.225 87.1252 155.073 87.6177L156.773 84.691ZM152.1 83.4792C150.409 83.4792 148.837 83.8728 147.427 84.691L149.127 87.6177C149.975 87.1252 150.951 86.8634 152.1 86.8634V83.4792ZM147.427 84.691C146.026 85.5045 144.91 86.6536 144.08 88.0954L147.013 89.784C147.566 88.8227 148.27 88.1149 149.127 87.6177L147.427 84.691ZM144.061 88.1294C143.24 89.6342 142.871 91.3841 142.871 93.3088H146.255C146.255 91.811 146.542 90.6482 147.032 89.7499L144.061 88.1294ZM142.871 93.3088C142.871 95.2059 143.243 96.9444 144.051 98.4696L147.042 96.8862C146.539 95.9357 146.255 94.7614 146.255 93.3088H142.871ZM144.08 98.5222C144.91 99.9639 146.026 101.113 147.427 101.927L149.127 98.9999C148.27 98.5027 147.566 97.7949 147.013 96.8336L144.08 98.5222ZM147.427 101.927C148.837 102.745 150.409 103.138 152.1 103.138V99.7542C150.951 99.7542 149.975 99.4924 149.127 98.9999L147.427 101.927ZM181.626 108L180.066 108.655L180.501 109.692H181.626V108ZM169.283 78.6176V76.9255H166.737L167.723 79.2729L169.283 78.6176ZM178.076 78.6176L179.644 77.981L179.215 76.9255H178.076V78.6176ZM188.343 103.904V105.596H190.857L189.911 103.267L188.343 103.904ZM183.974 103.904L182.415 103.247L181.425 105.596H183.974V103.904ZM194.624 78.6176V76.9255H193.501L193.064 77.9608L194.624 78.6176ZM202.816 78.6176L204.375 79.2754L205.367 76.9255H202.816V78.6176ZM190.419 108V109.692H191.541L191.978 108.658L190.419 108ZM183.186 107.345L170.843 77.9623L167.723 79.2729L180.066 108.655L183.186 107.345ZM169.283 80.3097H178.076V76.9255H169.283V80.3097ZM176.508 79.2542L186.776 104.541L189.911 103.267L179.644 77.981L176.508 79.2542ZM188.343 102.212H183.974V105.596H188.343V102.212ZM185.534 104.561L196.183 79.2744L193.064 77.9608L182.415 103.247L185.534 104.561ZM194.624 80.3097H202.816V76.9255H194.624V80.3097ZM201.257 77.9598L188.86 107.342L191.978 108.658L204.375 79.2754L201.257 77.9598ZM190.419 106.308H181.626V109.692H190.419V106.308ZM211.773 106.471L210.99 107.971L210.999 107.976L211.773 106.471ZM205.929 101.119L204.481 101.993L204.487 102.003L205.929 101.119ZM205.875 85.499L204.426 84.625L204.422 84.6318L205.875 85.499ZM211.5 80.1468L212.302 81.6366L212.311 81.6319L212.32 81.627L211.5 80.1468ZM227.284 80.0376L226.48 81.5267L226.494 81.5342L226.508 81.5415L227.284 80.0376ZM232.8 85.2805L231.341 86.1375L231.347 86.1477L232.8 85.2805ZM234.766 94.5649L236.451 94.7181L236.452 94.7054L234.766 94.5649ZM234.657 95.7118V97.4039H236.188L236.34 95.8802L234.657 95.7118ZM210.79 95.7118H209.098V97.4039H210.79V95.7118ZM210.79 90.7419V89.0498H209.098V90.7419H210.79ZM230.178 90.7419L230.873 92.285L230.178 89.0498V90.7419ZM226.901 92.2165H225.209V94.8335L227.596 93.7596L226.901 92.2165ZM225.973 88.2297L224.489 89.0433L224.489 89.0433L225.973 88.2297ZM223.406 85.6082L222.535 87.0592L222.553 87.07L222.572 87.0804L223.406 85.6082ZM215.705 85.6082L216.54 87.0804L216.547 87.076L216.555 87.0715L215.705 85.6082ZM213.139 88.2843L214.622 89.0979L214.628 89.0881L214.633 89.0782L213.139 88.2843ZM213.248 97.8964L211.771 98.7218L211.785 98.7479L211.801 98.7734L213.248 97.8964ZM216.252 100.682L215.478 102.186L215.503 102.2L215.529 102.212L216.252 100.682ZM224.935 100.9L224.315 99.3258L224.307 99.3291L224.298 99.3325L224.935 100.9ZM228.212 98.7702L229.456 97.6231L228.284 96.352L227.038 97.5513L228.212 98.7702ZM232.745 103.685L234.015 104.804L235.023 103.66L233.989 102.538L232.745 103.685ZM227.666 107.235L228.285 108.81L228.297 108.806L228.309 108.801L227.666 107.235ZM220.621 106.745C217.495 106.745 214.819 106.134 212.547 104.966L210.999 107.976C213.825 109.429 217.047 110.129 220.621 110.129V106.745ZM212.556 104.971C210.296 103.791 208.584 102.212 207.372 100.234L204.487 102.003C206.042 104.54 208.226 106.529 210.99 107.971L212.556 104.971ZM207.378 100.245C206.168 98.2375 205.546 95.9414 205.546 93.3088H202.162C202.162 96.5017 202.924 99.4122 204.481 101.993L207.378 100.245ZM205.546 93.3088C205.546 90.6268 206.156 88.3304 207.328 86.3661L204.422 84.6318C202.9 87.1823 202.162 90.0924 202.162 93.3088H205.546ZM207.324 86.3729C208.55 84.3396 210.202 82.7678 212.302 81.6366L210.698 78.6569C208.065 80.0744 205.967 82.0708 204.426 84.625L207.324 86.3729ZM212.32 81.627C214.41 80.4693 216.799 79.8728 219.528 79.8728V76.4886C216.286 76.4886 213.323 77.2028 210.68 78.6665L212.32 81.627ZM219.528 79.8728C222.154 79.8728 224.458 80.4354 226.48 81.5267L228.087 78.5485C225.522 77.1639 222.656 76.4886 219.528 76.4886V79.8728ZM226.508 81.5415C228.549 82.5941 230.153 84.1154 231.341 86.1374L234.259 84.4236C232.752 81.8581 230.678 79.8841 228.059 78.5336L226.508 81.5415ZM231.347 86.1477C232.508 88.0938 233.128 90.493 233.128 93.418H236.512C236.512 90.0078 235.786 86.982 234.253 84.4134L231.347 86.1477ZM233.128 93.418C233.128 93.6862 233.113 94.0197 233.079 94.4244L236.452 94.7054C236.491 94.2363 236.512 93.8052 236.512 93.418H233.128ZM233.081 94.4117C233.045 94.8077 233.009 95.1849 232.973 95.5434L236.34 95.8802C236.377 95.5106 236.414 95.1232 236.451 94.7181L233.081 94.4117ZM234.657 94.0197H210.79V97.4039H234.657V94.0197ZM212.482 95.7118V90.7419H209.098V95.7118H212.482ZM210.79 92.434H230.178V89.0498H210.79V92.434ZM229.484 89.1989L226.207 90.6734L227.596 93.7596L230.873 92.285L229.484 89.1989ZM228.593 92.2165C228.593 90.4563 228.236 88.8371 227.457 87.4161L224.489 89.0433C224.948 89.8796 225.209 90.9183 225.209 92.2165H228.593ZM227.457 87.4161C226.69 86.0192 225.613 84.914 224.24 84.136L222.572 87.0804C223.383 87.5403 224.017 88.1828 224.489 89.0433L227.457 87.4161ZM224.277 84.1572C222.885 83.3225 221.301 82.933 219.583 82.933V86.3173C220.778 86.3173 221.742 86.5832 222.535 87.0592L224.277 84.1572ZM219.583 82.933C217.864 82.933 216.271 83.3228 214.856 84.1449L216.555 87.0715C217.397 86.5828 218.39 86.3173 219.583 86.3173V82.933ZM214.871 84.136C213.484 84.922 212.406 86.0562 211.644 87.4904L214.633 89.0782C215.109 88.1822 215.742 87.5324 216.54 87.0804L214.871 84.136ZM211.655 87.4707C210.873 88.8973 210.518 90.5368 210.518 92.3257H213.902C213.902 90.9835 214.167 89.9287 214.622 89.0979L211.655 87.4707ZM210.518 92.3257V93.6365H213.902V92.3257H210.518ZM210.518 93.6365C210.518 95.4894 210.92 97.2003 211.771 98.7218L214.725 97.0709C214.192 96.1166 213.902 94.9876 213.902 93.6365H210.518ZM211.801 98.7734C212.694 100.248 213.931 101.391 215.478 102.186L217.025 99.1769C216.023 98.6616 215.258 97.9479 214.695 97.0194L211.801 98.7734ZM215.529 102.212C217.107 102.957 218.892 103.302 220.839 103.302V99.918C219.291 99.918 218.017 99.6442 216.974 99.1516L215.529 102.212ZM220.839 103.302C222.571 103.302 224.162 103.041 225.572 102.468L224.298 99.3325C223.378 99.7062 222.238 99.918 220.839 99.918V103.302ZM225.555 102.475C226.974 101.915 228.252 101.08 229.386 99.9891L227.038 97.5513C226.206 98.3533 225.299 98.9382 224.315 99.3258L225.555 102.475ZM226.968 99.9174L231.501 104.833L233.989 102.538L229.456 97.6231L226.968 99.9174ZM231.475 102.567C230.314 103.885 228.841 104.923 227.023 105.67L228.309 108.801C230.568 107.873 232.482 106.544 234.015 104.804L231.475 102.567ZM227.047 105.66C225.242 106.369 223.111 106.745 220.621 106.745V110.129C223.446 110.129 226.011 109.703 228.285 108.81L227.047 105.66ZM284.839 79.6006L284.046 81.0954L284.064 81.105L284.082 81.1141L284.839 79.6006ZM289.099 83.8606L287.603 84.651L287.612 84.668L287.621 84.6847L289.099 83.8606ZM290.683 108V109.692H292.375V108H290.683ZM282.163 108H280.471V109.692H282.163V108ZM280.689 87.2466L281.965 86.1353L281.965 86.1353L280.689 87.2466ZM273.206 86.4274L274.028 87.9066L274.049 87.8951L274.069 87.8831L273.206 86.4274ZM270.913 88.9397L272.436 89.6767L272.436 89.6767L270.913 88.9397ZM270.093 108V109.692H271.786V108H270.093ZM261.574 108H259.881V109.692H261.574V108ZM260.099 87.2466L258.803 88.334L258.813 88.3461L258.823 88.358L260.099 87.2466ZM252.672 86.4274L253.493 87.9066L253.514 87.8951L253.534 87.8831L252.672 86.4274ZM250.378 88.9397L251.901 89.6767L251.901 89.6767L250.378 88.9397ZM249.558 108V109.692H251.251V108H249.558ZM241.039 108H239.347V109.692H241.039V108ZM241.039 78.6176V76.9255H239.347V78.6176H241.039ZM249.176 78.6176H250.868V76.9255H249.176V78.6176ZM249.176 86.6459L247.758 87.5692L250.868 92.3454V86.6459H249.176ZM247.647 84.2975L246.139 83.5298L245.695 84.4013L246.229 85.2208L247.647 84.2975ZM251.962 79.7645L252.776 81.2478L252.786 81.2423L251.962 79.7645ZM265.451 80.256L264.489 81.6482L264.504 81.6581L264.518 81.6678L265.451 80.256ZM269.493 86.482L269.047 88.1145L271.787 88.8616L271.14 86.0969L269.493 86.482ZM266.489 85.6628L264.934 84.9963L264.168 86.7836L266.044 87.2953L266.489 85.6628ZM271.186 80.2014L270.298 78.7611L270.287 78.7679L271.186 80.2014ZM278.668 79.8728C280.764 79.8728 282.542 80.297 284.046 81.0954L285.632 78.1059C283.569 77.011 281.232 76.4886 278.668 76.4886V79.8728ZM284.082 81.1141C285.564 81.8548 286.736 83.0097 287.603 84.651L290.595 83.0701C289.423 80.852 287.756 79.167 285.596 78.0872L284.082 81.1141ZM287.621 84.6847C288.494 86.2488 288.991 88.3781 288.991 91.1788H292.375C292.375 88.0085 291.816 85.2589 290.577 83.0364L287.621 84.6847ZM288.991 91.1788V108H292.375V91.1788H288.991ZM290.683 106.308H282.163V109.692H290.683V106.308ZM283.855 108V92.4896H280.471V108H283.855ZM283.855 92.4896C283.855 89.9396 283.334 87.7075 281.965 86.1353L279.413 88.358C280.009 89.0431 280.471 90.3064 280.471 92.4896H283.855ZM281.965 86.1353C280.598 84.5664 278.708 83.8615 276.538 83.8615V87.2457C277.936 87.2457 278.813 87.6694 279.413 88.358L281.965 86.1353ZM276.538 83.8615C275.023 83.8615 273.61 84.2216 272.344 84.9717L274.069 87.8831C274.769 87.4681 275.577 87.2457 276.538 87.2457V83.8615ZM272.385 84.9482C271.062 85.6829 270.069 86.7979 269.389 88.2026L272.436 89.6767C272.848 88.8241 273.384 88.2642 274.028 87.9066L272.385 84.9482ZM269.389 88.2026C268.697 89.6332 268.401 91.3457 268.401 93.2542H271.786C271.786 91.6674 272.036 90.5035 272.436 89.6767L269.389 88.2026ZM268.401 93.2542V108H271.786V93.2542H268.401ZM270.093 106.308H261.574V109.692H270.093V106.308ZM263.266 108V92.4896H259.881V108H263.266ZM263.266 92.4896C263.266 89.9396 262.744 87.7075 261.375 86.1353L258.823 88.358C259.42 89.0431 259.881 90.3064 259.881 92.4896H263.266ZM261.396 86.1593C260.06 84.5664 258.171 83.8615 256.003 83.8615V87.2457C257.403 87.2457 258.245 87.6694 258.803 88.334L261.396 86.1593ZM256.003 83.8615C254.488 83.8615 253.075 84.2216 251.809 84.9717L253.534 87.8831C254.234 87.4681 255.042 87.2457 256.003 87.2457V83.8615ZM251.85 84.9482C250.527 85.6829 249.534 86.7979 248.855 88.2026L251.901 89.6767C252.313 88.8241 252.849 88.2642 253.493 87.9066L251.85 84.9482ZM248.855 88.2026C248.162 89.6332 247.866 91.3457 247.866 93.2542H251.251C251.251 91.6674 251.501 90.5035 251.901 89.6767L248.855 88.2026ZM247.866 93.2542V108H251.251V93.2542H247.866ZM249.558 106.308H241.039V109.692H249.558V106.308ZM242.731 108V78.6176H239.347V108H242.731ZM241.039 80.3097H249.176V76.9255H241.039V80.3097ZM247.484 78.6176V86.6459H250.868V78.6176H247.484ZM250.594 85.7225L249.065 83.3741L246.229 85.2208L247.758 87.5692L250.594 85.7225ZM249.155 85.0651C250.03 83.346 251.235 82.0936 252.776 81.2478L251.147 78.2812C248.974 79.4744 247.303 81.2439 246.139 83.5298L249.155 85.0651ZM252.786 81.2423C254.4 80.3418 256.259 79.8728 258.406 79.8728V76.4886C255.746 76.4886 253.309 77.0755 251.137 78.2867L252.786 81.2423ZM258.406 79.8728C260.795 79.8728 262.8 80.4807 264.489 81.6482L266.413 78.8639C264.098 77.2643 261.406 76.4886 258.406 76.4886V79.8728ZM264.518 81.6678C266.133 82.7349 267.269 84.4046 267.845 86.8672L271.14 86.0969C270.405 82.9524 268.847 80.4714 266.384 78.8442L264.518 81.6678ZM269.938 84.8495L266.934 84.0303L266.044 87.2953L269.047 88.1145L269.938 84.8495ZM268.044 86.3294C268.889 84.3574 270.223 82.8023 272.085 81.6349L270.287 78.7679C267.852 80.2948 266.055 82.3806 264.934 84.9963L268.044 86.3294ZM272.074 81.6417C273.967 80.4742 276.148 79.8728 278.668 79.8728V76.4886C275.581 76.4886 272.774 77.2343 270.298 78.7611L272.074 81.6417ZM304.813 106.471L304.031 107.971L304.04 107.976L304.813 106.471ZM298.97 101.119L297.521 101.993L297.527 102.003L298.97 101.119ZM298.915 85.499L297.466 84.625L297.462 84.6318L298.915 85.499ZM304.54 80.1468L305.343 81.6366L305.351 81.6319L305.36 81.627L304.54 80.1468ZM320.324 80.0376L319.52 81.5267L319.534 81.5342L319.548 81.5415L320.324 80.0376ZM325.84 85.2805L324.381 86.1375L324.387 86.1477L325.84 85.2805ZM327.806 94.5649L329.491 94.7181L329.492 94.7054L327.806 94.5649ZM327.697 95.7118V97.4039H329.228L329.381 95.8802L327.697 95.7118ZM303.83 95.7118H302.138V97.4039H303.83V95.7118ZM303.83 90.7419V89.0498H302.138V90.7419H303.83ZM323.218 90.7419L323.913 92.285L323.218 89.0498V90.7419ZM319.942 92.2165H318.249V94.8335L320.636 93.7596L319.942 92.2165ZM319.013 88.2297L317.53 89.0433L317.53 89.0433L319.013 88.2297ZM316.446 85.6082L315.576 87.0592L315.594 87.07L315.612 87.0804L316.446 85.6082ZM308.746 85.6082L309.58 87.0804L309.588 87.076L309.595 87.0715L308.746 85.6082ZM306.179 88.2843L307.663 89.0979L307.668 89.0881L307.673 89.0782L306.179 88.2843ZM306.288 97.8964L304.811 98.7218L304.826 98.7479L304.841 98.7734L306.288 97.8964ZM309.292 100.682L308.518 102.186L308.543 102.2L308.569 102.212L309.292 100.682ZM317.975 100.9L317.355 99.3258L317.347 99.3291L317.339 99.3325L317.975 100.9ZM321.252 98.7702L322.496 97.6231L321.324 96.352L320.079 97.5513L321.252 98.7702ZM325.785 103.685L327.055 104.804L328.063 103.66L327.029 102.538L325.785 103.685ZM320.706 107.235L321.325 108.81L321.337 108.806L321.349 108.801L320.706 107.235ZM313.661 106.745C310.535 106.745 307.859 106.134 305.587 104.966L304.04 107.976C306.865 109.429 310.088 110.129 313.661 110.129V106.745ZM305.596 104.971C303.336 103.791 301.625 102.212 300.412 100.234L297.527 102.003C299.082 104.54 301.267 106.529 304.031 107.971L305.596 104.971ZM300.419 100.245C299.208 98.2375 298.587 95.9414 298.587 93.3088H295.202C295.202 96.5017 295.964 99.4122 297.521 101.993L300.419 100.245ZM298.587 93.3088C298.587 90.6268 299.196 88.3304 300.368 86.3661L297.462 84.6318C295.94 87.1823 295.202 90.0924 295.202 93.3088H298.587ZM300.364 86.3729C301.591 84.3396 303.242 82.7678 305.343 81.6366L303.738 78.6569C301.106 80.0744 299.007 82.0708 297.466 84.625L300.364 86.3729ZM305.36 81.627C307.451 80.4693 309.84 79.8728 312.569 79.8728V76.4886C309.327 76.4886 306.363 77.2028 303.721 78.6665L305.36 81.627ZM312.569 79.8728C315.194 79.8728 317.498 80.4354 319.52 81.5267L321.128 78.5485C318.562 77.1639 315.696 76.4886 312.569 76.4886V79.8728ZM319.548 81.5415C321.59 82.5941 323.193 84.1154 324.381 86.1374L327.299 84.4236C325.792 81.8581 323.718 79.8841 321.099 78.5336L319.548 81.5415ZM324.387 86.1477C325.548 88.0938 326.169 90.493 326.169 93.418H329.553C329.553 90.0078 328.826 86.982 327.293 84.4134L324.387 86.1477ZM326.169 93.418C326.169 93.6862 326.154 94.0197 326.12 94.4244L329.492 94.7054C329.531 94.2363 329.553 93.8052 329.553 93.418H326.169ZM326.121 94.4117C326.085 94.8077 326.049 95.1849 326.013 95.5434L329.381 95.8802C329.417 95.5106 329.454 95.1232 329.491 94.7181L326.121 94.4117ZM327.697 94.0197H303.83V97.4039H327.697V94.0197ZM305.523 95.7118V90.7419H302.138V95.7118H305.523ZM303.83 92.434H323.218V89.0498H303.83V92.434ZM322.524 89.1989L319.247 90.6734L320.636 93.7596L323.913 92.285L322.524 89.1989ZM321.634 92.2165C321.634 90.4563 321.276 88.8371 320.497 87.4161L317.53 89.0433C317.988 89.8796 318.249 90.9183 318.249 92.2165H321.634ZM320.497 87.4161C319.731 86.0192 318.653 84.914 317.281 84.136L315.612 87.0804C316.424 87.5403 317.058 88.1828 317.53 89.0433L320.497 87.4161ZM317.317 84.1572C315.926 83.3225 314.342 82.933 312.623 82.933V86.3173C313.818 86.3173 314.782 86.5832 315.576 87.0592L317.317 84.1572ZM312.623 82.933C310.904 82.933 309.312 83.3228 307.896 84.1449L309.595 87.0715C310.437 86.5828 311.43 86.3173 312.623 86.3173V82.933ZM307.911 84.136C306.525 84.922 305.446 86.0562 304.685 87.4904L307.673 89.0782C308.149 88.1822 308.782 87.5324 309.58 87.0804L307.911 84.136ZM304.695 87.4707C303.913 88.8973 303.558 90.5368 303.558 92.3257H306.943C306.943 90.9835 307.207 89.9287 307.663 89.0979L304.695 87.4707ZM303.558 92.3257V93.6365H306.943V92.3257H303.558ZM303.558 93.6365C303.558 95.4894 303.961 97.2003 304.811 98.7218L307.765 97.0709C307.232 96.1166 306.943 94.9876 306.943 93.6365H303.558ZM304.841 98.7734C305.735 100.248 306.971 101.391 308.518 102.186L310.066 99.1769C309.064 98.6616 308.298 97.9479 307.735 97.0194L304.841 98.7734ZM308.569 102.212C310.148 102.957 311.933 103.302 313.879 103.302V99.918C312.331 99.918 311.058 99.6442 310.014 99.1516L308.569 102.212ZM313.879 103.302C315.612 103.302 317.202 103.041 318.612 102.468L317.339 99.3325C316.419 99.7062 315.278 99.918 313.879 99.918V103.302ZM318.596 102.475C320.015 101.915 321.293 101.08 322.426 99.9891L320.079 97.5513C319.246 98.3533 318.339 98.9382 317.355 99.3258L318.596 102.475ZM320.008 99.9174L324.541 104.833L327.029 102.538L322.496 97.6231L320.008 99.9174ZM324.516 102.567C323.354 103.885 321.882 104.923 320.063 105.67L321.349 108.801C323.608 107.873 325.522 106.544 327.055 104.804L324.516 102.567ZM320.087 105.66C318.283 106.369 316.151 106.745 313.661 106.745V110.129C316.487 110.129 319.052 109.703 321.325 108.81L320.087 105.66ZM358.164 79.6006L357.383 81.1019L357.401 81.1112L357.419 81.12L358.164 79.6006ZM362.533 83.8606L361.049 84.6728L361.055 84.6847L362.533 83.8606ZM364.117 108V109.692H365.809V108H364.117ZM355.597 108H353.905V109.692H355.597V108ZM354.013 87.2466L352.757 88.3808L352.767 88.3918L352.777 88.4026L354.013 87.2466ZM345.985 86.4274L346.762 87.9304L346.772 87.9255L346.781 87.9205L345.985 86.4274ZM343.473 88.9943L341.978 88.2004L341.969 88.2189L341.959 88.2375L343.473 88.9943ZM342.599 108V109.692H344.291V108H342.599ZM334.079 108H332.387V109.692H334.079V108ZM334.079 78.6176V76.9255H332.387V78.6176H334.079ZM342.217 78.6176H343.909V76.9255H342.217V78.6176ZM342.217 86.7551L340.78 87.649L343.909 92.6775V86.7551H342.217ZM340.687 84.2975L339.197 83.4969L338.733 84.3598L339.251 85.1914L340.687 84.2975ZM345.22 79.7645L346.021 81.2552L346.021 81.2552L345.22 79.7645ZM351.938 79.8728C354.033 79.8728 355.835 80.2968 357.383 81.1019L358.945 78.0994C356.852 77.0112 354.503 76.4886 351.938 76.4886V79.8728ZM357.419 81.12C358.942 81.8665 360.149 83.0288 361.049 84.6728L364.017 83.0483C362.805 80.8329 361.1 79.1553 358.909 78.0813L357.419 81.12ZM361.055 84.6847C361.927 86.2488 362.425 88.3781 362.425 91.1788H365.809C365.809 88.0085 365.25 85.2589 364.011 83.0364L361.055 84.6847ZM362.425 91.1788V108H365.809V91.1788H362.425ZM364.117 106.308H355.597V109.692H364.117V106.308ZM357.289 108V92.4896H353.905V108H357.289ZM357.289 92.4896C357.289 89.915 356.721 87.6638 355.249 86.0906L352.777 88.4026C353.418 89.0869 353.905 90.331 353.905 92.4896H357.289ZM355.269 86.1124C353.853 84.5447 351.89 83.8615 349.644 83.8615V87.2457C351.185 87.2457 352.135 87.6912 352.757 88.3808L355.269 86.1124ZM349.644 83.8615C348.044 83.8615 346.547 84.2098 345.189 84.9344L346.781 87.9205C347.607 87.4799 348.55 87.2457 349.644 87.2457V83.8615ZM345.207 84.9245C343.813 85.6458 342.74 86.7664 341.978 88.2004L344.967 89.7881C345.443 88.892 346.045 88.3013 346.762 87.9304L345.207 84.9245ZM341.959 88.2375C341.222 89.712 340.907 91.4877 340.907 93.4726H344.291C344.291 91.8167 344.558 90.6068 344.986 89.751L341.959 88.2375ZM340.907 93.4726V108H344.291V93.4726H340.907ZM342.599 106.308H334.079V109.692H342.599V106.308ZM335.771 108V78.6176H332.387V108H335.771ZM334.079 80.3097H342.217V76.9255H334.079V80.3097ZM340.524 78.6176V86.7551H343.909V78.6176H340.524ZM343.653 85.8612L342.124 83.4035L339.251 85.1914L340.78 87.649L343.653 85.8612ZM342.178 85.098C343.077 83.4248 344.348 82.1538 346.021 81.2552L344.42 78.2737C342.161 79.4869 340.41 81.2379 339.197 83.4969L342.178 85.098ZM346.021 81.2552C347.711 80.3474 349.669 79.8728 351.938 79.8728V76.4886C349.182 76.4886 346.662 77.0698 344.42 78.2737L346.021 81.2552ZM376.318 105.815L375.169 107.058L375.176 107.064L375.182 107.07L376.318 105.815ZM373.423 72.1185V70.4264H371.731V72.1185H373.423ZM381.943 72.1185H383.635V70.4264H381.943V72.1185ZM382.926 100.682L381.698 101.845L381.714 101.862L381.73 101.878L382.926 100.682ZM389.043 100.572L390.624 99.9689L389.813 97.8454L388.011 99.2313L389.043 100.572ZM391.337 106.58L392.315 107.961L393.386 107.202L392.918 105.976L391.337 106.58ZM388.169 108L388.568 109.644L388.585 109.64L388.602 109.636L388.169 108ZM368.89 85.8267H367.198V87.5188H368.89V85.8267ZM368.89 79.273V77.5809H367.198V79.273H368.89ZM389.261 79.273H390.954V77.5809H389.261V79.273ZM389.261 85.8267V87.5188H390.954V85.8267H389.261ZM384.401 106.745C381.221 106.745 378.982 105.945 377.454 104.561L375.182 107.07C377.513 109.181 380.663 110.129 384.401 110.129V106.745ZM377.467 104.573C375.987 103.205 375.115 101.083 375.115 97.8964H371.731C371.731 101.7 372.789 104.858 375.169 107.058L377.467 104.573ZM375.115 97.8964V72.1185H371.731V97.8964H375.115ZM373.423 73.8106H381.943V70.4264H373.423V73.8106ZM380.251 72.1185V97.7872H383.635V72.1185H380.251ZM380.251 97.7872C380.251 99.3241 380.664 100.754 381.698 101.845L384.155 99.518C383.878 99.2258 383.635 98.726 383.635 97.7872H380.251ZM381.73 101.878C382.769 102.918 384.129 103.357 385.602 103.357V99.9726C384.818 99.9726 384.394 99.7565 384.123 99.4852L381.73 101.878ZM385.602 103.357C387.272 103.357 388.795 102.898 390.075 101.914L388.011 99.2313C387.398 99.7031 386.626 99.9726 385.602 99.9726V103.357ZM387.462 101.176L389.756 107.184L392.918 105.976L390.624 99.9689L387.462 101.176ZM390.359 105.199C389.679 105.681 388.816 106.078 387.736 106.364L388.602 109.636C389.998 109.266 391.247 108.717 392.315 107.961L390.359 105.199ZM387.771 106.356C386.707 106.613 385.585 106.745 384.401 106.745V110.129C385.838 110.129 387.228 109.969 388.568 109.644L387.771 106.356ZM370.582 85.8267V79.273H367.198V85.8267H370.582ZM368.89 80.9651H389.261V77.5809H368.89V80.9651ZM387.569 79.273V85.8267H390.954V79.273H387.569ZM389.261 84.1345H368.89V87.5188H389.261V84.1345Z" fill="#005669" mask="url(#path-1-outside-1_25_153)"/>
</svg>
