<svg width="815" height="165" viewBox="0 0 815 165" fill="none" xmlns="http://www.w3.org/2000/svg">
<path d="M51.75 162V33.0788H0.907895V3.11829H139.362V33.0788H88.5198V162H51.75ZM238.64 164.724C226.081 164.724 214.429 162.681 203.686 158.595C193.094 154.51 183.864 148.76 175.995 141.345C168.278 133.931 162.225 125.23 157.837 115.243C153.6 105.257 151.482 94.3618 151.482 82.5591C151.482 70.7565 153.6 59.8618 157.837 49.8749C162.225 39.8881 168.354 31.1874 176.222 23.7729C184.091 16.3584 193.321 10.6084 203.913 6.52289C214.505 2.43737 226.005 0.394608 238.413 0.394608C250.972 0.394608 262.472 2.43737 272.913 6.52289C283.505 10.6084 292.66 16.3584 300.377 23.7729C308.245 31.1874 314.374 39.8881 318.762 49.8749C323.15 59.7104 325.344 70.6052 325.344 82.5591C325.344 94.3618 323.15 105.332 318.762 115.47C314.374 125.457 308.245 134.158 300.377 141.572C292.66 148.836 283.505 154.51 272.913 158.595C262.472 162.681 251.048 164.724 238.64 164.724ZM238.413 133.401C245.525 133.401 252.031 132.191 257.933 129.77C263.985 127.349 269.281 123.868 273.821 119.329C278.36 114.789 281.841 109.418 284.262 103.214C286.834 97.0098 288.12 90.1249 288.12 82.5591C288.12 74.9934 286.834 68.1085 284.262 61.9045C281.841 55.7006 278.36 50.3289 273.821 45.7894C269.433 41.2499 264.212 37.7696 258.16 35.3486C252.107 32.9275 245.525 31.717 238.413 31.717C231.301 31.717 224.719 32.9275 218.666 35.3486C212.765 37.7696 207.545 41.2499 203.005 45.7894C198.466 50.3289 194.91 55.7006 192.337 61.9045C189.916 68.1085 188.706 74.9934 188.706 82.5591C188.706 89.9736 189.916 96.8585 192.337 103.214C194.91 109.418 198.39 114.789 202.778 119.329C207.318 123.868 212.614 127.349 218.666 129.77C224.719 132.191 231.301 133.401 238.413 133.401ZM434.689 164.724C422.129 164.724 410.478 162.681 399.735 158.595C389.143 154.51 379.912 148.76 372.044 141.345C364.327 133.931 358.274 125.23 353.886 115.243C349.649 105.257 347.531 94.3618 347.531 82.5591C347.531 70.7565 349.649 59.8618 353.886 49.8749C358.274 39.8881 364.402 31.1874 372.271 23.7729C380.139 16.3584 389.37 10.6084 399.962 6.52289C410.554 2.43737 422.054 0.394608 434.462 0.394608C447.021 0.394608 458.521 2.43737 468.962 6.52289C479.554 10.6084 488.708 16.3584 496.426 23.7729C504.294 31.1874 510.422 39.8881 514.81 49.8749C519.199 59.7104 521.393 70.6052 521.393 82.5591C521.393 94.3618 519.199 105.332 514.81 115.47C510.422 125.457 504.294 134.158 496.426 141.572C488.708 148.836 479.554 154.51 468.962 158.595C458.521 162.681 447.097 164.724 434.689 164.724ZM434.462 133.401C441.574 133.401 448.08 132.191 453.981 129.77C460.034 127.349 465.33 123.868 469.87 119.329C474.409 114.789 477.889 109.418 480.31 103.214C482.883 97.0098 484.169 90.1249 484.169 82.5591C484.169 74.9934 482.883 68.1085 480.31 61.9045C477.889 55.7006 474.409 50.3289 469.87 45.7894C465.481 41.2499 460.261 37.7696 454.208 35.3486C448.156 32.9275 441.574 31.717 434.462 31.717C427.35 31.717 420.768 32.9275 414.715 35.3486C408.814 37.7696 403.593 41.2499 399.054 45.7894C394.514 50.3289 390.958 55.7006 388.386 61.9045C385.965 68.1085 384.754 74.9934 384.754 82.5591C384.754 89.9736 385.965 96.8585 388.386 103.214C390.958 109.418 394.439 114.789 398.827 119.329C403.366 123.868 408.662 127.349 414.715 129.77C420.768 132.191 427.35 133.401 434.462 133.401ZM553.566 162V3.11829H590.336V132.039H670.004V162H553.566ZM746.627 164.724C733.916 164.724 721.736 163.059 710.084 159.73C698.433 156.25 689.051 151.786 681.939 146.339L694.423 118.648C701.232 123.49 709.252 127.5 718.482 130.678C727.864 133.704 737.321 135.217 746.854 135.217C754.117 135.217 759.943 134.536 764.331 133.174C768.87 131.661 772.199 129.618 774.318 127.046C776.436 124.474 777.495 121.523 777.495 118.194C777.495 113.957 775.831 110.628 772.502 108.207C769.173 105.635 764.785 103.592 759.338 102.079C753.89 100.414 747.838 98.9013 741.18 97.5394C734.673 96.0263 728.091 94.2105 721.433 92.092C714.926 89.9736 708.949 87.2499 703.502 83.921C698.055 80.592 693.591 76.2039 690.11 70.7565C686.782 65.3091 685.117 58.3486 685.117 49.8749C685.117 40.796 687.538 32.5492 692.38 25.1348C697.374 17.569 704.788 11.592 714.624 7.20382C724.611 2.66434 737.094 0.394608 752.074 0.394608C762.061 0.394608 771.897 1.60513 781.581 4.02618C791.265 6.29592 799.815 9.77619 807.229 14.467L795.88 42.3848C788.466 38.1479 781.051 35.046 773.637 33.0788C766.222 30.9604 758.959 29.9012 751.847 29.9012C744.736 29.9012 738.91 30.7334 734.37 32.3979C729.831 34.0624 726.578 36.2565 724.611 38.9802C722.643 41.5525 721.66 44.5788 721.66 48.0591C721.66 52.1446 723.324 55.4736 726.653 58.046C729.982 60.467 734.37 62.4341 739.818 63.9473C745.265 65.4604 751.242 66.9736 757.749 68.4868C764.407 69.9999 770.989 71.7401 777.495 73.7072C784.153 75.6743 790.206 78.3223 795.653 81.6513C801.101 84.9802 805.489 89.3684 808.818 94.8157C812.298 100.263 814.038 107.148 814.038 115.47C814.038 124.398 811.542 132.569 806.548 139.984C801.555 147.398 794.065 153.375 784.078 157.914C774.242 162.454 761.759 164.724 746.627 164.724Z" fill="white"/>
</svg>
